<svg width="26" height="23" viewBox="0 0 26 23" fill="none" xmlns="http://www.w3.org/2000/svg">
<path d="M5.64379 7.75726C7.39079 6.25726 8.77079 5.07126 12.5158 7.18726C14.3148 8.20326 15.7658 8.58726 16.9728 8.58526C19.0878 8.58526 20.4588 7.40926 21.6438 6.39226C21.8472 6.21532 21.9737 5.96612 21.9965 5.69749C22.0192 5.42886 21.9365 5.16192 21.7658 4.95326C21.6825 4.85087 21.5796 4.76622 21.463 4.70431C21.3464 4.64241 21.2187 4.60451 21.0872 4.59285C20.9557 4.5812 20.8233 4.59603 20.6976 4.63646C20.572 4.6769 20.4558 4.74211 20.3558 4.82826C18.6098 6.33026 17.2288 7.51626 13.4838 5.39826C8.53579 2.60526 6.21779 4.59526 4.35579 6.19526C4.15254 6.37234 4.02624 6.62161 4.00365 6.89024C3.98106 7.15886 4.06397 7.42572 4.23479 7.63426C4.31811 7.73648 4.42109 7.82094 4.53764 7.88265C4.65418 7.94436 4.78192 7.98207 4.91329 7.99354C5.04467 8.00501 5.17701 7.99 5.30248 7.94942C5.42796 7.90884 5.54402 7.84349 5.64379 7.75726ZM20.3558 9.93526C18.6098 11.4353 17.2288 12.6233 13.4838 10.5053C8.53579 7.71026 6.21779 9.70126 4.35579 11.3003C4.15254 11.4773 4.02624 11.7266 4.00365 11.9952C3.98106 12.2639 4.06397 12.5307 4.23479 12.7393C4.31797 12.8416 4.42084 12.9263 4.53731 12.9881C4.65378 13.05 4.78149 13.0879 4.91287 13.0996C5.04425 13.1112 5.17663 13.0964 5.30218 13.056C5.42773 13.0156 5.54389 12.9504 5.64379 12.8643C7.39079 11.3633 8.77079 10.1773 12.5158 12.2923C14.3148 13.3103 15.7658 13.6923 16.9728 13.6923C19.0878 13.6923 20.4588 12.5163 21.6438 11.4973C21.8473 11.3206 21.974 11.0716 21.9968 10.803C22.0195 10.5345 21.9367 10.2677 21.7658 10.0593C21.6825 9.95682 21.5796 9.87215 21.463 9.81025C21.3464 9.74836 21.2185 9.71051 21.087 9.69894C20.9555 9.68738 20.823 9.70234 20.6974 9.74293C20.5718 9.78353 20.4556 9.84893 20.3558 9.93526ZM20.3558 15.0413C18.6098 16.5433 17.2288 17.7293 13.4838 15.6133C8.53579 12.8183 6.21779 14.8083 4.35579 16.4083C4.15254 16.5853 4.02624 16.8346 4.00365 17.1032C3.98106 17.3719 4.06397 17.6387 4.23479 17.8473C4.31803 17.9496 4.42098 18.0342 4.53752 18.096C4.65407 18.1577 4.78184 18.1955 4.91326 18.207C5.04467 18.2184 5.17705 18.2034 5.30254 18.1627C5.42803 18.1221 5.54408 18.0566 5.64379 17.9703C7.39079 16.4703 8.77079 15.2853 12.5158 17.4003C14.3148 18.4163 15.7658 18.8003 16.9728 18.8003C19.0878 18.8003 20.4588 17.6223 21.6438 16.6053C21.8472 16.4283 21.9737 16.1791 21.9965 15.9105C22.0192 15.6419 21.9365 15.3749 21.7658 15.1663C21.6824 15.064 21.5794 14.9794 21.4629 14.9176C21.3463 14.8558 21.2186 14.8179 21.0872 14.8063C20.9557 14.7946 20.8233 14.8094 20.6977 14.8498C20.5721 14.8901 20.4558 14.9552 20.3558 15.0413Z" fill="white"/>
</svg>
