<svg width="171" height="48" viewBox="0 0 171 48" fill="none" xmlns="http://www.w3.org/2000/svg">
<path d="M4.15 15.4H19.2C20.4757 15.4 21.7227 15.0217 22.7834 14.313C23.8441 13.6042 24.6708 12.5969 25.159 11.4183C25.6472 10.2397 25.7749 8.94285 25.5261 7.69167C25.2772 6.44049 24.6629 5.29121 23.7608 4.38916C22.8588 3.48712 21.7095 2.87281 20.4583 2.62394C19.2072 2.37506 17.9103 2.50279 16.7317 2.99098C15.5531 3.47916 14.5458 4.30588 13.837 5.36657C13.1283 6.42727 12.75 7.67431 12.75 8.95M6.3 32.6H29.95C31.2257 32.6 32.4727 32.9783 33.5334 33.687C34.5941 34.3958 35.4208 35.4031 35.909 36.5817C36.3972 37.7603 36.5249 39.0572 36.2761 40.3083C36.0272 41.5595 35.4129 42.7088 34.5108 43.6108C33.6088 44.5129 32.4595 45.1272 31.2083 45.3761C29.9572 45.6249 28.6603 45.4972 27.4817 45.009C26.3031 44.5208 25.2958 43.6941 24.587 42.6334C23.8783 41.5727 23.5 40.3257 23.5 39.05M2 24H38.55C39.8257 24 41.0727 23.6217 42.1334 22.913C43.1941 22.2042 44.0208 21.1969 44.509 20.0183C44.9972 18.8397 45.1249 17.5428 44.8761 16.2917C44.6272 15.0405 44.0129 13.8912 43.1108 12.9892C42.2088 12.0871 41.0595 11.4728 39.8083 11.2239C38.5572 10.9751 37.2603 11.1028 36.0817 11.591C34.9031 12.0792 33.8958 12.9059 33.187 13.9666C32.4783 15.0273 32.1 16.2743 32.1 17.55" stroke="white" stroke-width="4" stroke-linecap="round" stroke-linejoin="round"/>
<path d="M75.972 30.528H68.636L67.46 34H62.448L69.56 14.344H75.104L82.216 34H77.148L75.972 30.528ZM74.74 26.832L72.304 19.636L69.896 26.832H74.74ZM86.7885 16.752C85.9485 16.752 85.2579 16.5093 84.7165 16.024C84.1939 15.52 83.9325 14.904 83.9325 14.176C83.9325 13.4293 84.1939 12.8133 84.7165 12.328C85.2579 11.824 85.9485 11.572 86.7885 11.572C87.6099 11.572 88.2819 11.824 88.8045 12.328C89.3459 12.8133 89.6165 13.4293 89.6165 14.176C89.6165 14.904 89.3459 15.52 88.8045 16.024C88.2819 16.5093 87.6099 16.752 86.7885 16.752ZM89.1685 18.376V34H84.3805V18.376H89.1685ZM97.4263 20.98C97.9863 20.1213 98.6863 19.4493 99.5263 18.964C100.366 18.46 101.3 18.208 102.326 18.208V23.276H101.01C99.8157 23.276 98.9197 23.5373 98.3223 24.06C97.725 24.564 97.4263 25.46 97.4263 26.748V34H92.6383V18.376H97.4263V20.98ZM130.319 14.54L124.551 34H120.939L116.851 19.272L112.511 34L108.927 34.028L103.411 14.54H106.799L110.831 30.388L115.199 14.54H118.783L122.843 30.304L126.903 14.54H130.319ZM134.576 16.528C133.997 16.528 133.512 16.332 133.12 15.94C132.728 15.548 132.532 15.0627 132.532 14.484C132.532 13.9053 132.728 13.42 133.12 13.028C133.512 12.636 133.997 12.44 134.576 12.44C135.136 12.44 135.612 12.636 136.004 13.028C136.396 13.42 136.592 13.9053 136.592 14.484C136.592 15.0627 136.396 15.548 136.004 15.94C135.612 16.332 135.136 16.528 134.576 16.528ZM136.144 18.572V34H132.952V18.572H136.144ZM145.934 34.252C144.721 34.252 143.629 34.0373 142.658 33.608C141.706 33.16 140.95 32.5627 140.39 31.816C139.83 31.0507 139.532 30.2013 139.494 29.268H142.798C142.854 29.9213 143.162 30.472 143.722 30.92C144.301 31.3493 145.02 31.564 145.878 31.564C146.774 31.564 147.465 31.396 147.95 31.06C148.454 30.7053 148.706 30.2573 148.706 29.716C148.706 29.1373 148.426 28.708 147.866 28.428C147.325 28.148 146.457 27.84 145.262 27.504C144.105 27.1867 143.162 26.8787 142.434 26.58C141.706 26.2813 141.072 25.824 140.53 25.208C140.008 24.592 139.746 23.78 139.746 22.772C139.746 21.9507 139.989 21.204 140.474 20.532C140.96 19.8413 141.65 19.3 142.546 18.908C143.461 18.516 144.506 18.32 145.682 18.32C147.437 18.32 148.846 18.768 149.91 19.664C150.993 20.5413 151.572 21.7453 151.646 23.276H148.454C148.398 22.5853 148.118 22.0347 147.614 21.624C147.11 21.2133 146.429 21.008 145.57 21.008C144.73 21.008 144.086 21.1667 143.638 21.484C143.19 21.8013 142.966 22.2213 142.966 22.744C142.966 23.1547 143.116 23.5 143.414 23.78C143.713 24.06 144.077 24.284 144.506 24.452C144.936 24.6013 145.57 24.7973 146.41 25.04C147.53 25.3387 148.445 25.6467 149.154 25.964C149.882 26.2627 150.508 26.7107 151.03 27.308C151.553 27.9053 151.824 28.6987 151.842 29.688C151.842 30.5653 151.6 31.3493 151.114 32.04C150.629 32.7307 149.938 33.272 149.042 33.664C148.165 34.056 147.129 34.252 145.934 34.252ZM169.431 25.908C169.431 26.4867 169.394 27.0093 169.319 27.476H157.531C157.625 28.708 158.082 29.6973 158.903 30.444C159.725 31.1907 160.733 31.564 161.927 31.564C163.645 31.564 164.858 30.8453 165.567 29.408H169.011C168.545 30.8267 167.695 31.9933 166.463 32.908C165.25 33.804 163.738 34.252 161.927 34.252C160.453 34.252 159.127 33.9253 157.951 33.272C156.794 32.6 155.879 31.6667 155.207 30.472C154.554 29.2587 154.227 27.8587 154.227 26.272C154.227 24.6853 154.545 23.2947 155.179 22.1C155.833 20.8867 156.738 19.9533 157.895 19.3C159.071 18.6467 160.415 18.32 161.927 18.32C163.383 18.32 164.681 18.6373 165.819 19.272C166.958 19.9067 167.845 20.8027 168.479 21.96C169.114 23.0987 169.431 24.4147 169.431 25.908ZM166.099 24.9C166.081 23.724 165.661 22.7813 164.839 22.072C164.018 21.3627 163.001 21.008 161.787 21.008C160.686 21.008 159.743 21.3627 158.959 22.072C158.175 22.7627 157.709 23.7053 157.559 24.9H166.099Z" fill="white"/>
</svg>
