<svg width="167" height="48" viewBox="0 0 167 48" fill="none" xmlns="http://www.w3.org/2000/svg">
<path d="M4.65 15.4H19.7C20.9757 15.4 22.2227 15.0217 23.2834 14.313C24.3441 13.6042 25.1708 12.5969 25.659 11.4183C26.1472 10.2397 26.2749 8.94285 26.0261 7.69167C25.7772 6.44049 25.1629 5.29121 24.2608 4.38916C23.3588 3.48712 22.2095 2.87281 20.9583 2.62394C19.7072 2.37506 18.4103 2.50279 17.2317 2.99098C16.0531 3.47916 15.0458 4.30588 14.337 5.36657C13.6283 6.42727 13.25 7.67431 13.25 8.95M6.8 32.6H30.45C31.7257 32.6 32.9727 32.9783 34.0334 33.687C35.0941 34.3958 35.9208 35.4031 36.409 36.5817C36.8972 37.7603 37.0249 39.0572 36.7761 40.3083C36.5272 41.5595 35.9129 42.7088 35.0108 43.6108C34.1088 44.5129 32.9595 45.1272 31.7083 45.3761C30.4572 45.6249 29.1603 45.4972 27.9817 45.009C26.8031 44.5208 25.7958 43.6941 25.087 42.6334C24.3783 41.5727 24 40.3257 24 39.05M2.5 24H39.05C40.3257 24 41.5727 23.6217 42.6334 22.913C43.6941 22.2042 44.5208 21.1969 45.009 20.0183C45.4972 18.8397 45.6249 17.5428 45.3761 16.2917C45.1272 15.0405 44.5129 13.8912 43.6108 12.9892C42.7088 12.0871 41.5595 11.4728 40.3083 11.2239C39.0572 10.9751 37.7603 11.1028 36.5817 11.591C35.4031 12.0792 34.3958 12.9059 33.687 13.9666C32.9783 15.0273 32.6 16.2743 32.6 17.55" stroke="#562EFF" stroke-width="4" stroke-linecap="round" stroke-linejoin="round"/>
<path d="M66.4574 34H63.196L70.5241 13.6364H74.0739L81.402 34H78.1406L72.3835 17.3352H72.2244L66.4574 34ZM67.0043 26.0256H77.5838V28.6108H67.0043V26.0256ZM84.2408 34V18.7273H87.2138V34H84.2408ZM85.7422 16.3707C85.2251 16.3707 84.781 16.1984 84.4098 15.8537C84.0452 15.5024 83.8629 15.0848 83.8629 14.6009C83.8629 14.1103 84.0452 13.6927 84.4098 13.348C84.781 12.9967 85.2251 12.821 85.7422 12.821C86.2592 12.821 86.7 12.9967 87.0646 13.348C87.4358 13.6927 87.6214 14.1103 87.6214 14.6009C87.6214 15.0848 87.4358 15.5024 87.0646 15.8537C86.7 16.1984 86.2592 16.3707 85.7422 16.3707ZM91.2134 34V18.7273H94.087V21.1534H94.2461C94.5245 20.3314 95.015 19.6851 95.7177 19.2145C96.427 18.7372 97.229 18.4986 98.1239 18.4986C98.3095 18.4986 98.5283 18.5052 98.7802 18.5185C99.0387 18.5317 99.2409 18.5483 99.3867 18.5682V21.4119C99.2674 21.3788 99.0553 21.3423 98.7504 21.3026C98.4454 21.2562 98.1405 21.233 97.8356 21.233C97.1329 21.233 96.5065 21.3821 95.9563 21.6804C95.4128 21.9721 94.9819 22.3797 94.6637 22.9034C94.3455 23.4205 94.1864 24.0104 94.1864 24.6733V34H91.2134Z" fill="#562EFF"/>
<path d="M106.185 34L100.538 13.6364H103.769L107.737 29.4062H107.925L112.052 13.6364H115.254L119.38 29.4162H119.569L123.526 13.6364H126.768L121.11 34H118.018L113.732 18.7472H113.573L109.288 34H106.185ZM129.331 34V18.7273H132.304V34H129.331ZM130.832 16.3707C130.315 16.3707 129.871 16.1984 129.5 15.8537C129.135 15.5024 128.953 15.0848 128.953 14.6009C128.953 14.1103 129.135 13.6927 129.5 13.348C129.871 12.9967 130.315 12.821 130.832 12.821C131.349 12.821 131.79 12.9967 132.154 13.348C132.526 13.6927 132.711 14.1103 132.711 14.6009C132.711 15.0848 132.526 15.5024 132.154 15.8537C131.79 16.1984 131.349 16.3707 130.832 16.3707ZM147.748 22.456L145.053 22.9332C144.941 22.5885 144.762 22.2604 144.516 21.9489C144.278 21.6373 143.953 21.3821 143.542 21.1832C143.131 20.9844 142.617 20.8849 142.001 20.8849C141.159 20.8849 140.456 21.0739 139.893 21.4517C139.329 21.8229 139.048 22.3035 139.048 22.8935C139.048 23.4039 139.237 23.8149 139.614 24.1264C139.992 24.438 140.602 24.6932 141.444 24.892L143.87 25.4489C145.275 25.7737 146.323 26.2741 147.012 26.9503C147.701 27.6264 148.046 28.5047 148.046 29.5852C148.046 30.5 147.781 31.3153 147.251 32.0312C146.727 32.7405 145.995 33.2973 145.053 33.7017C144.119 34.1061 143.035 34.3082 141.802 34.3082C140.092 34.3082 138.696 33.9437 137.616 33.2145C136.535 32.4787 135.872 31.4347 135.627 30.0824L138.501 29.6449C138.68 30.3939 139.048 30.9607 139.604 31.3452C140.161 31.723 140.887 31.9119 141.782 31.9119C142.756 31.9119 143.535 31.7098 144.119 31.3054C144.702 30.8944 144.994 30.3939 144.994 29.804C144.994 29.3267 144.815 28.9257 144.457 28.6009C144.105 28.276 143.565 28.0308 142.836 27.8651L140.251 27.2983C138.826 26.9735 137.772 26.4564 137.089 25.7472C136.413 25.0379 136.075 24.1397 136.075 23.0526C136.075 22.151 136.326 21.3622 136.83 20.6861C137.334 20.0099 138.03 19.483 138.918 19.1051C139.807 18.7206 140.824 18.5284 141.971 18.5284C143.621 18.5284 144.921 18.8864 145.869 19.6023C146.817 20.3116 147.443 21.2628 147.748 22.456ZM157.897 34.3082C156.393 34.3082 155.097 33.9867 154.01 33.3438C152.929 32.6941 152.094 31.7827 151.504 30.6094C150.921 29.4295 150.629 28.0473 150.629 26.4631C150.629 24.8987 150.921 23.5199 151.504 22.3267C152.094 21.1335 152.916 20.2022 153.97 19.5327C155.03 18.8632 156.27 18.5284 157.689 18.5284C158.55 18.5284 159.386 18.6709 160.194 18.956C161.003 19.241 161.729 19.6884 162.372 20.2983C163.015 20.9081 163.522 21.7003 163.893 22.6747C164.264 23.6425 164.45 24.8191 164.45 26.2045V27.2585H152.309V25.0312H161.537C161.537 24.2491 161.377 23.5563 161.059 22.9531C160.741 22.3433 160.294 21.8627 159.717 21.5114C159.147 21.16 158.477 20.9844 157.708 20.9844C156.873 20.9844 156.144 21.1899 155.521 21.6009C154.904 22.0052 154.427 22.5355 154.089 23.1918C153.758 23.8414 153.592 24.5473 153.592 25.3097V27.0497C153.592 28.0705 153.771 28.9389 154.129 29.6548C154.493 30.3707 155.001 30.9176 155.65 31.2955C156.3 31.6667 157.059 31.8523 157.927 31.8523C158.491 31.8523 159.004 31.7727 159.468 31.6136C159.932 31.4479 160.333 31.2027 160.672 30.8778C161.01 30.553 161.268 30.152 161.447 29.6747L164.261 30.1818C164.036 31.0104 163.631 31.7363 163.048 32.3594C162.471 32.9759 161.745 33.4564 160.87 33.8011C160.002 34.1392 159.011 34.3082 157.897 34.3082Z" fill="#141233"/>
</svg>
