<svg width="41" height="40" viewBox="0 0 41 40" fill="none" xmlns="http://www.w3.org/2000/svg">
<g clip-path="url(#clip0_1_395)">
<circle cx="20.5" cy="20" r="19" fill="#140F18" stroke="#9747FF" stroke-width="2"/>
<path d="M22.2734 13C21.3066 13 20.3794 13.3738 19.6958 14.0392C19.0121 14.7045 18.6281 15.607 18.6281 16.5479V18.5233H16.6773C16.5796 18.5233 16.5 18.6 16.5 18.6959V21.3041C16.5 21.3992 16.5788 21.4767 16.6773 21.4767H18.6281V26.8274C18.6281 26.9225 18.7069 27 18.8054 27H21.4852C21.583 27 21.6626 26.9233 21.6626 26.8274V21.4767H23.6306C23.7118 21.4767 23.7828 21.423 23.8025 21.3463L24.4724 18.7381C24.479 18.7126 24.4795 18.6861 24.474 18.6604C24.4684 18.6347 24.457 18.6106 24.4404 18.5899C24.4238 18.5691 24.4026 18.5524 24.3784 18.5408C24.3542 18.5293 24.3276 18.5233 24.3006 18.5233H21.6626V16.5479C21.6626 16.4699 21.6784 16.3926 21.7091 16.3204C21.7398 16.2483 21.7848 16.1828 21.8415 16.1276C21.8982 16.0723 21.9655 16.0286 22.0396 15.9987C22.1138 15.9688 22.1932 15.9534 22.2734 15.9534H24.3227C24.4204 15.9534 24.5 15.8767 24.5 15.7808V13.1726C24.5 13.0775 24.4212 13 24.3227 13H22.2734Z" fill="#9747FF"/>
</g>
<defs>
<clipPath id="clip0_1_395">
<rect width="40" height="40" fill="white" transform="translate(0.5)"/>
</clipPath>
</defs>
</svg>
