<svg width="20" height="20" viewBox="0 0 20 20" fill="none" xmlns="http://www.w3.org/2000/svg">
<g clip-path="url(#clip0_1091_920)">
<path d="M16.4258 17.9902H14.0508C13.7361 17.9893 13.4346 17.8639 13.2121 17.6414C12.9896 17.4189 12.8642 17.1174 12.8633 16.8027V12.6465C12.5486 12.6455 12.2471 12.5201 12.0246 12.2976C11.8021 12.0751 11.6767 11.7736 11.6758 11.459V7.89649C11.6714 7.66137 11.7145 7.42779 11.8025 7.20972C11.8905 6.99164 12.0215 6.79354 12.1878 6.62726C12.3541 6.46098 12.5522 6.32994 12.7703 6.24196C12.9883 6.15399 13.2219 6.11088 13.457 6.11524H17.0195C17.2546 6.11088 17.4882 6.15399 17.7063 6.24196C17.9244 6.32994 18.1225 6.46098 18.2888 6.62726C18.455 6.79354 18.5861 6.99164 18.6741 7.20972C18.762 7.42779 18.8051 7.66137 18.8008 7.89649V11.459C18.7998 11.7736 18.6744 12.0751 18.4519 12.2976C18.2294 12.5201 17.9279 12.6455 17.6133 12.6465V16.8027C17.6123 17.1174 17.4869 17.4189 17.2644 17.6414C17.0419 17.8639 16.7404 17.9893 16.4258 17.9902ZM13.457 7.30274C13.3778 7.29797 13.2985 7.31007 13.2243 7.33822C13.1501 7.36638 13.0827 7.40995 13.0266 7.46607C12.9705 7.52218 12.9269 7.58956 12.8988 7.66375C12.8706 7.73795 12.8585 7.81727 12.8633 7.89649V11.459H14.0508V16.8027H16.4258V11.459H17.6133V7.89649C17.618 7.81727 17.606 7.73795 17.5778 7.66375C17.5496 7.58956 17.5061 7.52218 17.45 7.46607C17.3938 7.40995 17.3265 7.36638 17.2523 7.33822C17.1781 7.31007 17.0987 7.29797 17.0195 7.30274H13.457ZM15.2383 5.52149C14.7686 5.52149 14.3094 5.38219 13.9188 5.12123C13.5282 4.86026 13.2238 4.48933 13.0441 4.05536C12.8643 3.62138 12.8173 3.14385 12.9089 2.68315C13.0006 2.22244 13.2268 1.79926 13.5589 1.46711C13.8911 1.13496 14.3142 0.90876 14.7749 0.81712C15.2357 0.725481 15.7132 0.772513 16.1472 0.952272C16.5811 1.13203 16.9521 1.43644 17.213 1.82701C17.474 2.21757 17.6133 2.67675 17.6133 3.14649C17.6114 3.7758 17.3606 4.3788 16.9156 4.82379C16.4706 5.26878 15.8676 5.51961 15.2383 5.52149ZM15.2383 1.95899C15.0034 1.95899 14.7738 2.02863 14.5785 2.15912C14.3833 2.2896 14.2311 2.47506 14.1412 2.69205C14.0513 2.90904 14.0278 3.1478 14.0736 3.37816C14.1194 3.60851 14.2325 3.8201 14.3986 3.98617C14.5647 4.15225 14.7763 4.26535 15.0066 4.31117C15.237 4.35699 15.4757 4.33347 15.6927 4.24359C15.9097 4.15371 16.0952 4.00151 16.2257 3.80623C16.3561 3.61094 16.4258 3.38135 16.4258 3.14649C16.4248 2.83183 16.2994 2.53033 16.0769 2.30783C15.8544 2.08534 15.5529 1.95993 15.2383 1.95899ZM6.92578 12.162V7.30274H5.73828V12.162C5.34213 12.302 5.00824 12.5777 4.79563 12.9401C4.58302 13.3025 4.50538 13.7284 4.57644 14.1426C4.64749 14.5567 4.86266 14.9324 5.18392 15.2032C5.50518 15.4741 5.91185 15.6226 6.33203 15.6226C6.75222 15.6226 7.15889 15.4741 7.48015 15.2032C7.8014 14.9324 8.01658 14.5567 8.08763 14.1426C8.15869 13.7284 8.08105 13.3025 7.86844 12.9401C7.65583 12.5777 7.32194 12.302 6.92578 12.162Z" fill="#868689"/>
<path d="M6.33255 17.9902C5.51435 17.9912 4.71411 17.7503 4.03232 17.298C3.35054 16.8456 2.8176 16.2019 2.50043 15.4477C2.18326 14.6934 2.096 13.8623 2.24961 13.0587C2.40321 12.255 2.79083 11.5146 3.3638 10.9305V4.33398C3.3638 3.54662 3.67658 2.79151 4.23332 2.23476C4.79007 1.67801 5.54519 1.36523 6.33255 1.36523C7.11991 1.36523 7.87502 1.67801 8.43177 2.23476C8.98852 2.79151 9.3013 3.54662 9.3013 4.33398V10.9305C9.87426 11.5146 10.2619 12.255 10.4155 13.0587C10.5691 13.8623 10.4818 14.6934 10.1647 15.4477C9.84749 16.2019 9.31456 16.8456 8.63277 17.298C7.95099 17.7503 7.15075 17.9912 6.33255 17.9902ZM6.33255 2.55273C5.86028 2.55321 5.40748 2.74102 5.07353 3.07497C4.73959 3.40892 4.55177 3.86171 4.5513 4.33398V11.4489L4.35417 11.6264C3.90582 12.0272 3.58973 12.5546 3.44774 13.1389C3.30575 13.7233 3.34456 14.3369 3.55903 14.8987C3.7735 15.4605 4.15352 15.9439 4.64879 16.285C5.14405 16.626 5.73121 16.8087 6.33255 16.8087C6.93388 16.8087 7.52104 16.626 8.01631 16.285C8.51157 15.9439 8.89159 15.4605 9.10606 14.8987C9.32053 14.3369 9.35934 13.7233 9.21735 13.1389C9.07537 12.5546 8.75928 12.0272 8.31092 11.6264L8.1138 11.4489V4.33398C8.11333 3.86171 7.92551 3.40892 7.59156 3.07497C7.25761 2.74102 6.80482 2.55321 6.33255 2.55273Z" fill="#868689"/>
</g>
<defs>
<clipPath id="clip0_1091_920">
<rect width="19" height="19" fill="white" transform="translate(0.988281 0.177734)"/>
</clipPath>
</defs>
</svg>
