<svg width="472" height="304" viewBox="0 0 472 304" fill="none" xmlns="http://www.w3.org/2000/svg">
<g filter="url(#filter0_d_195_98)">
<rect x="60" y="60" width="352" height="183.652" rx="10" fill="white"/>
<rect x="60" y="60" width="352" height="183.652" rx="10" fill="url(#paint0_linear_195_98)"/>
</g>
<path opacity="0.2" d="M92.1532 108.006C91.3719 107.782 90.5906 107.667 89.8305 107.667C88.6569 107.667 87.6775 107.936 86.9182 108.264C87.6502 105.584 89.4089 100.96 92.9122 100.439C93.2367 100.39 93.5026 100.156 93.5911 99.8401L94.3568 97.1015C94.4213 96.8698 94.3831 96.6219 94.251 96.4209C94.1189 96.22 93.9066 96.0859 93.6686 96.0532C93.4101 96.018 93.1465 96 92.8853 96C88.6802 96 84.5156 100.389 82.7583 106.674C81.7267 110.361 81.4242 115.904 83.9652 119.393C85.3871 121.345 87.4616 122.388 90.131 122.492C90.142 122.492 90.1526 122.493 90.1636 122.493C93.4573 122.493 96.378 120.274 97.2665 117.099C97.7972 115.201 97.5573 113.21 96.5903 111.492C95.6336 109.793 94.058 108.555 92.1532 108.006Z" fill="#060E1A"/>
<path opacity="0.2" d="M112.771 111.492C111.814 109.793 110.238 108.555 108.334 108.006C107.552 107.782 106.771 107.667 106.011 107.667C104.838 107.667 103.858 107.936 103.099 108.264C103.831 105.584 105.589 100.96 109.093 100.439C109.417 100.39 109.683 100.156 109.772 99.8401L110.537 97.1015C110.602 96.8698 110.564 96.6219 110.432 96.4209C110.3 96.22 110.088 96.0859 109.849 96.0532C109.591 96.018 109.328 96 109.066 96C104.861 96 100.696 100.389 98.9386 106.674C97.9074 110.361 97.6049 115.904 100.146 119.394C101.568 121.346 103.643 122.389 106.312 122.492C106.323 122.493 106.333 122.493 106.345 122.493C109.638 122.493 112.559 120.275 113.447 117.099C113.978 115.201 113.737 113.21 112.771 111.492Z" fill="#060E1A"/>
<path opacity="0.2" d="M377.57 170.006C378.351 169.782 379.132 169.667 379.892 169.667C381.066 169.667 382.045 169.936 382.805 170.264C382.073 167.584 380.314 162.96 376.811 162.439C376.486 162.39 376.22 162.156 376.132 161.84L375.366 159.101C375.302 158.87 375.34 158.622 375.472 158.421C375.604 158.22 375.816 158.086 376.054 158.053C376.313 158.018 376.576 158 376.838 158C381.043 158 385.207 162.389 386.965 168.674C387.996 172.361 388.299 177.904 385.758 181.393C384.336 183.345 382.261 184.388 379.592 184.492C379.581 184.492 379.57 184.493 379.559 184.493C376.266 184.493 373.345 182.274 372.456 179.099C371.926 177.201 372.166 175.21 373.133 173.492C374.089 171.793 375.665 170.555 377.57 170.006Z" fill="#060E1A"/>
<path opacity="0.2" d="M356.952 173.492C357.909 171.793 359.485 170.555 361.389 170.006C362.171 169.782 362.952 169.667 363.712 169.667C364.885 169.667 365.865 169.936 366.624 170.264C365.892 167.584 364.134 162.96 360.63 162.439C360.306 162.39 360.04 162.156 359.951 161.84L359.185 159.101C359.121 158.87 359.159 158.622 359.291 158.421C359.423 158.22 359.635 158.086 359.874 158.053C360.132 158.018 360.395 158 360.657 158C364.862 158 369.027 162.389 370.784 168.674C371.815 172.361 372.118 177.904 369.577 181.394C368.155 183.346 366.08 184.389 363.411 184.492C363.4 184.493 363.39 184.493 363.378 184.493C360.085 184.493 357.164 182.275 356.275 179.099C355.745 177.201 355.986 175.21 356.952 173.492Z" fill="#060E1A"/>
<path d="M125.722 115H124.228V103.478H120.158V102.15H129.791V103.478H125.722V115ZM138.105 115V108.769C138.105 107.983 137.927 107.397 137.569 107.011C137.212 106.624 136.652 106.431 135.891 106.431C134.877 106.431 134.136 106.706 133.667 107.257C133.204 107.808 132.973 108.71 132.973 109.964V115H131.514V101.324H132.973V105.464C132.973 105.962 132.949 106.375 132.902 106.703H132.99C133.277 106.24 133.685 105.877 134.212 105.613C134.745 105.344 135.352 105.209 136.031 105.209C137.209 105.209 138.091 105.49 138.677 106.053C139.269 106.609 139.564 107.497 139.564 108.716V115H138.105ZM144.029 115H142.57V105.367H144.029V115ZM142.447 102.757C142.447 102.423 142.529 102.18 142.693 102.027C142.857 101.869 143.062 101.79 143.309 101.79C143.543 101.79 143.745 101.869 143.915 102.027C144.085 102.186 144.17 102.429 144.17 102.757C144.17 103.085 144.085 103.331 143.915 103.495C143.745 103.653 143.543 103.732 143.309 103.732C143.062 103.732 142.857 103.653 142.693 103.495C142.529 103.331 142.447 103.085 142.447 102.757ZM153.337 112.372C153.337 113.269 153.003 113.96 152.335 114.446C151.667 114.933 150.729 115.176 149.522 115.176C148.245 115.176 147.249 114.974 146.534 114.569V113.216C146.997 113.45 147.492 113.635 148.02 113.77C148.553 113.904 149.065 113.972 149.558 113.972C150.319 113.972 150.905 113.852 151.315 113.611C151.726 113.365 151.931 112.993 151.931 112.495C151.931 112.12 151.767 111.801 151.438 111.537C151.116 111.268 150.483 110.951 149.54 110.588C148.644 110.254 148.005 109.964 147.624 109.718C147.249 109.466 146.968 109.182 146.78 108.865C146.599 108.549 146.508 108.171 146.508 107.731C146.508 106.946 146.827 106.328 147.466 105.877C148.104 105.42 148.98 105.191 150.094 105.191C151.131 105.191 152.145 105.402 153.135 105.824L152.616 107.011C151.649 106.612 150.773 106.413 149.988 106.413C149.297 106.413 148.775 106.521 148.424 106.738C148.072 106.955 147.896 107.254 147.896 107.635C147.896 107.893 147.961 108.112 148.09 108.294C148.225 108.476 148.438 108.648 148.731 108.812C149.024 108.977 149.587 109.214 150.419 109.524C151.562 109.94 152.332 110.359 152.73 110.781C153.135 111.203 153.337 111.733 153.337 112.372ZM166.318 115L166.028 113.629H165.958C165.478 114.232 164.997 114.643 164.517 114.859C164.042 115.07 163.447 115.176 162.732 115.176C161.777 115.176 161.027 114.93 160.482 114.438C159.943 113.945 159.674 113.245 159.674 112.337C159.674 110.392 161.229 109.372 164.341 109.278L165.976 109.226V108.628C165.976 107.872 165.812 107.315 165.483 106.958C165.161 106.595 164.643 106.413 163.928 106.413C163.125 106.413 162.217 106.659 161.203 107.151L160.755 106.035C161.229 105.777 161.748 105.575 162.311 105.429C162.879 105.282 163.447 105.209 164.016 105.209C165.164 105.209 166.014 105.464 166.564 105.974C167.121 106.483 167.399 107.301 167.399 108.426V115H166.318ZM163.022 113.972C163.931 113.972 164.643 113.723 165.158 113.225C165.68 112.727 165.94 112.029 165.94 111.133V110.263L164.481 110.324C163.321 110.365 162.483 110.547 161.968 110.869C161.458 111.186 161.203 111.681 161.203 112.354C161.203 112.882 161.361 113.283 161.678 113.559C162 113.834 162.448 113.972 163.022 113.972ZM174.896 115.176C174.27 115.176 173.695 115.062 173.174 114.833C172.658 114.599 172.225 114.241 171.873 113.761H171.768C171.838 114.323 171.873 114.856 171.873 115.36V119.324H170.414V105.367H171.601L171.803 106.686H171.873C172.248 106.158 172.685 105.777 173.183 105.543C173.681 105.309 174.252 105.191 174.896 105.191C176.174 105.191 177.158 105.628 177.85 106.501C178.547 107.374 178.896 108.599 178.896 110.175C178.896 111.757 178.541 112.987 177.832 113.866C177.129 114.739 176.15 115.176 174.896 115.176ZM174.686 106.431C173.701 106.431 172.989 106.703 172.55 107.248C172.11 107.793 171.885 108.66 171.873 109.85V110.175C171.873 111.528 172.099 112.498 172.55 113.084C173.001 113.664 173.725 113.954 174.721 113.954C175.553 113.954 176.203 113.617 176.672 112.943C177.146 112.27 177.384 111.341 177.384 110.157C177.384 108.956 177.146 108.036 176.672 107.397C176.203 106.753 175.541 106.431 174.686 106.431ZM185.936 115.176C185.309 115.176 184.734 115.062 184.213 114.833C183.697 114.599 183.264 114.241 182.912 113.761H182.807C182.877 114.323 182.912 114.856 182.912 115.36V119.324H181.453V105.367H182.64L182.842 106.686H182.912C183.287 106.158 183.724 105.777 184.222 105.543C184.72 105.309 185.291 105.191 185.936 105.191C187.213 105.191 188.197 105.628 188.889 106.501C189.586 107.374 189.935 108.599 189.935 110.175C189.935 111.757 189.58 112.987 188.871 113.866C188.168 114.739 187.189 115.176 185.936 115.176ZM185.725 106.431C184.74 106.431 184.028 106.703 183.589 107.248C183.149 107.793 182.924 108.66 182.912 109.85V110.175C182.912 111.528 183.138 112.498 183.589 113.084C184.04 113.664 184.764 113.954 185.76 113.954C186.592 113.954 187.242 113.617 187.711 112.943C188.186 112.27 188.423 111.341 188.423 110.157C188.423 108.956 188.186 108.036 187.711 107.397C187.242 106.753 186.58 106.431 185.725 106.431ZM198.627 115H197.168V105.367H198.627V115ZM197.045 102.757C197.045 102.423 197.127 102.18 197.291 102.027C197.455 101.869 197.66 101.79 197.906 101.79C198.141 101.79 198.343 101.869 198.513 102.027C198.683 102.186 198.768 102.429 198.768 102.757C198.768 103.085 198.683 103.331 198.513 103.495C198.343 103.653 198.141 103.732 197.906 103.732C197.66 103.732 197.455 103.653 197.291 103.495C197.127 103.331 197.045 103.085 197.045 102.757ZM207.935 112.372C207.935 113.269 207.601 113.96 206.933 114.446C206.265 114.933 205.327 115.176 204.12 115.176C202.843 115.176 201.847 114.974 201.132 114.569V113.216C201.595 113.45 202.09 113.635 202.617 113.77C203.15 113.904 203.663 113.972 204.155 113.972C204.917 113.972 205.503 113.852 205.913 113.611C206.323 113.365 206.528 112.993 206.528 112.495C206.528 112.12 206.364 111.801 206.036 111.537C205.714 111.268 205.081 110.951 204.138 110.588C203.241 110.254 202.603 109.964 202.222 109.718C201.847 109.466 201.565 109.182 201.378 108.865C201.196 108.549 201.105 108.171 201.105 107.731C201.105 106.946 201.425 106.328 202.063 105.877C202.702 105.42 203.578 105.191 204.691 105.191C205.729 105.191 206.742 105.402 207.732 105.824L207.214 107.011C206.247 106.612 205.371 106.413 204.586 106.413C203.895 106.413 203.373 106.521 203.021 106.738C202.67 106.955 202.494 107.254 202.494 107.635C202.494 107.893 202.559 108.112 202.688 108.294C202.822 108.476 203.036 108.648 203.329 108.812C203.622 108.977 204.185 109.214 205.017 109.524C206.159 109.94 206.93 110.359 207.328 110.781C207.732 111.203 207.935 111.733 207.935 112.372ZM220.916 115L220.626 113.629H220.556C220.075 114.232 219.595 114.643 219.114 114.859C218.64 115.07 218.045 115.176 217.33 115.176C216.375 115.176 215.625 114.93 215.08 114.438C214.541 113.945 214.271 113.245 214.271 112.337C214.271 110.392 215.827 109.372 218.938 109.278L220.573 109.226V108.628C220.573 107.872 220.409 107.315 220.081 106.958C219.759 106.595 219.24 106.413 218.525 106.413C217.723 106.413 216.814 106.659 215.801 107.151L215.353 106.035C215.827 105.777 216.346 105.575 216.908 105.429C217.477 105.282 218.045 105.209 218.613 105.209C219.762 105.209 220.611 105.464 221.162 105.974C221.719 106.483 221.997 107.301 221.997 108.426V115H220.916ZM217.62 113.972C218.528 113.972 219.24 113.723 219.756 113.225C220.277 112.727 220.538 112.029 220.538 111.133V110.263L219.079 110.324C217.919 110.365 217.081 110.547 216.565 110.869C216.056 111.186 215.801 111.681 215.801 112.354C215.801 112.882 215.959 113.283 216.275 113.559C216.598 113.834 217.046 113.972 217.62 113.972ZM237.29 115V108.733C237.29 107.966 237.126 107.392 236.798 107.011C236.47 106.624 235.96 106.431 235.269 106.431C234.36 106.431 233.689 106.691 233.256 107.213C232.822 107.734 232.605 108.537 232.605 109.621V115H231.146V108.733C231.146 107.966 230.982 107.392 230.654 107.011C230.326 106.624 229.813 106.431 229.116 106.431C228.202 106.431 227.531 106.706 227.104 107.257C226.682 107.802 226.471 108.698 226.471 109.946V115H225.012V105.367H226.198L226.436 106.686H226.506C226.781 106.217 227.168 105.851 227.666 105.587C228.17 105.323 228.732 105.191 229.354 105.191C230.859 105.191 231.844 105.736 232.307 106.826H232.377C232.664 106.322 233.08 105.924 233.625 105.631C234.17 105.338 234.791 105.191 235.488 105.191C236.578 105.191 237.393 105.473 237.932 106.035C238.477 106.592 238.749 107.485 238.749 108.716V115H237.29ZM247.688 115L247.397 113.629H247.327C246.847 114.232 246.366 114.643 245.886 114.859C245.411 115.07 244.816 115.176 244.102 115.176C243.146 115.176 242.396 114.93 241.852 114.438C241.312 113.945 241.043 113.245 241.043 112.337C241.043 110.392 242.599 109.372 245.71 109.278L247.345 109.226V108.628C247.345 107.872 247.181 107.315 246.853 106.958C246.53 106.595 246.012 106.413 245.297 106.413C244.494 106.413 243.586 106.659 242.572 107.151L242.124 106.035C242.599 105.777 243.117 105.575 243.68 105.429C244.248 105.282 244.816 105.209 245.385 105.209C246.533 105.209 247.383 105.464 247.934 105.974C248.49 106.483 248.769 107.301 248.769 108.426V115H247.688ZM244.392 113.972C245.3 113.972 246.012 113.723 246.527 113.225C247.049 112.727 247.31 112.029 247.31 111.133V110.263L245.851 110.324C244.69 110.365 243.853 110.547 243.337 110.869C242.827 111.186 242.572 111.681 242.572 112.354C242.572 112.882 242.73 113.283 243.047 113.559C243.369 113.834 243.817 113.972 244.392 113.972ZM257.944 115H250.957V114.007L256.213 106.501H251.282V105.367H257.812V106.501L252.627 113.866H257.944V115ZM261.662 115H260.203V105.367H261.662V115ZM260.08 102.757C260.08 102.423 260.162 102.18 260.326 102.027C260.49 101.869 260.695 101.79 260.941 101.79C261.176 101.79 261.378 101.869 261.548 102.027C261.718 102.186 261.803 102.429 261.803 102.757C261.803 103.085 261.718 103.331 261.548 103.495C261.378 103.653 261.176 103.732 260.941 103.732C260.695 103.732 260.49 103.653 260.326 103.495C260.162 103.331 260.08 103.085 260.08 102.757ZM271.348 115V108.769C271.348 107.983 271.169 107.397 270.812 107.011C270.454 106.624 269.895 106.431 269.133 106.431C268.125 106.431 267.387 106.703 266.918 107.248C266.449 107.793 266.215 108.692 266.215 109.946V115H264.756V105.367H265.942L266.18 106.686H266.25C266.549 106.211 266.968 105.845 267.507 105.587C268.046 105.323 268.646 105.191 269.309 105.191C270.469 105.191 271.342 105.473 271.928 106.035C272.514 106.592 272.807 107.485 272.807 108.716V115H271.348ZM283.696 105.367V106.29L281.912 106.501C282.076 106.706 282.223 106.976 282.352 107.31C282.48 107.638 282.545 108.01 282.545 108.426C282.545 109.369 282.223 110.122 281.578 110.685C280.934 111.247 280.049 111.528 278.924 111.528C278.637 111.528 278.367 111.505 278.115 111.458C277.494 111.786 277.184 112.199 277.184 112.697C277.184 112.961 277.292 113.157 277.509 113.286C277.726 113.409 278.098 113.471 278.625 113.471H280.33C281.373 113.471 282.173 113.69 282.729 114.13C283.292 114.569 283.573 115.208 283.573 116.046C283.573 117.112 283.146 117.924 282.29 118.48C281.435 119.043 280.187 119.324 278.546 119.324C277.286 119.324 276.313 119.09 275.628 118.621C274.948 118.152 274.608 117.49 274.608 116.635C274.608 116.049 274.796 115.542 275.171 115.114C275.546 114.687 276.073 114.396 276.753 114.244C276.507 114.133 276.299 113.96 276.129 113.726C275.965 113.491 275.883 113.219 275.883 112.908C275.883 112.557 275.977 112.249 276.164 111.985C276.352 111.722 276.647 111.467 277.052 111.221C276.554 111.016 276.146 110.667 275.83 110.175C275.52 109.683 275.364 109.12 275.364 108.487C275.364 107.433 275.681 106.621 276.313 106.053C276.946 105.479 277.843 105.191 279.003 105.191C279.507 105.191 279.961 105.25 280.365 105.367H283.696ZM276.015 116.617C276.015 117.139 276.234 117.534 276.674 117.804C277.113 118.073 277.743 118.208 278.563 118.208C279.788 118.208 280.693 118.023 281.279 117.654C281.871 117.291 282.167 116.796 282.167 116.169C282.167 115.647 282.006 115.284 281.684 115.079C281.361 114.88 280.755 114.78 279.864 114.78H278.115C277.453 114.78 276.938 114.938 276.568 115.255C276.199 115.571 276.015 116.025 276.015 116.617ZM276.806 108.452C276.806 109.126 276.996 109.636 277.377 109.981C277.758 110.327 278.288 110.5 278.968 110.5C280.392 110.5 281.104 109.809 281.104 108.426C281.104 106.979 280.383 106.255 278.941 106.255C278.256 106.255 277.729 106.439 277.359 106.809C276.99 107.178 276.806 107.726 276.806 108.452ZM286.992 111.458H286.069L285.621 102.15H287.44L286.992 111.458ZM285.463 114.068C285.463 113.271 285.814 112.873 286.518 112.873C286.857 112.873 287.118 112.976 287.3 113.181C287.487 113.386 287.581 113.682 287.581 114.068C287.581 114.443 287.487 114.736 287.3 114.947C287.112 115.152 286.852 115.255 286.518 115.255C286.213 115.255 285.961 115.164 285.762 114.982C285.562 114.795 285.463 114.49 285.463 114.068ZM295.386 115V102.15H296.88V115H295.386ZM311.083 112.372C311.083 113.269 310.749 113.96 310.081 114.446C309.413 114.933 308.476 115.176 307.269 115.176C305.991 115.176 304.995 114.974 304.28 114.569V113.216C304.743 113.45 305.238 113.635 305.766 113.77C306.299 113.904 306.812 113.972 307.304 113.972C308.065 113.972 308.651 113.852 309.062 113.611C309.472 113.365 309.677 112.993 309.677 112.495C309.677 112.12 309.513 111.801 309.185 111.537C308.862 111.268 308.229 110.951 307.286 110.588C306.39 110.254 305.751 109.964 305.37 109.718C304.995 109.466 304.714 109.182 304.526 108.865C304.345 108.549 304.254 108.171 304.254 107.731C304.254 106.946 304.573 106.328 305.212 105.877C305.851 105.42 306.727 105.191 307.84 105.191C308.877 105.191 309.891 105.402 310.881 105.824L310.362 107.011C309.396 106.612 308.52 106.413 307.734 106.413C307.043 106.413 306.521 106.521 306.17 106.738C305.818 106.955 305.643 107.254 305.643 107.635C305.643 107.893 305.707 108.112 305.836 108.294C305.971 108.476 306.185 108.648 306.478 108.812C306.771 108.977 307.333 109.214 308.165 109.524C309.308 109.94 310.078 110.359 310.477 110.781C310.881 111.203 311.083 111.733 311.083 112.372ZM316.576 113.972C316.834 113.972 317.083 113.954 317.323 113.919C317.563 113.878 317.754 113.837 317.895 113.796V114.912C317.736 114.988 317.502 115.05 317.191 115.097C316.887 115.149 316.611 115.176 316.365 115.176C314.502 115.176 313.57 114.194 313.57 112.231V106.501H312.19V105.798L313.57 105.191L314.186 103.135H315.029V105.367H317.824V106.501H315.029V112.17C315.029 112.75 315.167 113.195 315.442 113.506C315.718 113.816 316.096 113.972 316.576 113.972ZM325.752 115L325.462 113.629H325.392C324.911 114.232 324.431 114.643 323.95 114.859C323.476 115.07 322.881 115.176 322.166 115.176C321.211 115.176 320.461 114.93 319.916 114.438C319.377 113.945 319.107 113.245 319.107 112.337C319.107 110.392 320.663 109.372 323.774 109.278L325.409 109.226V108.628C325.409 107.872 325.245 107.315 324.917 106.958C324.595 106.595 324.076 106.413 323.361 106.413C322.559 106.413 321.65 106.659 320.637 107.151L320.188 106.035C320.663 105.777 321.182 105.575 321.744 105.429C322.312 105.282 322.881 105.209 323.449 105.209C324.598 105.209 325.447 105.464 325.998 105.974C326.555 106.483 326.833 107.301 326.833 108.426V115H325.752ZM322.456 113.972C323.364 113.972 324.076 113.723 324.592 113.225C325.113 112.727 325.374 112.029 325.374 111.133V110.263L323.915 110.324C322.755 110.365 321.917 110.547 321.401 110.869C320.892 111.186 320.637 111.681 320.637 112.354C320.637 112.882 320.795 113.283 321.111 113.559C321.434 113.834 321.882 113.972 322.456 113.972ZM334.242 105.191C334.67 105.191 335.054 105.227 335.394 105.297L335.191 106.65C334.793 106.562 334.441 106.519 334.137 106.519C333.357 106.519 332.689 106.835 332.133 107.468C331.582 108.101 331.307 108.889 331.307 109.832V115H329.848V105.367H331.052L331.219 107.151H331.289C331.646 106.524 332.077 106.041 332.581 105.701C333.085 105.361 333.639 105.191 334.242 105.191ZM340.307 113.972C340.564 113.972 340.813 113.954 341.054 113.919C341.294 113.878 341.484 113.837 341.625 113.796V114.912C341.467 114.988 341.232 115.05 340.922 115.097C340.617 115.149 340.342 115.176 340.096 115.176C338.232 115.176 337.301 114.194 337.301 112.231V106.501H335.921V105.798L337.301 105.191L337.916 103.135H338.76V105.367H341.555V106.501H338.76V112.17C338.76 112.75 338.897 113.195 339.173 113.506C339.448 113.816 339.826 113.972 340.307 113.972ZM133.825 140V133.733C133.825 132.966 133.661 132.392 133.333 132.011C133.005 131.624 132.495 131.431 131.804 131.431C130.896 131.431 130.225 131.691 129.791 132.213C129.357 132.734 129.141 133.537 129.141 134.621V140H127.682V133.733C127.682 132.966 127.518 132.392 127.189 132.011C126.861 131.624 126.349 131.431 125.651 131.431C124.737 131.431 124.066 131.706 123.639 132.257C123.217 132.802 123.006 133.698 123.006 134.946V140H121.547V130.367H122.733L122.971 131.686H123.041C123.316 131.217 123.703 130.851 124.201 130.587C124.705 130.323 125.268 130.191 125.889 130.191C127.395 130.191 128.379 130.736 128.842 131.826H128.912C129.199 131.322 129.615 130.924 130.16 130.631C130.705 130.338 131.326 130.191 132.023 130.191C133.113 130.191 133.928 130.473 134.467 131.035C135.012 131.592 135.284 132.485 135.284 133.716V140H133.825ZM136.77 130.367H138.334L140.443 135.86C140.906 137.114 141.193 138.02 141.305 138.576H141.375C141.451 138.277 141.609 137.768 141.85 137.047C142.096 136.32 142.893 134.094 144.24 130.367H145.805L141.665 141.336C141.255 142.42 140.774 143.188 140.224 143.639C139.679 144.096 139.008 144.324 138.211 144.324C137.766 144.324 137.326 144.274 136.893 144.175V143.006C137.215 143.076 137.575 143.111 137.974 143.111C138.976 143.111 139.69 142.549 140.118 141.424L140.654 140.053L136.77 130.367ZM158.602 138.708H158.522C157.849 139.687 156.841 140.176 155.499 140.176C154.239 140.176 153.258 139.745 152.555 138.884C151.857 138.022 151.509 136.798 151.509 135.21C151.509 133.622 151.86 132.389 152.563 131.51C153.267 130.631 154.245 130.191 155.499 130.191C156.806 130.191 157.808 130.666 158.505 131.615H158.619L158.558 130.921L158.522 130.244V126.324H159.981V140H158.795L158.602 138.708ZM155.684 138.954C156.68 138.954 157.4 138.685 157.846 138.146C158.297 137.601 158.522 136.725 158.522 135.518V135.21C158.522 133.845 158.294 132.872 157.837 132.292C157.386 131.706 156.662 131.413 155.666 131.413C154.811 131.413 154.154 131.747 153.697 132.415C153.246 133.077 153.021 134.015 153.021 135.228C153.021 136.458 153.246 137.387 153.697 138.014C154.148 138.641 154.811 138.954 155.684 138.954ZM169.008 140L168.718 138.629H168.647C168.167 139.232 167.687 139.643 167.206 139.859C166.731 140.07 166.137 140.176 165.422 140.176C164.467 140.176 163.717 139.93 163.172 139.438C162.633 138.945 162.363 138.245 162.363 137.337C162.363 135.392 163.919 134.372 167.03 134.278L168.665 134.226V133.628C168.665 132.872 168.501 132.315 168.173 131.958C167.851 131.595 167.332 131.413 166.617 131.413C165.814 131.413 164.906 131.659 163.893 132.151L163.444 131.035C163.919 130.777 164.438 130.575 165 130.429C165.568 130.282 166.137 130.209 166.705 130.209C167.854 130.209 168.703 130.464 169.254 130.974C169.811 131.483 170.089 132.301 170.089 133.426V140H169.008ZM165.712 138.972C166.62 138.972 167.332 138.723 167.848 138.225C168.369 137.727 168.63 137.029 168.63 136.133V135.263L167.171 135.324C166.011 135.365 165.173 135.547 164.657 135.869C164.147 136.186 163.893 136.681 163.893 137.354C163.893 137.882 164.051 138.283 164.367 138.559C164.689 138.834 165.138 138.972 165.712 138.972ZM171.574 130.367H173.139L175.248 135.86C175.711 137.114 175.998 138.02 176.109 138.576H176.18C176.256 138.277 176.414 137.768 176.654 137.047C176.9 136.32 177.697 134.094 179.045 130.367H180.609L176.47 141.336C176.06 142.42 175.579 143.188 175.028 143.639C174.483 144.096 173.812 144.324 173.016 144.324C172.57 144.324 172.131 144.274 171.697 144.175V143.006C172.02 143.076 172.38 143.111 172.778 143.111C173.78 143.111 174.495 142.549 174.923 141.424L175.459 140.053L171.574 130.367ZM194.716 140L192.949 134.349C192.838 134.003 192.63 133.218 192.325 131.993H192.255C192.021 133.019 191.815 133.81 191.64 134.366L189.82 140H188.133L185.505 130.367H187.034C187.655 132.787 188.127 134.63 188.449 135.896C188.777 137.161 188.965 138.014 189.012 138.453H189.082C189.146 138.119 189.249 137.688 189.39 137.161C189.536 136.628 189.662 136.206 189.768 135.896L191.534 130.367H193.116L194.839 135.896C195.167 136.903 195.39 137.75 195.507 138.436H195.577C195.601 138.225 195.662 137.899 195.762 137.46C195.867 137.021 196.479 134.656 197.599 130.367H199.11L196.447 140H194.716ZM202.318 140H200.859V130.367H202.318V140ZM200.736 127.757C200.736 127.423 200.818 127.18 200.982 127.027C201.146 126.869 201.352 126.79 201.598 126.79C201.832 126.79 202.034 126.869 202.204 127.027C202.374 127.186 202.459 127.429 202.459 127.757C202.459 128.085 202.374 128.331 202.204 128.495C202.034 128.653 201.832 128.732 201.598 128.732C201.352 128.732 201.146 128.653 200.982 128.495C200.818 128.331 200.736 128.085 200.736 127.757ZM208.523 138.972C208.781 138.972 209.03 138.954 209.271 138.919C209.511 138.878 209.701 138.837 209.842 138.796V139.912C209.684 139.988 209.449 140.05 209.139 140.097C208.834 140.149 208.559 140.176 208.312 140.176C206.449 140.176 205.518 139.194 205.518 137.231V131.501H204.138V130.798L205.518 130.191L206.133 128.135H206.977V130.367H209.771V131.501H206.977V137.17C206.977 137.75 207.114 138.195 207.39 138.506C207.665 138.816 208.043 138.972 208.523 138.972ZM218.367 140V133.769C218.367 132.983 218.188 132.397 217.831 132.011C217.474 131.624 216.914 131.431 216.152 131.431C215.139 131.431 214.397 131.706 213.929 132.257C213.466 132.808 213.234 133.71 213.234 134.964V140H211.775V126.324H213.234V130.464C213.234 130.962 213.211 131.375 213.164 131.703H213.252C213.539 131.24 213.946 130.877 214.474 130.613C215.007 130.344 215.613 130.209 216.293 130.209C217.471 130.209 218.353 130.49 218.938 131.053C219.53 131.609 219.826 132.497 219.826 133.716V140H218.367ZM235.805 140L234.205 135.913H229.055L227.473 140H225.961L231.041 127.098H232.298L237.352 140H235.805ZM233.739 134.568L232.245 130.587C232.052 130.083 231.853 129.465 231.647 128.732C231.519 129.295 231.334 129.913 231.094 130.587L229.582 134.568H233.739ZM240.357 140H238.898V130.367H240.357V140ZM238.775 127.757C238.775 127.423 238.857 127.18 239.021 127.027C239.186 126.869 239.391 126.79 239.637 126.79C239.871 126.79 240.073 126.869 240.243 127.027C240.413 127.186 240.498 127.429 240.498 127.757C240.498 128.085 240.413 128.331 240.243 128.495C240.073 128.653 239.871 128.732 239.637 128.732C239.391 128.732 239.186 128.653 239.021 128.495C238.857 128.331 238.775 128.085 238.775 127.757ZM247.846 130.191C248.273 130.191 248.657 130.227 248.997 130.297L248.795 131.65C248.396 131.562 248.045 131.519 247.74 131.519C246.961 131.519 246.293 131.835 245.736 132.468C245.186 133.101 244.91 133.889 244.91 134.832V140H243.451V130.367H244.655L244.822 132.151H244.893C245.25 131.524 245.681 131.041 246.185 130.701C246.688 130.361 247.242 130.191 247.846 130.191ZM262.233 140H260.757L258.164 131.396C258.041 131.015 257.903 130.534 257.751 129.954C257.599 129.374 257.52 129.025 257.514 128.908C257.385 129.682 257.18 130.528 256.898 131.448L254.385 140H252.908L249.489 127.15H251.071L253.102 135.087C253.383 136.2 253.588 137.208 253.717 138.11C253.875 137.038 254.109 135.989 254.42 134.964L256.723 127.15H258.305L260.722 135.034C261.003 135.942 261.24 136.968 261.434 138.11C261.545 137.278 261.756 136.265 262.066 135.069L264.088 127.15H265.67L262.233 140ZM268.922 140H267.463V130.367H268.922V140ZM267.34 127.757C267.34 127.423 267.422 127.18 267.586 127.027C267.75 126.869 267.955 126.79 268.201 126.79C268.436 126.79 268.638 126.869 268.808 127.027C268.978 127.186 269.062 127.429 269.062 127.757C269.062 128.085 268.978 128.331 268.808 128.495C268.638 128.653 268.436 128.732 268.201 128.732C267.955 128.732 267.75 128.653 267.586 128.495C267.422 128.331 267.34 128.085 267.34 127.757ZM278.229 137.372C278.229 138.269 277.896 138.96 277.228 139.446C276.56 139.933 275.622 140.176 274.415 140.176C273.138 140.176 272.142 139.974 271.427 139.569V138.216C271.89 138.45 272.385 138.635 272.912 138.77C273.445 138.904 273.958 138.972 274.45 138.972C275.212 138.972 275.798 138.852 276.208 138.611C276.618 138.365 276.823 137.993 276.823 137.495C276.823 137.12 276.659 136.801 276.331 136.537C276.009 136.268 275.376 135.951 274.433 135.588C273.536 135.254 272.897 134.964 272.517 134.718C272.142 134.466 271.86 134.182 271.673 133.865C271.491 133.549 271.4 133.171 271.4 132.731C271.4 131.946 271.72 131.328 272.358 130.877C272.997 130.42 273.873 130.191 274.986 130.191C276.023 130.191 277.037 130.402 278.027 130.824L277.509 132.011C276.542 131.612 275.666 131.413 274.881 131.413C274.189 131.413 273.668 131.521 273.316 131.738C272.965 131.955 272.789 132.254 272.789 132.635C272.789 132.893 272.854 133.112 272.982 133.294C273.117 133.476 273.331 133.648 273.624 133.812C273.917 133.977 274.479 134.214 275.312 134.524C276.454 134.94 277.225 135.359 277.623 135.781C278.027 136.203 278.229 136.733 278.229 137.372ZM284.681 140.176C283.257 140.176 282.132 139.742 281.306 138.875C280.485 138.008 280.075 136.804 280.075 135.263C280.075 133.71 280.456 132.477 281.218 131.562C281.985 130.648 283.014 130.191 284.303 130.191C285.51 130.191 286.465 130.59 287.168 131.387C287.871 132.178 288.223 133.224 288.223 134.524V135.447H281.587C281.616 136.578 281.9 137.437 282.439 138.022C282.984 138.608 283.749 138.901 284.733 138.901C285.771 138.901 286.796 138.685 287.81 138.251V139.552C287.294 139.774 286.805 139.933 286.342 140.026C285.885 140.126 285.331 140.176 284.681 140.176ZM284.285 131.413C283.512 131.413 282.894 131.665 282.431 132.169C281.974 132.673 281.704 133.37 281.622 134.261H286.658C286.658 133.341 286.453 132.638 286.043 132.151C285.633 131.659 285.047 131.413 284.285 131.413ZM298.506 138.972C298.764 138.972 299.013 138.954 299.253 138.919C299.493 138.878 299.684 138.837 299.824 138.796V139.912C299.666 139.988 299.432 140.05 299.121 140.097C298.816 140.149 298.541 140.176 298.295 140.176C296.432 140.176 295.5 139.194 295.5 137.231V131.501H294.12V130.798L295.5 130.191L296.115 128.135H296.959V130.367H299.754V131.501H296.959V137.17C296.959 137.75 297.097 138.195 297.372 138.506C297.647 138.816 298.025 138.972 298.506 138.972ZM310.072 135.175C310.072 136.745 309.677 137.973 308.886 138.857C308.095 139.736 307.002 140.176 305.607 140.176C304.746 140.176 303.981 139.974 303.313 139.569C302.646 139.165 302.13 138.585 301.767 137.829C301.403 137.073 301.222 136.188 301.222 135.175C301.222 133.604 301.614 132.383 302.399 131.51C303.185 130.631 304.274 130.191 305.669 130.191C307.017 130.191 308.086 130.64 308.877 131.536C309.674 132.433 310.072 133.646 310.072 135.175ZM302.733 135.175C302.733 136.405 302.979 137.343 303.472 137.987C303.964 138.632 304.688 138.954 305.643 138.954C306.598 138.954 307.321 138.635 307.813 137.996C308.312 137.352 308.561 136.411 308.561 135.175C308.561 133.95 308.312 133.021 307.813 132.389C307.321 131.75 306.592 131.431 305.625 131.431C304.67 131.431 303.949 131.744 303.463 132.371C302.977 132.998 302.733 133.933 302.733 135.175ZM126.029 165.176C125.402 165.176 124.828 165.062 124.307 164.833C123.791 164.599 123.357 164.241 123.006 163.761H122.9C122.971 164.323 123.006 164.856 123.006 165.36V169.324H121.547V155.367H122.733L122.936 156.686H123.006C123.381 156.158 123.817 155.777 124.315 155.543C124.813 155.309 125.385 155.191 126.029 155.191C127.307 155.191 128.291 155.628 128.982 156.501C129.68 157.374 130.028 158.599 130.028 160.175C130.028 161.757 129.674 162.987 128.965 163.866C128.262 164.739 127.283 165.176 126.029 165.176ZM125.818 156.431C124.834 156.431 124.122 156.703 123.683 157.248C123.243 157.793 123.018 158.66 123.006 159.85V160.175C123.006 161.528 123.231 162.498 123.683 163.084C124.134 163.664 124.857 163.954 125.854 163.954C126.686 163.954 127.336 163.617 127.805 162.943C128.279 162.27 128.517 161.341 128.517 160.157C128.517 158.956 128.279 158.036 127.805 157.397C127.336 156.753 126.674 156.431 125.818 156.431ZM134.045 165H132.586V151.324H134.045V165ZM143.062 165L142.772 163.629H142.702C142.222 164.232 141.741 164.643 141.261 164.859C140.786 165.07 140.191 165.176 139.477 165.176C138.521 165.176 137.771 164.93 137.227 164.438C136.688 163.945 136.418 163.245 136.418 162.337C136.418 160.392 137.974 159.372 141.085 159.278L142.72 159.226V158.628C142.72 157.872 142.556 157.315 142.228 156.958C141.905 156.595 141.387 156.413 140.672 156.413C139.869 156.413 138.961 156.659 137.947 157.151L137.499 156.035C137.974 155.777 138.492 155.575 139.055 155.429C139.623 155.282 140.191 155.209 140.76 155.209C141.908 155.209 142.758 155.464 143.309 155.974C143.865 156.483 144.144 157.301 144.144 158.426V165H143.062ZM139.767 163.972C140.675 163.972 141.387 163.723 141.902 163.225C142.424 162.727 142.685 162.029 142.685 161.133V160.263L141.226 160.324C140.065 160.365 139.228 160.547 138.712 160.869C138.202 161.186 137.947 161.681 137.947 162.354C137.947 162.882 138.105 163.283 138.422 163.559C138.744 163.834 139.192 163.972 139.767 163.972ZM153.75 165V158.769C153.75 157.983 153.571 157.397 153.214 157.011C152.856 156.624 152.297 156.431 151.535 156.431C150.527 156.431 149.789 156.703 149.32 157.248C148.852 157.793 148.617 158.692 148.617 159.946V165H147.158V155.367H148.345L148.582 156.686H148.652C148.951 156.211 149.37 155.845 149.909 155.587C150.448 155.323 151.049 155.191 151.711 155.191C152.871 155.191 153.744 155.473 154.33 156.035C154.916 156.592 155.209 157.485 155.209 158.716V165H153.75ZM175.169 165V158.733C175.169 157.966 175.005 157.392 174.677 157.011C174.349 156.624 173.839 156.431 173.147 156.431C172.239 156.431 171.568 156.691 171.135 157.213C170.701 157.734 170.484 158.537 170.484 159.621V165H169.025V158.733C169.025 157.966 168.861 157.392 168.533 157.011C168.205 156.624 167.692 156.431 166.995 156.431C166.081 156.431 165.41 156.706 164.982 157.257C164.561 157.802 164.35 158.698 164.35 159.946V165H162.891V155.367H164.077L164.314 156.686H164.385C164.66 156.217 165.047 155.851 165.545 155.587C166.049 155.323 166.611 155.191 167.232 155.191C168.738 155.191 169.723 155.736 170.186 156.826H170.256C170.543 156.322 170.959 155.924 171.504 155.631C172.049 155.338 172.67 155.191 173.367 155.191C174.457 155.191 175.271 155.473 175.811 156.035C176.355 156.592 176.628 157.485 176.628 158.716V165H175.169ZM178.113 155.367H179.678L181.787 160.86C182.25 162.114 182.537 163.02 182.648 163.576H182.719C182.795 163.277 182.953 162.768 183.193 162.047C183.439 161.32 184.236 159.094 185.584 155.367H187.148L183.009 166.336C182.599 167.42 182.118 168.188 181.567 168.639C181.022 169.096 180.352 169.324 179.555 169.324C179.109 169.324 178.67 169.274 178.236 169.175V168.006C178.559 168.076 178.919 168.111 179.317 168.111C180.319 168.111 181.034 167.549 181.462 166.424L181.998 165.053L178.113 155.367ZM201.703 160.175C201.703 161.745 201.308 162.973 200.517 163.857C199.726 164.736 198.633 165.176 197.238 165.176C196.377 165.176 195.612 164.974 194.944 164.569C194.276 164.165 193.761 163.585 193.397 162.829C193.034 162.073 192.853 161.188 192.853 160.175C192.853 158.604 193.245 157.383 194.03 156.51C194.815 155.631 195.905 155.191 197.3 155.191C198.647 155.191 199.717 155.64 200.508 156.536C201.305 157.433 201.703 158.646 201.703 160.175ZM194.364 160.175C194.364 161.405 194.61 162.343 195.103 162.987C195.595 163.632 196.318 163.954 197.273 163.954C198.229 163.954 198.952 163.635 199.444 162.996C199.942 162.352 200.191 161.411 200.191 160.175C200.191 158.95 199.942 158.021 199.444 157.389C198.952 156.75 198.223 156.431 197.256 156.431C196.301 156.431 195.58 156.744 195.094 157.371C194.607 157.998 194.364 158.933 194.364 160.175ZM205.641 155.367V161.616C205.641 162.401 205.819 162.987 206.177 163.374C206.534 163.761 207.094 163.954 207.855 163.954C208.863 163.954 209.599 163.679 210.062 163.128C210.53 162.577 210.765 161.678 210.765 160.43V155.367H212.224V165H211.02L210.809 163.708H210.729C210.431 164.183 210.015 164.546 209.481 164.798C208.954 165.05 208.351 165.176 207.671 165.176C206.499 165.176 205.62 164.897 205.034 164.341C204.454 163.784 204.164 162.894 204.164 161.669V155.367H205.641ZM218.438 163.972C218.695 163.972 218.944 163.954 219.185 163.919C219.425 163.878 219.615 163.837 219.756 163.796V164.912C219.598 164.988 219.363 165.05 219.053 165.097C218.748 165.149 218.473 165.176 218.227 165.176C216.363 165.176 215.432 164.194 215.432 162.231V156.501H214.052V155.798L215.432 155.191L216.047 153.135H216.891V155.367H219.686V156.501H216.891V162.17C216.891 162.75 217.028 163.195 217.304 163.506C217.579 163.816 217.957 163.972 218.438 163.972ZM228.246 163.708H228.167C227.493 164.687 226.485 165.176 225.144 165.176C223.884 165.176 222.902 164.745 222.199 163.884C221.502 163.022 221.153 161.798 221.153 160.21C221.153 158.622 221.505 157.389 222.208 156.51C222.911 155.631 223.89 155.191 225.144 155.191C226.45 155.191 227.452 155.666 228.149 156.615H228.264L228.202 155.921L228.167 155.244V151.324H229.626V165H228.439L228.246 163.708ZM225.328 163.954C226.324 163.954 227.045 163.685 227.49 163.146C227.941 162.601 228.167 161.725 228.167 160.518V160.21C228.167 158.845 227.938 157.872 227.481 157.292C227.03 156.706 226.307 156.413 225.311 156.413C224.455 156.413 223.799 156.747 223.342 157.415C222.891 158.077 222.665 159.015 222.665 160.228C222.665 161.458 222.891 162.387 223.342 163.014C223.793 163.641 224.455 163.954 225.328 163.954ZM241.043 160.175C241.043 161.745 240.647 162.973 239.856 163.857C239.065 164.736 237.973 165.176 236.578 165.176C235.717 165.176 234.952 164.974 234.284 164.569C233.616 164.165 233.101 163.585 232.737 162.829C232.374 162.073 232.192 161.188 232.192 160.175C232.192 158.604 232.585 157.383 233.37 156.51C234.155 155.631 235.245 155.191 236.64 155.191C237.987 155.191 239.057 155.64 239.848 156.536C240.645 157.433 241.043 158.646 241.043 160.175ZM233.704 160.175C233.704 161.405 233.95 162.343 234.442 162.987C234.935 163.632 235.658 163.954 236.613 163.954C237.568 163.954 238.292 163.635 238.784 162.996C239.282 162.352 239.531 161.411 239.531 160.175C239.531 158.95 239.282 158.021 238.784 157.389C238.292 156.75 237.562 156.431 236.596 156.431C235.641 156.431 234.92 156.744 234.434 157.371C233.947 157.998 233.704 158.933 233.704 160.175ZM251.924 160.175C251.924 161.745 251.528 162.973 250.737 163.857C249.946 164.736 248.854 165.176 247.459 165.176C246.598 165.176 245.833 164.974 245.165 164.569C244.497 164.165 243.981 163.585 243.618 162.829C243.255 162.073 243.073 161.188 243.073 160.175C243.073 158.604 243.466 157.383 244.251 156.51C245.036 155.631 246.126 155.191 247.521 155.191C248.868 155.191 249.938 155.64 250.729 156.536C251.525 157.433 251.924 158.646 251.924 160.175ZM244.585 160.175C244.585 161.405 244.831 162.343 245.323 162.987C245.815 163.632 246.539 163.954 247.494 163.954C248.449 163.954 249.173 163.635 249.665 162.996C250.163 162.352 250.412 161.411 250.412 160.175C250.412 158.95 250.163 158.021 249.665 157.389C249.173 156.75 248.443 156.431 247.477 156.431C246.521 156.431 245.801 156.744 245.314 157.371C244.828 157.998 244.585 158.933 244.585 160.175ZM258.885 155.191C259.312 155.191 259.696 155.227 260.036 155.297L259.834 156.65C259.436 156.562 259.084 156.519 258.779 156.519C258 156.519 257.332 156.835 256.775 157.468C256.225 158.101 255.949 158.889 255.949 159.832V165H254.49V155.367H255.694L255.861 157.151H255.932C256.289 156.524 256.72 156.041 257.224 155.701C257.728 155.361 258.281 155.191 258.885 155.191ZM272.438 165L272.147 163.629H272.077C271.597 164.232 271.116 164.643 270.636 164.859C270.161 165.07 269.566 165.176 268.852 165.176C267.896 165.176 267.146 164.93 266.602 164.438C266.062 163.945 265.793 163.245 265.793 162.337C265.793 160.392 267.349 159.372 270.46 159.278L272.095 159.226V158.628C272.095 157.872 271.931 157.315 271.603 156.958C271.28 156.595 270.762 156.413 270.047 156.413C269.244 156.413 268.336 156.659 267.322 157.151L266.874 156.035C267.349 155.777 267.867 155.575 268.43 155.429C268.998 155.282 269.566 155.209 270.135 155.209C271.283 155.209 272.133 155.464 272.684 155.974C273.24 156.483 273.519 157.301 273.519 158.426V165H272.438ZM269.142 163.972C270.05 163.972 270.762 163.723 271.277 163.225C271.799 162.727 272.06 162.029 272.06 161.133V160.263L270.601 160.324C269.44 160.365 268.603 160.547 268.087 160.869C267.577 161.186 267.322 161.681 267.322 162.354C267.322 162.882 267.48 163.283 267.797 163.559C268.119 163.834 268.567 163.972 269.142 163.972ZM280.383 165.176C278.988 165.176 277.907 164.748 277.14 163.893C276.378 163.031 275.997 161.815 275.997 160.245C275.997 158.634 276.384 157.389 277.157 156.51C277.937 155.631 279.044 155.191 280.479 155.191C280.942 155.191 281.405 155.241 281.868 155.341C282.331 155.44 282.694 155.558 282.958 155.692L282.51 156.932C282.188 156.803 281.836 156.697 281.455 156.615C281.074 156.527 280.737 156.483 280.444 156.483C278.487 156.483 277.509 157.731 277.509 160.228C277.509 161.411 277.746 162.319 278.221 162.952C278.701 163.585 279.41 163.901 280.348 163.901C281.15 163.901 281.974 163.729 282.817 163.383V164.675C282.173 165.009 281.361 165.176 280.383 165.176ZM288.223 163.972C288.48 163.972 288.729 163.954 288.97 163.919C289.21 163.878 289.4 163.837 289.541 163.796V164.912C289.383 164.988 289.148 165.05 288.838 165.097C288.533 165.149 288.258 165.176 288.012 165.176C286.148 165.176 285.217 164.194 285.217 162.231V156.501H283.837V155.798L285.217 155.191L285.832 153.135H286.676V155.367H289.471V156.501H286.676V162.17C286.676 162.75 286.813 163.195 287.089 163.506C287.364 163.816 287.742 163.972 288.223 163.972ZM292.934 165H291.475V155.367H292.934V165ZM291.352 152.757C291.352 152.423 291.434 152.18 291.598 152.027C291.762 151.869 291.967 151.79 292.213 151.79C292.447 151.79 292.649 151.869 292.819 152.027C292.989 152.186 293.074 152.429 293.074 152.757C293.074 153.085 292.989 153.331 292.819 153.495C292.649 153.653 292.447 153.732 292.213 153.732C291.967 153.732 291.762 153.653 291.598 153.495C291.434 153.331 291.352 153.085 291.352 152.757ZM298.137 165L294.48 155.367H296.045L298.119 161.08C298.588 162.416 298.863 163.283 298.945 163.682H299.016C299.08 163.371 299.282 162.729 299.622 161.757C299.968 160.778 300.738 158.648 301.934 155.367H303.498L299.842 165H298.137ZM306.504 165H305.045V155.367H306.504V165ZM304.922 152.757C304.922 152.423 305.004 152.18 305.168 152.027C305.332 151.869 305.537 151.79 305.783 151.79C306.018 151.79 306.22 151.869 306.39 152.027C306.56 152.186 306.645 152.429 306.645 152.757C306.645 153.085 306.56 153.331 306.39 153.495C306.22 153.653 306.018 153.732 305.783 153.732C305.537 153.732 305.332 153.653 305.168 153.495C305.004 153.331 304.922 153.085 304.922 152.757ZM312.709 163.972C312.967 163.972 313.216 163.954 313.456 163.919C313.696 163.878 313.887 163.837 314.027 163.796V164.912C313.869 164.988 313.635 165.05 313.324 165.097C313.02 165.149 312.744 165.176 312.498 165.176C310.635 165.176 309.703 164.194 309.703 162.231V156.501H308.323V155.798L309.703 155.191L310.318 153.135H311.162V155.367H313.957V156.501H311.162V162.17C311.162 162.75 311.3 163.195 311.575 163.506C311.851 163.816 312.229 163.972 312.709 163.972ZM317.42 165H315.961V155.367H317.42V165ZM315.838 152.757C315.838 152.423 315.92 152.18 316.084 152.027C316.248 151.869 316.453 151.79 316.699 151.79C316.934 151.79 317.136 151.869 317.306 152.027C317.476 152.186 317.561 152.429 317.561 152.757C317.561 153.085 317.476 153.331 317.306 153.495C317.136 153.653 316.934 153.732 316.699 153.732C316.453 153.732 316.248 153.653 316.084 153.495C315.92 153.331 315.838 153.085 315.838 152.757ZM324.583 165.176C323.159 165.176 322.034 164.742 321.208 163.875C320.388 163.008 319.978 161.804 319.978 160.263C319.978 158.71 320.358 157.477 321.12 156.562C321.888 155.648 322.916 155.191 324.205 155.191C325.412 155.191 326.367 155.59 327.07 156.387C327.773 157.178 328.125 158.224 328.125 159.524V160.447H321.489C321.519 161.578 321.803 162.437 322.342 163.022C322.887 163.608 323.651 163.901 324.636 163.901C325.673 163.901 326.698 163.685 327.712 163.251V164.552C327.196 164.774 326.707 164.933 326.244 165.026C325.787 165.126 325.233 165.176 324.583 165.176ZM324.188 156.413C323.414 156.413 322.796 156.665 322.333 157.169C321.876 157.673 321.606 158.37 321.524 159.261H326.561C326.561 158.341 326.355 157.638 325.945 157.151C325.535 156.659 324.949 156.413 324.188 156.413ZM336.835 162.372C336.835 163.269 336.501 163.96 335.833 164.446C335.165 164.933 334.228 165.176 333.021 165.176C331.743 165.176 330.747 164.974 330.032 164.569V163.216C330.495 163.45 330.99 163.635 331.518 163.77C332.051 163.904 332.563 163.972 333.056 163.972C333.817 163.972 334.403 163.852 334.813 163.611C335.224 163.365 335.429 162.993 335.429 162.495C335.429 162.12 335.265 161.801 334.937 161.537C334.614 161.268 333.981 160.951 333.038 160.588C332.142 160.254 331.503 159.964 331.122 159.718C330.747 159.466 330.466 159.182 330.278 158.865C330.097 158.549 330.006 158.171 330.006 157.731C330.006 156.946 330.325 156.328 330.964 155.877C331.603 155.42 332.479 155.191 333.592 155.191C334.629 155.191 335.643 155.402 336.633 155.824L336.114 157.011C335.147 156.612 334.271 156.413 333.486 156.413C332.795 156.413 332.273 156.521 331.922 156.738C331.57 156.955 331.395 157.254 331.395 157.635C331.395 157.893 331.459 158.112 331.588 158.294C331.723 158.476 331.937 158.648 332.229 158.812C332.522 158.977 333.085 159.214 333.917 159.524C335.06 159.94 335.83 160.359 336.229 160.781C336.633 161.203 336.835 161.733 336.835 162.372ZM339.006 164.068C339.006 163.676 339.094 163.38 339.27 163.181C339.451 162.976 339.709 162.873 340.043 162.873C340.383 162.873 340.646 162.976 340.834 163.181C341.027 163.38 341.124 163.676 341.124 164.068C341.124 164.449 341.027 164.742 340.834 164.947C340.641 165.152 340.377 165.255 340.043 165.255C339.744 165.255 339.495 165.164 339.296 164.982C339.103 164.795 339.006 164.49 339.006 164.068Z" fill="white"/>
<path d="M121.651 201H120.358L124.097 190.818H125.369L129.108 201H127.815L124.773 192.429H124.693L121.651 201ZM122.128 197.023H127.338V198.116H122.128V197.023ZM131.708 196.406V201H130.535V193.364H131.668V194.557H131.768C131.947 194.169 132.219 193.857 132.583 193.622C132.948 193.384 133.418 193.264 133.995 193.264C134.512 193.264 134.964 193.37 135.352 193.582C135.74 193.791 136.042 194.109 136.257 194.537C136.473 194.961 136.58 195.498 136.58 196.148V201H135.407V196.227C135.407 195.627 135.251 195.16 134.94 194.825C134.628 194.487 134.201 194.318 133.657 194.318C133.282 194.318 132.948 194.399 132.653 194.562C132.361 194.724 132.131 194.961 131.962 195.273C131.793 195.584 131.708 195.962 131.708 196.406ZM139.898 196.406V201H138.724V193.364H139.858V194.557H139.957C140.136 194.169 140.408 193.857 140.773 193.622C141.137 193.384 141.608 193.264 142.184 193.264C142.702 193.264 143.154 193.37 143.542 193.582C143.93 193.791 144.231 194.109 144.447 194.537C144.662 194.961 144.77 195.498 144.77 196.148V201H143.596V196.227C143.596 195.627 143.441 195.16 143.129 194.825C142.818 194.487 142.39 194.318 141.846 194.318C141.472 194.318 141.137 194.399 140.842 194.562C140.55 194.724 140.32 194.961 140.151 195.273C139.982 195.584 139.898 195.962 139.898 196.406ZM154.908 190.818H156.141V198.097C156.141 198.746 156.022 199.298 155.783 199.752C155.544 200.206 155.208 200.551 154.774 200.786C154.34 201.022 153.828 201.139 153.238 201.139C152.681 201.139 152.185 201.038 151.751 200.836C151.317 200.63 150.975 200.339 150.727 199.961C150.478 199.583 150.354 199.134 150.354 198.614H151.567C151.567 198.902 151.638 199.154 151.781 199.369C151.927 199.581 152.126 199.747 152.377 199.866C152.629 199.986 152.916 200.045 153.238 200.045C153.592 200.045 153.894 199.971 154.142 199.822C154.391 199.673 154.58 199.454 154.709 199.165C154.842 198.874 154.908 198.518 154.908 198.097V190.818ZM160.7 201.179C160.216 201.179 159.777 201.088 159.382 200.906C158.988 200.72 158.675 200.453 158.443 200.105C158.211 199.754 158.095 199.33 158.095 198.832C158.095 198.395 158.181 198.04 158.353 197.768C158.526 197.493 158.756 197.278 159.044 197.122C159.333 196.966 159.651 196.85 159.999 196.774C160.35 196.695 160.703 196.632 161.058 196.585C161.522 196.526 161.898 196.481 162.186 196.451C162.478 196.418 162.69 196.363 162.823 196.287C162.959 196.211 163.027 196.078 163.027 195.889V195.849C163.027 195.359 162.892 194.978 162.624 194.706C162.359 194.434 161.956 194.298 161.416 194.298C160.856 194.298 160.417 194.421 160.098 194.666C159.78 194.911 159.556 195.173 159.427 195.452L158.314 195.054C158.512 194.59 158.778 194.229 159.109 193.97C159.444 193.708 159.808 193.526 160.203 193.423C160.6 193.317 160.992 193.264 161.376 193.264C161.621 193.264 161.903 193.294 162.221 193.354C162.543 193.41 162.853 193.528 163.151 193.707C163.453 193.886 163.703 194.156 163.902 194.517C164.1 194.878 164.2 195.362 164.2 195.969V201H163.027V199.966H162.967C162.887 200.132 162.755 200.309 162.569 200.498C162.384 200.687 162.137 200.848 161.828 200.98C161.52 201.113 161.144 201.179 160.7 201.179ZM160.879 200.125C161.343 200.125 161.734 200.034 162.052 199.852C162.374 199.669 162.616 199.434 162.778 199.146C162.944 198.857 163.027 198.554 163.027 198.236V197.162C162.977 197.222 162.868 197.276 162.699 197.326C162.533 197.372 162.341 197.414 162.122 197.45C161.906 197.483 161.696 197.513 161.49 197.54C161.288 197.563 161.124 197.583 160.998 197.599C160.693 197.639 160.408 197.704 160.143 197.793C159.881 197.879 159.669 198.01 159.507 198.186C159.348 198.358 159.268 198.594 159.268 198.892C159.268 199.3 159.419 199.608 159.721 199.817C160.025 200.022 160.412 200.125 160.879 200.125ZM169.444 201.159C168.728 201.159 168.111 200.99 167.594 200.652C167.077 200.314 166.68 199.848 166.401 199.255C166.123 198.662 165.983 197.984 165.983 197.222C165.983 196.446 166.126 195.762 166.411 195.168C166.699 194.572 167.1 194.106 167.614 193.771C168.131 193.433 168.734 193.264 169.424 193.264C169.961 193.264 170.445 193.364 170.876 193.562C171.306 193.761 171.659 194.04 171.934 194.398C172.21 194.756 172.38 195.173 172.447 195.651H171.273C171.184 195.303 170.985 194.994 170.677 194.726C170.372 194.454 169.961 194.318 169.444 194.318C168.986 194.318 168.585 194.437 168.241 194.676C167.899 194.911 167.632 195.245 167.44 195.675C167.251 196.103 167.157 196.605 167.157 197.182C167.157 197.772 167.25 198.286 167.435 198.723C167.624 199.161 167.889 199.5 168.231 199.742C168.575 199.984 168.98 200.105 169.444 200.105C169.749 200.105 170.025 200.052 170.274 199.946C170.523 199.84 170.733 199.688 170.905 199.489C171.078 199.29 171.2 199.051 171.273 198.773H172.447C172.38 199.223 172.216 199.629 171.954 199.991C171.696 200.349 171.353 200.634 170.925 200.846C170.501 201.055 170.007 201.159 169.444 201.159ZM175.256 198.216L175.236 196.764H175.474L178.815 193.364H180.267L176.707 196.963H176.608L175.256 198.216ZM174.162 201V190.818H175.335V201H174.162ZM179.014 201L176.031 197.222L176.866 196.406L180.506 201H179.014ZM187.186 195.074L186.132 195.372C186.066 195.196 185.968 195.026 185.839 194.86C185.713 194.691 185.54 194.552 185.322 194.442C185.103 194.333 184.823 194.278 184.482 194.278C184.014 194.278 183.625 194.386 183.313 194.602C183.005 194.814 182.851 195.084 182.851 195.412C182.851 195.704 182.957 195.934 183.169 196.103C183.381 196.272 183.713 196.413 184.163 196.526L185.297 196.804C185.98 196.97 186.488 197.223 186.823 197.565C187.158 197.903 187.325 198.339 187.325 198.872C187.325 199.31 187.199 199.701 186.947 200.045C186.699 200.39 186.351 200.662 185.903 200.861C185.456 201.06 184.936 201.159 184.342 201.159C183.563 201.159 182.919 200.99 182.408 200.652C181.898 200.314 181.575 199.82 181.439 199.17L182.553 198.892C182.659 199.303 182.859 199.611 183.154 199.817C183.452 200.022 183.842 200.125 184.322 200.125C184.869 200.125 185.304 200.009 185.625 199.777C185.95 199.542 186.112 199.26 186.112 198.932C186.112 198.667 186.019 198.445 185.834 198.266C185.648 198.083 185.363 197.947 184.979 197.858L183.706 197.56C183.007 197.394 182.493 197.137 182.165 196.789C181.84 196.438 181.678 195.999 181.678 195.472C181.678 195.041 181.799 194.66 182.04 194.328C182.286 193.997 182.619 193.737 183.04 193.548C183.464 193.359 183.945 193.264 184.482 193.264C185.237 193.264 185.83 193.43 186.261 193.761C186.696 194.093 187.004 194.53 187.186 195.074ZM192.194 201.159C191.504 201.159 190.899 200.995 190.379 200.667C189.862 200.339 189.458 199.88 189.166 199.29C188.878 198.7 188.733 198.01 188.733 197.222C188.733 196.426 188.878 195.732 189.166 195.138C189.458 194.545 189.862 194.085 190.379 193.756C190.899 193.428 191.504 193.264 192.194 193.264C192.883 193.264 193.486 193.428 194.003 193.756C194.524 194.085 194.928 194.545 195.216 195.138C195.508 195.732 195.654 196.426 195.654 197.222C195.654 198.01 195.508 198.7 195.216 199.29C194.928 199.88 194.524 200.339 194.003 200.667C193.486 200.995 192.883 201.159 192.194 201.159ZM192.194 200.105C192.717 200.105 193.148 199.971 193.486 199.702C193.824 199.434 194.075 199.081 194.237 198.643C194.399 198.206 194.481 197.732 194.481 197.222C194.481 196.711 194.399 196.236 194.237 195.795C194.075 195.354 193.824 194.998 193.486 194.726C193.148 194.454 192.717 194.318 192.194 194.318C191.67 194.318 191.239 194.454 190.901 194.726C190.563 194.998 190.313 195.354 190.15 195.795C189.988 196.236 189.907 196.711 189.907 197.222C189.907 197.732 189.988 198.206 190.15 198.643C190.313 199.081 190.563 199.434 190.901 199.702C191.239 199.971 191.67 200.105 192.194 200.105ZM198.618 196.406V201H197.445V193.364H198.578V194.557H198.678C198.857 194.169 199.129 193.857 199.493 193.622C199.858 193.384 200.328 193.264 200.905 193.264C201.422 193.264 201.875 193.37 202.262 193.582C202.65 193.791 202.952 194.109 203.167 194.537C203.383 194.961 203.49 195.498 203.49 196.148V201H202.317V196.227C202.317 195.627 202.161 195.16 201.85 194.825C201.538 194.487 201.111 194.318 200.567 194.318C200.193 194.318 199.858 194.399 199.563 194.562C199.271 194.724 199.041 194.961 198.872 195.273C198.703 195.584 198.618 195.962 198.618 196.406Z" fill="white"/>
<defs>
<filter id="filter0_d_195_98" x="0" y="0" width="472" height="303.652" filterUnits="userSpaceOnUse" color-interpolation-filters="sRGB">
<feFlood flood-opacity="0" result="BackgroundImageFix"/>
<feColorMatrix in="SourceAlpha" type="matrix" values="0 0 0 0 0 0 0 0 0 0 0 0 0 0 0 0 0 0 127 0" result="hardAlpha"/>
<feMorphology radius="10" operator="dilate" in="SourceAlpha" result="effect1_dropShadow_195_98"/>
<feOffset/>
<feGaussianBlur stdDeviation="25"/>
<feColorMatrix type="matrix" values="0 0 0 0 0.0235294 0 0 0 0 0.054902 0 0 0 0 0.101961 0 0 0 0.3 0"/>
<feBlend mode="normal" in2="BackgroundImageFix" result="effect1_dropShadow_195_98"/>
<feBlend mode="normal" in="SourceGraphic" in2="effect1_dropShadow_195_98" result="shape"/>
</filter>
<linearGradient id="paint0_linear_195_98" x1="-106.957" y1="-22.087" x2="651.304" y2="375.13" gradientUnits="userSpaceOnUse">
<stop offset="0.307292" stop-color="#9747FF"/>
<stop offset="1" stop-color="#1937C4"/>
</linearGradient>
</defs>
</svg>
