<svg width="472" height="303" viewBox="0 0 472 303" fill="none" xmlns="http://www.w3.org/2000/svg">
<g filter="url(#filter0_d_78_20)">
<rect x="60" y="60" width="352" height="183" rx="10" fill="white"/>
<rect x="60" y="60" width="352" height="183" rx="10" fill="url(#paint0_linear_78_20)"/>
</g>
<path opacity="0.2" d="M80.575 104.006C79.8494 103.782 79.1237 103.667 78.4178 103.667C77.3277 103.667 76.4182 103.936 75.7129 104.264C76.3928 101.584 78.0262 96.9595 81.28 96.4387C81.5813 96.3905 81.8283 96.1559 81.9105 95.8401L82.6216 93.1015C82.6816 92.8698 82.646 92.6219 82.5233 92.4209C82.4006 92.22 82.2035 92.0859 81.9825 92.0532C81.7423 92.018 81.4976 92 81.255 92C77.3494 92 73.4815 96.3892 71.8494 102.674C70.8913 106.361 70.6104 111.904 72.9703 115.393C74.2909 117.345 76.2176 118.388 78.6969 118.492C78.7071 118.492 78.717 118.493 78.7272 118.493C81.7862 118.493 84.4988 116.275 85.324 113.099C85.817 111.201 85.5941 109.21 84.696 107.492C83.8075 105.793 82.3441 104.555 80.575 104.006Z" fill="#060E1A"/>
<path opacity="0.2" d="M99.7237 107.492C98.8352 105.793 97.3718 104.555 95.6027 104.006C94.8771 103.782 94.1514 103.667 93.4458 103.667C92.3558 103.667 91.4459 103.936 90.7406 104.264C91.4206 101.584 93.0539 96.9595 96.308 96.4387C96.6093 96.3905 96.856 96.1559 96.9385 95.8401L97.6496 93.1015C97.7096 92.8698 97.674 92.6219 97.5513 92.4209C97.429 92.22 97.2318 92.0859 97.0105 92.0532C96.7707 92.018 96.5259 92 96.283 92C92.3774 92 88.5095 96.3892 86.8771 102.674C85.9193 106.361 85.6384 111.904 87.9987 115.394C89.319 117.346 91.2459 118.389 93.7249 118.492C93.7351 118.493 93.745 118.493 93.7555 118.493C96.8142 118.493 99.5272 116.275 100.352 113.099C100.845 111.201 100.622 109.21 99.7237 107.492Z" fill="#060E1A"/>
<path opacity="0.2" d="M380.951 184.006C381.677 183.782 382.403 183.667 383.108 183.667C384.198 183.667 385.108 183.936 385.813 184.264C385.133 181.584 383.5 176.96 380.246 176.439C379.945 176.39 379.698 176.156 379.616 175.84L378.905 173.101C378.845 172.87 378.88 172.622 379.003 172.421C379.126 172.22 379.323 172.086 379.544 172.053C379.784 172.018 380.029 172 380.271 172C384.177 172 388.045 176.389 389.677 182.674C390.635 186.361 390.916 191.904 388.556 195.393C387.235 197.345 385.309 198.388 382.829 198.492C382.819 198.492 382.809 198.493 382.799 198.493C379.74 198.493 377.027 196.275 376.202 193.099C375.709 191.201 375.932 189.21 376.83 187.492C377.719 185.793 379.182 184.555 380.951 184.006Z" fill="#060E1A"/>
<path opacity="0.2" d="M361.803 187.492C362.691 185.793 364.155 184.555 365.924 184.006C366.649 183.782 367.375 183.667 368.081 183.667C369.171 183.667 370.08 183.936 370.786 184.264C370.106 181.584 368.472 176.96 365.218 176.439C364.917 176.39 364.67 176.156 364.588 175.84L363.877 173.101C363.817 172.87 363.852 172.622 363.975 172.421C364.097 172.22 364.295 172.086 364.516 172.053C364.756 172.018 365 172 365.243 172C369.149 172 373.017 176.389 374.649 182.674C375.607 186.361 375.888 191.904 373.528 195.394C372.207 197.346 370.28 198.389 367.801 198.492C367.791 198.493 367.781 198.493 367.771 198.493C364.712 198.493 361.999 196.275 361.174 193.099C360.682 191.201 360.905 189.21 361.803 187.492Z" fill="#060E1A"/>
<path d="M123.767 105V92.1504H125.261V105H123.767ZM134.621 95.3672V101.616C134.621 102.401 134.8 102.987 135.157 103.374C135.515 103.761 136.074 103.954 136.836 103.954C137.844 103.954 138.579 103.679 139.042 103.128C139.511 102.577 139.745 101.678 139.745 100.43V95.3672H141.204V105H140L139.789 103.708H139.71C139.411 104.183 138.995 104.546 138.462 104.798C137.935 105.05 137.331 105.176 136.651 105.176C135.479 105.176 134.601 104.897 134.015 104.341C133.435 103.784 133.145 102.894 133.145 101.669V95.3672H134.621ZM150.521 102.372C150.521 103.269 150.187 103.96 149.519 104.446C148.851 104.933 147.913 105.176 146.706 105.176C145.429 105.176 144.433 104.974 143.718 104.569V103.216C144.181 103.45 144.676 103.635 145.203 103.77C145.736 103.904 146.249 103.972 146.741 103.972C147.503 103.972 148.089 103.852 148.499 103.611C148.909 103.365 149.114 102.993 149.114 102.495C149.114 102.12 148.95 101.801 148.622 101.537C148.3 101.268 147.667 100.951 146.724 100.588C145.827 100.254 145.188 99.9639 144.808 99.7178C144.433 99.4658 144.151 99.1816 143.964 98.8652C143.782 98.5488 143.691 98.1709 143.691 97.7314C143.691 96.9463 144.011 96.3281 144.649 95.877C145.288 95.4199 146.164 95.1914 147.277 95.1914C148.314 95.1914 149.328 95.4023 150.318 95.8242L149.8 97.0107C148.833 96.6123 147.957 96.4131 147.172 96.4131C146.48 96.4131 145.959 96.5215 145.607 96.7383C145.256 96.9551 145.08 97.2539 145.08 97.6348C145.08 97.8926 145.145 98.1123 145.273 98.2939C145.408 98.4756 145.622 98.6484 145.915 98.8125C146.208 98.9766 146.771 99.2139 147.603 99.5244C148.745 99.9404 149.516 100.359 149.914 100.781C150.318 101.203 150.521 101.733 150.521 102.372ZM156.972 105.176C155.548 105.176 154.423 104.742 153.597 103.875C152.776 103.008 152.366 101.804 152.366 100.263C152.366 98.71 152.747 97.4766 153.509 96.5625C154.276 95.6484 155.305 95.1914 156.594 95.1914C157.801 95.1914 158.756 95.5898 159.459 96.3867C160.162 97.1777 160.514 98.2236 160.514 99.5244V100.447H153.878C153.907 101.578 154.191 102.437 154.73 103.022C155.275 103.608 156.04 103.901 157.024 103.901C158.062 103.901 159.087 103.685 160.101 103.251V104.552C159.585 104.774 159.096 104.933 158.633 105.026C158.176 105.126 157.622 105.176 156.972 105.176ZM156.576 96.4131C155.803 96.4131 155.185 96.665 154.722 97.1689C154.265 97.6729 153.995 98.3701 153.913 99.2607H158.949C158.949 98.3408 158.744 97.6377 158.334 97.1514C157.924 96.6592 157.338 96.4131 156.576 96.4131ZM175.982 105L174.383 100.913H169.232L167.65 105H166.139L171.219 92.0977H172.476L177.529 105H175.982ZM173.917 99.5684L172.423 95.5869C172.229 95.083 172.03 94.4648 171.825 93.7324C171.696 94.2949 171.512 94.9131 171.271 95.5869L169.76 99.5684H173.917ZM180.535 105H179.076V95.3672H180.535V105ZM178.953 92.7568C178.953 92.4229 179.035 92.1797 179.199 92.0273C179.363 91.8691 179.568 91.79 179.814 91.79C180.049 91.79 180.251 91.8691 180.421 92.0273C180.591 92.1855 180.676 92.4287 180.676 92.7568C180.676 93.085 180.591 93.3311 180.421 93.4951C180.251 93.6533 180.049 93.7324 179.814 93.7324C179.568 93.7324 179.363 93.6533 179.199 93.4951C179.035 93.3311 178.953 93.085 178.953 92.7568ZM188.023 95.1914C188.451 95.1914 188.835 95.2266 189.175 95.2969L188.973 96.6504C188.574 96.5625 188.223 96.5186 187.918 96.5186C187.139 96.5186 186.471 96.835 185.914 97.4678C185.363 98.1006 185.088 98.8887 185.088 99.832V105H183.629V95.3672H184.833L185 97.1514H185.07C185.428 96.5244 185.858 96.041 186.362 95.7012C186.866 95.3613 187.42 95.1914 188.023 95.1914ZM202.411 105H200.935L198.342 96.3955C198.219 96.0146 198.081 95.5342 197.929 94.9541C197.776 94.374 197.697 94.0254 197.691 93.9082C197.562 94.6816 197.357 95.5283 197.076 96.4482L194.562 105H193.086L189.667 92.1504H191.249L193.279 100.087C193.561 101.2 193.766 102.208 193.895 103.11C194.053 102.038 194.287 100.989 194.598 99.9639L196.9 92.1504H198.482L200.899 100.034C201.181 100.942 201.418 101.968 201.611 103.11C201.723 102.278 201.934 101.265 202.244 100.069L204.266 92.1504H205.848L202.411 105ZM209.1 105H207.641V95.3672H209.1V105ZM207.518 92.7568C207.518 92.4229 207.6 92.1797 207.764 92.0273C207.928 91.8691 208.133 91.79 208.379 91.79C208.613 91.79 208.815 91.8691 208.985 92.0273C209.155 92.1855 209.24 92.4287 209.24 92.7568C209.24 93.085 209.155 93.3311 208.985 93.4951C208.815 93.6533 208.613 93.7324 208.379 93.7324C208.133 93.7324 207.928 93.6533 207.764 93.4951C207.6 93.3311 207.518 93.085 207.518 92.7568ZM218.407 102.372C218.407 103.269 218.073 103.96 217.405 104.446C216.737 104.933 215.8 105.176 214.593 105.176C213.315 105.176 212.319 104.974 211.604 104.569V103.216C212.067 103.45 212.562 103.635 213.09 103.77C213.623 103.904 214.136 103.972 214.628 103.972C215.39 103.972 215.976 103.852 216.386 103.611C216.796 103.365 217.001 102.993 217.001 102.495C217.001 102.12 216.837 101.801 216.509 101.537C216.187 101.268 215.554 100.951 214.61 100.588C213.714 100.254 213.075 99.9639 212.694 99.7178C212.319 99.4658 212.038 99.1816 211.851 98.8652C211.669 98.5488 211.578 98.1709 211.578 97.7314C211.578 96.9463 211.897 96.3281 212.536 95.877C213.175 95.4199 214.051 95.1914 215.164 95.1914C216.201 95.1914 217.215 95.4023 218.205 95.8242L217.687 97.0107C216.72 96.6123 215.844 96.4131 215.059 96.4131C214.367 96.4131 213.846 96.5215 213.494 96.7383C213.143 96.9551 212.967 97.2539 212.967 97.6348C212.967 97.8926 213.031 98.1123 213.16 98.2939C213.295 98.4756 213.509 98.6484 213.802 98.8125C214.095 98.9766 214.657 99.2139 215.489 99.5244C216.632 99.9404 217.402 100.359 217.801 100.781C218.205 101.203 218.407 101.733 218.407 102.372ZM224.858 105.176C223.435 105.176 222.31 104.742 221.483 103.875C220.663 103.008 220.253 101.804 220.253 100.263C220.253 98.71 220.634 97.4766 221.396 96.5625C222.163 95.6484 223.191 95.1914 224.48 95.1914C225.688 95.1914 226.643 95.5898 227.346 96.3867C228.049 97.1777 228.4 98.2236 228.4 99.5244V100.447H221.765C221.794 101.578 222.078 102.437 222.617 103.022C223.162 103.608 223.927 103.901 224.911 103.901C225.948 103.901 226.974 103.685 227.987 103.251V104.552C227.472 104.774 226.982 104.933 226.52 105.026C226.062 105.126 225.509 105.176 224.858 105.176ZM224.463 96.4131C223.689 96.4131 223.071 96.665 222.608 97.1689C222.151 97.6729 221.882 98.3701 221.8 99.2607H226.836C226.836 98.3408 226.631 97.6377 226.221 97.1514C225.811 96.6592 225.225 96.4131 224.463 96.4131ZM239.642 105.176C238.218 105.176 237.093 104.742 236.267 103.875C235.446 103.008 235.036 101.804 235.036 100.263C235.036 98.71 235.417 97.4766 236.179 96.5625C236.946 95.6484 237.975 95.1914 239.264 95.1914C240.471 95.1914 241.426 95.5898 242.129 96.3867C242.832 97.1777 243.184 98.2236 243.184 99.5244V100.447H236.548C236.577 101.578 236.861 102.437 237.4 103.022C237.945 103.608 238.71 103.901 239.694 103.901C240.731 103.901 241.757 103.685 242.771 103.251V104.552C242.255 104.774 241.766 104.933 241.303 105.026C240.846 105.126 240.292 105.176 239.642 105.176ZM239.246 96.4131C238.473 96.4131 237.854 96.665 237.392 97.1689C236.935 97.6729 236.665 98.3701 236.583 99.2607H241.619C241.619 98.3408 241.414 97.6377 241.004 97.1514C240.594 96.6592 240.008 96.4131 239.246 96.4131ZM247.789 105L244.133 95.3672H245.697L247.771 101.08C248.24 102.416 248.516 103.283 248.598 103.682H248.668C248.732 103.371 248.935 102.729 249.274 101.757C249.62 100.778 250.391 98.6484 251.586 95.3672H253.15L249.494 105H247.789ZM258.767 105.176C257.343 105.176 256.218 104.742 255.392 103.875C254.571 103.008 254.161 101.804 254.161 100.263C254.161 98.71 254.542 97.4766 255.304 96.5625C256.071 95.6484 257.1 95.1914 258.389 95.1914C259.596 95.1914 260.551 95.5898 261.254 96.3867C261.957 97.1777 262.309 98.2236 262.309 99.5244V100.447H255.673C255.702 101.578 255.986 102.437 256.525 103.022C257.07 103.608 257.835 103.901 258.819 103.901C259.856 103.901 260.882 103.685 261.896 103.251V104.552C261.38 104.774 260.891 104.933 260.428 105.026C259.971 105.126 259.417 105.176 258.767 105.176ZM258.371 96.4131C257.598 96.4131 256.979 96.665 256.517 97.1689C256.06 97.6729 255.79 98.3701 255.708 99.2607H260.744C260.744 98.3408 260.539 97.6377 260.129 97.1514C259.719 96.6592 259.133 96.4131 258.371 96.4131ZM269.199 95.1914C269.627 95.1914 270.011 95.2266 270.351 95.2969L270.148 96.6504C269.75 96.5625 269.398 96.5186 269.094 96.5186C268.314 96.5186 267.646 96.835 267.09 97.4678C266.539 98.1006 266.264 98.8887 266.264 99.832V105H264.805V95.3672H266.009L266.176 97.1514H266.246C266.604 96.5244 267.034 96.041 267.538 95.7012C268.042 95.3613 268.596 95.1914 269.199 95.1914ZM270.623 95.3672H272.188L274.297 100.86C274.76 102.114 275.047 103.02 275.158 103.576H275.229C275.305 103.277 275.463 102.768 275.703 102.047C275.949 101.32 276.746 99.0938 278.094 95.3672H279.658L275.519 106.336C275.108 107.42 274.628 108.188 274.077 108.639C273.532 109.096 272.861 109.324 272.064 109.324C271.619 109.324 271.18 109.274 270.746 109.175V108.006C271.068 108.076 271.429 108.111 271.827 108.111C272.829 108.111 273.544 107.549 273.972 106.424L274.508 105.053L270.623 95.3672ZM289.01 103.972C289.268 103.972 289.517 103.954 289.757 103.919C289.997 103.878 290.188 103.837 290.328 103.796V104.912C290.17 104.988 289.936 105.05 289.625 105.097C289.32 105.149 289.045 105.176 288.799 105.176C286.936 105.176 286.004 104.194 286.004 102.231V96.501H284.624V95.7979L286.004 95.1914L286.619 93.1348H287.463V95.3672H290.258V96.501H287.463V102.17C287.463 102.75 287.601 103.195 287.876 103.506C288.151 103.816 288.529 103.972 289.01 103.972ZM293.721 105H292.262V95.3672H293.721V105ZM292.139 92.7568C292.139 92.4229 292.221 92.1797 292.385 92.0273C292.549 91.8691 292.754 91.79 293 91.79C293.234 91.79 293.437 91.8691 293.606 92.0273C293.776 92.1855 293.861 92.4287 293.861 92.7568C293.861 93.085 293.776 93.3311 293.606 93.4951C293.437 93.6533 293.234 93.7324 293 93.7324C292.754 93.7324 292.549 93.6533 292.385 93.4951C292.221 93.3311 292.139 93.085 292.139 92.7568ZM309.093 105V98.7334C309.093 97.9658 308.929 97.3916 308.601 97.0107C308.272 96.624 307.763 96.4307 307.071 96.4307C306.163 96.4307 305.492 96.6914 305.059 97.2129C304.625 97.7344 304.408 98.5371 304.408 99.6211V105H302.949V98.7334C302.949 97.9658 302.785 97.3916 302.457 97.0107C302.129 96.624 301.616 96.4307 300.919 96.4307C300.005 96.4307 299.334 96.7061 298.906 97.2568C298.484 97.8018 298.273 98.6982 298.273 99.9463V105H296.814V95.3672H298.001L298.238 96.6855H298.309C298.584 96.2168 298.971 95.8506 299.469 95.5869C299.973 95.3232 300.535 95.1914 301.156 95.1914C302.662 95.1914 303.646 95.7363 304.109 96.8262H304.18C304.467 96.3223 304.883 95.9238 305.428 95.6309C305.973 95.3379 306.594 95.1914 307.291 95.1914C308.381 95.1914 309.195 95.4727 309.734 96.0352C310.279 96.5918 310.552 97.4854 310.552 98.7158V105H309.093ZM317.636 105.176C316.212 105.176 315.087 104.742 314.261 103.875C313.44 103.008 313.03 101.804 313.03 100.263C313.03 98.71 313.411 97.4766 314.173 96.5625C314.94 95.6484 315.969 95.1914 317.258 95.1914C318.465 95.1914 319.42 95.5898 320.123 96.3867C320.826 97.1777 321.178 98.2236 321.178 99.5244V100.447H314.542C314.571 101.578 314.855 102.437 315.395 103.022C315.939 103.608 316.704 103.901 317.688 103.901C318.726 103.901 319.751 103.685 320.765 103.251V104.552C320.249 104.774 319.76 104.933 319.297 105.026C318.84 105.126 318.286 105.176 317.636 105.176ZM317.24 96.4131C316.467 96.4131 315.849 96.665 315.386 97.1689C314.929 97.6729 314.659 98.3701 314.577 99.2607H319.613C319.613 98.3408 319.408 97.6377 318.998 97.1514C318.588 96.6592 318.002 96.4131 317.24 96.4131ZM328.569 105V92.1504H330.063V105H328.569ZM131.413 130L129.646 124.349C129.535 124.003 129.327 123.218 129.022 121.993H128.952C128.718 123.019 128.513 123.81 128.337 124.366L126.518 130H124.83L122.202 120.367H123.731C124.353 122.787 124.824 124.63 125.146 125.896C125.475 127.161 125.662 128.014 125.709 128.453H125.779C125.844 128.119 125.946 127.688 126.087 127.161C126.233 126.628 126.359 126.206 126.465 125.896L128.231 120.367H129.813L131.536 125.896C131.864 126.903 132.087 127.75 132.204 128.436H132.274C132.298 128.225 132.359 127.899 132.459 127.46C132.564 127.021 133.177 124.656 134.296 120.367H135.808L133.145 130H131.413ZM143.48 130L143.19 128.629H143.12C142.64 129.232 142.159 129.643 141.679 129.859C141.204 130.07 140.609 130.176 139.895 130.176C138.939 130.176 138.189 129.93 137.645 129.438C137.105 128.945 136.836 128.245 136.836 127.337C136.836 125.392 138.392 124.372 141.503 124.278L143.138 124.226V123.628C143.138 122.872 142.974 122.315 142.646 121.958C142.323 121.595 141.805 121.413 141.09 121.413C140.287 121.413 139.379 121.659 138.365 122.151L137.917 121.035C138.392 120.777 138.91 120.575 139.473 120.429C140.041 120.282 140.609 120.209 141.178 120.209C142.326 120.209 143.176 120.464 143.727 120.974C144.283 121.483 144.562 122.301 144.562 123.426V130H143.48ZM140.185 128.972C141.093 128.972 141.805 128.723 142.32 128.225C142.842 127.727 143.103 127.029 143.103 126.133V125.263L141.644 125.324C140.483 125.365 139.646 125.547 139.13 125.869C138.62 126.186 138.365 126.681 138.365 127.354C138.365 127.882 138.523 128.283 138.84 128.559C139.162 128.834 139.61 128.972 140.185 128.972ZM154.168 130V123.769C154.168 122.983 153.989 122.397 153.632 122.011C153.274 121.624 152.715 121.431 151.953 121.431C150.945 121.431 150.207 121.703 149.738 122.248C149.27 122.793 149.035 123.692 149.035 124.946V130H147.576V120.367H148.763L149 121.686H149.07C149.369 121.211 149.788 120.845 150.327 120.587C150.866 120.323 151.467 120.191 152.129 120.191C153.289 120.191 154.162 120.473 154.748 121.035C155.334 121.592 155.627 122.485 155.627 123.716V130H154.168ZM161.744 128.972C162.002 128.972 162.251 128.954 162.491 128.919C162.731 128.878 162.922 128.837 163.062 128.796V129.912C162.904 129.988 162.67 130.05 162.359 130.097C162.055 130.149 161.779 130.176 161.533 130.176C159.67 130.176 158.738 129.194 158.738 127.231V121.501H157.358V120.798L158.738 120.191L159.354 118.135H160.197V120.367H162.992V121.501H160.197V127.17C160.197 127.75 160.335 128.195 160.61 128.506C160.886 128.816 161.264 128.972 161.744 128.972ZM172.783 128.972C173.041 128.972 173.29 128.954 173.53 128.919C173.771 128.878 173.961 128.837 174.102 128.796V129.912C173.943 129.988 173.709 130.05 173.398 130.097C173.094 130.149 172.818 130.176 172.572 130.176C170.709 130.176 169.777 129.194 169.777 127.231V121.501H168.397V120.798L169.777 120.191L170.393 118.135H171.236V120.367H174.031V121.501H171.236V127.17C171.236 127.75 171.374 128.195 171.649 128.506C171.925 128.816 172.303 128.972 172.783 128.972ZM184.35 125.175C184.35 126.745 183.954 127.973 183.163 128.857C182.372 129.736 181.279 130.176 179.885 130.176C179.023 130.176 178.259 129.974 177.591 129.569C176.923 129.165 176.407 128.585 176.044 127.829C175.681 127.073 175.499 126.188 175.499 125.175C175.499 123.604 175.892 122.383 176.677 121.51C177.462 120.631 178.552 120.191 179.946 120.191C181.294 120.191 182.363 120.64 183.154 121.536C183.951 122.433 184.35 123.646 184.35 125.175ZM177.011 125.175C177.011 126.405 177.257 127.343 177.749 127.987C178.241 128.632 178.965 128.954 179.92 128.954C180.875 128.954 181.599 128.635 182.091 127.996C182.589 127.352 182.838 126.411 182.838 125.175C182.838 123.95 182.589 123.021 182.091 122.389C181.599 121.75 180.869 121.431 179.902 121.431C178.947 121.431 178.227 121.744 177.74 122.371C177.254 122.998 177.011 123.933 177.011 125.175ZM195.661 130.176C194.237 130.176 193.112 129.742 192.286 128.875C191.466 128.008 191.056 126.804 191.056 125.263C191.056 123.71 191.437 122.477 192.198 121.562C192.966 120.648 193.994 120.191 195.283 120.191C196.49 120.191 197.445 120.59 198.148 121.387C198.852 122.178 199.203 123.224 199.203 124.524V125.447H192.567C192.597 126.578 192.881 127.437 193.42 128.022C193.965 128.608 194.729 128.901 195.714 128.901C196.751 128.901 197.776 128.685 198.79 128.251V129.552C198.274 129.774 197.785 129.933 197.322 130.026C196.865 130.126 196.312 130.176 195.661 130.176ZM195.266 121.413C194.492 121.413 193.874 121.665 193.411 122.169C192.954 122.673 192.685 123.37 192.603 124.261H197.639C197.639 123.341 197.434 122.638 197.023 122.151C196.613 121.659 196.027 121.413 195.266 121.413ZM208.291 130V123.769C208.291 122.983 208.112 122.397 207.755 122.011C207.397 121.624 206.838 121.431 206.076 121.431C205.068 121.431 204.33 121.703 203.861 122.248C203.393 122.793 203.158 123.692 203.158 124.946V130H201.699V120.367H202.886L203.123 121.686H203.193C203.492 121.211 203.911 120.845 204.45 120.587C204.989 120.323 205.59 120.191 206.252 120.191C207.412 120.191 208.285 120.473 208.871 121.035C209.457 121.592 209.75 122.485 209.75 123.716V130H208.291ZM220.64 120.367V121.29L218.855 121.501C219.02 121.706 219.166 121.976 219.295 122.31C219.424 122.638 219.488 123.01 219.488 123.426C219.488 124.369 219.166 125.122 218.521 125.685C217.877 126.247 216.992 126.528 215.867 126.528C215.58 126.528 215.311 126.505 215.059 126.458C214.438 126.786 214.127 127.199 214.127 127.697C214.127 127.961 214.235 128.157 214.452 128.286C214.669 128.409 215.041 128.471 215.568 128.471H217.273C218.316 128.471 219.116 128.69 219.673 129.13C220.235 129.569 220.517 130.208 220.517 131.046C220.517 132.112 220.089 132.924 219.233 133.48C218.378 134.043 217.13 134.324 215.489 134.324C214.229 134.324 213.257 134.09 212.571 133.621C211.892 133.152 211.552 132.49 211.552 131.635C211.552 131.049 211.739 130.542 212.114 130.114C212.489 129.687 213.017 129.396 213.696 129.244C213.45 129.133 213.242 128.96 213.072 128.726C212.908 128.491 212.826 128.219 212.826 127.908C212.826 127.557 212.92 127.249 213.107 126.985C213.295 126.722 213.591 126.467 213.995 126.221C213.497 126.016 213.09 125.667 212.773 125.175C212.463 124.683 212.308 124.12 212.308 123.487C212.308 122.433 212.624 121.621 213.257 121.053C213.89 120.479 214.786 120.191 215.946 120.191C216.45 120.191 216.904 120.25 217.309 120.367H220.64ZM212.958 131.617C212.958 132.139 213.178 132.534 213.617 132.804C214.057 133.073 214.687 133.208 215.507 133.208C216.731 133.208 217.637 133.023 218.223 132.654C218.814 132.291 219.11 131.796 219.11 131.169C219.11 130.647 218.949 130.284 218.627 130.079C218.305 129.88 217.698 129.78 216.808 129.78H215.059C214.396 129.78 213.881 129.938 213.512 130.255C213.143 130.571 212.958 131.025 212.958 131.617ZM213.749 123.452C213.749 124.126 213.939 124.636 214.32 124.981C214.701 125.327 215.231 125.5 215.911 125.5C217.335 125.5 218.047 124.809 218.047 123.426C218.047 121.979 217.326 121.255 215.885 121.255C215.199 121.255 214.672 121.439 214.303 121.809C213.934 122.178 213.749 122.726 213.749 123.452ZM228.541 130L228.251 128.629H228.181C227.7 129.232 227.22 129.643 226.739 129.859C226.265 130.07 225.67 130.176 224.955 130.176C224 130.176 223.25 129.93 222.705 129.438C222.166 128.945 221.896 128.245 221.896 127.337C221.896 125.392 223.452 124.372 226.563 124.278L228.198 124.226V123.628C228.198 122.872 228.034 122.315 227.706 121.958C227.384 121.595 226.865 121.413 226.15 121.413C225.348 121.413 224.439 121.659 223.426 122.151L222.978 121.035C223.452 120.777 223.971 120.575 224.533 120.429C225.102 120.282 225.67 120.209 226.238 120.209C227.387 120.209 228.236 120.464 228.787 120.974C229.344 121.483 229.622 122.301 229.622 123.426V130H228.541ZM225.245 128.972C226.153 128.972 226.865 128.723 227.381 128.225C227.902 127.727 228.163 127.029 228.163 126.133V125.263L226.704 125.324C225.544 125.365 224.706 125.547 224.19 125.869C223.681 126.186 223.426 126.681 223.426 127.354C223.426 127.882 223.584 128.283 223.9 128.559C224.223 128.834 224.671 128.972 225.245 128.972ZM240.521 120.367V121.29L238.736 121.501C238.9 121.706 239.047 121.976 239.176 122.31C239.305 122.638 239.369 123.01 239.369 123.426C239.369 124.369 239.047 125.122 238.402 125.685C237.758 126.247 236.873 126.528 235.748 126.528C235.461 126.528 235.191 126.505 234.939 126.458C234.318 126.786 234.008 127.199 234.008 127.697C234.008 127.961 234.116 128.157 234.333 128.286C234.55 128.409 234.922 128.471 235.449 128.471H237.154C238.197 128.471 238.997 128.69 239.554 129.13C240.116 129.569 240.397 130.208 240.397 131.046C240.397 132.112 239.97 132.924 239.114 133.48C238.259 134.043 237.011 134.324 235.37 134.324C234.11 134.324 233.138 134.09 232.452 133.621C231.772 133.152 231.433 132.49 231.433 131.635C231.433 131.049 231.62 130.542 231.995 130.114C232.37 129.687 232.897 129.396 233.577 129.244C233.331 129.133 233.123 128.96 232.953 128.726C232.789 128.491 232.707 128.219 232.707 127.908C232.707 127.557 232.801 127.249 232.988 126.985C233.176 126.722 233.472 126.467 233.876 126.221C233.378 126.016 232.971 125.667 232.654 125.175C232.344 124.683 232.188 124.12 232.188 123.487C232.188 122.433 232.505 121.621 233.138 121.053C233.771 120.479 234.667 120.191 235.827 120.191C236.331 120.191 236.785 120.25 237.189 120.367H240.521ZM232.839 131.617C232.839 132.139 233.059 132.534 233.498 132.804C233.938 133.073 234.567 133.208 235.388 133.208C236.612 133.208 237.518 133.023 238.104 132.654C238.695 132.291 238.991 131.796 238.991 131.169C238.991 130.647 238.83 130.284 238.508 130.079C238.186 129.88 237.579 129.78 236.688 129.78H234.939C234.277 129.78 233.762 129.938 233.393 130.255C233.023 130.571 232.839 131.025 232.839 131.617ZM233.63 123.452C233.63 124.126 233.82 124.636 234.201 124.981C234.582 125.327 235.112 125.5 235.792 125.5C237.216 125.5 237.928 124.809 237.928 123.426C237.928 121.979 237.207 121.255 235.766 121.255C235.08 121.255 234.553 121.439 234.184 121.809C233.814 122.178 233.63 122.726 233.63 123.452ZM246.567 130.176C245.144 130.176 244.019 129.742 243.192 128.875C242.372 128.008 241.962 126.804 241.962 125.263C241.962 123.71 242.343 122.477 243.104 121.562C243.872 120.648 244.9 120.191 246.189 120.191C247.396 120.191 248.352 120.59 249.055 121.387C249.758 122.178 250.109 123.224 250.109 124.524V125.447H243.474C243.503 126.578 243.787 127.437 244.326 128.022C244.871 128.608 245.636 128.901 246.62 128.901C247.657 128.901 248.683 128.685 249.696 128.251V129.552C249.181 129.774 248.691 129.933 248.229 130.026C247.771 130.126 247.218 130.176 246.567 130.176ZM246.172 121.413C245.398 121.413 244.78 121.665 244.317 122.169C243.86 122.673 243.591 123.37 243.509 124.261H248.545C248.545 123.341 248.34 122.638 247.93 122.151C247.52 121.659 246.934 121.413 246.172 121.413ZM258.74 130H257.281V120.367H258.74V130ZM257.158 117.757C257.158 117.423 257.24 117.18 257.404 117.027C257.568 116.869 257.773 116.79 258.02 116.79C258.254 116.79 258.456 116.869 258.626 117.027C258.796 117.186 258.881 117.429 258.881 117.757C258.881 118.085 258.796 118.331 258.626 118.495C258.456 118.653 258.254 118.732 258.02 118.732C257.773 118.732 257.568 118.653 257.404 118.495C257.24 118.331 257.158 118.085 257.158 117.757ZM268.426 130V123.769C268.426 122.983 268.247 122.397 267.89 122.011C267.532 121.624 266.973 121.431 266.211 121.431C265.203 121.431 264.465 121.703 263.996 122.248C263.527 122.793 263.293 123.692 263.293 124.946V130H261.834V120.367H263.021L263.258 121.686H263.328C263.627 121.211 264.046 120.845 264.585 120.587C265.124 120.323 265.725 120.191 266.387 120.191C267.547 120.191 268.42 120.473 269.006 121.035C269.592 121.592 269.885 122.485 269.885 123.716V130H268.426ZM285.881 125.175C285.881 126.745 285.485 127.973 284.694 128.857C283.903 129.736 282.811 130.176 281.416 130.176C280.555 130.176 279.79 129.974 279.122 129.569C278.454 129.165 277.938 128.585 277.575 127.829C277.212 127.073 277.03 126.188 277.03 125.175C277.03 123.604 277.423 122.383 278.208 121.51C278.993 120.631 280.083 120.191 281.478 120.191C282.825 120.191 283.895 120.64 284.686 121.536C285.482 122.433 285.881 123.646 285.881 125.175ZM278.542 125.175C278.542 126.405 278.788 127.343 279.28 127.987C279.772 128.632 280.496 128.954 281.451 128.954C282.406 128.954 283.13 128.635 283.622 127.996C284.12 127.352 284.369 126.411 284.369 125.175C284.369 123.95 284.12 123.021 283.622 122.389C283.13 121.75 282.4 121.431 281.434 121.431C280.479 121.431 279.758 121.744 279.271 122.371C278.785 122.998 278.542 123.933 278.542 125.175ZM289.818 120.367V126.616C289.818 127.401 289.997 127.987 290.354 128.374C290.712 128.761 291.271 128.954 292.033 128.954C293.041 128.954 293.776 128.679 294.239 128.128C294.708 127.577 294.942 126.678 294.942 125.43V120.367H296.401V130H295.197L294.986 128.708H294.907C294.608 129.183 294.192 129.546 293.659 129.798C293.132 130.05 292.528 130.176 291.849 130.176C290.677 130.176 289.798 129.897 289.212 129.341C288.632 128.784 288.342 127.894 288.342 126.669V120.367H289.818ZM302.615 128.972C302.873 128.972 303.122 128.954 303.362 128.919C303.603 128.878 303.793 128.837 303.934 128.796V129.912C303.775 129.988 303.541 130.05 303.23 130.097C302.926 130.149 302.65 130.176 302.404 130.176C300.541 130.176 299.609 129.194 299.609 127.231V121.501H298.229V120.798L299.609 120.191L300.225 118.135H301.068V120.367H303.863V121.501H301.068V127.17C301.068 127.75 301.206 128.195 301.481 128.506C301.757 128.816 302.135 128.972 302.615 128.972ZM312.424 128.708H312.345C311.671 129.687 310.663 130.176 309.321 130.176C308.062 130.176 307.08 129.745 306.377 128.884C305.68 128.022 305.331 126.798 305.331 125.21C305.331 123.622 305.683 122.389 306.386 121.51C307.089 120.631 308.067 120.191 309.321 120.191C310.628 120.191 311.63 120.666 312.327 121.615H312.441L312.38 120.921L312.345 120.244V116.324H313.804V130H312.617L312.424 128.708ZM309.506 128.954C310.502 128.954 311.223 128.685 311.668 128.146C312.119 127.601 312.345 126.725 312.345 125.518V125.21C312.345 123.845 312.116 122.872 311.659 122.292C311.208 121.706 310.484 121.413 309.488 121.413C308.633 121.413 307.977 121.747 307.52 122.415C307.068 123.077 306.843 124.015 306.843 125.228C306.843 126.458 307.068 127.387 307.52 128.014C307.971 128.641 308.633 128.954 309.506 128.954ZM325.221 125.175C325.221 126.745 324.825 127.973 324.034 128.857C323.243 129.736 322.15 130.176 320.756 130.176C319.895 130.176 319.13 129.974 318.462 129.569C317.794 129.165 317.278 128.585 316.915 127.829C316.552 127.073 316.37 126.188 316.37 125.175C316.37 123.604 316.763 122.383 317.548 121.51C318.333 120.631 319.423 120.191 320.817 120.191C322.165 120.191 323.234 120.64 324.025 121.536C324.822 122.433 325.221 123.646 325.221 125.175ZM317.882 125.175C317.882 126.405 318.128 127.343 318.62 127.987C319.112 128.632 319.836 128.954 320.791 128.954C321.746 128.954 322.47 128.635 322.962 127.996C323.46 127.352 323.709 126.411 323.709 125.175C323.709 123.95 323.46 123.021 322.962 122.389C322.47 121.75 321.74 121.431 320.773 121.431C319.818 121.431 319.098 121.744 318.611 122.371C318.125 122.998 317.882 123.933 317.882 125.175ZM336.102 125.175C336.102 126.745 335.706 127.973 334.915 128.857C334.124 129.736 333.031 130.176 331.637 130.176C330.775 130.176 330.011 129.974 329.343 129.569C328.675 129.165 328.159 128.585 327.796 127.829C327.433 127.073 327.251 126.188 327.251 125.175C327.251 123.604 327.644 122.383 328.429 121.51C329.214 120.631 330.304 120.191 331.698 120.191C333.046 120.191 334.115 120.64 334.906 121.536C335.703 122.433 336.102 123.646 336.102 125.175ZM328.763 125.175C328.763 126.405 329.009 127.343 329.501 127.987C329.993 128.632 330.717 128.954 331.672 128.954C332.627 128.954 333.351 128.635 333.843 127.996C334.341 127.352 334.59 126.411 334.59 125.175C334.59 123.95 334.341 123.021 333.843 122.389C333.351 121.75 332.621 121.431 331.654 121.431C330.699 121.431 329.979 121.744 329.492 122.371C329.006 122.998 328.763 123.933 328.763 125.175ZM343.062 120.191C343.49 120.191 343.874 120.227 344.214 120.297L344.012 121.65C343.613 121.562 343.262 121.519 342.957 121.519C342.178 121.519 341.51 121.835 340.953 122.468C340.402 123.101 340.127 123.889 340.127 124.832V130H338.668V120.367H339.872L340.039 122.151H340.109C340.467 121.524 340.897 121.041 341.401 120.701C341.905 120.361 342.459 120.191 343.062 120.191ZM129.761 152.372C129.761 153.269 129.427 153.96 128.759 154.446C128.091 154.933 127.153 155.176 125.946 155.176C124.669 155.176 123.673 154.974 122.958 154.569V153.216C123.421 153.45 123.916 153.635 124.443 153.77C124.977 153.904 125.489 153.972 125.981 153.972C126.743 153.972 127.329 153.852 127.739 153.611C128.149 153.365 128.354 152.993 128.354 152.495C128.354 152.12 128.19 151.801 127.862 151.537C127.54 151.268 126.907 150.951 125.964 150.588C125.067 150.254 124.429 149.964 124.048 149.718C123.673 149.466 123.392 149.182 123.204 148.865C123.022 148.549 122.932 148.171 122.932 147.731C122.932 146.946 123.251 146.328 123.89 145.877C124.528 145.42 125.404 145.191 126.518 145.191C127.555 145.191 128.568 145.402 129.559 145.824L129.04 147.011C128.073 146.612 127.197 146.413 126.412 146.413C125.721 146.413 125.199 146.521 124.848 146.738C124.496 146.955 124.32 147.254 124.32 147.635C124.32 147.893 124.385 148.112 124.514 148.294C124.648 148.476 124.862 148.648 125.155 148.812C125.448 148.977 126.011 149.214 126.843 149.524C127.985 149.94 128.756 150.359 129.154 150.781C129.559 151.203 129.761 151.733 129.761 152.372ZM136.625 155.176C135.998 155.176 135.424 155.062 134.902 154.833C134.387 154.599 133.953 154.241 133.602 153.761H133.496C133.566 154.323 133.602 154.856 133.602 155.36V159.324H132.143V145.367H133.329L133.531 146.686H133.602C133.977 146.158 134.413 145.777 134.911 145.543C135.409 145.309 135.98 145.191 136.625 145.191C137.902 145.191 138.887 145.628 139.578 146.501C140.275 147.374 140.624 148.599 140.624 150.175C140.624 151.757 140.27 152.987 139.561 153.866C138.857 154.739 137.879 155.176 136.625 155.176ZM136.414 146.431C135.43 146.431 134.718 146.703 134.278 147.248C133.839 147.793 133.613 148.66 133.602 149.85V150.175C133.602 151.528 133.827 152.498 134.278 153.084C134.729 153.664 135.453 153.954 136.449 153.954C137.281 153.954 137.932 153.617 138.4 152.943C138.875 152.27 139.112 151.341 139.112 150.157C139.112 148.956 138.875 148.036 138.4 147.397C137.932 146.753 137.27 146.431 136.414 146.431ZM151.496 150.175C151.496 151.745 151.101 152.973 150.31 153.857C149.519 154.736 148.426 155.176 147.031 155.176C146.17 155.176 145.405 154.974 144.737 154.569C144.069 154.165 143.554 153.585 143.19 152.829C142.827 152.073 142.646 151.188 142.646 150.175C142.646 148.604 143.038 147.383 143.823 146.51C144.608 145.631 145.698 145.191 147.093 145.191C148.44 145.191 149.51 145.64 150.301 146.536C151.098 147.433 151.496 148.646 151.496 150.175ZM144.157 150.175C144.157 151.405 144.403 152.343 144.896 152.987C145.388 153.632 146.111 153.954 147.066 153.954C148.021 153.954 148.745 153.635 149.237 152.996C149.735 152.352 149.984 151.411 149.984 150.175C149.984 148.95 149.735 148.021 149.237 147.389C148.745 146.75 148.016 146.431 147.049 146.431C146.094 146.431 145.373 146.744 144.887 147.371C144.4 147.998 144.157 148.933 144.157 150.175ZM158.457 145.191C158.885 145.191 159.269 145.227 159.608 145.297L159.406 146.65C159.008 146.562 158.656 146.519 158.352 146.519C157.572 146.519 156.904 146.835 156.348 147.468C155.797 148.101 155.521 148.889 155.521 149.832V155H154.062V145.367H155.267L155.434 147.151H155.504C155.861 146.524 156.292 146.041 156.796 145.701C157.3 145.361 157.854 145.191 158.457 145.191ZM164.521 153.972C164.779 153.972 165.028 153.954 165.269 153.919C165.509 153.878 165.699 153.837 165.84 153.796V154.912C165.682 154.988 165.447 155.05 165.137 155.097C164.832 155.149 164.557 155.176 164.311 155.176C162.447 155.176 161.516 154.194 161.516 152.231V146.501H160.136V145.798L161.516 145.191L162.131 143.135H162.975V145.367H165.77V146.501H162.975V152.17C162.975 152.75 163.112 153.195 163.388 153.506C163.663 153.816 164.041 153.972 164.521 153.972ZM173.987 152.372C173.987 153.269 173.653 153.96 172.985 154.446C172.317 154.933 171.38 155.176 170.173 155.176C168.896 155.176 167.899 154.974 167.185 154.569V153.216C167.647 153.45 168.143 153.635 168.67 153.77C169.203 153.904 169.716 153.972 170.208 153.972C170.97 153.972 171.556 153.852 171.966 153.611C172.376 153.365 172.581 152.993 172.581 152.495C172.581 152.12 172.417 151.801 172.089 151.537C171.767 151.268 171.134 150.951 170.19 150.588C169.294 150.254 168.655 149.964 168.274 149.718C167.899 149.466 167.618 149.182 167.431 148.865C167.249 148.549 167.158 148.171 167.158 147.731C167.158 146.946 167.478 146.328 168.116 145.877C168.755 145.42 169.631 145.191 170.744 145.191C171.781 145.191 172.795 145.402 173.785 145.824L173.267 147.011C172.3 146.612 171.424 146.413 170.639 146.413C169.947 146.413 169.426 146.521 169.074 146.738C168.723 146.955 168.547 147.254 168.547 147.635C168.547 147.893 168.611 148.112 168.74 148.294C168.875 148.476 169.089 148.648 169.382 148.812C169.675 148.977 170.237 149.214 171.069 149.524C172.212 149.94 172.982 150.359 173.381 150.781C173.785 151.203 173.987 151.733 173.987 152.372ZM176.158 154.068C176.158 153.676 176.246 153.38 176.422 153.181C176.604 152.976 176.861 152.873 177.195 152.873C177.535 152.873 177.799 152.976 177.986 153.181C178.18 153.38 178.276 153.676 178.276 154.068C178.276 154.449 178.18 154.742 177.986 154.947C177.793 155.152 177.529 155.255 177.195 155.255C176.896 155.255 176.647 155.164 176.448 154.982C176.255 154.795 176.158 154.49 176.158 154.068ZM186.063 155V142.15H187.558V155H186.063ZM196.918 145.367V151.616C196.918 152.401 197.097 152.987 197.454 153.374C197.812 153.761 198.371 153.954 199.133 153.954C200.141 153.954 200.876 153.679 201.339 153.128C201.808 152.577 202.042 151.678 202.042 150.43V145.367H203.501V155H202.297L202.086 153.708H202.007C201.708 154.183 201.292 154.546 200.759 154.798C200.231 155.05 199.628 155.176 198.948 155.176C197.776 155.176 196.897 154.897 196.312 154.341C195.731 153.784 195.441 152.894 195.441 151.669V145.367H196.918ZM212.817 152.372C212.817 153.269 212.483 153.96 211.815 154.446C211.147 154.933 210.21 155.176 209.003 155.176C207.726 155.176 206.729 154.974 206.015 154.569V153.216C206.478 153.45 206.973 153.635 207.5 153.77C208.033 153.904 208.546 153.972 209.038 153.972C209.8 153.972 210.386 153.852 210.796 153.611C211.206 153.365 211.411 152.993 211.411 152.495C211.411 152.12 211.247 151.801 210.919 151.537C210.597 151.268 209.964 150.951 209.021 150.588C208.124 150.254 207.485 149.964 207.104 149.718C206.729 149.466 206.448 149.182 206.261 148.865C206.079 148.549 205.988 148.171 205.988 147.731C205.988 146.946 206.308 146.328 206.946 145.877C207.585 145.42 208.461 145.191 209.574 145.191C210.611 145.191 211.625 145.402 212.615 145.824L212.097 147.011C211.13 146.612 210.254 146.413 209.469 146.413C208.777 146.413 208.256 146.521 207.904 146.738C207.553 146.955 207.377 147.254 207.377 147.635C207.377 147.893 207.441 148.112 207.57 148.294C207.705 148.476 207.919 148.648 208.212 148.812C208.505 148.977 209.067 149.214 209.899 149.524C211.042 149.94 211.812 150.359 212.211 150.781C212.615 151.203 212.817 151.733 212.817 152.372ZM219.269 155.176C217.845 155.176 216.72 154.742 215.894 153.875C215.073 153.008 214.663 151.804 214.663 150.263C214.663 148.71 215.044 147.477 215.806 146.562C216.573 145.648 217.602 145.191 218.891 145.191C220.098 145.191 221.053 145.59 221.756 146.387C222.459 147.178 222.811 148.224 222.811 149.524V150.447H216.175C216.204 151.578 216.488 152.437 217.027 153.022C217.572 153.608 218.337 153.901 219.321 153.901C220.358 153.901 221.384 153.685 222.397 153.251V154.552C221.882 154.774 221.393 154.933 220.93 155.026C220.473 155.126 219.919 155.176 219.269 155.176ZM218.873 146.413C218.1 146.413 217.481 146.665 217.019 147.169C216.562 147.673 216.292 148.37 216.21 149.261H221.246C221.246 148.341 221.041 147.638 220.631 147.151C220.221 146.659 219.635 146.413 218.873 146.413ZM231.863 153.708H231.784C231.11 154.687 230.103 155.176 228.761 155.176C227.501 155.176 226.52 154.745 225.816 153.884C225.119 153.022 224.771 151.798 224.771 150.21C224.771 148.622 225.122 147.389 225.825 146.51C226.528 145.631 227.507 145.191 228.761 145.191C230.067 145.191 231.069 145.666 231.767 146.615H231.881L231.819 145.921L231.784 145.244V141.324H233.243V155H232.057L231.863 153.708ZM228.945 153.954C229.941 153.954 230.662 153.685 231.107 153.146C231.559 152.601 231.784 151.725 231.784 150.518V150.21C231.784 148.845 231.556 147.872 231.099 147.292C230.647 146.706 229.924 146.413 228.928 146.413C228.072 146.413 227.416 146.747 226.959 147.415C226.508 148.077 226.282 149.015 226.282 150.228C226.282 151.458 226.508 152.387 226.959 153.014C227.41 153.641 228.072 153.954 228.945 153.954ZM244.133 153.972C244.391 153.972 244.64 153.954 244.88 153.919C245.12 153.878 245.311 153.837 245.451 153.796V154.912C245.293 154.988 245.059 155.05 244.748 155.097C244.443 155.149 244.168 155.176 243.922 155.176C242.059 155.176 241.127 154.194 241.127 152.231V146.501H239.747V145.798L241.127 145.191L241.742 143.135H242.586V145.367H245.381V146.501H242.586V152.17C242.586 152.75 242.724 153.195 242.999 153.506C243.274 153.816 243.652 153.972 244.133 153.972ZM255.699 150.175C255.699 151.745 255.304 152.973 254.513 153.857C253.722 154.736 252.629 155.176 251.234 155.176C250.373 155.176 249.608 154.974 248.94 154.569C248.272 154.165 247.757 153.585 247.394 152.829C247.03 152.073 246.849 151.188 246.849 150.175C246.849 148.604 247.241 147.383 248.026 146.51C248.812 145.631 249.901 145.191 251.296 145.191C252.644 145.191 253.713 145.64 254.504 146.536C255.301 147.433 255.699 148.646 255.699 150.175ZM248.36 150.175C248.36 151.405 248.606 152.343 249.099 152.987C249.591 153.632 250.314 153.954 251.27 153.954C252.225 153.954 252.948 153.635 253.44 152.996C253.938 152.352 254.188 151.411 254.188 150.175C254.188 148.95 253.938 148.021 253.44 147.389C252.948 146.75 252.219 146.431 251.252 146.431C250.297 146.431 249.576 146.744 249.09 147.371C248.604 147.998 248.36 148.933 248.36 150.175ZM266.791 155.176C265.396 155.176 264.315 154.748 263.548 153.893C262.786 153.031 262.405 151.815 262.405 150.245C262.405 148.634 262.792 147.389 263.565 146.51C264.345 145.631 265.452 145.191 266.888 145.191C267.351 145.191 267.813 145.241 268.276 145.341C268.739 145.44 269.103 145.558 269.366 145.692L268.918 146.932C268.596 146.803 268.244 146.697 267.863 146.615C267.482 146.527 267.146 146.483 266.853 146.483C264.896 146.483 263.917 147.731 263.917 150.228C263.917 151.411 264.154 152.319 264.629 152.952C265.109 153.585 265.818 153.901 266.756 153.901C267.559 153.901 268.382 153.729 269.226 153.383V154.675C268.581 155.009 267.77 155.176 266.791 155.176ZM279.834 150.175C279.834 151.745 279.438 152.973 278.647 153.857C277.856 154.736 276.764 155.176 275.369 155.176C274.508 155.176 273.743 154.974 273.075 154.569C272.407 154.165 271.892 153.585 271.528 152.829C271.165 152.073 270.983 151.188 270.983 150.175C270.983 148.604 271.376 147.383 272.161 146.51C272.946 145.631 274.036 145.191 275.431 145.191C276.778 145.191 277.848 145.64 278.639 146.536C279.436 147.433 279.834 148.646 279.834 150.175ZM272.495 150.175C272.495 151.405 272.741 152.343 273.233 152.987C273.726 153.632 274.449 153.954 275.404 153.954C276.359 153.954 277.083 153.635 277.575 152.996C278.073 152.352 278.322 151.411 278.322 150.175C278.322 148.95 278.073 148.021 277.575 147.389C277.083 146.75 276.354 146.431 275.387 146.431C274.432 146.431 273.711 146.744 273.225 147.371C272.738 147.998 272.495 148.933 272.495 150.175ZM283.771 145.367V151.616C283.771 152.401 283.95 152.987 284.308 153.374C284.665 153.761 285.225 153.954 285.986 153.954C286.994 153.954 287.729 153.679 288.192 153.128C288.661 152.577 288.896 151.678 288.896 150.43V145.367H290.354V155H289.15L288.939 153.708H288.86C288.562 154.183 288.146 154.546 287.612 154.798C287.085 155.05 286.481 155.176 285.802 155.176C284.63 155.176 283.751 154.897 283.165 154.341C282.585 153.784 282.295 152.894 282.295 151.669V145.367H283.771ZM301.341 145.367V146.29L299.557 146.501C299.721 146.706 299.867 146.976 299.996 147.31C300.125 147.638 300.189 148.01 300.189 148.426C300.189 149.369 299.867 150.122 299.223 150.685C298.578 151.247 297.693 151.528 296.568 151.528C296.281 151.528 296.012 151.505 295.76 151.458C295.139 151.786 294.828 152.199 294.828 152.697C294.828 152.961 294.937 153.157 295.153 153.286C295.37 153.409 295.742 153.471 296.27 153.471H297.975C299.018 153.471 299.817 153.69 300.374 154.13C300.937 154.569 301.218 155.208 301.218 156.046C301.218 157.112 300.79 157.924 299.935 158.48C299.079 159.043 297.831 159.324 296.19 159.324C294.931 159.324 293.958 159.09 293.272 158.621C292.593 158.152 292.253 157.49 292.253 156.635C292.253 156.049 292.44 155.542 292.815 155.114C293.19 154.687 293.718 154.396 294.397 154.244C294.151 154.133 293.943 153.96 293.773 153.726C293.609 153.491 293.527 153.219 293.527 152.908C293.527 152.557 293.621 152.249 293.809 151.985C293.996 151.722 294.292 151.467 294.696 151.221C294.198 151.016 293.791 150.667 293.475 150.175C293.164 149.683 293.009 149.12 293.009 148.487C293.009 147.433 293.325 146.621 293.958 146.053C294.591 145.479 295.487 145.191 296.647 145.191C297.151 145.191 297.605 145.25 298.01 145.367H301.341ZM293.659 156.617C293.659 157.139 293.879 157.534 294.318 157.804C294.758 158.073 295.388 158.208 296.208 158.208C297.433 158.208 298.338 158.023 298.924 157.654C299.516 157.291 299.812 156.796 299.812 156.169C299.812 155.647 299.65 155.284 299.328 155.079C299.006 154.88 298.399 154.78 297.509 154.78H295.76C295.098 154.78 294.582 154.938 294.213 155.255C293.844 155.571 293.659 156.025 293.659 156.617ZM294.45 148.452C294.45 149.126 294.641 149.636 295.021 149.981C295.402 150.327 295.933 150.5 296.612 150.5C298.036 150.5 298.748 149.809 298.748 148.426C298.748 146.979 298.027 146.255 296.586 146.255C295.9 146.255 295.373 146.439 295.004 146.809C294.635 147.178 294.45 147.726 294.45 148.452ZM309.91 155V148.769C309.91 147.983 309.731 147.397 309.374 147.011C309.017 146.624 308.457 146.431 307.695 146.431C306.682 146.431 305.94 146.706 305.472 147.257C305.009 147.808 304.777 148.71 304.777 149.964V155H303.318V141.324H304.777V145.464C304.777 145.962 304.754 146.375 304.707 146.703H304.795C305.082 146.24 305.489 145.877 306.017 145.613C306.55 145.344 307.156 145.209 307.836 145.209C309.014 145.209 309.896 145.49 310.481 146.053C311.073 146.609 311.369 147.497 311.369 148.716V155H309.91ZM324.975 155L324.685 153.629H324.614C324.134 154.232 323.653 154.643 323.173 154.859C322.698 155.07 322.104 155.176 321.389 155.176C320.434 155.176 319.684 154.93 319.139 154.438C318.6 153.945 318.33 153.245 318.33 152.337C318.33 150.392 319.886 149.372 322.997 149.278L324.632 149.226V148.628C324.632 147.872 324.468 147.315 324.14 146.958C323.817 146.595 323.299 146.413 322.584 146.413C321.781 146.413 320.873 146.659 319.859 147.151L319.411 146.035C319.886 145.777 320.404 145.575 320.967 145.429C321.535 145.282 322.104 145.209 322.672 145.209C323.82 145.209 324.67 145.464 325.221 145.974C325.777 146.483 326.056 147.301 326.056 148.426V155H324.975ZM321.679 153.972C322.587 153.972 323.299 153.723 323.814 153.225C324.336 152.727 324.597 152.029 324.597 151.133V150.263L323.138 150.324C321.978 150.365 321.14 150.547 320.624 150.869C320.114 151.186 319.859 151.681 319.859 152.354C319.859 152.882 320.018 153.283 320.334 153.559C320.656 153.834 321.104 153.972 321.679 153.972ZM333.412 146.501H330.96V155H329.501V146.501H327.778V145.842L329.501 145.314V144.778C329.501 142.411 330.535 141.228 332.604 141.228C333.113 141.228 333.711 141.33 334.396 141.535L334.019 142.704C333.456 142.522 332.976 142.432 332.577 142.432C332.026 142.432 331.619 142.616 331.355 142.985C331.092 143.349 330.96 143.935 330.96 144.743V145.367H333.412V146.501ZM338.281 153.972C338.539 153.972 338.788 153.954 339.028 153.919C339.269 153.878 339.459 153.837 339.6 153.796V154.912C339.441 154.988 339.207 155.05 338.896 155.097C338.592 155.149 338.316 155.176 338.07 155.176C336.207 155.176 335.275 154.194 335.275 152.231V146.501H333.896V145.798L335.275 145.191L335.891 143.135H336.734V145.367H339.529V146.501H336.734V152.17C336.734 152.75 336.872 153.195 337.147 153.506C337.423 153.816 337.801 153.972 338.281 153.972ZM345.603 155.176C344.179 155.176 343.054 154.742 342.228 153.875C341.407 153.008 340.997 151.804 340.997 150.263C340.997 148.71 341.378 147.477 342.14 146.562C342.907 145.648 343.936 145.191 345.225 145.191C346.432 145.191 347.387 145.59 348.09 146.387C348.793 147.178 349.145 148.224 349.145 149.524V150.447H342.509C342.538 151.578 342.822 152.437 343.361 153.022C343.906 153.608 344.671 153.901 345.655 153.901C346.692 153.901 347.718 153.685 348.731 153.251V154.552C348.216 154.774 347.727 154.933 347.264 155.026C346.807 155.126 346.253 155.176 345.603 155.176ZM345.207 146.413C344.434 146.413 343.815 146.665 343.353 147.169C342.896 147.673 342.626 148.37 342.544 149.261H347.58C347.58 148.341 347.375 147.638 346.965 147.151C346.555 146.659 345.969 146.413 345.207 146.413ZM356.035 145.191C356.463 145.191 356.847 145.227 357.187 145.297L356.984 146.65C356.586 146.562 356.234 146.519 355.93 146.519C355.15 146.519 354.482 146.835 353.926 147.468C353.375 148.101 353.1 148.889 353.1 149.832V155H351.641V145.367H352.845L353.012 147.151H353.082C353.439 146.524 353.87 146.041 354.374 145.701C354.878 145.361 355.432 145.191 356.035 145.191ZM122.378 184.324C121.821 184.324 121.37 184.251 121.024 184.104V182.918C121.429 183.035 121.827 183.094 122.22 183.094C122.677 183.094 123.011 182.968 123.222 182.716C123.438 182.47 123.547 182.092 123.547 181.582V170.367H125.006V181.477C125.006 183.375 124.13 184.324 122.378 184.324ZM123.424 167.757C123.424 167.423 123.506 167.18 123.67 167.027C123.834 166.869 124.039 166.79 124.285 166.79C124.52 166.79 124.722 166.869 124.892 167.027C125.062 167.186 125.146 167.429 125.146 167.757C125.146 168.085 125.062 168.331 124.892 168.495C124.722 168.653 124.52 168.732 124.285 168.732C124.039 168.732 123.834 168.653 123.67 168.495C123.506 168.331 123.424 168.085 123.424 167.757ZM136.414 175.175C136.414 176.745 136.019 177.973 135.228 178.857C134.437 179.736 133.344 180.176 131.949 180.176C131.088 180.176 130.323 179.974 129.655 179.569C128.987 179.165 128.472 178.585 128.108 177.829C127.745 177.073 127.563 176.188 127.563 175.175C127.563 173.604 127.956 172.383 128.741 171.51C129.526 170.631 130.616 170.191 132.011 170.191C133.358 170.191 134.428 170.64 135.219 171.536C136.016 172.433 136.414 173.646 136.414 175.175ZM129.075 175.175C129.075 176.405 129.321 177.343 129.813 177.987C130.306 178.632 131.029 178.954 131.984 178.954C132.939 178.954 133.663 178.635 134.155 177.996C134.653 177.352 134.902 176.411 134.902 175.175C134.902 173.95 134.653 173.021 134.155 172.389C133.663 171.75 132.934 171.431 131.967 171.431C131.012 171.431 130.291 171.744 129.805 172.371C129.318 172.998 129.075 173.933 129.075 175.175ZM146.864 170.367V171.29L145.08 171.501C145.244 171.706 145.391 171.976 145.52 172.31C145.648 172.638 145.713 173.01 145.713 173.426C145.713 174.369 145.391 175.122 144.746 175.685C144.102 176.247 143.217 176.528 142.092 176.528C141.805 176.528 141.535 176.505 141.283 176.458C140.662 176.786 140.352 177.199 140.352 177.697C140.352 177.961 140.46 178.157 140.677 178.286C140.894 178.409 141.266 178.471 141.793 178.471H143.498C144.541 178.471 145.341 178.69 145.897 179.13C146.46 179.569 146.741 180.208 146.741 181.046C146.741 182.112 146.313 182.924 145.458 183.48C144.603 184.043 143.354 184.324 141.714 184.324C140.454 184.324 139.481 184.09 138.796 183.621C138.116 183.152 137.776 182.49 137.776 181.635C137.776 181.049 137.964 180.542 138.339 180.114C138.714 179.687 139.241 179.396 139.921 179.244C139.675 179.133 139.467 178.96 139.297 178.726C139.133 178.491 139.051 178.219 139.051 177.908C139.051 177.557 139.145 177.249 139.332 176.985C139.52 176.722 139.815 176.467 140.22 176.221C139.722 176.016 139.314 175.667 138.998 175.175C138.688 174.683 138.532 174.12 138.532 173.487C138.532 172.433 138.849 171.621 139.481 171.053C140.114 170.479 141.011 170.191 142.171 170.191C142.675 170.191 143.129 170.25 143.533 170.367H146.864ZM139.183 181.617C139.183 182.139 139.402 182.534 139.842 182.804C140.281 183.073 140.911 183.208 141.731 183.208C142.956 183.208 143.861 183.023 144.447 182.654C145.039 182.291 145.335 181.796 145.335 181.169C145.335 180.647 145.174 180.284 144.852 180.079C144.529 179.88 143.923 179.78 143.032 179.78H141.283C140.621 179.78 140.105 179.938 139.736 180.255C139.367 180.571 139.183 181.025 139.183 181.617ZM139.974 173.452C139.974 174.126 140.164 174.636 140.545 174.981C140.926 175.327 141.456 175.5 142.136 175.5C143.56 175.5 144.271 174.809 144.271 173.426C144.271 171.979 143.551 171.255 142.109 171.255C141.424 171.255 140.896 171.439 140.527 171.809C140.158 172.178 139.974 172.726 139.974 173.452ZM156.726 170.367V171.29L154.941 171.501C155.105 171.706 155.252 171.976 155.381 172.31C155.51 172.638 155.574 173.01 155.574 173.426C155.574 174.369 155.252 175.122 154.607 175.685C153.963 176.247 153.078 176.528 151.953 176.528C151.666 176.528 151.396 176.505 151.145 176.458C150.523 176.786 150.213 177.199 150.213 177.697C150.213 177.961 150.321 178.157 150.538 178.286C150.755 178.409 151.127 178.471 151.654 178.471H153.359C154.402 178.471 155.202 178.69 155.759 179.13C156.321 179.569 156.603 180.208 156.603 181.046C156.603 182.112 156.175 182.924 155.319 183.48C154.464 184.043 153.216 184.324 151.575 184.324C150.315 184.324 149.343 184.09 148.657 183.621C147.978 183.152 147.638 182.49 147.638 181.635C147.638 181.049 147.825 180.542 148.2 180.114C148.575 179.687 149.103 179.396 149.782 179.244C149.536 179.133 149.328 178.96 149.158 178.726C148.994 178.491 148.912 178.219 148.912 177.908C148.912 177.557 149.006 177.249 149.193 176.985C149.381 176.722 149.677 176.467 150.081 176.221C149.583 176.016 149.176 175.667 148.859 175.175C148.549 174.683 148.394 174.12 148.394 173.487C148.394 172.433 148.71 171.621 149.343 171.053C149.976 170.479 150.872 170.191 152.032 170.191C152.536 170.191 152.99 170.25 153.395 170.367H156.726ZM149.044 181.617C149.044 182.139 149.264 182.534 149.703 182.804C150.143 183.073 150.772 183.208 151.593 183.208C152.817 183.208 153.723 183.023 154.309 182.654C154.9 182.291 155.196 181.796 155.196 181.169C155.196 180.647 155.035 180.284 154.713 180.079C154.391 179.88 153.784 179.78 152.894 179.78H151.145C150.482 179.78 149.967 179.938 149.598 180.255C149.229 180.571 149.044 181.025 149.044 181.617ZM149.835 173.452C149.835 174.126 150.025 174.636 150.406 174.981C150.787 175.327 151.317 175.5 151.997 175.5C153.421 175.5 154.133 174.809 154.133 173.426C154.133 171.979 153.412 171.255 151.971 171.255C151.285 171.255 150.758 171.439 150.389 171.809C150.02 172.178 149.835 172.726 149.835 173.452ZM160.162 180H158.703V170.367H160.162V180ZM158.58 167.757C158.58 167.423 158.662 167.18 158.826 167.027C158.99 166.869 159.195 166.79 159.441 166.79C159.676 166.79 159.878 166.869 160.048 167.027C160.218 167.186 160.303 167.429 160.303 167.757C160.303 168.085 160.218 168.331 160.048 168.495C159.878 168.653 159.676 168.732 159.441 168.732C159.195 168.732 158.99 168.653 158.826 168.495C158.662 168.331 158.58 168.085 158.58 167.757ZM169.848 180V173.769C169.848 172.983 169.669 172.397 169.312 172.011C168.954 171.624 168.395 171.431 167.633 171.431C166.625 171.431 165.887 171.703 165.418 172.248C164.949 172.793 164.715 173.692 164.715 174.946V180H163.256V170.367H164.442L164.68 171.686H164.75C165.049 171.211 165.468 170.845 166.007 170.587C166.546 170.323 167.146 170.191 167.809 170.191C168.969 170.191 169.842 170.473 170.428 171.035C171.014 171.592 171.307 172.485 171.307 173.716V180H169.848ZM182.196 170.367V171.29L180.412 171.501C180.576 171.706 180.723 171.976 180.852 172.31C180.98 172.638 181.045 173.01 181.045 173.426C181.045 174.369 180.723 175.122 180.078 175.685C179.434 176.247 178.549 176.528 177.424 176.528C177.137 176.528 176.867 176.505 176.615 176.458C175.994 176.786 175.684 177.199 175.684 177.697C175.684 177.961 175.792 178.157 176.009 178.286C176.226 178.409 176.598 178.471 177.125 178.471H178.83C179.873 178.471 180.673 178.69 181.229 179.13C181.792 179.569 182.073 180.208 182.073 181.046C182.073 182.112 181.646 182.924 180.79 183.48C179.935 184.043 178.687 184.324 177.046 184.324C175.786 184.324 174.813 184.09 174.128 183.621C173.448 183.152 173.108 182.49 173.108 181.635C173.108 181.049 173.296 180.542 173.671 180.114C174.046 179.687 174.573 179.396 175.253 179.244C175.007 179.133 174.799 178.96 174.629 178.726C174.465 178.491 174.383 178.219 174.383 177.908C174.383 177.557 174.477 177.249 174.664 176.985C174.852 176.722 175.147 176.467 175.552 176.221C175.054 176.016 174.646 175.667 174.33 175.175C174.02 174.683 173.864 174.12 173.864 173.487C173.864 172.433 174.181 171.621 174.813 171.053C175.446 170.479 176.343 170.191 177.503 170.191C178.007 170.191 178.461 170.25 178.865 170.367H182.196ZM174.515 181.617C174.515 182.139 174.734 182.534 175.174 182.804C175.613 183.073 176.243 183.208 177.063 183.208C178.288 183.208 179.193 183.023 179.779 182.654C180.371 182.291 180.667 181.796 180.667 181.169C180.667 180.647 180.506 180.284 180.184 180.079C179.861 179.88 179.255 179.78 178.364 179.78H176.615C175.953 179.78 175.438 179.938 175.068 180.255C174.699 180.571 174.515 181.025 174.515 181.617ZM175.306 173.452C175.306 174.126 175.496 174.636 175.877 174.981C176.258 175.327 176.788 175.5 177.468 175.5C178.892 175.5 179.604 174.809 179.604 173.426C179.604 171.979 178.883 171.255 177.441 171.255C176.756 171.255 176.229 171.439 175.859 171.809C175.49 172.178 175.306 172.726 175.306 173.452ZM185.703 177.908L185.835 178.11C185.683 178.696 185.463 179.376 185.176 180.149C184.889 180.929 184.59 181.652 184.279 182.32H183.181C183.339 181.711 183.512 180.958 183.699 180.062C183.893 179.165 184.027 178.447 184.104 177.908H185.703ZM197.744 170.209C199.01 170.209 199.991 170.643 200.688 171.51C201.392 172.371 201.743 173.593 201.743 175.175C201.743 176.757 201.389 177.987 200.68 178.866C199.977 179.739 198.998 180.176 197.744 180.176C197.117 180.176 196.543 180.062 196.021 179.833C195.506 179.599 195.072 179.241 194.721 178.761H194.615L194.308 180H193.262V166.324H194.721V169.646C194.721 170.391 194.697 171.059 194.65 171.65H194.721C195.4 170.689 196.408 170.209 197.744 170.209ZM197.533 171.431C196.537 171.431 195.819 171.718 195.38 172.292C194.94 172.86 194.721 173.821 194.721 175.175C194.721 176.528 194.946 177.498 195.397 178.084C195.849 178.664 196.572 178.954 197.568 178.954C198.465 178.954 199.133 178.629 199.572 177.979C200.012 177.322 200.231 176.382 200.231 175.157C200.231 173.903 200.012 172.969 199.572 172.354C199.133 171.738 198.453 171.431 197.533 171.431ZM205.672 170.367V176.616C205.672 177.401 205.851 177.987 206.208 178.374C206.565 178.761 207.125 178.954 207.887 178.954C208.895 178.954 209.63 178.679 210.093 178.128C210.562 177.577 210.796 176.678 210.796 175.43V170.367H212.255V180H211.051L210.84 178.708H210.761C210.462 179.183 210.046 179.546 209.513 179.798C208.985 180.05 208.382 180.176 207.702 180.176C206.53 180.176 205.651 179.897 205.065 179.341C204.485 178.784 204.195 177.894 204.195 176.669V170.367H205.672ZM218.469 178.972C218.727 178.972 218.976 178.954 219.216 178.919C219.456 178.878 219.646 178.837 219.787 178.796V179.912C219.629 179.988 219.395 180.05 219.084 180.097C218.779 180.149 218.504 180.176 218.258 180.176C216.395 180.176 215.463 179.194 215.463 177.231V171.501H214.083V170.798L215.463 170.191L216.078 168.135H216.922V170.367H219.717V171.501H216.922V177.17C216.922 177.75 217.06 178.195 217.335 178.506C217.61 178.816 217.988 178.972 218.469 178.972ZM232.988 180V173.769C232.988 172.983 232.81 172.397 232.452 172.011C232.095 171.624 231.535 171.431 230.773 171.431C229.766 171.431 229.027 171.703 228.559 172.248C228.09 172.793 227.855 173.692 227.855 174.946V180H226.396V170.367H227.583L227.82 171.686H227.891C228.189 171.211 228.608 170.845 229.147 170.587C229.687 170.323 230.287 170.191 230.949 170.191C232.109 170.191 232.982 170.473 233.568 171.035C234.154 171.592 234.447 172.485 234.447 173.716V180H232.988ZM245.768 175.175C245.768 176.745 245.372 177.973 244.581 178.857C243.79 179.736 242.697 180.176 241.303 180.176C240.441 180.176 239.677 179.974 239.009 179.569C238.341 179.165 237.825 178.585 237.462 177.829C237.099 177.073 236.917 176.188 236.917 175.175C236.917 173.604 237.31 172.383 238.095 171.51C238.88 170.631 239.97 170.191 241.364 170.191C242.712 170.191 243.781 170.64 244.572 171.536C245.369 172.433 245.768 173.646 245.768 175.175ZM238.429 175.175C238.429 176.405 238.675 177.343 239.167 177.987C239.659 178.632 240.383 178.954 241.338 178.954C242.293 178.954 243.017 178.635 243.509 177.996C244.007 177.352 244.256 176.411 244.256 175.175C244.256 173.95 244.007 173.021 243.509 172.389C243.017 171.75 242.287 171.431 241.32 171.431C240.365 171.431 239.645 171.744 239.158 172.371C238.672 172.998 238.429 173.933 238.429 175.175ZM251.445 178.972C251.703 178.972 251.952 178.954 252.192 178.919C252.433 178.878 252.623 178.837 252.764 178.796V179.912C252.605 179.988 252.371 180.05 252.061 180.097C251.756 180.149 251.48 180.176 251.234 180.176C249.371 180.176 248.439 179.194 248.439 177.231V171.501H247.06V170.798L248.439 170.191L249.055 168.135H249.898V170.367H252.693V171.501H249.898V177.17C249.898 177.75 250.036 178.195 250.312 178.506C250.587 178.816 250.965 178.972 251.445 178.972ZM265.297 180L265.007 178.629H264.937C264.456 179.232 263.976 179.643 263.495 179.859C263.021 180.07 262.426 180.176 261.711 180.176C260.756 180.176 260.006 179.93 259.461 179.438C258.922 178.945 258.652 178.245 258.652 177.337C258.652 175.392 260.208 174.372 263.319 174.278L264.954 174.226V173.628C264.954 172.872 264.79 172.315 264.462 171.958C264.14 171.595 263.621 171.413 262.906 171.413C262.104 171.413 261.195 171.659 260.182 172.151L259.733 171.035C260.208 170.777 260.727 170.575 261.289 170.429C261.857 170.282 262.426 170.209 262.994 170.209C264.143 170.209 264.992 170.464 265.543 170.974C266.1 171.483 266.378 172.301 266.378 173.426V180H265.297ZM262.001 178.972C262.909 178.972 263.621 178.723 264.137 178.225C264.658 177.727 264.919 177.029 264.919 176.133V175.263L263.46 175.324C262.3 175.365 261.462 175.547 260.946 175.869C260.437 176.186 260.182 176.681 260.182 177.354C260.182 177.882 260.34 178.283 260.656 178.559C260.979 178.834 261.427 178.972 262.001 178.972ZM275.984 180V173.769C275.984 172.983 275.806 172.397 275.448 172.011C275.091 171.624 274.531 171.431 273.77 171.431C272.762 171.431 272.023 171.703 271.555 172.248C271.086 172.793 270.852 173.692 270.852 174.946V180H269.393V170.367H270.579L270.816 171.686H270.887C271.186 171.211 271.604 170.845 272.144 170.587C272.683 170.323 273.283 170.191 273.945 170.191C275.105 170.191 275.979 170.473 276.564 171.035C277.15 171.592 277.443 172.485 277.443 173.716V180H275.984ZM278.92 170.367H280.484L282.594 175.86C283.057 177.114 283.344 178.02 283.455 178.576H283.525C283.602 178.277 283.76 177.768 284 177.047C284.246 176.32 285.043 174.094 286.391 170.367H287.955L283.815 181.336C283.405 182.42 282.925 183.188 282.374 183.639C281.829 184.096 281.158 184.324 280.361 184.324C279.916 184.324 279.477 184.274 279.043 184.175V183.006C279.365 183.076 279.726 183.111 280.124 183.111C281.126 183.111 281.841 182.549 282.269 181.424L282.805 180.053L278.92 170.367ZM301.798 180V173.733C301.798 172.966 301.634 172.392 301.306 172.011C300.978 171.624 300.468 171.431 299.776 171.431C298.868 171.431 298.197 171.691 297.764 172.213C297.33 172.734 297.113 173.537 297.113 174.621V180H295.654V173.733C295.654 172.966 295.49 172.392 295.162 172.011C294.834 171.624 294.321 171.431 293.624 171.431C292.71 171.431 292.039 171.706 291.611 172.257C291.189 172.802 290.979 173.698 290.979 174.946V180H289.52V170.367H290.706L290.943 171.686H291.014C291.289 171.217 291.676 170.851 292.174 170.587C292.678 170.323 293.24 170.191 293.861 170.191C295.367 170.191 296.352 170.736 296.814 171.826H296.885C297.172 171.322 297.588 170.924 298.133 170.631C298.678 170.338 299.299 170.191 299.996 170.191C301.086 170.191 301.9 170.473 302.439 171.035C302.984 171.592 303.257 172.485 303.257 173.716V180H301.798ZM314.586 175.175C314.586 176.745 314.19 177.973 313.399 178.857C312.608 179.736 311.516 180.176 310.121 180.176C309.26 180.176 308.495 179.974 307.827 179.569C307.159 179.165 306.644 178.585 306.28 177.829C305.917 177.073 305.735 176.188 305.735 175.175C305.735 173.604 306.128 172.383 306.913 171.51C307.698 170.631 308.788 170.191 310.183 170.191C311.53 170.191 312.6 170.64 313.391 171.536C314.188 172.433 314.586 173.646 314.586 175.175ZM307.247 175.175C307.247 176.405 307.493 177.343 307.985 177.987C308.478 178.632 309.201 178.954 310.156 178.954C311.111 178.954 311.835 178.635 312.327 177.996C312.825 177.352 313.074 176.411 313.074 175.175C313.074 173.95 312.825 173.021 312.327 172.389C311.835 171.75 311.105 171.431 310.139 171.431C309.184 171.431 308.463 171.744 307.977 172.371C307.49 172.998 307.247 173.933 307.247 175.175ZM321.547 170.191C321.975 170.191 322.358 170.227 322.698 170.297L322.496 171.65C322.098 171.562 321.746 171.519 321.441 171.519C320.662 171.519 319.994 171.835 319.438 172.468C318.887 173.101 318.611 173.889 318.611 174.832V180H317.152V170.367H318.356L318.523 172.151H318.594C318.951 171.524 319.382 171.041 319.886 170.701C320.39 170.361 320.943 170.191 321.547 170.191ZM328.569 180.176C327.146 180.176 326.021 179.742 325.194 178.875C324.374 178.008 323.964 176.804 323.964 175.263C323.964 173.71 324.345 172.477 325.106 171.562C325.874 170.648 326.902 170.191 328.191 170.191C329.398 170.191 330.354 170.59 331.057 171.387C331.76 172.178 332.111 173.224 332.111 174.524V175.447H325.476C325.505 176.578 325.789 177.437 326.328 178.022C326.873 178.608 327.638 178.901 328.622 178.901C329.659 178.901 330.685 178.685 331.698 178.251V179.552C331.183 179.774 330.693 179.933 330.23 180.026C329.773 180.126 329.22 180.176 328.569 180.176ZM328.174 171.413C327.4 171.413 326.782 171.665 326.319 172.169C325.862 172.673 325.593 173.37 325.511 174.261H330.547C330.547 173.341 330.342 172.638 329.932 172.151C329.521 171.659 328.936 171.413 328.174 171.413ZM334.396 179.068C334.396 178.676 334.484 178.38 334.66 178.181C334.842 177.976 335.1 177.873 335.434 177.873C335.773 177.873 336.037 177.976 336.225 178.181C336.418 178.38 336.515 178.676 336.515 179.068C336.515 179.449 336.418 179.742 336.225 179.947C336.031 180.152 335.768 180.255 335.434 180.255C335.135 180.255 334.886 180.164 334.687 179.982C334.493 179.795 334.396 179.49 334.396 179.068Z" fill="white"/>
<path d="M123.233 216V205.818H126.793C127.502 205.818 128.087 205.941 128.548 206.186C129.008 206.428 129.351 206.754 129.577 207.165C129.802 207.573 129.915 208.026 129.915 208.523C129.915 208.96 129.837 209.321 129.681 209.607C129.529 209.892 129.326 210.117 129.075 210.283C128.826 210.448 128.556 210.571 128.264 210.651V210.75C128.576 210.77 128.889 210.879 129.204 211.078C129.519 211.277 129.782 211.562 129.994 211.933C130.206 212.304 130.312 212.759 130.312 213.295C130.312 213.806 130.196 214.265 129.964 214.673C129.732 215.08 129.366 215.403 128.866 215.642C128.365 215.881 127.714 216 126.912 216H123.233ZM124.466 214.906H126.912C127.717 214.906 128.289 214.75 128.627 214.439C128.969 214.124 129.139 213.743 129.139 213.295C129.139 212.951 129.051 212.633 128.876 212.341C128.7 212.046 128.45 211.811 128.125 211.635C127.8 211.456 127.416 211.366 126.972 211.366H124.466V214.906ZM124.466 210.293H126.753C127.124 210.293 127.459 210.22 127.757 210.074C128.059 209.928 128.297 209.723 128.473 209.457C128.652 209.192 128.741 208.881 128.741 208.523C128.741 208.075 128.586 207.696 128.274 207.384C127.963 207.069 127.469 206.912 126.793 206.912H124.466V210.293ZM135.381 216.159C134.645 216.159 134.011 215.997 133.477 215.672C132.947 215.344 132.537 214.886 132.249 214.3C131.964 213.71 131.821 213.024 131.821 212.241C131.821 211.459 131.964 210.77 132.249 210.173C132.537 209.573 132.938 209.106 133.452 208.771C133.969 208.433 134.572 208.264 135.262 208.264C135.659 208.264 136.052 208.33 136.44 208.463C136.828 208.596 137.181 208.811 137.499 209.109C137.817 209.404 138.071 209.795 138.26 210.283C138.449 210.77 138.543 211.37 138.543 212.082V212.58H132.657V211.565H137.35C137.35 211.134 137.264 210.75 137.091 210.412C136.922 210.074 136.68 209.807 136.365 209.612C136.054 209.416 135.686 209.318 135.262 209.318C134.794 209.318 134.39 209.434 134.049 209.666C133.711 209.895 133.45 210.193 133.268 210.561C133.086 210.929 132.995 211.323 132.995 211.744V212.42C132.995 212.997 133.094 213.486 133.293 213.887C133.495 214.285 133.775 214.588 134.133 214.797C134.491 215.002 134.907 215.105 135.381 215.105C135.689 215.105 135.968 215.062 136.216 214.976C136.468 214.886 136.685 214.754 136.868 214.578C137.05 214.399 137.191 214.177 137.29 213.912L138.424 214.23C138.304 214.615 138.104 214.953 137.822 215.244C137.54 215.533 137.192 215.758 136.778 215.92C136.364 216.08 135.898 216.159 135.381 216.159ZM141.501 211.406V216H140.328V208.364H141.461V209.557H141.561C141.74 209.169 142.011 208.857 142.376 208.622C142.741 208.384 143.211 208.264 143.788 208.264C144.305 208.264 144.757 208.37 145.145 208.582C145.533 208.791 145.835 209.109 146.05 209.537C146.266 209.961 146.373 210.498 146.373 211.148V216H145.2V211.227C145.2 210.627 145.044 210.16 144.733 209.825C144.421 209.487 143.993 209.318 143.45 209.318C143.075 209.318 142.741 209.399 142.446 209.562C142.154 209.724 141.924 209.961 141.755 210.273C141.586 210.584 141.501 210.962 141.501 211.406ZM152.614 216V205.818H153.847V210.352H159.276V205.818H160.509V216H159.276V211.446H153.847V216H152.614ZM167.631 212.878V208.364H168.804V216H167.631V214.707H167.551C167.372 215.095 167.094 215.425 166.716 215.697C166.338 215.965 165.861 216.099 165.284 216.099C164.807 216.099 164.382 215.995 164.011 215.786C163.64 215.574 163.348 215.256 163.136 214.832C162.924 214.404 162.818 213.866 162.818 213.216V208.364H163.991V213.136C163.991 213.693 164.147 214.137 164.459 214.469C164.773 214.8 165.175 214.966 165.662 214.966C165.953 214.966 166.25 214.891 166.552 214.742C166.857 214.593 167.112 214.364 167.317 214.056C167.526 213.748 167.631 213.355 167.631 212.878ZM176.362 210.074L175.308 210.372C175.242 210.196 175.144 210.026 175.015 209.86C174.889 209.691 174.716 209.552 174.498 209.442C174.279 209.333 173.999 209.278 173.657 209.278C173.19 209.278 172.801 209.386 172.489 209.602C172.181 209.814 172.027 210.084 172.027 210.412C172.027 210.704 172.133 210.934 172.345 211.103C172.557 211.272 172.888 211.413 173.339 211.526L174.473 211.804C175.155 211.97 175.664 212.223 175.999 212.565C176.334 212.903 176.501 213.339 176.501 213.872C176.501 214.31 176.375 214.701 176.123 215.045C175.875 215.39 175.527 215.662 175.079 215.861C174.632 216.06 174.111 216.159 173.518 216.159C172.739 216.159 172.095 215.99 171.584 215.652C171.074 215.314 170.751 214.82 170.615 214.17L171.728 213.892C171.834 214.303 172.035 214.611 172.33 214.817C172.628 215.022 173.018 215.125 173.498 215.125C174.045 215.125 174.479 215.009 174.801 214.777C175.126 214.542 175.288 214.26 175.288 213.932C175.288 213.667 175.195 213.445 175.01 213.266C174.824 213.083 174.539 212.947 174.154 212.858L172.882 212.56C172.182 212.394 171.669 212.137 171.341 211.789C171.016 211.438 170.853 210.999 170.853 210.472C170.853 210.041 170.974 209.66 171.216 209.328C171.462 208.997 171.795 208.737 172.216 208.548C172.64 208.359 173.12 208.264 173.657 208.264C174.413 208.264 175.006 208.43 175.437 208.761C175.871 209.093 176.18 209.53 176.362 210.074ZM181.588 208.364V209.358H177.631V208.364H181.588ZM178.784 206.534H179.958V213.812C179.958 214.144 180.006 214.393 180.102 214.558C180.201 214.721 180.327 214.83 180.48 214.886C180.635 214.939 180.799 214.966 180.972 214.966C181.101 214.966 181.207 214.959 181.29 214.946C181.373 214.929 181.439 214.916 181.489 214.906L181.727 215.96C181.648 215.99 181.537 216.02 181.394 216.05C181.252 216.083 181.071 216.099 180.852 216.099C180.521 216.099 180.196 216.028 179.878 215.886C179.563 215.743 179.301 215.526 179.093 215.234C178.887 214.943 178.784 214.575 178.784 214.131V206.534ZM186.373 216.159C185.684 216.159 185.079 215.995 184.559 215.667C184.042 215.339 183.637 214.88 183.346 214.29C183.057 213.7 182.913 213.01 182.913 212.222C182.913 211.426 183.057 210.732 183.346 210.138C183.637 209.545 184.042 209.085 184.559 208.756C185.079 208.428 185.684 208.264 186.373 208.264C187.063 208.264 187.666 208.428 188.183 208.756C188.703 209.085 189.108 209.545 189.396 210.138C189.688 210.732 189.834 211.426 189.834 212.222C189.834 213.01 189.688 213.7 189.396 214.29C189.108 214.88 188.703 215.339 188.183 215.667C187.666 215.995 187.063 216.159 186.373 216.159ZM186.373 215.105C186.897 215.105 187.328 214.971 187.666 214.702C188.004 214.434 188.254 214.081 188.417 213.643C188.579 213.206 188.66 212.732 188.66 212.222C188.66 211.711 188.579 211.236 188.417 210.795C188.254 210.354 188.004 209.998 187.666 209.726C187.328 209.454 186.897 209.318 186.373 209.318C185.85 209.318 185.419 209.454 185.081 209.726C184.743 209.998 184.492 210.354 184.33 210.795C184.168 211.236 184.086 211.711 184.086 212.222C184.086 212.732 184.168 213.206 184.33 213.643C184.492 214.081 184.743 214.434 185.081 214.702C185.419 214.971 185.85 215.105 186.373 215.105ZM192.798 211.406V216H191.625V208.364H192.758V209.557H192.858C193.037 209.169 193.308 208.857 193.673 208.622C194.038 208.384 194.508 208.264 195.085 208.264C195.602 208.264 196.054 208.37 196.442 208.582C196.83 208.791 197.132 209.109 197.347 209.537C197.562 209.961 197.67 210.498 197.67 211.148V216H196.497V211.227C196.497 210.627 196.341 210.16 196.029 209.825C195.718 209.487 195.29 209.318 194.747 209.318C194.372 209.318 194.038 209.399 193.743 209.562C193.451 209.724 193.221 209.961 193.051 210.273C192.882 210.584 192.798 210.962 192.798 211.406Z" fill="white"/>
<defs>
<filter id="filter0_d_78_20" x="0" y="0" width="472" height="303" filterUnits="userSpaceOnUse" color-interpolation-filters="sRGB">
<feFlood flood-opacity="0" result="BackgroundImageFix"/>
<feColorMatrix in="SourceAlpha" type="matrix" values="0 0 0 0 0 0 0 0 0 0 0 0 0 0 0 0 0 0 127 0" result="hardAlpha"/>
<feMorphology radius="10" operator="dilate" in="SourceAlpha" result="effect1_dropShadow_78_20"/>
<feOffset/>
<feGaussianBlur stdDeviation="25"/>
<feColorMatrix type="matrix" values="0 0 0 0 0.0235294 0 0 0 0 0.054902 0 0 0 0 0.101961 0 0 0 0.3 0"/>
<feBlend mode="normal" in2="BackgroundImageFix" result="effect1_dropShadow_78_20"/>
<feBlend mode="normal" in="SourceGraphic" in2="effect1_dropShadow_78_20" result="shape"/>
</filter>
<linearGradient id="paint0_linear_78_20" x1="-106.957" y1="-21.7955" x2="650.14" y2="376.226" gradientUnits="userSpaceOnUse">
<stop offset="0.338542" stop-color="#9747FF"/>
<stop offset="1" stop-color="#1937C4"/>
</linearGradient>
</defs>
</svg>
