<svg width="41" height="40" viewBox="0 0 41 40" fill="none" xmlns="http://www.w3.org/2000/svg">
<g clip-path="url(#clip0_1_392)">
<circle cx="20.5" cy="20" r="19" fill="#140F18" stroke="#9747FF" stroke-width="2"/>
<path d="M26.8929 19.3023H21.1268C21.1268 19.902 21.1268 21.1013 21.1231 21.701H24.4644C24.3364 22.3006 23.8824 23.1402 23.241 23.5629C23.2404 23.5623 23.2398 23.5665 23.2385 23.5659C22.3857 24.129 21.2603 24.2567 20.4247 24.0888C19.1149 23.8286 18.0783 22.8787 17.6574 21.6722C17.6599 21.6704 17.6617 21.6536 17.6635 21.6524C17.4001 20.904 17.4001 19.902 17.6635 19.3023H17.6629C18.0023 18.2001 19.0702 17.1945 20.3818 16.9193C21.4368 16.6956 22.6271 16.9379 23.5026 17.757C23.619 17.6431 25.1138 16.1835 25.2259 16.0647C22.235 13.3561 17.4461 14.3089 15.6541 17.8068H15.6535C15.6535 17.8068 15.6541 17.8068 15.6504 17.8134C14.7639 19.5314 14.8007 21.5559 15.6565 23.1917C15.6541 23.1935 15.6523 23.1947 15.6504 23.1965C16.426 24.7017 17.8375 25.856 19.5382 26.2956C21.3449 26.7693 23.6441 26.4455 25.1843 25.0525C25.1849 25.0531 25.1855 25.0537 25.1861 25.0543C26.491 23.879 27.3034 21.8767 26.8929 19.3023" fill="#9747FF"/>
</g>
<defs>
<clipPath id="clip0_1_392">
<rect width="40" height="40" fill="white" transform="translate(0.5)"/>
</clipPath>
</defs>
</svg>
