<svg width="30" height="30" viewBox="0 0 30 30" fill="none" xmlns="http://www.w3.org/2000/svg">
<rect width="30" height="30" rx="15" fill="white"/>
<g clip-path="url(#clip0_418_156)">
<path d="M9.81819 21.9311V14.7562L7.54153 12.7206L5.5 11.5909V20.6649C5.5 21.3655 6.08076 21.9311 6.79549 21.9311H9.81819Z" fill="#4285F4"/>
<path d="M20.1818 21.9311H23.2045C23.9213 21.9311 24.5 21.3634 24.5 20.665V11.5911L22.1876 12.8849L20.1818 14.7563V21.9311Z" fill="#34A853"/>
<path d="M9.81821 14.7563L9.50842 11.9529L9.81821 9.26978L15 13.0682L20.1818 9.26978L20.5283 11.8081L20.1818 14.7563L15 18.5548L9.81821 14.7563Z" fill="#EA4335"/>
<path d="M20.1818 9.2697V14.7562L24.5 11.5909V9.90274C24.5 8.33699 22.6712 7.4444 21.3909 8.38342L20.1818 9.2697Z" fill="#FBBC04"/>
<path d="M5.5 11.591L7.48602 13.0468L9.81819 14.7563V9.26973L8.60902 8.38345C7.32652 7.44436 5.5 8.33703 5.5 9.90271V11.5909V11.591Z" fill="#C5221F"/>
</g>
<defs>
<clipPath id="clip0_418_156">
<rect width="19" height="14" fill="white" transform="translate(5.5 8)"/>
</clipPath>
</defs>
</svg>
