<svg width="31" height="30" viewBox="0 0 31 30" fill="none" xmlns="http://www.w3.org/2000/svg">
<ellipse cx="15.5" cy="15" rx="15.5" ry="15" fill="#393340"/>
<path d="M16 22.4062L16.2806 22.9341C16.1939 22.9774 16.0976 23 16 23C15.9024 23 15.8061 22.9774 15.7194 22.9341L15.7169 22.9325L15.7112 22.9301L15.6907 22.9198C14.1677 22.1198 12.7331 21.1715 11.4092 20.0897C9.29091 18.3462 7 15.7812 7 12.7596V12.7588C7 10.0205 9.31464 8 11.6931 8C13.57 8 15.0845 8.97028 16 10.4574C16.9164 8.97028 18.43 8 20.3069 8C22.6845 8 25 10.0197 25 12.7596C25 15.7812 22.7083 18.347 20.5908 20.0897C19.2668 21.1715 17.8322 22.1197 16.3093 22.9198L16.2888 22.9301L16.2831 22.9325L16.2815 22.9333L16 22.4062ZM11.6931 9.18713C9.99209 9.18713 8.22727 10.675 8.22727 12.7596C8.22727 15.2185 10.1287 17.4765 12.2045 19.1859C13.3656 20.1349 14.6164 20.9761 15.9403 21.6987L16 21.7311L16.0597 21.6995C16.2815 21.5784 16.6005 21.3987 16.9843 21.1661C17.7534 20.7007 18.7761 20.0256 19.7955 19.1859C21.8713 17.4765 23.7727 15.2185 23.7727 12.7596C23.7727 10.675 22.0079 9.18713 20.3069 9.18713C18.5838 9.18713 17.197 10.2864 16.5817 12.0703C16.5404 12.1878 16.4621 12.2898 16.3578 12.3621C16.2534 12.4344 16.1283 12.4732 16 12.4732C15.8717 12.4732 15.7466 12.4344 15.6422 12.3621C15.5379 12.2898 15.4596 12.1878 15.4183 12.0703C14.803 10.2864 13.4154 9.18713 11.6931 9.18713Z" fill="#FF2450"/>
</svg>
