<svg width="157" height="19" viewBox="0 0 157 19" fill="none" xmlns="http://www.w3.org/2000/svg">
<path fill-rule="evenodd" clip-rule="evenodd" d="M156.402 2.44905C155.673 0.837026 150.17 0.450936 133.717 0.797568C118.364 1.11124 100.438 0.525812 69.3219 3.14831C45.5379 5.15487 16.0265 9.48509 16.1095 10.9595C16.1698 12.0291 17.3278 11.9929 28.3175 10.4169C38.4737 8.97488 43.6949 8.47781 50.0709 7.8867C24.5841 11.5842 19.2032 13.3664 5.63769 15.5514C-2.86906 16.9296 2.2772 19.2208 5.38478 18.7848C5.41369 18.7832 45.0398 13.3033 48.8078 13.2651C49.1563 13.2744 45.3985 14.0081 40.4313 14.8969C26.5657 17.4179 29.4171 20.1571 39.8074 18.2379C74.7669 11.7737 107.819 8.52015 133.455 9.01937C141.555 9.17221 142.451 9.12173 142.409 8.37008C142.334 7.04024 140.08 6.15245 136.628 6.14384C131.232 6.09977 110.477 6.28235 101.094 6.5208C100.37 6.53259 100.686 5.96406 101.319 5.87042C105.113 5.27967 135.427 3.86212 147.36 3.59603C156.136 3.39178 156.771 3.32733 156.402 2.44905Z" fill="#562EFF"/>
</svg>
