<svg width="29" height="28" viewBox="0 0 29 28" fill="none" xmlns="http://www.w3.org/2000/svg">
<path d="M12.2671 2.92117C12.7315 2.54322 13.3194 2.33594 13.9268 2.33594C14.5342 2.33594 15.1221 2.54322 15.5865 2.92117L23.3129 9.21181C23.8932 9.68483 24.2286 10.38 24.2286 11.1127V21.4019C24.2286 21.9148 24.0176 22.4068 23.6419 22.7695C23.2662 23.1322 22.7567 23.3359 22.2255 23.3359H18.2192C17.688 23.3359 17.1785 23.1322 16.8028 22.7695C16.4271 22.4068 16.2161 21.9148 16.2161 21.4019V15.8683C16.2161 15.795 16.1859 15.7247 16.1323 15.6729C16.0786 15.6211 16.0058 15.592 15.9299 15.592H11.9237C11.8478 15.592 11.775 15.6211 11.7213 15.6729C11.6677 15.7247 11.6375 15.795 11.6375 15.8683V21.4019C11.6375 21.9148 11.4265 22.4068 11.0508 22.7695C10.6751 23.1322 10.1656 23.3359 9.63438 23.3359H5.62813C5.36507 23.3359 5.10459 23.2859 4.86156 23.1887C4.61853 23.0915 4.39771 22.9491 4.2117 22.7695C4.0257 22.5899 3.87815 22.3767 3.77748 22.142C3.67681 21.9074 3.625 21.6559 3.625 21.4019V11.1127C3.625 10.38 3.96038 9.68483 4.54072 9.21181L12.2671 2.92117ZM14.4797 4.1888C14.3249 4.06301 14.1291 3.99403 13.9268 3.99403C13.7245 3.99403 13.5287 4.06301 13.3739 4.1888L5.64759 10.4783C5.55197 10.5561 5.47509 10.653 5.4223 10.7624C5.36951 10.8717 5.34209 10.9909 5.34197 11.1116V21.4008C5.34197 21.5533 5.47017 21.6771 5.62813 21.6771H9.63438C9.71028 21.6771 9.78306 21.648 9.83673 21.5961C9.8904 21.5443 9.92054 21.4741 9.92054 21.4008V15.8672C9.92054 14.7985 10.8179 13.9331 11.9237 13.9331H15.9299C17.0357 13.9331 17.9331 14.7985 17.9331 15.8672V21.4008C17.9331 21.5533 18.0613 21.6771 18.2192 21.6771H22.2255C22.3014 21.6771 22.3742 21.648 22.4278 21.5961C22.4815 21.5443 22.5116 21.4741 22.5116 21.4008V11.1116C22.5115 10.9909 22.4841 10.8717 22.4313 10.7624C22.3785 10.653 22.3016 10.5561 22.206 10.4783L14.4797 4.1888Z" fill="white"/>
</svg>
