<svg width="42" height="42" viewBox="0 0 42 42" fill="none" xmlns="http://www.w3.org/2000/svg">
<circle cx="21" cy="21" r="21" fill="#74D413" fill-opacity="0.2"/>
<path d="M16.375 28.775C15.775 28.7583 15.204 28.6043 14.662 28.313C14.12 28.0217 13.6077 27.5923 13.125 27.025C12.4583 26.225 11.9373 25.271 11.562 24.163C11.1867 23.055 10.9993 21.9173 11 20.75C11 19.3667 11.2627 18.0667 11.788 16.85C12.3133 15.6333 13.0257 14.575 13.925 13.675C14.825 12.775 15.8833 12.0627 17.1 11.538C18.3167 11.0133 19.6167 10.7507 21 10.75C22.3833 10.75 23.6833 11.0167 24.9 11.55C26.1167 12.0833 27.175 12.8083 28.075 13.725C28.975 14.6417 29.6877 15.7167 30.213 16.95C30.7383 18.1833 31.0007 19.5083 31 20.925C31 22.2083 30.7917 23.4083 30.375 24.525C29.9583 25.6417 29.3667 26.5833 28.6 27.35C28.1333 27.8167 27.6417 28.171 27.125 28.413C26.6083 28.655 26.0833 28.7757 25.55 28.775C25.25 28.775 24.95 28.7377 24.65 28.663C24.35 28.5883 24.05 28.4757 23.75 28.325L22.35 27.625C22.15 27.525 21.9373 27.45 21.712 27.4C21.4867 27.35 21.2493 27.325 21 27.325C20.75 27.325 20.5123 27.35 20.287 27.4C20.0617 27.45 19.8493 27.525 19.65 27.625L18.25 28.325C17.9333 28.4917 17.6207 28.6127 17.312 28.688C17.0033 28.7633 16.691 28.7923 16.375 28.775ZM16.425 26.775C16.575 26.775 16.7293 26.7583 16.888 26.725C17.0467 26.6917 17.2007 26.6333 17.35 26.55L18.75 25.85C19.1 25.6667 19.4627 25.5333 19.838 25.45C20.2133 25.3667 20.5923 25.325 20.975 25.325C21.3583 25.325 21.7417 25.3667 22.125 25.45C22.5083 25.5333 22.875 25.6667 23.225 25.85L24.65 26.55C24.8 26.6333 24.95 26.6917 25.1 26.725C25.25 26.7583 25.4 26.775 25.55 26.775C25.8667 26.775 26.1667 26.6917 26.45 26.525C26.7333 26.3583 27.0167 26.1083 27.3 25.775C27.8333 25.1417 28.25 24.3833 28.55 23.5C28.85 22.6167 29 21.7083 29 20.775C29 18.5417 28.225 16.646 26.675 15.088C25.125 13.53 23.2333 12.7507 21 12.75C18.7667 12.75 16.875 13.5333 15.325 15.1C13.775 16.6667 13 18.5667 13 20.8C13 21.75 13.154 22.675 13.462 23.575C13.77 24.475 14.1993 25.2333 14.75 25.85C15.0333 26.1833 15.3083 26.421 15.575 26.563C15.8417 26.705 16.125 26.7757 16.425 26.775ZM21 22.75C21.55 22.75 22.021 22.5543 22.413 22.163C22.805 21.7717 23.0007 21.3007 23 20.75C23 20.6167 22.9873 20.4833 22.962 20.35C22.9367 20.2167 22.8993 20.0833 22.85 19.95L24.1 18.275C24.2833 18.5083 24.4333 18.7457 24.55 18.987C24.6667 19.2283 24.7667 19.4827 24.85 19.75C24.9333 20.0167 25.0583 20.25 25.225 20.45C25.3917 20.65 25.6083 20.75 25.875 20.75C26.2083 20.75 26.471 20.604 26.663 20.312C26.855 20.02 26.909 19.6993 26.825 19.35C26.4917 18 25.7833 16.896 24.7 16.038C23.6167 15.18 22.3833 14.7507 21 14.75C19.6 14.75 18.3623 15.1793 17.287 16.038C16.2117 16.8967 15.5077 18.0007 15.175 19.35C15.0917 19.7 15.146 20.021 15.338 20.313C15.53 20.605 15.7923 20.7507 16.125 20.75C16.3917 20.75 16.6083 20.65 16.775 20.45C16.9417 20.25 17.0667 20.0167 17.15 19.75C17.3833 18.8667 17.8543 18.1457 18.563 17.587C19.2717 17.0283 20.084 16.7493 21 16.75C21.2667 16.75 21.5293 16.775 21.788 16.825C22.0467 16.875 22.2923 16.95 22.525 17.05L21.25 18.775C21.2167 18.775 21.175 18.7707 21.125 18.762C21.075 18.7533 21.0333 18.7493 21 18.75C20.45 18.75 19.979 18.946 19.587 19.338C19.195 19.73 18.9993 20.2007 19 20.75C19 21.3 19.196 21.771 19.588 22.163C19.98 22.555 20.4507 22.7507 21 22.75Z" fill="#6AD300"/>
<path d="M35 20.25C35 28.2581 28.5081 34.75 20.5 34.75C12.4919 34.75 6 28.2581 6 20.25C6 12.2419 12.4919 5.75 20.5 5.75C28.5081 5.75 35 12.2419 35 20.25Z" fill="#74D413" fill-opacity="0.2"/>
</svg>
