<svg width="472" height="303" viewBox="0 0 472 303" fill="none" xmlns="http://www.w3.org/2000/svg">
<g filter="url(#filter0_d_78_30)">
<rect x="60" y="60" width="352" height="183" rx="10" fill="white"/>
<rect x="60" y="60" width="352" height="183" rx="10" fill="url(#paint0_linear_78_30)"/>
</g>
<path opacity="0.2" d="M85.9247 115.889C85.2052 115.668 84.4858 115.556 83.7859 115.556C82.7051 115.556 81.8033 115.819 81.1041 116.141C81.7782 113.514 83.3976 108.98 86.6237 108.469C86.9224 108.422 87.1673 108.192 87.2488 107.882L87.9539 105.198C88.0133 104.97 87.9781 104.727 87.8564 104.53C87.7348 104.333 87.5393 104.202 87.3202 104.17C87.0821 104.135 86.8394 104.118 86.5989 104.118C82.7266 104.118 78.8917 108.421 77.2735 114.582C76.3235 118.197 76.045 123.631 78.3849 127.052C79.6942 128.966 81.6045 129.988 84.0626 130.09C84.0727 130.091 84.0825 130.091 84.0926 130.091C87.1256 130.091 89.8151 127.916 90.6332 124.803C91.122 122.942 90.9011 120.99 90.0106 119.305C89.1296 117.64 87.6787 116.426 85.9247 115.889Z" fill="#060E1A"/>
<path opacity="0.2" d="M104.91 119.306C104.029 117.64 102.578 116.426 100.824 115.889C100.105 115.668 99.3854 115.556 98.6858 115.556C97.6051 115.556 96.7029 115.819 96.0037 116.141C96.6778 113.514 98.2973 108.98 101.524 108.469C101.822 108.422 102.067 108.192 102.149 107.882L102.854 105.198C102.913 104.97 102.878 104.727 102.756 104.53C102.635 104.333 102.44 104.202 102.22 104.17C101.982 104.135 101.74 104.118 101.499 104.118C97.6265 104.118 93.7916 108.421 92.1731 114.582C91.2235 118.197 90.9449 123.631 93.2851 127.053C94.5941 128.966 96.5047 129.989 98.9625 130.091C98.9726 130.091 98.9824 130.091 98.9929 130.091C102.026 130.091 104.715 127.917 105.533 124.803C106.022 122.942 105.8 120.99 104.91 119.306Z" fill="#060E1A"/>
<path opacity="0.2" d="M363.482 171.771C364.202 171.551 364.921 171.439 365.621 171.439C366.702 171.439 367.604 171.702 368.303 172.024C367.629 169.396 366.009 164.862 362.783 164.352C362.485 164.304 362.24 164.074 362.158 163.765L361.453 161.08C361.394 160.853 361.429 160.61 361.551 160.413C361.672 160.216 361.868 160.084 362.087 160.052C362.325 160.018 362.568 160 362.808 160C366.681 160 370.515 164.303 372.134 170.464C373.084 174.079 373.362 179.514 371.022 182.934C369.713 184.848 367.803 185.87 365.345 185.973C365.334 185.973 365.325 185.973 365.314 185.973C362.282 185.973 359.592 183.799 358.774 180.685C358.285 178.824 358.506 176.872 359.397 175.188C360.277 173.522 361.728 172.308 363.482 171.771Z" fill="#060E1A"/>
<path opacity="0.2" d="M344.497 175.188C345.378 173.522 346.829 172.308 348.583 171.771C349.302 171.551 350.022 171.439 350.721 171.439C351.802 171.439 352.704 171.702 353.403 172.024C352.729 169.396 351.11 164.862 347.884 164.352C347.585 164.304 347.34 164.074 347.258 163.765L346.553 161.08C346.494 160.853 346.529 160.61 346.651 160.413C346.772 160.216 346.968 160.084 347.187 160.052C347.425 160.018 347.667 160 347.908 160C351.781 160 355.616 164.303 357.234 170.464C358.184 174.079 358.462 179.514 356.122 182.935C354.813 184.849 352.902 185.871 350.445 185.973C350.435 185.973 350.425 185.974 350.414 185.974C347.382 185.974 344.692 183.799 343.874 180.686C343.386 178.824 343.607 176.872 344.497 175.188Z" fill="#060E1A"/>
<path d="M119.021 123.118L114.661 111.727H114.591C114.673 112.629 114.714 113.702 114.714 114.944V123.118H113.334V110.268H115.584L119.653 120.868H119.724L123.828 110.268H126.061V123.118H124.566V114.838C124.566 113.889 124.607 112.858 124.689 111.745H124.619L120.225 123.118H119.021ZM127.845 113.485H129.409L131.519 118.978C131.981 120.232 132.269 121.137 132.38 121.694H132.45C132.526 121.395 132.685 120.885 132.925 120.165C133.171 119.438 133.968 117.211 135.315 113.485H136.88L132.74 124.454C132.33 125.538 131.85 126.305 131.299 126.756C130.754 127.213 130.083 127.442 129.286 127.442C128.841 127.442 128.401 127.392 127.968 127.292V126.124C128.29 126.194 128.65 126.229 129.049 126.229C130.051 126.229 130.766 125.667 131.193 124.542L131.729 123.17L127.845 113.485ZM144.579 123.118H143.12V109.442H144.579V123.118ZM149.132 123.118H147.673V113.485H149.132V123.118ZM147.55 110.875C147.55 110.541 147.632 110.297 147.796 110.145C147.96 109.987 148.165 109.908 148.411 109.908C148.646 109.908 148.848 109.987 149.018 110.145C149.188 110.303 149.272 110.546 149.272 110.875C149.272 111.203 149.188 111.449 149.018 111.613C148.848 111.771 148.646 111.85 148.411 111.85C148.165 111.85 147.96 111.771 147.796 111.613C147.632 111.449 147.55 111.203 147.55 110.875ZM156.567 114.619H154.115V123.118H152.656V114.619H150.934V113.959L152.656 113.432V112.896C152.656 110.529 153.69 109.345 155.759 109.345C156.269 109.345 156.866 109.448 157.552 109.653L157.174 110.822C156.611 110.64 156.131 110.549 155.732 110.549C155.182 110.549 154.774 110.734 154.511 111.103C154.247 111.466 154.115 112.052 154.115 112.861V113.485H156.567V114.619ZM162.395 123.293C160.971 123.293 159.846 122.86 159.02 121.993C158.199 121.125 157.789 119.921 157.789 118.38C157.789 116.828 158.17 115.594 158.932 114.68C159.699 113.766 160.728 113.309 162.017 113.309C163.224 113.309 164.179 113.708 164.882 114.504C165.585 115.295 165.937 116.341 165.937 117.642V118.565H159.301C159.33 119.696 159.614 120.554 160.153 121.14C160.698 121.726 161.463 122.019 162.447 122.019C163.484 122.019 164.51 121.802 165.523 121.369V122.669C165.008 122.892 164.519 123.05 164.056 123.144C163.599 123.244 163.045 123.293 162.395 123.293ZM161.999 114.531C161.226 114.531 160.607 114.783 160.145 115.287C159.688 115.791 159.418 116.488 159.336 117.378H164.372C164.372 116.458 164.167 115.755 163.757 115.269C163.347 114.777 162.761 114.531 161.999 114.531ZM176.747 122.072C177.72 122.072 178.429 121.811 178.874 121.29C179.319 120.768 179.557 119.889 179.586 118.653V118.328C179.586 116.98 179.357 116.01 178.9 115.418C178.443 114.827 177.72 114.531 176.729 114.531C175.874 114.531 175.218 114.865 174.761 115.533C174.31 116.195 174.084 117.132 174.084 118.345C174.084 119.558 174.307 120.484 174.752 121.123C175.203 121.755 175.868 122.072 176.747 122.072ZM176.527 123.293C175.285 123.293 174.315 122.857 173.618 121.984C172.921 121.111 172.572 119.892 172.572 118.328C172.572 116.751 172.924 115.521 173.627 114.636C174.33 113.751 175.309 113.309 176.562 113.309C177.881 113.309 178.895 113.807 179.604 114.803H179.683L179.894 113.485H181.045V127.442H179.586V123.32C179.586 122.734 179.618 122.236 179.683 121.826H179.568C178.895 122.804 177.881 123.293 176.527 123.293ZM185.519 113.485V119.734C185.519 120.519 185.697 121.105 186.055 121.492C186.412 121.878 186.972 122.072 187.733 122.072C188.741 122.072 189.477 121.796 189.939 121.246C190.408 120.695 190.643 119.795 190.643 118.547V113.485H192.102V123.118H190.897L190.687 121.826H190.607C190.309 122.3 189.893 122.664 189.359 122.916C188.832 123.167 188.229 123.293 187.549 123.293C186.377 123.293 185.498 123.015 184.912 122.458C184.332 121.902 184.042 121.011 184.042 119.787V113.485H185.519ZM201.128 123.118L200.838 121.747H200.768C200.287 122.35 199.807 122.76 199.326 122.977C198.852 123.188 198.257 123.293 197.542 123.293C196.587 123.293 195.837 123.047 195.292 122.555C194.753 122.063 194.483 121.363 194.483 120.455C194.483 118.509 196.039 117.49 199.15 117.396L200.785 117.343V116.746C200.785 115.99 200.621 115.433 200.293 115.076C199.971 114.712 199.452 114.531 198.737 114.531C197.935 114.531 197.026 114.777 196.013 115.269L195.564 114.153C196.039 113.895 196.558 113.693 197.12 113.546C197.688 113.4 198.257 113.327 198.825 113.327C199.974 113.327 200.823 113.582 201.374 114.091C201.931 114.601 202.209 115.418 202.209 116.543V123.118H201.128ZM197.832 122.089C198.74 122.089 199.452 121.84 199.968 121.342C200.489 120.844 200.75 120.147 200.75 119.25V118.38L199.291 118.442C198.131 118.483 197.293 118.665 196.777 118.987C196.268 119.303 196.013 119.798 196.013 120.472C196.013 121 196.171 121.401 196.487 121.676C196.81 121.952 197.258 122.089 197.832 122.089ZM206.683 123.118H205.224V109.442H206.683V123.118ZM211.235 123.118H209.776V113.485H211.235V123.118ZM209.653 110.875C209.653 110.541 209.735 110.297 209.899 110.145C210.063 109.987 210.269 109.908 210.515 109.908C210.749 109.908 210.951 109.987 211.121 110.145C211.291 110.303 211.376 110.546 211.376 110.875C211.376 111.203 211.291 111.449 211.121 111.613C210.951 111.771 210.749 111.85 210.515 111.85C210.269 111.85 210.063 111.771 209.899 111.613C209.735 111.449 209.653 111.203 209.653 110.875ZM217.44 122.089C217.698 122.089 217.947 122.072 218.188 122.037C218.428 121.996 218.618 121.955 218.759 121.914V123.03C218.601 123.106 218.366 123.167 218.056 123.214C217.751 123.267 217.476 123.293 217.229 123.293C215.366 123.293 214.435 122.312 214.435 120.349V114.619H213.055V113.916L214.435 113.309L215.05 111.252H215.894V113.485H218.688V114.619H215.894V120.288C215.894 120.868 216.031 121.313 216.307 121.624C216.582 121.934 216.96 122.089 217.44 122.089ZM219.163 113.485H220.728L222.837 118.978C223.3 120.232 223.587 121.137 223.698 121.694H223.769C223.845 121.395 224.003 120.885 224.243 120.165C224.489 119.438 225.286 117.211 226.634 113.485H228.198L224.059 124.454C223.648 125.538 223.168 126.305 222.617 126.756C222.072 127.213 221.401 127.442 220.604 127.442C220.159 127.442 219.72 127.392 219.286 127.292V126.124C219.608 126.194 219.969 126.229 220.367 126.229C221.369 126.229 222.084 125.667 222.512 124.542L223.048 123.17L219.163 113.485ZM241.03 123.118V116.886C241.03 116.101 240.852 115.515 240.494 115.128C240.137 114.742 239.577 114.548 238.815 114.548C237.802 114.548 237.061 114.824 236.592 115.375C236.129 115.925 235.897 116.828 235.897 118.082V123.118H234.438V109.442H235.897V113.582C235.897 114.08 235.874 114.493 235.827 114.821H235.915C236.202 114.358 236.609 113.995 237.137 113.731C237.67 113.461 238.276 113.327 238.956 113.327C240.134 113.327 241.016 113.608 241.602 114.17C242.193 114.727 242.489 115.615 242.489 116.833V123.118H241.03ZM251.419 123.118L251.129 121.747H251.059C250.578 122.35 250.098 122.76 249.617 122.977C249.143 123.188 248.548 123.293 247.833 123.293C246.878 123.293 246.128 123.047 245.583 122.555C245.044 122.063 244.774 121.363 244.774 120.455C244.774 118.509 246.33 117.49 249.441 117.396L251.076 117.343V116.746C251.076 115.99 250.912 115.433 250.584 115.076C250.262 114.712 249.743 114.531 249.028 114.531C248.226 114.531 247.317 114.777 246.304 115.269L245.855 114.153C246.33 113.895 246.849 113.693 247.411 113.546C247.979 113.4 248.548 113.327 249.116 113.327C250.265 113.327 251.114 113.582 251.665 114.091C252.222 114.601 252.5 115.418 252.5 116.543V123.118H251.419ZM248.123 122.089C249.031 122.089 249.743 121.84 250.259 121.342C250.78 120.844 251.041 120.147 251.041 119.25V118.38L249.582 118.442C248.422 118.483 247.584 118.665 247.068 118.987C246.559 119.303 246.304 119.798 246.304 120.472C246.304 121 246.462 121.401 246.778 121.676C247.101 121.952 247.549 122.089 248.123 122.089ZM261.729 120.49C261.729 121.386 261.395 122.078 260.727 122.564C260.059 123.05 259.121 123.293 257.914 123.293C256.637 123.293 255.641 123.091 254.926 122.687V121.333C255.389 121.568 255.884 121.752 256.411 121.887C256.944 122.022 257.457 122.089 257.949 122.089C258.711 122.089 259.297 121.969 259.707 121.729C260.117 121.483 260.322 121.111 260.322 120.613C260.322 120.238 260.158 119.918 259.83 119.655C259.508 119.385 258.875 119.069 257.932 118.706C257.035 118.372 256.396 118.082 256.016 117.835C255.641 117.583 255.359 117.299 255.172 116.983C254.99 116.667 254.899 116.289 254.899 115.849C254.899 115.064 255.219 114.446 255.857 113.995C256.496 113.538 257.372 113.309 258.485 113.309C259.522 113.309 260.536 113.52 261.526 113.942L261.008 115.128C260.041 114.73 259.165 114.531 258.38 114.531C257.688 114.531 257.167 114.639 256.815 114.856C256.464 115.073 256.288 115.372 256.288 115.752C256.288 116.01 256.353 116.23 256.481 116.412C256.616 116.593 256.83 116.766 257.123 116.93C257.416 117.094 257.979 117.332 258.811 117.642C259.953 118.058 260.724 118.477 261.122 118.899C261.526 119.321 261.729 119.851 261.729 120.49ZM272.636 123.293C271.241 123.293 270.16 122.866 269.393 122.01C268.631 121.149 268.25 119.933 268.25 118.363C268.25 116.751 268.637 115.506 269.41 114.627C270.189 113.749 271.297 113.309 272.732 113.309C273.195 113.309 273.658 113.359 274.121 113.458C274.584 113.558 274.947 113.675 275.211 113.81L274.763 115.049C274.44 114.92 274.089 114.815 273.708 114.733C273.327 114.645 272.99 114.601 272.697 114.601C270.74 114.601 269.762 115.849 269.762 118.345C269.762 119.529 269.999 120.437 270.474 121.07C270.954 121.703 271.663 122.019 272.601 122.019C273.403 122.019 274.227 121.846 275.07 121.5V122.792C274.426 123.126 273.614 123.293 272.636 123.293ZM283.956 123.118V116.886C283.956 116.101 283.777 115.515 283.42 115.128C283.062 114.742 282.503 114.548 281.741 114.548C280.728 114.548 279.986 114.824 279.518 115.375C279.055 115.925 278.823 116.828 278.823 118.082V123.118H277.364V109.442H278.823V113.582C278.823 114.08 278.8 114.493 278.753 114.821H278.841C279.128 114.358 279.535 113.995 280.062 113.731C280.596 113.461 281.202 113.327 281.882 113.327C283.06 113.327 283.941 113.608 284.527 114.17C285.119 114.727 285.415 115.615 285.415 116.833V123.118H283.956ZM294.345 123.118L294.055 121.747H293.984C293.504 122.35 293.023 122.76 292.543 122.977C292.068 123.188 291.474 123.293 290.759 123.293C289.804 123.293 289.054 123.047 288.509 122.555C287.97 122.063 287.7 121.363 287.7 120.455C287.7 118.509 289.256 117.49 292.367 117.396L294.002 117.343V116.746C294.002 115.99 293.838 115.433 293.51 115.076C293.188 114.712 292.669 114.531 291.954 114.531C291.151 114.531 290.243 114.777 289.229 115.269L288.781 114.153C289.256 113.895 289.774 113.693 290.337 113.546C290.905 113.4 291.474 113.327 292.042 113.327C293.19 113.327 294.04 113.582 294.591 114.091C295.147 114.601 295.426 115.418 295.426 116.543V123.118H294.345ZM291.049 122.089C291.957 122.089 292.669 121.84 293.185 121.342C293.706 120.844 293.967 120.147 293.967 119.25V118.38L292.508 118.442C291.348 118.483 290.51 118.665 289.994 118.987C289.484 119.303 289.229 119.798 289.229 120.472C289.229 121 289.388 121.401 289.704 121.676C290.026 121.952 290.475 122.089 291.049 122.089ZM305.032 123.118V116.886C305.032 116.101 304.854 115.515 304.496 115.128C304.139 114.742 303.579 114.548 302.817 114.548C301.81 114.548 301.071 114.821 300.603 115.366C300.134 115.911 299.899 116.81 299.899 118.064V123.118H298.44V113.485H299.627L299.864 114.803H299.935C300.233 114.329 300.652 113.962 301.191 113.705C301.73 113.441 302.331 113.309 302.993 113.309C304.153 113.309 305.026 113.59 305.612 114.153C306.198 114.709 306.491 115.603 306.491 116.833V123.118H305.032ZM317.381 113.485V114.408L315.597 114.619C315.761 114.824 315.907 115.093 316.036 115.427C316.165 115.755 316.229 116.127 316.229 116.543C316.229 117.487 315.907 118.24 315.263 118.802C314.618 119.365 313.733 119.646 312.608 119.646C312.321 119.646 312.052 119.623 311.8 119.576C311.179 119.904 310.868 120.317 310.868 120.815C310.868 121.079 310.977 121.275 311.193 121.404C311.41 121.527 311.782 121.588 312.31 121.588H314.015C315.058 121.588 315.857 121.808 316.414 122.248C316.977 122.687 317.258 123.326 317.258 124.164C317.258 125.23 316.83 126.042 315.975 126.598C315.119 127.161 313.871 127.442 312.23 127.442C310.971 127.442 309.998 127.208 309.312 126.739C308.633 126.27 308.293 125.608 308.293 124.752C308.293 124.167 308.48 123.66 308.855 123.232C309.23 122.804 309.758 122.514 310.438 122.362C310.191 122.25 309.983 122.078 309.813 121.843C309.649 121.609 309.567 121.336 309.567 121.026C309.567 120.674 309.661 120.367 309.849 120.103C310.036 119.839 310.332 119.584 310.736 119.338C310.238 119.133 309.831 118.785 309.515 118.292C309.204 117.8 309.049 117.238 309.049 116.605C309.049 115.55 309.365 114.739 309.998 114.17C310.631 113.596 311.527 113.309 312.688 113.309C313.191 113.309 313.646 113.368 314.05 113.485H317.381ZM309.699 124.735C309.699 125.256 309.919 125.652 310.358 125.921C310.798 126.191 311.428 126.326 312.248 126.326C313.473 126.326 314.378 126.141 314.964 125.772C315.556 125.409 315.852 124.914 315.852 124.287C315.852 123.765 315.69 123.402 315.368 123.197C315.046 122.998 314.439 122.898 313.549 122.898H311.8C311.138 122.898 310.622 123.056 310.253 123.373C309.884 123.689 309.699 124.143 309.699 124.735ZM310.49 116.57C310.49 117.244 310.681 117.753 311.062 118.099C311.442 118.445 311.973 118.618 312.652 118.618C314.076 118.618 314.788 117.926 314.788 116.543C314.788 115.096 314.067 114.373 312.626 114.373C311.94 114.373 311.413 114.557 311.044 114.926C310.675 115.295 310.49 115.843 310.49 116.57ZM323.428 123.293C322.004 123.293 320.879 122.86 320.053 121.993C319.232 121.125 318.822 119.921 318.822 118.38C318.822 116.828 319.203 115.594 319.965 114.68C320.732 113.766 321.761 113.309 323.05 113.309C324.257 113.309 325.212 113.708 325.915 114.504C326.618 115.295 326.97 116.341 326.97 117.642V118.565H320.334C320.363 119.696 320.647 120.554 321.187 121.14C321.731 121.726 322.496 122.019 323.48 122.019C324.518 122.019 325.543 121.802 326.557 121.369V122.669C326.041 122.892 325.552 123.05 325.089 123.144C324.632 123.244 324.078 123.293 323.428 123.293ZM323.032 114.531C322.259 114.531 321.641 114.783 321.178 115.287C320.721 115.791 320.451 116.488 320.369 117.378H325.405C325.405 116.458 325.2 115.755 324.79 115.269C324.38 114.777 323.794 114.531 323.032 114.531ZM336.022 121.826H335.943C335.27 122.804 334.262 123.293 332.92 123.293C331.66 123.293 330.679 122.863 329.976 122.001C329.278 121.14 328.93 119.916 328.93 118.328C328.93 116.74 329.281 115.506 329.984 114.627C330.688 113.749 331.666 113.309 332.92 113.309C334.227 113.309 335.229 113.784 335.926 114.733H336.04L335.979 114.039L335.943 113.362V109.442H337.402V123.118H336.216L336.022 121.826ZM333.104 122.072C334.101 122.072 334.821 121.802 335.267 121.263C335.718 120.718 335.943 119.842 335.943 118.635V118.328C335.943 116.962 335.715 115.99 335.258 115.41C334.807 114.824 334.083 114.531 333.087 114.531C332.231 114.531 331.575 114.865 331.118 115.533C330.667 116.195 330.441 117.132 330.441 118.345C330.441 119.576 330.667 120.504 331.118 121.131C331.569 121.758 332.231 122.072 333.104 122.072ZM348.292 122.089C348.55 122.089 348.799 122.072 349.039 122.037C349.279 121.996 349.47 121.955 349.61 121.914V123.03C349.452 123.106 349.218 123.167 348.907 123.214C348.603 123.267 348.327 123.293 348.081 123.293C346.218 123.293 345.286 122.312 345.286 120.349V114.619H343.906V113.916L345.286 113.309L345.901 111.252H346.745V113.485H349.54V114.619H346.745V120.288C346.745 120.868 346.883 121.313 347.158 121.624C347.434 121.934 347.812 122.089 348.292 122.089ZM359.858 118.292C359.858 119.863 359.463 121.09 358.672 121.975C357.881 122.854 356.788 123.293 355.394 123.293C354.532 123.293 353.768 123.091 353.1 122.687C352.432 122.283 351.916 121.703 351.553 120.947C351.189 120.191 351.008 119.306 351.008 118.292C351.008 116.722 351.4 115.5 352.186 114.627C352.971 113.749 354.061 113.309 355.455 113.309C356.803 113.309 357.872 113.757 358.663 114.654C359.46 115.55 359.858 116.763 359.858 118.292ZM352.52 118.292C352.52 119.523 352.766 120.46 353.258 121.105C353.75 121.75 354.474 122.072 355.429 122.072C356.384 122.072 357.107 121.752 357.6 121.114C358.098 120.469 358.347 119.529 358.347 118.292C358.347 117.068 358.098 116.139 357.6 115.506C357.107 114.868 356.378 114.548 355.411 114.548C354.456 114.548 353.735 114.862 353.249 115.489C352.763 116.116 352.52 117.05 352.52 118.292ZM117.597 138.327C118.862 138.327 119.844 138.76 120.541 139.627C121.244 140.489 121.596 141.71 121.596 143.292C121.596 144.875 121.241 146.105 120.532 146.984C119.829 147.857 118.851 148.293 117.597 148.293C116.97 148.293 116.396 148.179 115.874 147.951C115.358 147.716 114.925 147.359 114.573 146.878H114.468L114.16 148.118H113.114V134.442H114.573V137.764C114.573 138.508 114.55 139.176 114.503 139.768H114.573C115.253 138.807 116.261 138.327 117.597 138.327ZM117.386 139.548C116.39 139.548 115.672 139.835 115.232 140.41C114.793 140.978 114.573 141.939 114.573 143.292C114.573 144.646 114.799 145.616 115.25 146.202C115.701 146.782 116.425 147.072 117.421 147.072C118.317 147.072 118.985 146.747 119.425 146.096C119.864 145.44 120.084 144.5 120.084 143.275C120.084 142.021 119.864 141.086 119.425 140.471C118.985 139.856 118.306 139.548 117.386 139.548ZM128.223 148.293C126.799 148.293 125.674 147.86 124.848 146.993C124.027 146.125 123.617 144.921 123.617 143.38C123.617 141.828 123.998 140.594 124.76 139.68C125.527 138.766 126.556 138.309 127.845 138.309C129.052 138.309 130.007 138.708 130.71 139.504C131.413 140.295 131.765 141.341 131.765 142.642V143.565H125.129C125.158 144.696 125.442 145.554 125.981 146.14C126.526 146.726 127.291 147.019 128.275 147.019C129.312 147.019 130.338 146.802 131.352 146.369V147.669C130.836 147.892 130.347 148.05 129.884 148.144C129.427 148.244 128.873 148.293 128.223 148.293ZM127.827 139.531C127.054 139.531 126.436 139.783 125.973 140.287C125.516 140.791 125.246 141.488 125.164 142.378H130.2C130.2 141.458 129.995 140.755 129.585 140.269C129.175 139.777 128.589 139.531 127.827 139.531ZM137.372 147.089C137.63 147.089 137.879 147.072 138.119 147.037C138.359 146.996 138.55 146.955 138.69 146.914V148.03C138.532 148.106 138.298 148.167 137.987 148.214C137.683 148.267 137.407 148.293 137.161 148.293C135.298 148.293 134.366 147.312 134.366 145.349V139.619H132.986V138.916L134.366 138.309L134.981 136.252H135.825V138.485H138.62V139.619H135.825V145.288C135.825 145.868 135.963 146.313 136.238 146.624C136.514 146.934 136.892 147.089 137.372 147.089ZM143.735 147.089C143.993 147.089 144.242 147.072 144.482 147.037C144.723 146.996 144.913 146.955 145.054 146.914V148.03C144.896 148.106 144.661 148.167 144.351 148.214C144.046 148.267 143.771 148.293 143.524 148.293C141.661 148.293 140.729 147.312 140.729 145.349V139.619H139.35V138.916L140.729 138.309L141.345 136.252H142.188V138.485H144.983V139.619H142.188V145.288C142.188 145.868 142.326 146.313 142.602 146.624C142.877 146.934 143.255 147.089 143.735 147.089ZM151.057 148.293C149.633 148.293 148.508 147.86 147.682 146.993C146.861 146.125 146.451 144.921 146.451 143.38C146.451 141.828 146.832 140.594 147.594 139.68C148.361 138.766 149.39 138.309 150.679 138.309C151.886 138.309 152.841 138.708 153.544 139.504C154.247 140.295 154.599 141.341 154.599 142.642V143.565H147.963C147.992 144.696 148.276 145.554 148.815 146.14C149.36 146.726 150.125 147.019 151.109 147.019C152.146 147.019 153.172 146.802 154.186 146.369V147.669C153.67 147.892 153.181 148.05 152.718 148.144C152.261 148.244 151.707 148.293 151.057 148.293ZM150.661 139.531C149.888 139.531 149.27 139.783 148.807 140.287C148.35 140.791 148.08 141.488 147.998 142.378H153.034C153.034 141.458 152.829 140.755 152.419 140.269C152.009 139.777 151.423 139.531 150.661 139.531ZM161.489 138.309C161.917 138.309 162.301 138.344 162.641 138.415L162.438 139.768C162.04 139.68 161.688 139.636 161.384 139.636C160.604 139.636 159.937 139.953 159.38 140.585C158.829 141.218 158.554 142.006 158.554 142.95V148.118H157.095V138.485H158.299L158.466 140.269H158.536C158.894 139.642 159.324 139.159 159.828 138.819C160.332 138.479 160.886 138.309 161.489 138.309ZM176.984 148.118L175.218 142.466C175.106 142.121 174.898 141.335 174.594 140.111H174.523C174.289 141.136 174.084 141.927 173.908 142.484L172.089 148.118H170.401L167.773 138.485H169.303C169.924 140.905 170.396 142.748 170.718 144.013C171.046 145.279 171.233 146.131 171.28 146.571H171.351C171.415 146.237 171.518 145.806 171.658 145.279C171.805 144.746 171.931 144.324 172.036 144.013L173.803 138.485H175.385L177.107 144.013C177.436 145.021 177.658 145.868 177.775 146.553H177.846C177.869 146.342 177.931 146.017 178.03 145.578C178.136 145.138 178.748 142.774 179.867 138.485H181.379L178.716 148.118H176.984ZM184.587 148.118H183.128V138.485H184.587V148.118ZM183.005 135.875C183.005 135.541 183.087 135.297 183.251 135.145C183.415 134.987 183.62 134.908 183.866 134.908C184.101 134.908 184.303 134.987 184.473 135.145C184.643 135.303 184.728 135.546 184.728 135.875C184.728 136.203 184.643 136.449 184.473 136.613C184.303 136.771 184.101 136.85 183.866 136.85C183.62 136.85 183.415 136.771 183.251 136.613C183.087 136.449 183.005 136.203 183.005 135.875ZM190.792 147.089C191.05 147.089 191.299 147.072 191.539 147.037C191.779 146.996 191.97 146.955 192.11 146.914V148.03C191.952 148.106 191.718 148.167 191.407 148.214C191.103 148.267 190.827 148.293 190.581 148.293C188.718 148.293 187.786 147.312 187.786 145.349V139.619H186.406V138.916L187.786 138.309L188.401 136.252H189.245V138.485H192.04V139.619H189.245V145.288C189.245 145.868 189.383 146.313 189.658 146.624C189.934 146.934 190.312 147.089 190.792 147.089ZM200.636 148.118V141.886C200.636 141.101 200.457 140.515 200.1 140.128C199.742 139.742 199.183 139.548 198.421 139.548C197.407 139.548 196.666 139.824 196.197 140.375C195.734 140.925 195.503 141.828 195.503 143.082V148.118H194.044V134.442H195.503V138.582C195.503 139.08 195.479 139.493 195.433 139.821H195.521C195.808 139.358 196.215 138.995 196.742 138.731C197.275 138.461 197.882 138.327 198.562 138.327C199.739 138.327 200.621 138.608 201.207 139.17C201.799 139.727 202.095 140.615 202.095 141.833V148.118H200.636ZM218.073 148.118L216.474 144.031H211.323L209.741 148.118H208.229L213.31 135.215H214.566L219.62 148.118H218.073ZM216.008 142.686L214.514 138.705C214.32 138.201 214.121 137.583 213.916 136.85C213.787 137.413 213.603 138.031 213.362 138.705L211.851 142.686H216.008ZM222.626 148.118H221.167V138.485H222.626V148.118ZM221.044 135.875C221.044 135.541 221.126 135.297 221.29 135.145C221.454 134.987 221.659 134.908 221.905 134.908C222.14 134.908 222.342 134.987 222.512 135.145C222.682 135.303 222.767 135.546 222.767 135.875C222.767 136.203 222.682 136.449 222.512 136.613C222.342 136.771 222.14 136.85 221.905 136.85C221.659 136.85 221.454 136.771 221.29 136.613C221.126 136.449 221.044 136.203 221.044 135.875ZM230.114 138.309C230.542 138.309 230.926 138.344 231.266 138.415L231.063 139.768C230.665 139.68 230.313 139.636 230.009 139.636C229.229 139.636 228.562 139.953 228.005 140.585C227.454 141.218 227.179 142.006 227.179 142.95V148.118H225.72V138.485H226.924L227.091 140.269H227.161C227.519 139.642 227.949 139.159 228.453 138.819C228.957 138.479 229.511 138.309 230.114 138.309ZM244.502 148.118H243.025L240.433 139.513C240.31 139.132 240.172 138.652 240.02 138.072C239.867 137.492 239.788 137.143 239.782 137.026C239.653 137.799 239.448 138.646 239.167 139.566L236.653 148.118H235.177L231.758 135.268H233.34L235.37 143.205C235.651 144.318 235.856 145.326 235.985 146.228C236.144 145.156 236.378 144.107 236.688 143.082L238.991 135.268H240.573L242.99 143.152C243.271 144.06 243.509 145.085 243.702 146.228C243.813 145.396 244.024 144.382 244.335 143.187L246.356 135.268H247.938L244.502 148.118ZM251.19 148.118H249.731V138.485H251.19V148.118ZM249.608 135.875C249.608 135.541 249.69 135.297 249.854 135.145C250.019 134.987 250.224 134.908 250.47 134.908C250.704 134.908 250.906 134.987 251.076 135.145C251.246 135.303 251.331 135.546 251.331 135.875C251.331 136.203 251.246 136.449 251.076 136.613C250.906 136.771 250.704 136.85 250.47 136.85C250.224 136.85 250.019 136.771 249.854 136.613C249.69 136.449 249.608 136.203 249.608 135.875ZM260.498 145.49C260.498 146.386 260.164 147.078 259.496 147.564C258.828 148.05 257.891 148.293 256.684 148.293C255.406 148.293 254.41 148.091 253.695 147.687V146.333C254.158 146.568 254.653 146.752 255.181 146.887C255.714 147.022 256.227 147.089 256.719 147.089C257.48 147.089 258.066 146.969 258.477 146.729C258.887 146.483 259.092 146.111 259.092 145.613C259.092 145.238 258.928 144.918 258.6 144.655C258.277 144.385 257.645 144.069 256.701 143.706C255.805 143.372 255.166 143.082 254.785 142.835C254.41 142.583 254.129 142.299 253.941 141.983C253.76 141.667 253.669 141.289 253.669 140.849C253.669 140.064 253.988 139.446 254.627 138.995C255.266 138.538 256.142 138.309 257.255 138.309C258.292 138.309 259.306 138.52 260.296 138.942L259.777 140.128C258.811 139.73 257.935 139.531 257.149 139.531C256.458 139.531 255.937 139.639 255.585 139.856C255.233 140.073 255.058 140.372 255.058 140.752C255.058 141.01 255.122 141.23 255.251 141.412C255.386 141.593 255.6 141.766 255.893 141.93C256.186 142.094 256.748 142.332 257.58 142.642C258.723 143.058 259.493 143.477 259.892 143.899C260.296 144.321 260.498 144.851 260.498 145.49ZM266.949 148.293C265.525 148.293 264.4 147.86 263.574 146.993C262.754 146.125 262.344 144.921 262.344 143.38C262.344 141.828 262.725 140.594 263.486 139.68C264.254 138.766 265.282 138.309 266.571 138.309C267.778 138.309 268.733 138.708 269.437 139.504C270.14 140.295 270.491 141.341 270.491 142.642V143.565H263.855C263.885 144.696 264.169 145.554 264.708 146.14C265.253 146.726 266.018 147.019 267.002 147.019C268.039 147.019 269.064 146.802 270.078 146.369V147.669C269.562 147.892 269.073 148.05 268.61 148.144C268.153 148.244 267.6 148.293 266.949 148.293ZM266.554 139.531C265.78 139.531 265.162 139.783 264.699 140.287C264.242 140.791 263.973 141.488 263.891 142.378H268.927C268.927 141.458 268.722 140.755 268.312 140.269C267.901 139.777 267.315 139.531 266.554 139.531ZM272.776 147.186C272.776 146.793 272.864 146.498 273.04 146.298C273.222 146.093 273.479 145.991 273.813 145.991C274.153 145.991 274.417 146.093 274.604 146.298C274.798 146.498 274.895 146.793 274.895 147.186C274.895 147.567 274.798 147.86 274.604 148.065C274.411 148.27 274.147 148.373 273.813 148.373C273.515 148.373 273.266 148.282 273.066 148.1C272.873 147.913 272.776 147.608 272.776 147.186ZM289.933 144.699C289.933 145.83 289.522 146.711 288.702 147.344C287.882 147.977 286.769 148.293 285.362 148.293C283.839 148.293 282.667 148.097 281.847 147.705V146.263C282.374 146.486 282.948 146.662 283.569 146.791C284.19 146.919 284.806 146.984 285.415 146.984C286.411 146.984 287.161 146.796 287.665 146.421C288.169 146.041 288.421 145.513 288.421 144.839C288.421 144.394 288.33 144.031 288.148 143.75C287.973 143.462 287.674 143.199 287.252 142.958C286.836 142.718 286.2 142.446 285.345 142.141C284.149 141.713 283.294 141.207 282.778 140.621C282.269 140.035 282.014 139.27 282.014 138.327C282.014 137.336 282.386 136.548 283.13 135.962C283.874 135.376 284.858 135.083 286.083 135.083C287.36 135.083 288.535 135.318 289.607 135.787L289.142 137.087C288.081 136.642 287.05 136.419 286.048 136.419C285.257 136.419 284.639 136.589 284.193 136.929C283.748 137.269 283.525 137.741 283.525 138.344C283.525 138.79 283.607 139.156 283.771 139.443C283.936 139.724 284.211 139.985 284.598 140.225C284.99 140.459 285.588 140.72 286.391 141.007C287.738 141.488 288.664 142.003 289.168 142.554C289.678 143.105 289.933 143.82 289.933 144.699ZM295.452 147.089C295.71 147.089 295.959 147.072 296.199 147.037C296.439 146.996 296.63 146.955 296.771 146.914V148.03C296.612 148.106 296.378 148.167 296.067 148.214C295.763 148.267 295.487 148.293 295.241 148.293C293.378 148.293 292.446 147.312 292.446 145.349V139.619H291.066V138.916L292.446 138.309L293.062 136.252H293.905V138.485H296.7V139.619H293.905V145.288C293.905 145.868 294.043 146.313 294.318 146.624C294.594 146.934 294.972 147.089 295.452 147.089ZM303.099 138.309C303.526 138.309 303.91 138.344 304.25 138.415L304.048 139.768C303.649 139.68 303.298 139.636 302.993 139.636C302.214 139.636 301.546 139.953 300.989 140.585C300.438 141.218 300.163 142.006 300.163 142.95V148.118H298.704V138.485H299.908L300.075 140.269H300.146C300.503 139.642 300.934 139.159 301.438 138.819C301.941 138.479 302.495 138.309 303.099 138.309ZM314.366 143.292C314.366 144.863 313.971 146.09 313.18 146.975C312.389 147.854 311.296 148.293 309.901 148.293C309.04 148.293 308.275 148.091 307.607 147.687C306.939 147.283 306.424 146.703 306.061 145.947C305.697 145.191 305.516 144.306 305.516 143.292C305.516 141.722 305.908 140.5 306.693 139.627C307.479 138.749 308.568 138.309 309.963 138.309C311.311 138.309 312.38 138.757 313.171 139.654C313.968 140.55 314.366 141.763 314.366 143.292ZM307.027 143.292C307.027 144.523 307.273 145.46 307.766 146.105C308.258 146.75 308.981 147.072 309.937 147.072C310.892 147.072 311.615 146.752 312.107 146.114C312.605 145.469 312.854 144.529 312.854 143.292C312.854 142.068 312.605 141.139 312.107 140.506C311.615 139.868 310.886 139.548 309.919 139.548C308.964 139.548 308.243 139.862 307.757 140.489C307.271 141.116 307.027 142.05 307.027 143.292ZM323.524 148.118V141.886C323.524 141.101 323.346 140.515 322.988 140.128C322.631 139.742 322.071 139.548 321.31 139.548C320.302 139.548 319.563 139.821 319.095 140.366C318.626 140.911 318.392 141.81 318.392 143.064V148.118H316.933V138.485H318.119L318.356 139.803H318.427C318.726 139.329 319.145 138.962 319.684 138.705C320.223 138.441 320.823 138.309 321.485 138.309C322.646 138.309 323.519 138.59 324.104 139.153C324.69 139.709 324.983 140.603 324.983 141.833V148.118H323.524ZM335.873 138.485V139.408L334.089 139.619C334.253 139.824 334.399 140.093 334.528 140.427C334.657 140.755 334.722 141.127 334.722 141.543C334.722 142.487 334.399 143.24 333.755 143.802C333.11 144.365 332.226 144.646 331.101 144.646C330.813 144.646 330.544 144.623 330.292 144.576C329.671 144.904 329.36 145.317 329.36 145.815C329.36 146.079 329.469 146.275 329.686 146.404C329.902 146.527 330.274 146.588 330.802 146.588H332.507C333.55 146.588 334.35 146.808 334.906 147.248C335.469 147.687 335.75 148.326 335.75 149.164C335.75 150.23 335.322 151.042 334.467 151.598C333.611 152.161 332.363 152.442 330.723 152.442C329.463 152.442 328.49 152.208 327.805 151.739C327.125 151.27 326.785 150.608 326.785 149.752C326.785 149.167 326.973 148.66 327.348 148.232C327.723 147.804 328.25 147.514 328.93 147.362C328.684 147.25 328.476 147.078 328.306 146.843C328.142 146.609 328.06 146.336 328.06 146.026C328.06 145.674 328.153 145.367 328.341 145.103C328.528 144.839 328.824 144.584 329.229 144.338C328.73 144.133 328.323 143.785 328.007 143.292C327.696 142.8 327.541 142.238 327.541 141.605C327.541 140.55 327.857 139.739 328.49 139.17C329.123 138.596 330.02 138.309 331.18 138.309C331.684 138.309 332.138 138.368 332.542 138.485H335.873ZM328.191 149.735C328.191 150.256 328.411 150.652 328.851 150.921C329.29 151.191 329.92 151.326 330.74 151.326C331.965 151.326 332.87 151.141 333.456 150.772C334.048 150.409 334.344 149.914 334.344 149.287C334.344 148.765 334.183 148.402 333.86 148.197C333.538 147.998 332.932 147.898 332.041 147.898H330.292C329.63 147.898 329.114 148.056 328.745 148.373C328.376 148.689 328.191 149.143 328.191 149.735ZM328.982 141.57C328.982 142.244 329.173 142.753 329.554 143.099C329.935 143.445 330.465 143.618 331.145 143.618C332.568 143.618 333.28 142.926 333.28 141.543C333.28 140.096 332.56 139.373 331.118 139.373C330.433 139.373 329.905 139.557 329.536 139.926C329.167 140.295 328.982 140.843 328.982 141.57ZM339.31 148.118H337.851V134.442H339.31V148.118ZM340.874 138.485H342.438L344.548 143.978C345.011 145.232 345.298 146.137 345.409 146.694H345.479C345.556 146.395 345.714 145.885 345.954 145.165C346.2 144.438 346.997 142.211 348.345 138.485H349.909L345.77 149.454C345.359 150.538 344.879 151.305 344.328 151.756C343.783 152.213 343.112 152.442 342.315 152.442C341.87 152.442 341.431 152.392 340.997 152.292V151.124C341.319 151.194 341.68 151.229 342.078 151.229C343.08 151.229 343.795 150.667 344.223 149.542L344.759 148.17L340.874 138.485ZM117.509 163.309C117.937 163.309 118.32 163.344 118.66 163.415L118.458 164.768C118.06 164.68 117.708 164.636 117.403 164.636C116.624 164.636 115.956 164.953 115.399 165.585C114.849 166.218 114.573 167.006 114.573 167.95V173.118H113.114V163.485H114.318L114.485 165.269H114.556C114.913 164.642 115.344 164.159 115.848 163.819C116.352 163.479 116.905 163.309 117.509 163.309ZM124.531 173.293C123.107 173.293 121.982 172.86 121.156 171.993C120.336 171.125 119.926 169.921 119.926 168.38C119.926 166.828 120.307 165.594 121.068 164.68C121.836 163.766 122.864 163.309 124.153 163.309C125.36 163.309 126.315 163.708 127.019 164.504C127.722 165.295 128.073 166.341 128.073 167.642V168.565H121.438C121.467 169.696 121.751 170.554 122.29 171.14C122.835 171.726 123.6 172.019 124.584 172.019C125.621 172.019 126.646 171.802 127.66 171.369V172.669C127.145 172.892 126.655 173.05 126.192 173.144C125.735 173.244 125.182 173.293 124.531 173.293ZM124.136 164.531C123.362 164.531 122.744 164.783 122.281 165.287C121.824 165.791 121.555 166.488 121.473 167.378H126.509C126.509 166.458 126.304 165.755 125.894 165.269C125.483 164.777 124.897 164.531 124.136 164.531ZM134.419 173.293C133.024 173.293 131.943 172.866 131.176 172.01C130.414 171.149 130.033 169.933 130.033 168.363C130.033 166.751 130.42 165.506 131.193 164.627C131.973 163.749 133.08 163.309 134.516 163.309C134.979 163.309 135.441 163.359 135.904 163.458C136.367 163.558 136.73 163.675 136.994 163.81L136.546 165.049C136.224 164.92 135.872 164.815 135.491 164.733C135.11 164.645 134.773 164.601 134.48 164.601C132.523 164.601 131.545 165.849 131.545 168.345C131.545 169.529 131.782 170.437 132.257 171.07C132.737 171.703 133.446 172.019 134.384 172.019C135.187 172.019 136.01 171.846 136.854 171.5V172.792C136.209 173.126 135.397 173.293 134.419 173.293ZM147.462 168.292C147.462 169.863 147.066 171.09 146.275 171.975C145.484 172.854 144.392 173.293 142.997 173.293C142.136 173.293 141.371 173.091 140.703 172.687C140.035 172.283 139.52 171.703 139.156 170.947C138.793 170.191 138.611 169.306 138.611 168.292C138.611 166.722 139.004 165.5 139.789 164.627C140.574 163.749 141.664 163.309 143.059 163.309C144.406 163.309 145.476 163.757 146.267 164.654C147.063 165.55 147.462 166.763 147.462 168.292ZM140.123 168.292C140.123 169.523 140.369 170.46 140.861 171.105C141.354 171.75 142.077 172.072 143.032 172.072C143.987 172.072 144.711 171.752 145.203 171.114C145.701 170.469 145.95 169.529 145.95 168.292C145.95 167.068 145.701 166.139 145.203 165.506C144.711 164.868 143.981 164.548 143.015 164.548C142.06 164.548 141.339 164.862 140.853 165.489C140.366 166.116 140.123 167.05 140.123 168.292ZM162.307 173.118V166.851C162.307 166.083 162.143 165.509 161.814 165.128C161.486 164.742 160.977 164.548 160.285 164.548C159.377 164.548 158.706 164.809 158.272 165.331C157.839 165.852 157.622 166.655 157.622 167.739V173.118H156.163V166.851C156.163 166.083 155.999 165.509 155.671 165.128C155.343 164.742 154.83 164.548 154.133 164.548C153.219 164.548 152.548 164.824 152.12 165.375C151.698 165.919 151.487 166.816 151.487 168.064V173.118H150.028V163.485H151.215L151.452 164.803H151.522C151.798 164.334 152.185 163.968 152.683 163.705C153.187 163.441 153.749 163.309 154.37 163.309C155.876 163.309 156.86 163.854 157.323 164.944H157.394C157.681 164.44 158.097 164.042 158.642 163.749C159.187 163.456 159.808 163.309 160.505 163.309C161.595 163.309 162.409 163.59 162.948 164.153C163.493 164.709 163.766 165.603 163.766 166.833V173.118H162.307ZM179.059 173.118V166.851C179.059 166.083 178.895 165.509 178.566 165.128C178.238 164.742 177.729 164.548 177.037 164.548C176.129 164.548 175.458 164.809 175.024 165.331C174.591 165.852 174.374 166.655 174.374 167.739V173.118H172.915V166.851C172.915 166.083 172.751 165.509 172.423 165.128C172.095 164.742 171.582 164.548 170.885 164.548C169.971 164.548 169.3 164.824 168.872 165.375C168.45 165.919 168.239 166.816 168.239 168.064V173.118H166.78V163.485H167.967L168.204 164.803H168.274C168.55 164.334 168.937 163.968 169.435 163.705C169.938 163.441 170.501 163.309 171.122 163.309C172.628 163.309 173.612 163.854 174.075 164.944H174.146C174.433 164.44 174.849 164.042 175.394 163.749C175.938 163.456 176.56 163.309 177.257 163.309C178.347 163.309 179.161 163.59 179.7 164.153C180.245 164.709 180.518 165.603 180.518 166.833V173.118H179.059ZM187.602 173.293C186.178 173.293 185.053 172.86 184.227 171.993C183.406 171.125 182.996 169.921 182.996 168.38C182.996 166.828 183.377 165.594 184.139 164.68C184.906 163.766 185.935 163.309 187.224 163.309C188.431 163.309 189.386 163.708 190.089 164.504C190.792 165.295 191.144 166.341 191.144 167.642V168.565H184.508C184.537 169.696 184.821 170.554 185.36 171.14C185.905 171.726 186.67 172.019 187.654 172.019C188.691 172.019 189.717 171.802 190.73 171.369V172.669C190.215 172.892 189.726 173.05 189.263 173.144C188.806 173.244 188.252 173.293 187.602 173.293ZM187.206 164.531C186.433 164.531 185.814 164.783 185.352 165.287C184.895 165.791 184.625 166.488 184.543 167.378H189.579C189.579 166.458 189.374 165.755 188.964 165.269C188.554 164.777 187.968 164.531 187.206 164.531ZM200.231 173.118V166.886C200.231 166.101 200.053 165.515 199.695 165.128C199.338 164.742 198.778 164.548 198.017 164.548C197.009 164.548 196.271 164.821 195.802 165.366C195.333 165.911 195.099 166.81 195.099 168.064V173.118H193.64V163.485H194.826L195.063 164.803H195.134C195.433 164.329 195.852 163.962 196.391 163.705C196.93 163.441 197.53 163.309 198.192 163.309C199.353 163.309 200.226 163.59 200.812 164.153C201.397 164.709 201.69 165.603 201.69 166.833V173.118H200.231ZM211.253 171.826H211.174C210.5 172.804 209.492 173.293 208.15 173.293C206.891 173.293 205.909 172.863 205.206 172.001C204.509 171.14 204.16 169.916 204.16 168.328C204.16 166.74 204.512 165.506 205.215 164.627C205.918 163.749 206.896 163.309 208.15 163.309C209.457 163.309 210.459 163.784 211.156 164.733H211.271L211.209 164.039L211.174 163.362V159.442H212.633V173.118H211.446L211.253 171.826ZM208.335 172.072C209.331 172.072 210.052 171.802 210.497 171.263C210.948 170.718 211.174 169.842 211.174 168.635V168.328C211.174 166.962 210.945 165.99 210.488 165.41C210.037 164.824 209.313 164.531 208.317 164.531C207.462 164.531 206.806 164.865 206.349 165.533C205.897 166.195 205.672 167.132 205.672 168.345C205.672 169.576 205.897 170.504 206.349 171.131C206.8 171.758 207.462 172.072 208.335 172.072ZM217.054 169.576H216.131L215.683 160.268H217.502L217.054 169.576ZM215.524 172.186C215.524 171.389 215.876 170.991 216.579 170.991C216.919 170.991 217.18 171.093 217.361 171.298C217.549 171.503 217.643 171.799 217.643 172.186C217.643 172.561 217.549 172.854 217.361 173.065C217.174 173.27 216.913 173.373 216.579 173.373C216.274 173.373 216.022 173.282 215.823 173.1C215.624 172.913 215.524 172.608 215.524 172.186Z" fill="white"/>
<path d="M112.8 209.118V198.936H118.945V200.03H114.033V203.47H118.627V204.564H114.033V208.024H119.025V209.118H112.8ZM121.008 209.118V201.481H122.142V202.674H122.241C122.4 202.267 122.657 201.95 123.012 201.725C123.367 201.496 123.793 201.382 124.29 201.382C124.793 201.382 125.213 201.496 125.547 201.725C125.886 201.95 126.149 202.267 126.338 202.674H126.418C126.613 202.28 126.906 201.967 127.297 201.735C127.689 201.5 128.158 201.382 128.704 201.382C129.387 201.382 129.946 201.596 130.38 202.023C130.814 202.447 131.031 203.109 131.031 204.007V209.118H129.858V204.007C129.858 203.443 129.704 203.041 129.396 202.799C129.087 202.557 128.724 202.436 128.307 202.436C127.77 202.436 127.354 202.598 127.059 202.923C126.764 203.245 126.616 203.652 126.616 204.146V209.118H125.423V203.888C125.423 203.453 125.282 203.104 125.001 202.839C124.719 202.57 124.356 202.436 123.912 202.436C123.607 202.436 123.322 202.517 123.057 202.679C122.795 202.842 122.583 203.067 122.42 203.356C122.261 203.641 122.182 203.97 122.182 204.345V209.118H121.008ZM133.176 209.118V201.481H134.35V209.118H133.176ZM133.773 200.209C133.544 200.209 133.347 200.131 133.181 199.975C133.019 199.819 132.938 199.632 132.938 199.413C132.938 199.194 133.019 199.007 133.181 198.851C133.347 198.696 133.544 198.618 133.773 198.618C134.002 198.618 134.197 198.696 134.36 198.851C134.525 199.007 134.608 199.194 134.608 199.413C134.608 199.632 134.525 199.819 134.36 199.975C134.197 200.131 134.002 200.209 133.773 200.209ZM137.672 198.936V209.118H136.499V198.936H137.672ZM140.577 211.981C140.378 211.981 140.2 211.965 140.045 211.932C139.889 211.902 139.781 211.872 139.722 211.842L140.02 210.808C140.305 210.881 140.557 210.907 140.775 210.888C140.994 210.868 141.188 210.77 141.357 210.594C141.53 210.422 141.687 210.142 141.829 209.754L142.048 209.157L139.224 201.481H140.497L142.605 207.567H142.685L144.793 201.481H146.065L142.824 210.231C142.678 210.626 142.497 210.952 142.282 211.211C142.066 211.473 141.816 211.666 141.531 211.792C141.249 211.918 140.931 211.981 140.577 211.981ZM157.279 201.481C157.219 200.978 156.977 200.586 156.553 200.308C156.129 200.03 155.608 199.89 154.992 199.89C154.541 199.89 154.147 199.963 153.809 200.109C153.474 200.255 153.212 200.456 153.023 200.711C152.837 200.966 152.745 201.256 152.745 201.581C152.745 201.853 152.809 202.086 152.938 202.282C153.071 202.474 153.24 202.635 153.446 202.764C153.651 202.89 153.867 202.994 154.092 203.077C154.317 203.157 154.524 203.221 154.713 203.271L155.747 203.549C156.013 203.619 156.308 203.715 156.632 203.838C156.96 203.96 157.274 204.128 157.572 204.34C157.874 204.549 158.122 204.817 158.318 205.145C158.513 205.473 158.611 205.876 158.611 206.353C158.611 206.904 158.467 207.401 158.179 207.845C157.893 208.289 157.476 208.642 156.926 208.904C156.379 209.166 155.714 209.297 154.932 209.297C154.203 209.297 153.572 209.179 153.038 208.944C152.508 208.708 152.09 208.38 151.785 207.959C151.483 207.538 151.313 207.049 151.273 206.493H152.546C152.579 206.877 152.708 207.195 152.934 207.447C153.162 207.696 153.451 207.881 153.799 208.004C154.15 208.123 154.528 208.183 154.932 208.183C155.403 208.183 155.825 208.107 156.2 207.954C156.574 207.799 156.871 207.583 157.09 207.308C157.309 207.03 157.418 206.705 157.418 206.334C157.418 205.996 157.323 205.72 157.134 205.508C156.946 205.296 156.697 205.124 156.389 204.991C156.081 204.859 155.747 204.743 155.389 204.643L154.137 204.285C153.341 204.057 152.711 203.73 152.247 203.306C151.783 202.882 151.551 202.326 151.551 201.64C151.551 201.07 151.706 200.573 152.014 200.149C152.325 199.721 152.743 199.39 153.267 199.155C153.794 198.916 154.382 198.797 155.032 198.797C155.688 198.797 156.271 198.914 156.782 199.15C157.292 199.382 157.696 199.7 157.995 200.104C158.296 200.509 158.455 200.968 158.472 201.481H157.279ZM162.209 209.118L159.883 201.481H161.116L162.766 207.328H162.846L164.476 201.481H165.729L167.34 207.308H167.419L169.07 201.481H170.303L167.976 209.118H166.823L165.152 203.251H165.033L163.363 209.118H162.209ZM174.101 209.297C173.617 209.297 173.178 209.206 172.784 209.023C172.389 208.838 172.076 208.571 171.844 208.223C171.612 207.871 171.496 207.447 171.496 206.95C171.496 206.513 171.582 206.158 171.755 205.886C171.927 205.611 172.157 205.396 172.446 205.24C172.734 205.084 173.052 204.968 173.4 204.892C173.752 204.812 174.105 204.749 174.459 204.703C174.923 204.643 175.299 204.598 175.588 204.569C175.879 204.536 176.092 204.481 176.224 204.405C176.36 204.328 176.428 204.196 176.428 204.007V203.967C176.428 203.477 176.294 203.095 176.025 202.824C175.76 202.552 175.357 202.416 174.817 202.416C174.257 202.416 173.818 202.539 173.5 202.784C173.182 203.029 172.958 203.291 172.829 203.569L171.715 203.172C171.914 202.708 172.179 202.346 172.51 202.088C172.845 201.826 173.21 201.644 173.604 201.541C174.002 201.435 174.393 201.382 174.777 201.382C175.023 201.382 175.304 201.412 175.623 201.471C175.944 201.528 176.254 201.645 176.552 201.824C176.854 202.003 177.104 202.273 177.303 202.635C177.502 202.996 177.601 203.48 177.601 204.086V209.118H176.428V208.084H176.368C176.289 208.249 176.156 208.427 175.971 208.616C175.785 208.804 175.538 208.965 175.23 209.098C174.922 209.23 174.545 209.297 174.101 209.297ZM174.28 208.243C174.744 208.243 175.135 208.152 175.454 207.969C175.775 207.787 176.017 207.552 176.179 207.263C176.345 206.975 176.428 206.672 176.428 206.353V205.28C176.378 205.339 176.269 205.394 176.1 205.444C175.934 205.49 175.742 205.532 175.523 205.568C175.308 205.601 175.097 205.631 174.892 205.657C174.69 205.681 174.526 205.701 174.4 205.717C174.095 205.757 173.81 205.822 173.544 205.911C173.283 205.997 173.071 206.128 172.908 206.304C172.749 206.476 172.669 206.711 172.669 207.01C172.669 207.417 172.82 207.726 173.122 207.934C173.427 208.14 173.813 208.243 174.28 208.243ZM180.916 204.524V209.118H179.743V201.481H180.876V202.674H180.976C181.155 202.287 181.427 201.975 181.791 201.74C182.156 201.501 182.626 201.382 183.203 201.382C183.72 201.382 184.172 201.488 184.56 201.7C184.948 201.909 185.25 202.227 185.465 202.655C185.681 203.079 185.788 203.616 185.788 204.265V209.118H184.615V204.345C184.615 203.745 184.459 203.278 184.148 202.943C183.836 202.605 183.409 202.436 182.865 202.436C182.49 202.436 182.156 202.517 181.861 202.679C181.569 202.842 181.339 203.079 181.17 203.39C181.001 203.702 180.916 204.08 180.916 204.524Z" fill="white"/>
<defs>
<filter id="filter0_d_78_30" x="0" y="0" width="472" height="303" filterUnits="userSpaceOnUse" color-interpolation-filters="sRGB">
<feFlood flood-opacity="0" result="BackgroundImageFix"/>
<feColorMatrix in="SourceAlpha" type="matrix" values="0 0 0 0 0 0 0 0 0 0 0 0 0 0 0 0 0 0 127 0" result="hardAlpha"/>
<feMorphology radius="10" operator="dilate" in="SourceAlpha" result="effect1_dropShadow_78_30"/>
<feOffset/>
<feGaussianBlur stdDeviation="25"/>
<feColorMatrix type="matrix" values="0 0 0 0 0.0235294 0 0 0 0 0.054902 0 0 0 0 0.101961 0 0 0 0.3 0"/>
<feBlend mode="normal" in2="BackgroundImageFix" result="effect1_dropShadow_78_30"/>
<feBlend mode="normal" in="SourceGraphic" in2="effect1_dropShadow_78_30" result="shape"/>
</filter>
<linearGradient id="paint0_linear_78_30" x1="-106.957" y1="-21.7955" x2="650.14" y2="376.226" gradientUnits="userSpaceOnUse">
<stop offset="0.302083" stop-color="#9747FF"/>
<stop offset="1" stop-color="#1937C4"/>
</linearGradient>
</defs>
</svg>
