<svg width="18" height="19" viewBox="0 0 18 19" fill="none" xmlns="http://www.w3.org/2000/svg">
<path d="M17 4.80078H8M11 14.8008H2" stroke="white" stroke-width="2" stroke-linecap="round" stroke-linejoin="round"/>
<path d="M14 17.8008C15.6569 17.8008 17 16.4576 17 14.8008C17 13.1439 15.6569 11.8008 14 11.8008C12.3431 11.8008 11 13.1439 11 14.8008C11 16.4576 12.3431 17.8008 14 17.8008Z" stroke="white" stroke-width="2" stroke-linecap="round" stroke-linejoin="round"/>
<path d="M4 7.80078C5.65685 7.80078 7 6.45764 7 4.80078C7 3.14393 5.65685 1.80078 4 1.80078C2.34315 1.80078 1 3.14393 1 4.80078C1 6.45764 2.34315 7.80078 4 7.80078Z" stroke="white" stroke-width="2" stroke-linecap="round" stroke-linejoin="round"/>
</svg>
