<svg width="211" height="6" viewBox="0 0 211 6" fill="none" xmlns="http://www.w3.org/2000/svg">
<path d="M0.333333 3C0.333333 4.47276 1.52724 5.66667 3 5.66667C4.47276 5.66667 5.66667 4.47276 5.66667 3C5.66667 1.52724 4.47276 0.333333 3 0.333333C1.52724 0.333333 0.333333 1.52724 0.333333 3ZM205.333 3C205.333 4.47276 206.527 5.66667 208 5.66667C209.473 5.66667 210.667 4.47276 210.667 3C210.667 1.52724 209.473 0.333333 208 0.333333C206.527 0.333333 205.333 1.52724 205.333 3ZM3 3.5H208V2.5H3V3.5Z" fill="#555555"/>
<rect x="14" y="1" width="52" height="5" rx="2.5" fill="white"/>
<rect x="75" y="1" width="10" height="5" rx="2.5" fill="white"/>
<rect x="92" y="1" width="43" height="5" rx="2.5" fill="white"/>
<rect x="142" y="1" width="54" height="5" rx="2.5" fill="white"/>
</svg>
