<svg width="42" height="42" viewBox="0 0 42 42" fill="none" xmlns="http://www.w3.org/2000/svg">
<path d="M22.3125 18H24.9375L22.3125 20.625H24.9375M26.25 12.75H29.75L26.25 16.25H29.75" stroke="#0162F3" stroke-width="1.5" stroke-linecap="round" stroke-linejoin="round"/>
<path d="M29.0938 21.5C29.0938 23.6466 28.241 25.7053 26.7231 27.2231C25.2053 28.741 23.1466 29.5938 21 29.5938V30.9062C26.1949 30.9062 30.4062 26.6949 30.4062 21.5H29.0938ZM21 29.5938C18.8534 29.5938 16.7947 28.741 15.2769 27.2231C13.759 25.7053 12.9062 23.6466 12.9062 21.5H11.5938C11.5938 26.6949 15.8051 30.9062 21 30.9062V29.5938ZM12.9062 21.5C12.9062 19.3534 13.759 17.2947 15.2769 15.7769C16.7947 14.259 18.8534 13.4062 21 13.4062V12.0938C15.8051 12.0938 11.5938 16.3051 11.5938 21.5H12.9062ZM24.0625 23.4688C22.7281 23.4688 21.4484 22.9387 20.5049 21.9951C19.5613 21.0516 19.0312 19.7719 19.0312 18.4375H17.7188C17.7188 20.12 18.3871 21.7335 19.5768 22.9232C20.7665 24.1129 22.38 24.7812 24.0625 24.7812V23.4688ZM28.3719 21.0354C27.9244 21.7782 27.2924 22.3926 26.5373 22.819C25.7822 23.2454 24.9297 23.4692 24.0625 23.4688V24.7812C25.1558 24.7818 26.2306 24.4997 27.1827 23.9624C28.1348 23.425 28.9317 22.6506 29.4963 21.7144L28.3719 21.0354ZM19.0312 18.4375C19.0309 17.5703 19.2547 16.7178 19.6811 15.9627C20.1075 15.2077 20.7219 14.5757 21.4646 14.1281L20.7856 13.0046C19.8495 13.569 19.0751 14.3658 18.5377 15.3177C18.0004 16.2697 17.7182 17.3444 17.7188 18.4375H19.0312ZM21 13.4062C20.9113 13.4042 20.827 13.367 20.7655 13.303C20.7279 13.2665 20.7028 13.219 20.6937 13.1674C20.6902 13.1402 20.692 13.0615 20.7856 13.0046L21.4646 14.1281C21.9047 13.8621 22.0465 13.3748 21.9949 12.9915C21.9406 12.5934 21.6274 12.0938 21 12.0938V13.4062ZM29.4963 21.7144C29.4385 21.808 29.3598 21.8098 29.3326 21.8063C29.281 21.7972 29.2335 21.7721 29.197 21.7345C29.133 21.673 29.0958 21.5887 29.0938 21.5H30.4062C30.4062 20.8726 29.9066 20.5594 29.5085 20.5051C29.1253 20.4535 28.6379 20.5953 28.3719 21.0354L29.4963 21.7144Z" fill="#0162F3"/>
<circle cx="21" cy="21.5" r="14.5" fill="#0162F3" fill-opacity="0.2"/>
<path d="M42 21C42 32.598 32.598 42 21 42C9.40202 42 0 32.598 0 21C0 9.40202 9.40202 0 21 0C32.598 0 42 9.40202 42 21Z" fill="#0B419F" fill-opacity="0.2"/>
</svg>
