<svg width="15" height="12" viewBox="0 0 15 12" fill="none" xmlns="http://www.w3.org/2000/svg">
<path d="M7.33594 11.525L7.55421 11.9473C7.48672 11.9819 7.41188 12 7.33594 12C7.25999 12 7.18515 11.9819 7.11766 11.9473L7.11576 11.946L7.1113 11.9441L7.09539 11.9359C5.91085 11.2958 4.79504 10.5372 3.7653 9.67178C2.11776 8.27698 0.335938 6.22499 0.335938 3.80768V3.80705C0.335938 1.6164 2.13621 0 3.98612 0C5.44594 0 6.62385 0.776225 7.33594 1.96589C8.04866 0.776225 9.22594 0 10.6858 0C12.535 0 14.3359 1.61576 14.3359 3.80768C14.3359 6.22499 12.5535 8.27762 10.9066 9.67178C9.87681 10.5372 8.761 11.2958 7.57648 11.9359L7.56057 11.9441L7.55612 11.946L7.55485 11.9466L7.33594 11.525ZM3.98612 0.949704C2.66312 0.949704 1.29048 2.14 1.29048 3.80768C1.29048 5.77483 2.76939 7.58117 4.38385 8.94874C5.28696 9.70789 6.25979 10.3809 7.28948 10.9589L7.33594 10.9849L7.38239 10.9596C7.55485 10.8627 7.80303 10.719 8.10148 10.5328C8.69967 10.1606 9.49512 9.6205 10.288 8.94874C11.9025 7.58117 13.3814 5.77483 13.3814 3.80768C13.3814 2.14 12.0088 0.949704 10.6858 0.949704C9.34557 0.949704 8.26694 1.82913 7.78839 3.25622C7.75625 3.35023 7.69534 3.43187 7.61419 3.48969C7.53305 3.5475 7.43574 3.57859 7.33594 3.57859C7.23613 3.57859 7.13883 3.5475 7.05768 3.48969C6.97654 3.43187 6.91562 3.35023 6.88348 3.25622C6.40494 1.82913 5.32566 0.949704 3.98612 0.949704Z" fill="white"/>
</svg>
