<svg width="528" height="500" viewBox="0 0 261 244" fill="none" xmlns="http://www.w3.org/2000/svg">
<circle cx="130.5" cy="120" r="118.5" fill="white" stroke="url(#paint0_linear_62_43)" stroke-width="3"/>
<path d="M234.5 120C234.5 177.438 187.938 224 130.5 224C73.0624 224 26.5 177.438 26.5 120C26.5 62.5624 73.0624 16 130.5 16C187.938 16 234.5 62.5624 234.5 120Z" fill="url(#paint1_linear_62_43)"/>
<circle cx="130.5" cy="120" r="76" fill="white"/>
<circle cx="249" cy="119.5" r="9" fill="white" stroke="url(#paint2_linear_62_43)" stroke-width="3"/>
<circle cx="12" cy="119.5" r="9" fill="white" stroke="url(#paint3_linear_62_43)" stroke-width="3"/>
<path d="M121.253 124.572C119.464 124.572 117.836 124.161 116.369 123.34C114.903 122.504 113.634 121.353 112.563 119.886C111.507 118.419 110.693 116.725 110.121 114.804C109.549 112.868 109.263 110.8 109.263 108.6C109.263 106.4 109.549 104.339 110.121 102.418C110.693 100.482 111.507 98.7807 112.563 97.314C113.634 95.8473 114.903 94.7033 116.369 93.882C117.836 93.046 119.464 92.628 121.253 92.628C123.043 92.628 124.671 93.046 126.137 93.882C127.604 94.7033 128.858 95.8473 129.899 97.314C130.955 98.7807 131.769 100.482 132.341 102.418C132.928 104.339 133.221 106.4 133.221 108.6C133.221 110.8 132.928 112.868 132.341 114.804C131.769 116.725 130.955 118.419 129.899 119.886C128.858 121.353 127.604 122.504 126.137 123.34C124.671 124.161 123.043 124.572 121.253 124.572ZM121.253 119.204C122.823 119.204 124.121 118.705 125.147 117.708C126.174 116.711 126.937 115.405 127.435 113.792C127.934 112.179 128.183 110.448 128.183 108.6C128.183 106.649 127.919 104.875 127.391 103.276C126.863 101.663 126.086 100.379 125.059 99.426C124.033 98.4727 122.764 97.996 121.253 97.996C120.065 97.996 119.031 98.2893 118.151 98.876C117.286 99.448 116.567 100.233 115.995 101.23C115.423 102.227 114.998 103.364 114.719 104.64C114.441 105.901 114.301 107.221 114.301 108.6C114.301 110.433 114.551 112.164 115.049 113.792C115.563 115.405 116.333 116.711 117.359 117.708C118.401 118.705 119.699 119.204 121.253 119.204ZM145.783 124.572C143.92 124.572 142.241 124.132 140.745 123.252C139.249 122.372 138.061 121.191 137.181 119.71C136.301 118.214 135.861 116.557 135.861 114.738H141.229C141.229 115.559 141.42 116.307 141.801 116.982C142.197 117.657 142.74 118.199 143.429 118.61C144.118 119.006 144.903 119.204 145.783 119.204C146.59 119.204 147.338 119.006 148.027 118.61C148.731 118.199 149.296 117.657 149.721 116.982C150.146 116.307 150.359 115.559 150.359 114.738C150.359 113.667 150.073 112.78 149.501 112.076C148.929 111.357 148.13 110.822 147.103 110.47C146.091 110.118 144.91 109.942 143.561 109.942V105.806C145.38 105.806 146.817 105.461 147.873 104.772C148.944 104.083 149.479 103.071 149.479 101.736C149.479 101.047 149.303 100.416 148.951 99.844C148.599 99.272 148.13 98.8173 147.543 98.48C146.971 98.128 146.34 97.952 145.651 97.952C144.947 97.952 144.265 98.128 143.605 98.48C142.945 98.8173 142.402 99.272 141.977 99.844C141.566 100.416 141.361 101.047 141.361 101.736H135.993C135.993 100.475 136.25 99.294 136.763 98.194C137.276 97.0793 137.98 96.104 138.875 95.268C139.784 94.432 140.811 93.7793 141.955 93.31C143.114 92.826 144.324 92.584 145.585 92.584C147.242 92.584 148.775 92.9947 150.183 93.816C151.591 94.6373 152.72 95.7373 153.571 97.116C154.422 98.4947 154.847 100.035 154.847 101.736C154.847 102.924 154.568 104.09 154.011 105.234C153.454 106.378 152.662 107.185 151.635 107.654C152.53 107.977 153.278 108.519 153.879 109.282C154.48 110.03 154.935 110.888 155.243 111.856C155.566 112.809 155.727 113.77 155.727 114.738C155.727 116.542 155.272 118.192 154.363 119.688C153.454 121.169 152.244 122.357 150.733 123.252C149.237 124.132 147.587 124.572 145.783 124.572Z" fill="#140F18"/>
<path d="M115.681 146.26C114.927 146.26 114.201 146.143 113.501 145.91C112.801 145.67 112.187 145.33 111.661 144.89C111.141 144.45 110.771 143.927 110.551 143.32L112.121 142.73C112.254 143.103 112.501 143.43 112.861 143.71C113.227 143.983 113.657 144.197 114.151 144.35C114.644 144.503 115.154 144.58 115.681 144.58C116.281 144.58 116.837 144.483 117.351 144.29C117.871 144.09 118.291 143.813 118.611 143.46C118.931 143.107 119.091 142.693 119.091 142.22C119.091 141.733 118.924 141.337 118.591 141.03C118.257 140.717 117.831 140.47 117.311 140.29C116.791 140.103 116.247 139.96 115.681 139.86C114.714 139.7 113.847 139.473 113.081 139.18C112.321 138.88 111.717 138.463 111.271 137.93C110.831 137.397 110.611 136.693 110.611 135.82C110.611 135.007 110.844 134.297 111.311 133.69C111.784 133.083 112.407 132.613 113.181 132.28C113.954 131.947 114.787 131.78 115.681 131.78C116.421 131.78 117.137 131.897 117.831 132.13C118.531 132.357 119.147 132.69 119.681 133.13C120.214 133.57 120.597 134.107 120.831 134.74L119.241 135.32C119.107 134.94 118.857 134.613 118.491 134.34C118.131 134.06 117.704 133.847 117.211 133.7C116.724 133.547 116.214 133.47 115.681 133.47C115.087 133.463 114.534 133.56 114.021 133.76C113.507 133.96 113.091 134.237 112.771 134.59C112.451 134.943 112.291 135.353 112.291 135.82C112.291 136.38 112.437 136.81 112.731 137.11C113.031 137.403 113.437 137.623 113.951 137.77C114.464 137.917 115.041 138.047 115.681 138.16C116.587 138.313 117.427 138.557 118.201 138.89C118.974 139.217 119.594 139.653 120.061 140.2C120.534 140.747 120.771 141.42 120.771 142.22C120.771 143.033 120.534 143.743 120.061 144.35C119.594 144.957 118.974 145.427 118.201 145.76C117.427 146.093 116.587 146.26 115.681 146.26ZM133.118 132V133.68H128.458V146H126.778V133.68H122.128V132H133.118ZM135.126 146V132H143.716V133.68H136.806V137.66H142.466V139.34H136.806V144.32H143.716V146H135.126ZM146.024 146V132H150.644C151.398 132 152.074 132.183 152.674 132.55C153.281 132.917 153.761 133.413 154.114 134.04C154.474 134.66 154.654 135.353 154.654 136.12C154.654 136.9 154.471 137.603 154.104 138.23C153.744 138.85 153.258 139.343 152.644 139.71C152.038 140.07 151.371 140.25 150.644 140.25H147.704V146H146.024ZM147.704 138.57H150.494C150.948 138.57 151.361 138.46 151.734 138.24C152.114 138.013 152.414 137.71 152.634 137.33C152.861 136.943 152.974 136.51 152.974 136.03C152.974 135.543 152.861 135.11 152.634 134.73C152.414 134.343 152.114 134.04 151.734 133.82C151.361 133.593 150.948 133.48 150.494 133.48H147.704V138.57Z" fill="#140F18"/>
<defs>
<linearGradient id="paint0_linear_62_43" x1="130.5" y1="0" x2="130.5" y2="240" gradientUnits="userSpaceOnUse">
<stop stop-color="#D04194"/>
<stop offset="1" stop-color="#FFD747"/>
</linearGradient>
<linearGradient id="paint1_linear_62_43" x1="130.5" y1="16" x2="130.5" y2="224" gradientUnits="userSpaceOnUse">
<stop stop-color="#D04194"/>
<stop offset="1" stop-color="#FFD747"/>
</linearGradient>
<linearGradient id="paint2_linear_62_43" x1="249" y1="109" x2="249" y2="130" gradientUnits="userSpaceOnUse">
<stop stop-color="#D04194"/>
<stop offset="1" stop-color="#EBAF16"/>
</linearGradient>
<linearGradient id="paint3_linear_62_43" x1="12" y1="109" x2="12" y2="130" gradientUnits="userSpaceOnUse">
<stop stop-color="#D04194"/>
<stop offset="1" stop-color="#EBAF16"/>
</linearGradient>
</defs>
</svg>
