<svg width="528" height="500" viewBox="0 0 264 246" fill="none" xmlns="http://www.w3.org/2000/svg">
<circle cx="132" cy="123" r="121.5" fill="white" stroke="url(#paint0_linear_62_31)" stroke-width="3"/>
<circle cx="132" cy="123" r="104" fill="url(#paint1_linear_62_31)"/>
<circle cx="132" cy="123" r="76" fill="white"/>
<path d="M250.5 134.5C257.127 134.5 262.5 129.127 262.5 122.5C262.5 115.873 257.127 110.5 250.5 110.5C243.873 110.5 238.5 115.873 238.5 122.5C238.5 129.127 243.873 134.5 250.5 134.5Z" fill="white" stroke="url(#paint2_linear_62_31)" stroke-width="3"/>
<circle cx="13.5" cy="122.5" r="12" fill="white" stroke="url(#paint3_linear_62_31)" stroke-width="3"/>
<path d="M122.443 127.572C120.653 127.572 119.025 127.161 117.559 126.34C116.092 125.504 114.823 124.353 113.753 122.886C112.697 121.419 111.883 119.725 111.311 117.804C110.739 115.868 110.453 113.8 110.453 111.6C110.453 109.4 110.739 107.339 111.311 105.418C111.883 103.482 112.697 101.781 113.753 100.314C114.823 98.8473 116.092 97.7033 117.559 96.882C119.025 96.046 120.653 95.628 122.443 95.628C124.232 95.628 125.86 96.046 127.327 96.882C128.793 97.7033 130.047 98.8473 131.089 100.314C132.145 101.781 132.959 103.482 133.531 105.418C134.117 107.339 134.411 109.4 134.411 111.6C134.411 113.8 134.117 115.868 133.531 117.804C132.959 119.725 132.145 121.419 131.089 122.886C130.047 124.353 128.793 125.504 127.327 126.34C125.86 127.161 124.232 127.572 122.443 127.572ZM122.443 122.204C124.012 122.204 125.31 121.705 126.337 120.708C127.363 119.711 128.126 118.405 128.625 116.792C129.123 115.179 129.373 113.448 129.373 111.6C129.373 109.649 129.109 107.875 128.581 106.276C128.053 104.663 127.275 103.379 126.249 102.426C125.222 101.473 123.953 100.996 122.443 100.996C121.255 100.996 120.221 101.289 119.341 101.876C118.475 102.448 117.757 103.233 117.185 104.23C116.613 105.227 116.187 106.364 115.909 107.64C115.63 108.901 115.491 110.221 115.491 111.6C115.491 113.433 115.74 115.164 116.239 116.792C116.752 118.405 117.522 119.711 118.549 120.708C119.59 121.705 120.888 122.204 122.443 122.204ZM137.49 127V122.204C138.444 121.485 139.573 120.598 140.878 119.542C142.184 118.471 143.526 117.32 144.904 116.088C146.283 114.841 147.559 113.595 148.732 112.348C149.906 111.101 150.859 109.913 151.592 108.784C152.34 107.655 152.714 106.687 152.714 105.88C152.714 104.985 152.494 104.171 152.054 103.438C151.614 102.69 151.028 102.096 150.294 101.656C149.576 101.216 148.769 100.996 147.874 100.996C146.98 100.996 146.166 101.216 145.432 101.656C144.699 102.096 144.112 102.69 143.672 103.438C143.232 104.171 143.012 104.985 143.012 105.88H137.644C137.644 103.944 138.114 102.206 139.052 100.666C139.991 99.1113 141.23 97.8867 142.77 96.992C144.325 96.0827 146.026 95.628 147.874 95.628C149.752 95.628 151.46 96.09 153 97.014C154.54 97.9233 155.772 99.1553 156.696 100.71C157.62 102.265 158.082 103.988 158.082 105.88C158.082 106.877 157.899 107.882 157.532 108.894C157.166 109.906 156.652 110.925 155.992 111.952C155.332 112.979 154.555 114.02 153.66 115.076C152.766 116.117 151.776 117.188 150.69 118.288C149.62 119.373 148.49 120.488 147.302 121.632H158.236V127H137.49Z" fill="#140F18"/>
<path d="M118.181 149.26C117.427 149.26 116.701 149.143 116.001 148.91C115.301 148.67 114.687 148.33 114.161 147.89C113.641 147.45 113.271 146.927 113.051 146.32L114.621 145.73C114.754 146.103 115.001 146.43 115.361 146.71C115.727 146.983 116.157 147.197 116.651 147.35C117.144 147.503 117.654 147.58 118.181 147.58C118.781 147.58 119.337 147.483 119.851 147.29C120.371 147.09 120.791 146.813 121.111 146.46C121.431 146.107 121.591 145.693 121.591 145.22C121.591 144.733 121.424 144.337 121.091 144.03C120.757 143.717 120.331 143.47 119.811 143.29C119.291 143.103 118.747 142.96 118.181 142.86C117.214 142.7 116.347 142.473 115.581 142.18C114.821 141.88 114.217 141.463 113.771 140.93C113.331 140.397 113.111 139.693 113.111 138.82C113.111 138.007 113.344 137.297 113.811 136.69C114.284 136.083 114.907 135.613 115.681 135.28C116.454 134.947 117.287 134.78 118.181 134.78C118.921 134.78 119.637 134.897 120.331 135.13C121.031 135.357 121.647 135.69 122.181 136.13C122.714 136.57 123.097 137.107 123.331 137.74L121.741 138.32C121.607 137.94 121.357 137.613 120.991 137.34C120.631 137.06 120.204 136.847 119.711 136.7C119.224 136.547 118.714 136.47 118.181 136.47C117.587 136.463 117.034 136.56 116.521 136.76C116.007 136.96 115.591 137.237 115.271 137.59C114.951 137.943 114.791 138.353 114.791 138.82C114.791 139.38 114.937 139.81 115.231 140.11C115.531 140.403 115.937 140.623 116.451 140.77C116.964 140.917 117.541 141.047 118.181 141.16C119.087 141.313 119.927 141.557 120.701 141.89C121.474 142.217 122.094 142.653 122.561 143.2C123.034 143.747 123.271 144.42 123.271 145.22C123.271 146.033 123.034 146.743 122.561 147.35C122.094 147.957 121.474 148.427 120.701 148.76C119.927 149.093 119.087 149.26 118.181 149.26ZM135.618 135V136.68H130.958V149H129.278V136.68H124.628V135H135.618ZM137.626 149V135H146.216V136.68H139.306V140.66H144.966V142.34H139.306V147.32H146.216V149H137.626ZM148.524 149V135H153.144C153.898 135 154.574 135.183 155.174 135.55C155.781 135.917 156.261 136.413 156.614 137.04C156.974 137.66 157.154 138.353 157.154 139.12C157.154 139.9 156.971 140.603 156.604 141.23C156.244 141.85 155.758 142.343 155.144 142.71C154.538 143.07 153.871 143.25 153.144 143.25H150.204V149H148.524ZM150.204 141.57H152.994C153.448 141.57 153.861 141.46 154.234 141.24C154.614 141.013 154.914 140.71 155.134 140.33C155.361 139.943 155.474 139.51 155.474 139.03C155.474 138.543 155.361 138.11 155.134 137.73C154.914 137.343 154.614 137.04 154.234 136.82C153.861 136.593 153.448 136.48 152.994 136.48H150.204V141.57Z" fill="#140F18"/>
<defs>
<linearGradient id="paint0_linear_62_31" x1="132" y1="3" x2="132" y2="243" gradientUnits="userSpaceOnUse">
<stop stop-color="#AB41D0"/>
<stop offset="1" stop-color="#FE1066"/>
</linearGradient>
<linearGradient id="paint1_linear_62_31" x1="132" y1="19" x2="132" y2="227" gradientUnits="userSpaceOnUse">
<stop stop-color="#9747FF"/>
<stop offset="1" stop-color="#D04194"/>
</linearGradient>
<linearGradient id="paint2_linear_62_31" x1="250.5" y1="112" x2="250.5" y2="133" gradientUnits="userSpaceOnUse">
<stop stop-color="#AB41D0"/>
<stop offset="1" stop-color="#FE1066"/>
</linearGradient>
<linearGradient id="paint3_linear_62_31" x1="13.5" y1="112" x2="13.5" y2="133" gradientUnits="userSpaceOnUse">
<stop stop-color="#AB41D0"/>
<stop offset="1" stop-color="#FE1066"/>
</linearGradient>
</defs>
</svg>
