<svg width="472" height="303" viewBox="0 0 472 303" fill="none" xmlns="http://www.w3.org/2000/svg">
<g filter="url(#filter0_d_78_20)">
<rect x="60" y="60" width="352" height="183" rx="10" fill="white"/>
<rect x="60" y="60" width="352" height="183" rx="10" fill="url(#paint0_linear_78_20)"/>
</g>
<path opacity="0.2" d="M80.575 104.006C79.8494 103.782 79.1237 103.667 78.4178 103.667C77.3277 103.667 76.4182 103.936 75.7129 104.264C76.3928 101.584 78.0262 96.9595 81.28 96.4387C81.5813 96.3905 81.8283 96.1559 81.9105 95.8401L82.6216 93.1015C82.6816 92.8698 82.646 92.6219 82.5233 92.4209C82.4006 92.22 82.2035 92.0859 81.9825 92.0532C81.7423 92.018 81.4976 92 81.255 92C77.3494 92 73.4815 96.3892 71.8494 102.674C70.8913 106.361 70.6104 111.904 72.9703 115.393C74.2909 117.345 76.2176 118.388 78.6969 118.492C78.7071 118.492 78.717 118.493 78.7272 118.493C81.7862 118.493 84.4988 116.275 85.324 113.099C85.817 111.201 85.5941 109.21 84.696 107.492C83.8075 105.793 82.3441 104.555 80.575 104.006Z" fill="#060E1A"/>
<path opacity="0.2" d="M99.7237 107.492C98.8352 105.793 97.3718 104.555 95.6027 104.006C94.8771 103.782 94.1514 103.667 93.4458 103.667C92.3558 103.667 91.4459 103.936 90.7406 104.264C91.4206 101.584 93.0539 96.9595 96.308 96.4387C96.6093 96.3905 96.856 96.1559 96.9385 95.8401L97.6496 93.1015C97.7096 92.8698 97.674 92.6219 97.5513 92.4209C97.429 92.22 97.2318 92.0859 97.0105 92.0532C96.7707 92.018 96.5259 92 96.283 92C92.3774 92 88.5095 96.3892 86.8771 102.674C85.9193 106.361 85.6384 111.904 87.9987 115.394C89.319 117.346 91.2459 118.389 93.7249 118.492C93.7351 118.493 93.745 118.493 93.7555 118.493C96.8142 118.493 99.5272 116.275 100.352 113.099C100.845 111.201 100.622 109.21 99.7237 107.492Z" fill="#060E1A"/>
<path d="M113.872 111V98.1504H115.366V111H113.872ZM121.791 109.98C122.031 109.98 122.277 109.96 122.529 109.919C122.781 109.878 122.986 109.828 123.145 109.77V110.903C122.975 110.979 122.737 111.044 122.433 111.097C122.134 111.149 121.841 111.176 121.554 111.176C121.044 111.176 120.581 111.088 120.165 110.912C119.749 110.73 119.415 110.426 119.163 109.998C118.917 109.57 118.794 108.979 118.794 108.223V102.51H117.423V101.798L118.803 101.227L119.383 99.1348H120.262V101.367H123.083V102.51H120.262V108.179C120.262 108.782 120.399 109.233 120.675 109.532C120.956 109.831 121.328 109.98 121.791 109.98ZM134.148 101.191C134.342 101.191 134.544 101.203 134.755 101.227C134.966 101.244 135.153 101.271 135.317 101.306L135.133 102.659C134.975 102.618 134.799 102.586 134.605 102.562C134.412 102.539 134.23 102.527 134.061 102.527C133.674 102.527 133.308 102.606 132.962 102.765C132.622 102.917 132.323 103.14 132.065 103.433C131.808 103.72 131.605 104.068 131.459 104.479C131.313 104.883 131.239 105.334 131.239 105.832V111H129.772V101.367H130.984L131.143 103.143H131.204C131.403 102.785 131.644 102.46 131.925 102.167C132.206 101.868 132.531 101.631 132.9 101.455C133.275 101.279 133.691 101.191 134.148 101.191ZM140.846 101.191C141.666 101.191 142.369 101.373 142.955 101.736C143.541 102.1 143.989 102.609 144.3 103.266C144.61 103.916 144.766 104.678 144.766 105.551V106.456H138.112C138.13 107.587 138.411 108.448 138.956 109.04C139.501 109.632 140.269 109.928 141.259 109.928C141.868 109.928 142.407 109.872 142.876 109.761C143.345 109.649 143.831 109.485 144.335 109.269V110.552C143.849 110.769 143.365 110.927 142.885 111.026C142.41 111.126 141.848 111.176 141.197 111.176C140.272 111.176 139.463 110.988 138.772 110.613C138.086 110.232 137.553 109.676 137.172 108.943C136.791 108.211 136.601 107.314 136.601 106.254C136.601 105.217 136.773 104.32 137.119 103.564C137.471 102.803 137.963 102.217 138.596 101.807C139.234 101.396 139.984 101.191 140.846 101.191ZM140.828 102.387C140.049 102.387 139.428 102.642 138.965 103.151C138.502 103.661 138.227 104.373 138.139 105.287H143.236C143.23 104.713 143.14 104.209 142.964 103.775C142.794 103.336 142.533 102.996 142.182 102.756C141.83 102.51 141.379 102.387 140.828 102.387ZM150.848 101.209C151.996 101.209 152.849 101.467 153.405 101.982C153.962 102.498 154.24 103.321 154.24 104.452V111H153.177L152.896 109.576H152.825C152.556 109.928 152.274 110.224 151.981 110.464C151.689 110.698 151.349 110.877 150.962 111C150.581 111.117 150.112 111.176 149.556 111.176C148.97 111.176 148.448 111.073 147.991 110.868C147.54 110.663 147.183 110.353 146.919 109.937C146.661 109.521 146.532 108.993 146.532 108.354C146.532 107.394 146.913 106.655 147.675 106.14C148.437 105.624 149.597 105.343 151.155 105.296L152.816 105.226V104.637C152.816 103.805 152.638 103.222 152.28 102.888C151.923 102.554 151.419 102.387 150.769 102.387C150.265 102.387 149.784 102.46 149.327 102.606C148.87 102.753 148.437 102.926 148.026 103.125L147.578 102.018C148.012 101.795 148.51 101.604 149.072 101.446C149.635 101.288 150.227 101.209 150.848 101.209ZM152.799 106.254L151.331 106.315C150.13 106.362 149.283 106.559 148.791 106.904C148.299 107.25 148.053 107.739 148.053 108.372C148.053 108.923 148.22 109.33 148.554 109.594C148.888 109.857 149.33 109.989 149.881 109.989C150.736 109.989 151.437 109.752 151.981 109.277C152.526 108.803 152.799 108.091 152.799 107.142V106.254ZM158.714 111H157.246V97.3242H158.714V111ZM163.267 111H161.799V97.3242H163.267V111ZM164.831 101.367H166.396L168.522 106.957C168.646 107.285 168.76 107.602 168.865 107.906C168.971 108.205 169.064 108.492 169.147 108.768C169.229 109.043 169.293 109.31 169.34 109.567H169.401C169.483 109.274 169.601 108.891 169.753 108.416C169.905 107.936 170.069 107.446 170.245 106.948L172.258 101.367H173.831L169.639 112.415C169.416 113.007 169.155 113.522 168.856 113.962C168.564 114.401 168.206 114.738 167.784 114.973C167.362 115.213 166.853 115.333 166.255 115.333C165.98 115.333 165.736 115.315 165.525 115.28C165.314 115.251 165.133 115.216 164.98 115.175V114.006C165.109 114.035 165.265 114.062 165.446 114.085C165.634 114.108 165.827 114.12 166.026 114.12C166.39 114.12 166.703 114.05 166.967 113.909C167.236 113.774 167.468 113.575 167.661 113.312C167.855 113.048 168.022 112.734 168.162 112.371L168.689 111.018L164.831 101.367ZM181.504 101.367V111H180.045V101.367H181.504ZM180.792 97.7637C181.032 97.7637 181.237 97.8428 181.407 98.001C181.583 98.1533 181.671 98.3936 181.671 98.7217C181.671 99.0439 181.583 99.2842 181.407 99.4424C181.237 99.6006 181.032 99.6797 180.792 99.6797C180.54 99.6797 180.329 99.6006 180.159 99.4424C179.995 99.2842 179.913 99.0439 179.913 98.7217C179.913 98.3936 179.995 98.1533 180.159 98.001C180.329 97.8428 180.54 97.7637 180.792 97.7637ZM190.829 108.363C190.829 108.979 190.674 109.497 190.363 109.919C190.059 110.335 189.619 110.648 189.045 110.859C188.477 111.07 187.797 111.176 187.006 111.176C186.332 111.176 185.749 111.123 185.257 111.018C184.765 110.912 184.334 110.763 183.965 110.569V109.225C184.357 109.418 184.826 109.594 185.371 109.752C185.916 109.91 186.473 109.989 187.041 109.989C187.873 109.989 188.477 109.854 188.852 109.585C189.227 109.315 189.414 108.949 189.414 108.486C189.414 108.223 189.338 107.991 189.186 107.792C189.039 107.587 188.79 107.391 188.439 107.203C188.087 107.01 187.601 106.799 186.98 106.57C186.364 106.336 185.831 106.104 185.38 105.876C184.935 105.642 184.589 105.357 184.343 105.023C184.103 104.689 183.982 104.256 183.982 103.723C183.982 102.908 184.311 102.284 184.967 101.851C185.629 101.411 186.496 101.191 187.568 101.191C188.148 101.191 188.69 101.25 189.194 101.367C189.704 101.479 190.179 101.631 190.618 101.824L190.126 102.993C189.728 102.823 189.303 102.68 188.852 102.562C188.4 102.445 187.94 102.387 187.472 102.387C186.798 102.387 186.279 102.498 185.916 102.721C185.559 102.943 185.38 103.248 185.38 103.635C185.38 103.934 185.462 104.18 185.626 104.373C185.796 104.566 186.065 104.748 186.435 104.918C186.804 105.088 187.29 105.287 187.894 105.516C188.497 105.738 189.019 105.97 189.458 106.21C189.897 106.444 190.234 106.731 190.469 107.071C190.709 107.405 190.829 107.836 190.829 108.363ZM208.311 101.191C209.371 101.191 210.171 101.47 210.71 102.026C211.249 102.577 211.519 103.465 211.519 104.689V111H210.077V104.76C210.077 103.98 209.907 103.397 209.567 103.011C209.233 102.618 208.735 102.422 208.073 102.422C207.142 102.422 206.465 102.691 206.043 103.23C205.621 103.77 205.41 104.563 205.41 105.612V111H203.96V104.76C203.96 104.238 203.884 103.805 203.731 103.459C203.585 103.113 203.362 102.855 203.064 102.686C202.771 102.51 202.398 102.422 201.947 102.422C201.309 102.422 200.796 102.554 200.409 102.817C200.022 103.081 199.741 103.474 199.565 103.995C199.396 104.511 199.311 105.146 199.311 105.902V111H197.852V101.367H199.029L199.249 102.729H199.328C199.522 102.396 199.765 102.114 200.058 101.886C200.351 101.657 200.679 101.484 201.042 101.367C201.405 101.25 201.792 101.191 202.202 101.191C202.935 101.191 203.547 101.329 204.039 101.604C204.537 101.874 204.897 102.287 205.12 102.844H205.199C205.516 102.287 205.949 101.874 206.5 101.604C207.051 101.329 207.654 101.191 208.311 101.191ZM212.995 101.367H214.56L216.687 106.957C216.81 107.285 216.924 107.602 217.029 107.906C217.135 108.205 217.229 108.492 217.311 108.768C217.393 109.043 217.457 109.31 217.504 109.567H217.565C217.647 109.274 217.765 108.891 217.917 108.416C218.069 107.936 218.233 107.446 218.409 106.948L220.422 101.367H221.995L217.803 112.415C217.58 113.007 217.319 113.522 217.021 113.962C216.728 114.401 216.37 114.738 215.948 114.973C215.526 115.213 215.017 115.333 214.419 115.333C214.144 115.333 213.9 115.315 213.689 115.28C213.479 115.251 213.297 115.216 213.145 115.175V114.006C213.273 114.035 213.429 114.062 213.61 114.085C213.798 114.108 213.991 114.12 214.19 114.12C214.554 114.12 214.867 114.05 215.131 113.909C215.4 113.774 215.632 113.575 215.825 113.312C216.019 113.048 216.186 112.734 216.326 112.371L216.854 111.018L212.995 101.367ZM229.677 111H228.209V97.3242H229.677V111ZM234.221 101.367V111H232.762V101.367H234.221ZM233.509 97.7637C233.749 97.7637 233.954 97.8428 234.124 98.001C234.3 98.1533 234.388 98.3936 234.388 98.7217C234.388 99.0439 234.3 99.2842 234.124 99.4424C233.954 99.6006 233.749 99.6797 233.509 99.6797C233.257 99.6797 233.046 99.6006 232.876 99.4424C232.712 99.2842 232.63 99.0439 232.63 98.7217C232.63 98.3936 232.712 98.1533 232.876 98.001C233.046 97.8428 233.257 97.7637 233.509 97.7637ZM241.604 102.51H239.204V111H237.745V102.51H236.04V101.807L237.745 101.323V100.682C237.745 99.873 237.865 99.2168 238.105 98.7129C238.346 98.2031 238.694 97.8281 239.151 97.5879C239.608 97.3477 240.165 97.2275 240.821 97.2275C241.19 97.2275 241.527 97.2598 241.832 97.3242C242.143 97.3887 242.415 97.4619 242.649 97.5439L242.272 98.6953C242.072 98.6309 241.847 98.5723 241.595 98.5195C241.349 98.4609 241.097 98.4316 240.839 98.4316C240.282 98.4316 239.869 98.6133 239.6 98.9766C239.336 99.334 239.204 99.8965 239.204 100.664V101.367H241.604V102.51ZM247.088 101.191C247.908 101.191 248.611 101.373 249.197 101.736C249.783 102.1 250.231 102.609 250.542 103.266C250.853 103.916 251.008 104.678 251.008 105.551V106.456H244.355C244.372 107.587 244.653 108.448 245.198 109.04C245.743 109.632 246.511 109.928 247.501 109.928C248.11 109.928 248.649 109.872 249.118 109.761C249.587 109.649 250.073 109.485 250.577 109.269V110.552C250.091 110.769 249.607 110.927 249.127 111.026C248.652 111.126 248.09 111.176 247.439 111.176C246.514 111.176 245.705 110.988 245.014 110.613C244.328 110.232 243.795 109.676 243.414 108.943C243.033 108.211 242.843 107.314 242.843 106.254C242.843 105.217 243.016 104.32 243.361 103.564C243.713 102.803 244.205 102.217 244.838 101.807C245.477 101.396 246.227 101.191 247.088 101.191ZM247.07 102.387C246.291 102.387 245.67 102.642 245.207 103.151C244.744 103.661 244.469 104.373 244.381 105.287H249.479C249.473 104.713 249.382 104.209 249.206 103.775C249.036 103.336 248.775 102.996 248.424 102.756C248.072 102.51 247.621 102.387 247.07 102.387ZM259.718 108.363C259.718 108.979 259.563 109.497 259.252 109.919C258.947 110.335 258.508 110.648 257.934 110.859C257.365 111.07 256.686 111.176 255.895 111.176C255.221 111.176 254.638 111.123 254.146 111.018C253.653 110.912 253.223 110.763 252.854 110.569V109.225C253.246 109.418 253.715 109.594 254.26 109.752C254.805 109.91 255.361 109.989 255.93 109.989C256.762 109.989 257.365 109.854 257.74 109.585C258.115 109.315 258.303 108.949 258.303 108.486C258.303 108.223 258.227 107.991 258.074 107.792C257.928 107.587 257.679 107.391 257.327 107.203C256.976 107.01 256.489 106.799 255.868 106.57C255.253 106.336 254.72 106.104 254.269 105.876C253.823 105.642 253.478 105.357 253.231 105.023C252.991 104.689 252.871 104.256 252.871 103.723C252.871 102.908 253.199 102.284 253.855 101.851C254.518 101.411 255.385 101.191 256.457 101.191C257.037 101.191 257.579 101.25 258.083 101.367C258.593 101.479 259.067 101.631 259.507 101.824L259.015 102.993C258.616 102.823 258.191 102.68 257.74 102.562C257.289 102.445 256.829 102.387 256.36 102.387C255.687 102.387 255.168 102.498 254.805 102.721C254.447 102.943 254.269 103.248 254.269 103.635C254.269 103.934 254.351 104.18 254.515 104.373C254.685 104.566 254.954 104.748 255.323 104.918C255.692 105.088 256.179 105.287 256.782 105.516C257.386 105.738 257.907 105.97 258.347 106.21C258.786 106.444 259.123 106.731 259.357 107.071C259.598 107.405 259.718 107.836 259.718 108.363ZM265.668 101.209C266.816 101.209 267.669 101.467 268.226 101.982C268.782 102.498 269.061 103.321 269.061 104.452V111H267.997L267.716 109.576H267.646C267.376 109.928 267.095 110.224 266.802 110.464C266.509 110.698 266.169 110.877 265.782 111C265.401 111.117 264.933 111.176 264.376 111.176C263.79 111.176 263.269 111.073 262.812 110.868C262.36 110.663 262.003 110.353 261.739 109.937C261.481 109.521 261.353 108.993 261.353 108.354C261.353 107.394 261.733 106.655 262.495 106.14C263.257 105.624 264.417 105.343 265.976 105.296L267.637 105.226V104.637C267.637 103.805 267.458 103.222 267.101 102.888C266.743 102.554 266.239 102.387 265.589 102.387C265.085 102.387 264.605 102.46 264.147 102.606C263.69 102.753 263.257 102.926 262.847 103.125L262.398 102.018C262.832 101.795 263.33 101.604 263.893 101.446C264.455 101.288 265.047 101.209 265.668 101.209ZM267.619 106.254L266.151 106.315C264.95 106.362 264.104 106.559 263.611 106.904C263.119 107.25 262.873 107.739 262.873 108.372C262.873 108.923 263.04 109.33 263.374 109.594C263.708 109.857 264.15 109.989 264.701 109.989C265.557 109.989 266.257 109.752 266.802 109.277C267.347 108.803 267.619 108.091 267.619 107.142V106.254ZM274.185 111L270.528 101.367H272.093L274.211 107.194C274.357 107.593 274.507 108.032 274.659 108.513C274.812 108.993 274.917 109.38 274.976 109.673H275.037C275.107 109.38 275.225 108.993 275.389 108.513C275.553 108.026 275.702 107.587 275.837 107.194L277.955 101.367H279.52L275.855 111H274.185ZM284.775 101.191C285.596 101.191 286.299 101.373 286.885 101.736C287.471 102.1 287.919 102.609 288.23 103.266C288.54 103.916 288.695 104.678 288.695 105.551V106.456H282.042C282.06 107.587 282.341 108.448 282.886 109.04C283.431 109.632 284.198 109.928 285.189 109.928C285.798 109.928 286.337 109.872 286.806 109.761C287.274 109.649 287.761 109.485 288.265 109.269V110.552C287.778 110.769 287.295 110.927 286.814 111.026C286.34 111.126 285.777 111.176 285.127 111.176C284.201 111.176 283.393 110.988 282.701 110.613C282.016 110.232 281.482 109.676 281.102 108.943C280.721 108.211 280.53 107.314 280.53 106.254C280.53 105.217 280.703 104.32 281.049 103.564C281.4 102.803 281.893 102.217 282.525 101.807C283.164 101.396 283.914 101.191 284.775 101.191ZM284.758 102.387C283.979 102.387 283.357 102.642 282.895 103.151C282.432 103.661 282.156 104.373 282.068 105.287H287.166C287.16 104.713 287.069 104.209 286.894 103.775C286.724 103.336 286.463 102.996 286.111 102.756C285.76 102.51 285.309 102.387 284.758 102.387ZM295.551 101.191C295.744 101.191 295.946 101.203 296.157 101.227C296.368 101.244 296.556 101.271 296.72 101.306L296.535 102.659C296.377 102.618 296.201 102.586 296.008 102.562C295.814 102.539 295.633 102.527 295.463 102.527C295.076 102.527 294.71 102.606 294.364 102.765C294.024 102.917 293.726 103.14 293.468 103.433C293.21 103.72 293.008 104.068 292.861 104.479C292.715 104.883 292.642 105.334 292.642 105.832V111H291.174V101.367H292.387L292.545 103.143H292.606C292.806 102.785 293.046 102.46 293.327 102.167C293.608 101.868 293.934 101.631 294.303 101.455C294.678 101.279 295.094 101.191 295.551 101.191ZM298.319 110.086C298.319 109.676 298.419 109.386 298.618 109.216C298.817 109.04 299.061 108.952 299.348 108.952C299.647 108.952 299.898 109.04 300.104 109.216C300.309 109.386 300.411 109.676 300.411 110.086C300.411 110.49 300.309 110.786 300.104 110.974C299.898 111.155 299.647 111.246 299.348 111.246C299.061 111.246 298.817 111.155 298.618 110.974C298.419 110.786 298.319 110.49 298.319 110.086ZM308.163 111V98.1504H309.657V111H308.163ZM316.082 109.98C316.322 109.98 316.568 109.96 316.82 109.919C317.072 109.878 317.277 109.828 317.436 109.77V110.903C317.266 110.979 317.028 111.044 316.724 111.097C316.425 111.149 316.132 111.176 315.845 111.176C315.335 111.176 314.872 111.088 314.456 110.912C314.04 110.73 313.706 110.426 313.454 109.998C313.208 109.57 313.085 108.979 313.085 108.223V102.51H311.714V101.798L313.094 101.227L313.674 99.1348H314.553V101.367H317.374V102.51H314.553V108.179C314.553 108.782 314.69 109.233 314.966 109.532C315.247 109.831 315.619 109.98 316.082 109.98ZM325.522 97.3242V101.411C325.522 101.646 325.516 101.883 325.504 102.123C325.492 102.357 325.472 102.574 325.442 102.773H325.539C325.738 102.434 325.99 102.149 326.295 101.921C326.605 101.687 326.957 101.511 327.35 101.394C327.742 101.271 328.158 101.209 328.598 101.209C329.371 101.209 330.016 101.332 330.531 101.578C331.053 101.824 331.442 102.205 331.7 102.721C331.964 103.236 332.096 103.904 332.096 104.725V111H330.654V104.821C330.654 104.019 330.47 103.418 330.101 103.02C329.737 102.621 329.178 102.422 328.422 102.422C327.707 102.422 327.136 102.56 326.708 102.835C326.286 103.104 325.981 103.503 325.794 104.03C325.612 104.558 325.522 105.202 325.522 105.964V111H324.063V97.3242H325.522ZM338.811 101.191C339.631 101.191 340.334 101.373 340.92 101.736C341.506 102.1 341.954 102.609 342.265 103.266C342.575 103.916 342.73 104.678 342.73 105.551V106.456H336.077C336.095 107.587 336.376 108.448 336.921 109.04C337.466 109.632 338.233 109.928 339.224 109.928C339.833 109.928 340.372 109.872 340.841 109.761C341.31 109.649 341.796 109.485 342.3 109.269V110.552C341.814 110.769 341.33 110.927 340.85 111.026C340.375 111.126 339.813 111.176 339.162 111.176C338.236 111.176 337.428 110.988 336.736 110.613C336.051 110.232 335.518 109.676 335.137 108.943C334.756 108.211 334.565 107.314 334.565 106.254C334.565 105.217 334.738 104.32 335.084 103.564C335.436 102.803 335.928 102.217 336.561 101.807C337.199 101.396 337.949 101.191 338.811 101.191ZM338.793 102.387C338.014 102.387 337.393 102.642 336.93 103.151C336.467 103.661 336.191 104.373 336.104 105.287H341.201C341.195 104.713 341.105 104.209 340.929 103.775C340.759 103.336 340.498 102.996 340.147 102.756C339.795 102.51 339.344 102.387 338.793 102.387ZM346.677 111H345.209V97.3242H346.677V111ZM354.288 101.191C355.489 101.191 356.447 101.604 357.162 102.431C357.877 103.257 358.234 104.499 358.234 106.157C358.234 107.253 358.07 108.173 357.742 108.917C357.414 109.661 356.951 110.224 356.354 110.604C355.762 110.985 355.062 111.176 354.253 111.176C353.743 111.176 353.295 111.108 352.908 110.974C352.522 110.839 352.19 110.657 351.915 110.429C351.64 110.2 351.411 109.951 351.23 109.682H351.124C351.142 109.91 351.162 110.186 351.186 110.508C351.215 110.83 351.23 111.111 351.23 111.352V115.307H349.762V101.367H350.966L351.159 102.791H351.23C351.417 102.498 351.646 102.231 351.915 101.991C352.185 101.745 352.513 101.552 352.899 101.411C353.292 101.265 353.755 101.191 354.288 101.191ZM354.033 102.422C353.365 102.422 352.826 102.551 352.416 102.809C352.012 103.066 351.716 103.453 351.528 103.969C351.341 104.479 351.241 105.12 351.23 105.894V106.175C351.23 106.989 351.317 107.678 351.493 108.24C351.675 108.803 351.971 109.23 352.381 109.523C352.797 109.816 353.354 109.963 354.051 109.963C354.648 109.963 355.147 109.802 355.545 109.479C355.943 109.157 356.239 108.709 356.433 108.135C356.632 107.555 356.731 106.89 356.731 106.14C356.731 105.003 356.509 104.101 356.064 103.433C355.624 102.759 354.947 102.422 354.033 102.422ZM367.015 108.363C367.015 108.979 366.859 109.497 366.549 109.919C366.244 110.335 365.805 110.648 365.23 110.859C364.662 111.07 363.982 111.176 363.191 111.176C362.518 111.176 361.935 111.123 361.442 111.018C360.95 110.912 360.52 110.763 360.15 110.569V109.225C360.543 109.418 361.012 109.594 361.557 109.752C362.102 109.91 362.658 109.989 363.227 109.989C364.059 109.989 364.662 109.854 365.037 109.585C365.412 109.315 365.6 108.949 365.6 108.486C365.6 108.223 365.523 107.991 365.371 107.792C365.225 107.587 364.976 107.391 364.624 107.203C364.272 107.01 363.786 106.799 363.165 106.57C362.55 106.336 362.017 106.104 361.565 105.876C361.12 105.642 360.774 105.357 360.528 105.023C360.288 104.689 360.168 104.256 360.168 103.723C360.168 102.908 360.496 102.284 361.152 101.851C361.814 101.411 362.682 101.191 363.754 101.191C364.334 101.191 364.876 101.25 365.38 101.367C365.89 101.479 366.364 101.631 366.804 101.824L366.312 102.993C365.913 102.823 365.488 102.68 365.037 102.562C364.586 102.445 364.126 102.387 363.657 102.387C362.983 102.387 362.465 102.498 362.102 102.721C361.744 102.943 361.565 103.248 361.565 103.635C361.565 103.934 361.647 104.18 361.812 104.373C361.981 104.566 362.251 104.748 362.62 104.918C362.989 105.088 363.476 105.287 364.079 105.516C364.683 105.738 365.204 105.97 365.644 106.21C366.083 106.444 366.42 106.731 366.654 107.071C366.895 107.405 367.015 107.836 367.015 108.363ZM124.111 126.191C125.172 126.191 125.972 126.47 126.511 127.026C127.05 127.577 127.319 128.465 127.319 129.689V136H125.878V129.76C125.878 128.98 125.708 128.397 125.368 128.011C125.034 127.618 124.536 127.422 123.874 127.422C122.942 127.422 122.266 127.691 121.844 128.23C121.422 128.77 121.211 129.563 121.211 130.612V136H119.761V129.76C119.761 129.238 119.685 128.805 119.532 128.459C119.386 128.113 119.163 127.855 118.864 127.686C118.571 127.51 118.199 127.422 117.748 127.422C117.109 127.422 116.597 127.554 116.21 127.817C115.823 128.081 115.542 128.474 115.366 128.995C115.196 129.511 115.111 130.146 115.111 130.902V136H113.652V126.367H114.83L115.05 127.729H115.129C115.322 127.396 115.565 127.114 115.858 126.886C116.151 126.657 116.48 126.484 116.843 126.367C117.206 126.25 117.593 126.191 118.003 126.191C118.735 126.191 119.348 126.329 119.84 126.604C120.338 126.874 120.698 127.287 120.921 127.844H121C121.316 127.287 121.75 126.874 122.301 126.604C122.852 126.329 123.455 126.191 124.111 126.191ZM134.025 126.191C134.846 126.191 135.549 126.373 136.135 126.736C136.721 127.1 137.169 127.609 137.48 128.266C137.79 128.916 137.945 129.678 137.945 130.551V131.456H131.292C131.31 132.587 131.591 133.448 132.136 134.04C132.681 134.632 133.448 134.928 134.439 134.928C135.048 134.928 135.587 134.872 136.056 134.761C136.524 134.649 137.011 134.485 137.515 134.269V135.552C137.028 135.769 136.545 135.927 136.064 136.026C135.59 136.126 135.027 136.176 134.377 136.176C133.451 136.176 132.643 135.988 131.951 135.613C131.266 135.232 130.732 134.676 130.352 133.943C129.971 133.211 129.78 132.314 129.78 131.254C129.78 130.217 129.953 129.32 130.299 128.564C130.65 127.803 131.143 127.217 131.775 126.807C132.414 126.396 133.164 126.191 134.025 126.191ZM134.008 127.387C133.229 127.387 132.607 127.642 132.145 128.151C131.682 128.661 131.406 129.373 131.318 130.287H136.416C136.41 129.713 136.319 129.209 136.144 128.775C135.974 128.336 135.713 127.996 135.361 127.756C135.01 127.51 134.559 127.387 134.008 127.387ZM148.958 136.176C148.091 136.176 147.326 135.997 146.664 135.64C146.002 135.282 145.486 134.737 145.117 134.005C144.748 133.272 144.564 132.35 144.564 131.236C144.564 130.07 144.757 129.118 145.144 128.38C145.536 127.636 146.075 127.085 146.761 126.728C147.446 126.37 148.226 126.191 149.099 126.191C149.579 126.191 150.042 126.241 150.487 126.341C150.939 126.435 151.308 126.555 151.595 126.701L151.155 127.923C150.862 127.806 150.522 127.7 150.136 127.606C149.755 127.513 149.397 127.466 149.064 127.466C148.396 127.466 147.839 127.609 147.394 127.896C146.954 128.184 146.623 128.605 146.4 129.162C146.184 129.719 146.075 130.404 146.075 131.219C146.075 131.998 146.181 132.663 146.392 133.214C146.608 133.765 146.928 134.187 147.35 134.479C147.777 134.767 148.311 134.91 148.949 134.91C149.459 134.91 149.919 134.857 150.329 134.752C150.739 134.641 151.111 134.512 151.445 134.365V135.666C151.123 135.83 150.763 135.956 150.364 136.044C149.972 136.132 149.503 136.176 148.958 136.176ZM162.036 131.166C162.036 131.957 161.934 132.663 161.729 133.284C161.523 133.905 161.228 134.43 160.841 134.857C160.454 135.285 159.985 135.613 159.435 135.842C158.89 136.064 158.272 136.176 157.58 136.176C156.936 136.176 156.344 136.064 155.805 135.842C155.272 135.613 154.809 135.285 154.416 134.857C154.029 134.43 153.728 133.905 153.511 133.284C153.3 132.663 153.194 131.957 153.194 131.166C153.194 130.111 153.373 129.215 153.73 128.477C154.088 127.732 154.598 127.167 155.26 126.78C155.928 126.388 156.722 126.191 157.642 126.191C158.521 126.191 159.288 126.388 159.944 126.78C160.606 127.173 161.119 127.741 161.482 128.485C161.852 129.224 162.036 130.117 162.036 131.166ZM154.706 131.166C154.706 131.939 154.809 132.61 155.014 133.179C155.219 133.747 155.535 134.187 155.963 134.497C156.391 134.808 156.941 134.963 157.615 134.963C158.283 134.963 158.831 134.808 159.259 134.497C159.692 134.187 160.012 133.747 160.217 133.179C160.422 132.61 160.524 131.939 160.524 131.166C160.524 130.398 160.422 129.736 160.217 129.18C160.012 128.617 159.695 128.184 159.268 127.879C158.84 127.574 158.286 127.422 157.606 127.422C156.605 127.422 155.869 127.753 155.4 128.415C154.938 129.077 154.706 129.994 154.706 131.166ZM169.12 126.191C170.263 126.191 171.127 126.473 171.713 127.035C172.299 127.592 172.592 128.488 172.592 129.725V136H171.15V129.821C171.15 129.019 170.966 128.418 170.597 128.02C170.233 127.621 169.674 127.422 168.918 127.422C167.852 127.422 167.102 127.724 166.668 128.327C166.234 128.931 166.018 129.807 166.018 130.955V136H164.559V126.367H165.736L165.956 127.756H166.035C166.24 127.416 166.501 127.132 166.817 126.903C167.134 126.669 167.488 126.493 167.881 126.376C168.273 126.253 168.687 126.191 169.12 126.191ZM178.709 134.98C178.949 134.98 179.195 134.96 179.447 134.919C179.699 134.878 179.904 134.828 180.063 134.77V135.903C179.893 135.979 179.655 136.044 179.351 136.097C179.052 136.149 178.759 136.176 178.472 136.176C177.962 136.176 177.499 136.088 177.083 135.912C176.667 135.73 176.333 135.426 176.081 134.998C175.835 134.57 175.712 133.979 175.712 133.223V127.51H174.341V126.798L175.721 126.227L176.301 124.135H177.18V126.367H180.001V127.51H177.18V133.179C177.18 133.782 177.317 134.233 177.593 134.532C177.874 134.831 178.246 134.98 178.709 134.98ZM186.391 126.191C186.584 126.191 186.786 126.203 186.997 126.227C187.208 126.244 187.396 126.271 187.56 126.306L187.375 127.659C187.217 127.618 187.041 127.586 186.848 127.562C186.654 127.539 186.473 127.527 186.303 127.527C185.916 127.527 185.55 127.606 185.204 127.765C184.864 127.917 184.565 128.14 184.308 128.433C184.05 128.72 183.848 129.068 183.701 129.479C183.555 129.883 183.481 130.334 183.481 130.832V136H182.014V126.367H183.227L183.385 128.143H183.446C183.646 127.785 183.886 127.46 184.167 127.167C184.448 126.868 184.773 126.631 185.143 126.455C185.518 126.279 185.934 126.191 186.391 126.191ZM197.685 131.166C197.685 131.957 197.582 132.663 197.377 133.284C197.172 133.905 196.876 134.43 196.489 134.857C196.103 135.285 195.634 135.613 195.083 135.842C194.538 136.064 193.92 136.176 193.229 136.176C192.584 136.176 191.992 136.064 191.453 135.842C190.92 135.613 190.457 135.285 190.064 134.857C189.678 134.43 189.376 133.905 189.159 133.284C188.948 132.663 188.843 131.957 188.843 131.166C188.843 130.111 189.022 129.215 189.379 128.477C189.736 127.732 190.246 127.167 190.908 126.78C191.576 126.388 192.37 126.191 193.29 126.191C194.169 126.191 194.937 126.388 195.593 126.78C196.255 127.173 196.768 127.741 197.131 128.485C197.5 129.224 197.685 130.117 197.685 131.166ZM190.355 131.166C190.355 131.939 190.457 132.61 190.662 133.179C190.867 133.747 191.184 134.187 191.611 134.497C192.039 134.808 192.59 134.963 193.264 134.963C193.932 134.963 194.48 134.808 194.907 134.497C195.341 134.187 195.66 133.747 195.865 133.179C196.07 132.61 196.173 131.939 196.173 131.166C196.173 130.398 196.07 129.736 195.865 129.18C195.66 128.617 195.344 128.184 194.916 127.879C194.488 127.574 193.935 127.422 193.255 127.422C192.253 127.422 191.518 127.753 191.049 128.415C190.586 129.077 190.355 129.994 190.355 131.166ZM201.675 136H200.207V122.324H201.675V136ZM219.895 126.191C220.955 126.191 221.755 126.47 222.294 127.026C222.833 127.577 223.103 128.465 223.103 129.689V136H221.661V129.76C221.661 128.98 221.491 128.397 221.151 128.011C220.817 127.618 220.319 127.422 219.657 127.422C218.726 127.422 218.049 127.691 217.627 128.23C217.205 128.77 216.994 129.563 216.994 130.612V136H215.544V129.76C215.544 129.238 215.468 128.805 215.315 128.459C215.169 128.113 214.946 127.855 214.647 127.686C214.355 127.51 213.982 127.422 213.531 127.422C212.893 127.422 212.38 127.554 211.993 127.817C211.606 128.081 211.325 128.474 211.149 128.995C210.98 129.511 210.895 130.146 210.895 130.902V136H209.436V126.367H210.613L210.833 127.729H210.912C211.105 127.396 211.349 127.114 211.642 126.886C211.935 126.657 212.263 126.484 212.626 126.367C212.989 126.25 213.376 126.191 213.786 126.191C214.519 126.191 215.131 126.329 215.623 126.604C216.121 126.874 216.481 127.287 216.704 127.844H216.783C217.1 127.287 217.533 126.874 218.084 126.604C218.635 126.329 219.238 126.191 219.895 126.191ZM224.579 126.367H226.144L228.271 131.957C228.394 132.285 228.508 132.602 228.613 132.906C228.719 133.205 228.813 133.492 228.895 133.768C228.977 134.043 229.041 134.31 229.088 134.567H229.149C229.231 134.274 229.349 133.891 229.501 133.416C229.653 132.936 229.817 132.446 229.993 131.948L232.006 126.367H233.579L229.387 137.415C229.164 138.007 228.903 138.522 228.605 138.962C228.312 139.401 227.954 139.738 227.532 139.973C227.11 140.213 226.601 140.333 226.003 140.333C225.728 140.333 225.484 140.315 225.273 140.28C225.063 140.251 224.881 140.216 224.729 140.175V139.006C224.857 139.035 225.013 139.062 225.194 139.085C225.382 139.108 225.575 139.12 225.774 139.12C226.138 139.12 226.451 139.05 226.715 138.909C226.984 138.774 227.216 138.575 227.409 138.312C227.603 138.048 227.77 137.734 227.91 137.371L228.438 136.018L224.579 126.367ZM243.397 126.209C244.545 126.209 245.397 126.467 245.954 126.982C246.511 127.498 246.789 128.321 246.789 129.452V136H245.726L245.444 134.576H245.374C245.105 134.928 244.823 135.224 244.53 135.464C244.237 135.698 243.897 135.877 243.511 136C243.13 136.117 242.661 136.176 242.105 136.176C241.519 136.176 240.997 136.073 240.54 135.868C240.089 135.663 239.731 135.353 239.468 134.937C239.21 134.521 239.081 133.993 239.081 133.354C239.081 132.394 239.462 131.655 240.224 131.14C240.985 130.624 242.146 130.343 243.704 130.296L245.365 130.226V129.637C245.365 128.805 245.187 128.222 244.829 127.888C244.472 127.554 243.968 127.387 243.317 127.387C242.814 127.387 242.333 127.46 241.876 127.606C241.419 127.753 240.985 127.926 240.575 128.125L240.127 127.018C240.561 126.795 241.059 126.604 241.621 126.446C242.184 126.288 242.775 126.209 243.397 126.209ZM245.348 131.254L243.88 131.315C242.679 131.362 241.832 131.559 241.34 131.904C240.848 132.25 240.602 132.739 240.602 133.372C240.602 133.923 240.769 134.33 241.103 134.594C241.437 134.857 241.879 134.989 242.43 134.989C243.285 134.989 243.985 134.752 244.53 134.277C245.075 133.803 245.348 133.091 245.348 132.142V131.254ZM256.026 133.363C256.026 133.979 255.871 134.497 255.561 134.919C255.256 135.335 254.816 135.648 254.242 135.859C253.674 136.07 252.994 136.176 252.203 136.176C251.529 136.176 250.946 136.123 250.454 136.018C249.962 135.912 249.531 135.763 249.162 135.569V134.225C249.555 134.418 250.023 134.594 250.568 134.752C251.113 134.91 251.67 134.989 252.238 134.989C253.07 134.989 253.674 134.854 254.049 134.585C254.424 134.315 254.611 133.949 254.611 133.486C254.611 133.223 254.535 132.991 254.383 132.792C254.236 132.587 253.987 132.391 253.636 132.203C253.284 132.01 252.798 131.799 252.177 131.57C251.562 131.336 251.028 131.104 250.577 130.876C250.132 130.642 249.786 130.357 249.54 130.023C249.3 129.689 249.18 129.256 249.18 128.723C249.18 127.908 249.508 127.284 250.164 126.851C250.826 126.411 251.693 126.191 252.766 126.191C253.346 126.191 253.888 126.25 254.392 126.367C254.901 126.479 255.376 126.631 255.815 126.824L255.323 127.993C254.925 127.823 254.5 127.68 254.049 127.562C253.598 127.445 253.138 127.387 252.669 127.387C251.995 127.387 251.477 127.498 251.113 127.721C250.756 127.943 250.577 128.248 250.577 128.635C250.577 128.934 250.659 129.18 250.823 129.373C250.993 129.566 251.263 129.748 251.632 129.918C252.001 130.088 252.487 130.287 253.091 130.516C253.694 130.738 254.216 130.97 254.655 131.21C255.095 131.444 255.432 131.731 255.666 132.071C255.906 132.405 256.026 132.836 256.026 133.363ZM261.484 134.98C261.725 134.98 261.971 134.96 262.223 134.919C262.475 134.878 262.68 134.828 262.838 134.77V135.903C262.668 135.979 262.431 136.044 262.126 136.097C261.827 136.149 261.534 136.176 261.247 136.176C260.737 136.176 260.274 136.088 259.858 135.912C259.442 135.73 259.108 135.426 258.856 134.998C258.61 134.57 258.487 133.979 258.487 133.223V127.51H257.116V126.798L258.496 126.227L259.076 124.135H259.955V126.367H262.776V127.51H259.955V133.179C259.955 133.782 260.093 134.233 260.368 134.532C260.649 134.831 261.022 134.98 261.484 134.98ZM266.248 122.324V126.411C266.248 126.646 266.242 126.883 266.23 127.123C266.219 127.357 266.198 127.574 266.169 127.773H266.266C266.465 127.434 266.717 127.149 267.022 126.921C267.332 126.687 267.684 126.511 268.076 126.394C268.469 126.271 268.885 126.209 269.324 126.209C270.098 126.209 270.742 126.332 271.258 126.578C271.779 126.824 272.169 127.205 272.427 127.721C272.69 128.236 272.822 128.904 272.822 129.725V136H271.381V129.821C271.381 129.019 271.196 128.418 270.827 128.02C270.464 127.621 269.904 127.422 269.148 127.422C268.434 127.422 267.862 127.56 267.435 127.835C267.013 128.104 266.708 128.503 266.521 129.03C266.339 129.558 266.248 130.202 266.248 130.964V136H264.789V122.324H266.248ZM286.287 126.191C287.348 126.191 288.147 126.47 288.687 127.026C289.226 127.577 289.495 128.465 289.495 129.689V136H288.054V129.76C288.054 128.98 287.884 128.397 287.544 128.011C287.21 127.618 286.712 127.422 286.05 127.422C285.118 127.422 284.441 127.691 284.02 128.23C283.598 128.77 283.387 129.563 283.387 130.612V136H281.937V129.76C281.937 129.238 281.86 128.805 281.708 128.459C281.562 128.113 281.339 127.855 281.04 127.686C280.747 127.51 280.375 127.422 279.924 127.422C279.285 127.422 278.772 127.554 278.386 127.817C277.999 128.081 277.718 128.474 277.542 128.995C277.372 129.511 277.287 130.146 277.287 130.902V136H275.828V126.367H277.006L277.226 127.729H277.305C277.498 127.396 277.741 127.114 278.034 126.886C278.327 126.657 278.655 126.484 279.019 126.367C279.382 126.25 279.769 126.191 280.179 126.191C280.911 126.191 281.523 126.329 282.016 126.604C282.514 126.874 282.874 127.287 283.097 127.844H283.176C283.492 127.287 283.926 126.874 284.477 126.604C285.027 126.329 285.631 126.191 286.287 126.191ZM296.096 126.209C297.244 126.209 298.097 126.467 298.653 126.982C299.21 127.498 299.488 128.321 299.488 129.452V136H298.425L298.144 134.576H298.073C297.804 134.928 297.522 135.224 297.23 135.464C296.937 135.698 296.597 135.877 296.21 136C295.829 136.117 295.36 136.176 294.804 136.176C294.218 136.176 293.696 136.073 293.239 135.868C292.788 135.663 292.431 135.353 292.167 134.937C291.909 134.521 291.78 133.993 291.78 133.354C291.78 132.394 292.161 131.655 292.923 131.14C293.685 130.624 294.845 130.343 296.403 130.296L298.064 130.226V129.637C298.064 128.805 297.886 128.222 297.528 127.888C297.171 127.554 296.667 127.387 296.017 127.387C295.513 127.387 295.032 127.46 294.575 127.606C294.118 127.753 293.685 127.926 293.274 128.125L292.826 127.018C293.26 126.795 293.758 126.604 294.32 126.446C294.883 126.288 295.475 126.209 296.096 126.209ZM298.047 131.254L296.579 131.315C295.378 131.362 294.531 131.559 294.039 131.904C293.547 132.25 293.301 132.739 293.301 133.372C293.301 133.923 293.468 134.33 293.802 134.594C294.136 134.857 294.578 134.989 295.129 134.989C295.984 134.989 296.685 134.752 297.23 134.277C297.774 133.803 298.047 133.091 298.047 132.142V131.254ZM310.773 126.209C311.922 126.209 312.774 126.467 313.331 126.982C313.888 127.498 314.166 128.321 314.166 129.452V136H313.103L312.821 134.576H312.751C312.481 134.928 312.2 135.224 311.907 135.464C311.614 135.698 311.274 135.877 310.888 136C310.507 136.117 310.038 136.176 309.481 136.176C308.896 136.176 308.374 136.073 307.917 135.868C307.466 135.663 307.108 135.353 306.845 134.937C306.587 134.521 306.458 133.993 306.458 133.354C306.458 132.394 306.839 131.655 307.601 131.14C308.362 130.624 309.522 130.343 311.081 130.296L312.742 130.226V129.637C312.742 128.805 312.564 128.222 312.206 127.888C311.849 127.554 311.345 127.387 310.694 127.387C310.19 127.387 309.71 127.46 309.253 127.606C308.796 127.753 308.362 127.926 307.952 128.125L307.504 127.018C307.938 126.795 308.436 126.604 308.998 126.446C309.561 126.288 310.152 126.209 310.773 126.209ZM312.725 131.254L311.257 131.315C310.056 131.362 309.209 131.559 308.717 131.904C308.225 132.25 307.979 132.739 307.979 133.372C307.979 133.923 308.146 134.33 308.48 134.594C308.814 134.857 309.256 134.989 309.807 134.989C310.662 134.989 311.362 134.752 311.907 134.277C312.452 133.803 312.725 133.091 312.725 132.142V131.254ZM320.283 134.98C320.523 134.98 320.77 134.96 321.022 134.919C321.273 134.878 321.479 134.828 321.637 134.77V135.903C321.467 135.979 321.23 136.044 320.925 136.097C320.626 136.149 320.333 136.176 320.046 136.176C319.536 136.176 319.073 136.088 318.657 135.912C318.241 135.73 317.907 135.426 317.655 134.998C317.409 134.57 317.286 133.979 317.286 133.223V127.51H315.915V126.798L317.295 126.227L317.875 124.135H318.754V126.367H321.575V127.51H318.754V133.179C318.754 133.782 318.892 134.233 319.167 134.532C319.448 134.831 319.82 134.98 320.283 134.98ZM326.699 134.98C326.939 134.98 327.186 134.96 327.438 134.919C327.689 134.878 327.895 134.828 328.053 134.77V135.903C327.883 135.979 327.646 136.044 327.341 136.097C327.042 136.149 326.749 136.176 326.462 136.176C325.952 136.176 325.489 136.088 325.073 135.912C324.657 135.73 324.323 135.426 324.071 134.998C323.825 134.57 323.702 133.979 323.702 133.223V127.51H322.331V126.798L323.711 126.227L324.291 124.135H325.17V126.367H327.991V127.51H325.17V133.179C325.17 133.782 325.308 134.233 325.583 134.532C325.864 134.831 326.236 134.98 326.699 134.98ZM333.607 126.209C334.756 126.209 335.608 126.467 336.165 126.982C336.722 127.498 337 128.321 337 129.452V136H335.937L335.655 134.576H335.585C335.315 134.928 335.034 135.224 334.741 135.464C334.448 135.698 334.108 135.877 333.722 136C333.341 136.117 332.872 136.176 332.315 136.176C331.73 136.176 331.208 136.073 330.751 135.868C330.3 135.663 329.942 135.353 329.679 134.937C329.421 134.521 329.292 133.993 329.292 133.354C329.292 132.394 329.673 131.655 330.435 131.14C331.196 130.624 332.356 130.343 333.915 130.296L335.576 130.226V129.637C335.576 128.805 335.397 128.222 335.04 127.888C334.683 127.554 334.179 127.387 333.528 127.387C333.024 127.387 332.544 127.46 332.087 127.606C331.63 127.753 331.196 127.926 330.786 128.125L330.338 127.018C330.772 126.795 331.27 126.604 331.832 126.446C332.395 126.288 332.986 126.209 333.607 126.209ZM335.559 131.254L334.091 131.315C332.89 131.362 332.043 131.559 331.551 131.904C331.059 132.25 330.813 132.739 330.813 133.372C330.813 133.923 330.98 134.33 331.314 134.594C331.647 134.857 332.09 134.989 332.641 134.989C333.496 134.989 334.196 134.752 334.741 134.277C335.286 133.803 335.559 133.091 335.559 132.142V131.254ZM343.864 136.176C342.997 136.176 342.232 135.997 341.57 135.64C340.908 135.282 340.393 134.737 340.023 134.005C339.654 133.272 339.47 132.35 339.47 131.236C339.47 130.07 339.663 129.118 340.05 128.38C340.442 127.636 340.981 127.085 341.667 126.728C342.353 126.37 343.132 126.191 344.005 126.191C344.485 126.191 344.948 126.241 345.394 126.341C345.845 126.435 346.214 126.555 346.501 126.701L346.062 127.923C345.769 127.806 345.429 127.7 345.042 127.606C344.661 127.513 344.304 127.466 343.97 127.466C343.302 127.466 342.745 127.609 342.3 127.896C341.86 128.184 341.529 128.605 341.307 129.162C341.09 129.719 340.981 130.404 340.981 131.219C340.981 131.998 341.087 132.663 341.298 133.214C341.515 133.765 341.834 134.187 342.256 134.479C342.684 134.767 343.217 134.91 343.855 134.91C344.365 134.91 344.825 134.857 345.235 134.752C345.646 134.641 346.018 134.512 346.352 134.365V135.666C346.029 135.83 345.669 135.956 345.271 136.044C344.878 136.132 344.409 136.176 343.864 136.176ZM350.087 122.324V129.426C350.087 129.66 350.078 129.947 350.061 130.287C350.043 130.621 350.028 130.917 350.017 131.175H350.078C350.201 131.022 350.38 130.797 350.614 130.498C350.855 130.199 351.057 129.959 351.221 129.777L354.42 126.367H356.134L352.258 130.48L356.415 136H354.657L351.256 131.438L350.087 132.511V136H348.637V122.324H350.087ZM364.325 133.363C364.325 133.979 364.17 134.497 363.859 134.919C363.555 135.335 363.115 135.648 362.541 135.859C361.973 136.07 361.293 136.176 360.502 136.176C359.828 136.176 359.245 136.123 358.753 136.018C358.261 135.912 357.83 135.763 357.461 135.569V134.225C357.854 134.418 358.322 134.594 358.867 134.752C359.412 134.91 359.969 134.989 360.537 134.989C361.369 134.989 361.973 134.854 362.348 134.585C362.723 134.315 362.91 133.949 362.91 133.486C362.91 133.223 362.834 132.991 362.682 132.792C362.535 132.587 362.286 132.391 361.935 132.203C361.583 132.01 361.097 131.799 360.476 131.57C359.86 131.336 359.327 131.104 358.876 130.876C358.431 130.642 358.085 130.357 357.839 130.023C357.599 129.689 357.479 129.256 357.479 128.723C357.479 127.908 357.807 127.284 358.463 126.851C359.125 126.411 359.992 126.191 361.064 126.191C361.645 126.191 362.187 126.25 362.69 126.367C363.2 126.479 363.675 126.631 364.114 126.824L363.622 127.993C363.224 127.823 362.799 127.68 362.348 127.562C361.897 127.445 361.437 127.387 360.968 127.387C360.294 127.387 359.775 127.498 359.412 127.721C359.055 127.943 358.876 128.248 358.876 128.635C358.876 128.934 358.958 129.18 359.122 129.373C359.292 129.566 359.562 129.748 359.931 129.918C360.3 130.088 360.786 130.287 361.39 130.516C361.993 130.738 362.515 130.97 362.954 131.21C363.394 131.444 363.73 131.731 363.965 132.071C364.205 132.405 364.325 132.836 364.325 133.363ZM117.256 151.209C118.404 151.209 119.257 151.467 119.814 151.982C120.37 152.498 120.648 153.321 120.648 154.452V161H119.585L119.304 159.576H119.233C118.964 159.928 118.683 160.224 118.39 160.464C118.097 160.698 117.757 160.877 117.37 161C116.989 161.117 116.521 161.176 115.964 161.176C115.378 161.176 114.856 161.073 114.399 160.868C113.948 160.663 113.591 160.353 113.327 159.937C113.069 159.521 112.94 158.993 112.94 158.354C112.94 157.394 113.321 156.655 114.083 156.14C114.845 155.624 116.005 155.343 117.564 155.296L119.225 155.226V154.637C119.225 153.805 119.046 153.222 118.689 152.888C118.331 152.554 117.827 152.387 117.177 152.387C116.673 152.387 116.192 152.46 115.735 152.606C115.278 152.753 114.845 152.926 114.435 153.125L113.986 152.018C114.42 151.795 114.918 151.604 115.48 151.446C116.043 151.288 116.635 151.209 117.256 151.209ZM119.207 156.254L117.739 156.315C116.538 156.362 115.691 156.559 115.199 156.904C114.707 157.25 114.461 157.739 114.461 158.372C114.461 158.923 114.628 159.33 114.962 159.594C115.296 159.857 115.738 159.989 116.289 159.989C117.145 159.989 117.845 159.752 118.39 159.277C118.935 158.803 119.207 158.091 119.207 157.142V156.254ZM128.216 151.191C129.358 151.191 130.223 151.473 130.809 152.035C131.395 152.592 131.688 153.488 131.688 154.725V161H130.246V154.821C130.246 154.019 130.062 153.418 129.692 153.02C129.329 152.621 128.77 152.422 128.014 152.422C126.947 152.422 126.197 152.724 125.764 153.327C125.33 153.931 125.113 154.807 125.113 155.955V161H123.654V151.367H124.832L125.052 152.756H125.131C125.336 152.416 125.597 152.132 125.913 151.903C126.23 151.669 126.584 151.493 126.977 151.376C127.369 151.253 127.782 151.191 128.216 151.191ZM138.121 161.176C136.902 161.176 135.936 160.76 135.221 159.928C134.512 159.096 134.157 157.859 134.157 156.219C134.157 154.561 134.521 153.31 135.247 152.466C135.974 151.616 136.94 151.191 138.147 151.191C138.657 151.191 139.103 151.259 139.483 151.394C139.864 151.528 140.192 151.71 140.468 151.938C140.743 152.161 140.975 152.416 141.162 152.703H141.268C141.244 152.521 141.221 152.272 141.197 151.956C141.174 151.64 141.162 151.382 141.162 151.183V147.324H142.621V161H141.443L141.224 159.629H141.162C140.98 159.916 140.749 160.177 140.468 160.411C140.192 160.646 139.861 160.833 139.475 160.974C139.094 161.108 138.643 161.176 138.121 161.176ZM138.35 159.963C139.381 159.963 140.11 159.67 140.538 159.084C140.966 158.498 141.18 157.628 141.18 156.474V156.21C141.18 154.985 140.975 154.045 140.564 153.389C140.16 152.732 139.422 152.404 138.35 152.404C137.453 152.404 136.782 152.75 136.337 153.441C135.892 154.127 135.669 155.064 135.669 156.254C135.669 157.438 135.889 158.352 136.328 158.996C136.773 159.641 137.447 159.963 138.35 159.963ZM160.85 151.191C161.91 151.191 162.71 151.47 163.249 152.026C163.788 152.577 164.058 153.465 164.058 154.689V161H162.616V154.76C162.616 153.98 162.446 153.397 162.106 153.011C161.772 152.618 161.274 152.422 160.612 152.422C159.681 152.422 159.004 152.691 158.582 153.23C158.16 153.77 157.949 154.563 157.949 155.612V161H156.499V154.76C156.499 154.238 156.423 153.805 156.271 153.459C156.124 153.113 155.901 152.855 155.603 152.686C155.31 152.51 154.938 152.422 154.486 152.422C153.848 152.422 153.335 152.554 152.948 152.817C152.562 153.081 152.28 153.474 152.105 153.995C151.935 154.511 151.85 155.146 151.85 155.902V161H150.391V151.367H151.568L151.788 152.729H151.867C152.061 152.396 152.304 152.114 152.597 151.886C152.89 151.657 153.218 151.484 153.581 151.367C153.944 151.25 154.331 151.191 154.741 151.191C155.474 151.191 156.086 151.329 156.578 151.604C157.076 151.874 157.437 152.287 157.659 152.844H157.738C158.055 152.287 158.488 151.874 159.039 151.604C159.59 151.329 160.193 151.191 160.85 151.191ZM168.514 151.367V161H167.055V151.367H168.514ZM167.802 147.764C168.042 147.764 168.247 147.843 168.417 148.001C168.593 148.153 168.681 148.394 168.681 148.722C168.681 149.044 168.593 149.284 168.417 149.442C168.247 149.601 168.042 149.68 167.802 149.68C167.55 149.68 167.339 149.601 167.169 149.442C167.005 149.284 166.923 149.044 166.923 148.722C166.923 148.394 167.005 148.153 167.169 148.001C167.339 147.843 167.55 147.764 167.802 147.764ZM176.169 151.191C177.312 151.191 178.176 151.473 178.762 152.035C179.348 152.592 179.641 153.488 179.641 154.725V161H178.199V154.821C178.199 154.019 178.015 153.418 177.646 153.02C177.282 152.621 176.723 152.422 175.967 152.422C174.9 152.422 174.15 152.724 173.717 153.327C173.283 153.931 173.066 154.807 173.066 155.955V161H171.607V151.367H172.785L173.005 152.756H173.084C173.289 152.416 173.55 152.132 173.866 151.903C174.183 151.669 174.537 151.493 174.93 151.376C175.322 151.253 175.735 151.191 176.169 151.191ZM184.105 151.367V161H182.647V151.367H184.105ZM183.394 147.764C183.634 147.764 183.839 147.843 184.009 148.001C184.185 148.153 184.272 148.394 184.272 148.722C184.272 149.044 184.185 149.284 184.009 149.442C183.839 149.601 183.634 149.68 183.394 149.68C183.142 149.68 182.931 149.601 182.761 149.442C182.597 149.284 182.515 149.044 182.515 148.722C182.515 148.394 182.597 148.153 182.761 148.001C182.931 147.843 183.142 147.764 183.394 147.764ZM197.658 151.191C198.719 151.191 199.519 151.47 200.058 152.026C200.597 152.577 200.866 153.465 200.866 154.689V161H199.425V154.76C199.425 153.98 199.255 153.397 198.915 153.011C198.581 152.618 198.083 152.422 197.421 152.422C196.489 152.422 195.813 152.691 195.391 153.23C194.969 153.77 194.758 154.563 194.758 155.612V161H193.308V154.76C193.308 154.238 193.231 153.805 193.079 153.459C192.933 153.113 192.71 152.855 192.411 152.686C192.118 152.51 191.746 152.422 191.295 152.422C190.656 152.422 190.144 152.554 189.757 152.817C189.37 153.081 189.089 153.474 188.913 153.995C188.743 154.511 188.658 155.146 188.658 155.902V161H187.199V151.367H188.377L188.597 152.729H188.676C188.869 152.396 189.112 152.114 189.405 151.886C189.698 151.657 190.026 151.484 190.39 151.367C190.753 151.25 191.14 151.191 191.55 151.191C192.282 151.191 192.895 151.329 193.387 151.604C193.885 151.874 194.245 152.287 194.468 152.844H194.547C194.863 152.287 195.297 151.874 195.848 151.604C196.398 151.329 197.002 151.191 197.658 151.191ZM205.322 151.367V161H203.863V151.367H205.322ZM204.61 147.764C204.851 147.764 205.056 147.843 205.226 148.001C205.401 148.153 205.489 148.394 205.489 148.722C205.489 149.044 205.401 149.284 205.226 149.442C205.056 149.601 204.851 149.68 204.61 149.68C204.358 149.68 204.147 149.601 203.978 149.442C203.814 149.284 203.731 149.044 203.731 148.722C203.731 148.394 203.814 148.153 203.978 148.001C204.147 147.843 204.358 147.764 204.61 147.764ZM214.604 161H207.581V160.033L212.863 152.51H207.915V151.367H214.489V152.448L209.277 159.866H214.604V161ZM220.563 151.191C221.383 151.191 222.086 151.373 222.672 151.736C223.258 152.1 223.706 152.609 224.017 153.266C224.327 153.916 224.482 154.678 224.482 155.551V156.456H217.829C217.847 157.587 218.128 158.448 218.673 159.04C219.218 159.632 219.985 159.928 220.976 159.928C221.585 159.928 222.124 159.872 222.593 159.761C223.062 159.649 223.548 159.485 224.052 159.269V160.552C223.565 160.769 223.082 160.927 222.602 161.026C222.127 161.126 221.564 161.176 220.914 161.176C219.988 161.176 219.18 160.988 218.488 160.613C217.803 160.232 217.27 159.676 216.889 158.943C216.508 158.211 216.317 157.314 216.317 156.254C216.317 155.217 216.49 154.32 216.836 153.564C217.188 152.803 217.68 152.217 218.313 151.807C218.951 151.396 219.701 151.191 220.563 151.191ZM220.545 152.387C219.766 152.387 219.145 152.642 218.682 153.151C218.219 153.661 217.943 154.373 217.855 155.287H222.953C222.947 154.713 222.856 154.209 222.681 153.775C222.511 153.336 222.25 152.996 221.898 152.756C221.547 152.51 221.096 152.387 220.545 152.387ZM234.748 159.98C234.988 159.98 235.234 159.96 235.486 159.919C235.738 159.878 235.943 159.828 236.102 159.77V160.903C235.932 160.979 235.694 161.044 235.39 161.097C235.091 161.149 234.798 161.176 234.511 161.176C234.001 161.176 233.538 161.088 233.122 160.912C232.706 160.73 232.372 160.426 232.12 159.998C231.874 159.57 231.751 158.979 231.751 158.223V152.51H230.38V151.798L231.76 151.227L232.34 149.135H233.219V151.367H236.04V152.51H233.219V158.179C233.219 158.782 233.356 159.233 233.632 159.532C233.913 159.831 234.285 159.98 234.748 159.98ZM241.656 151.209C242.805 151.209 243.657 151.467 244.214 151.982C244.771 152.498 245.049 153.321 245.049 154.452V161H243.985L243.704 159.576H243.634C243.364 159.928 243.083 160.224 242.79 160.464C242.497 160.698 242.157 160.877 241.771 161C241.39 161.117 240.921 161.176 240.364 161.176C239.778 161.176 239.257 161.073 238.8 160.868C238.349 160.663 237.991 160.353 237.728 159.937C237.47 159.521 237.341 158.993 237.341 158.354C237.341 157.394 237.722 156.655 238.483 156.14C239.245 155.624 240.405 155.343 241.964 155.296L243.625 155.226V154.637C243.625 153.805 243.446 153.222 243.089 152.888C242.731 152.554 242.228 152.387 241.577 152.387C241.073 152.387 240.593 152.46 240.136 152.606C239.679 152.753 239.245 152.926 238.835 153.125L238.387 152.018C238.82 151.795 239.318 151.604 239.881 151.446C240.443 151.288 241.035 151.209 241.656 151.209ZM243.607 156.254L242.14 156.315C240.939 156.362 240.092 156.559 239.6 156.904C239.107 157.25 238.861 157.739 238.861 158.372C238.861 158.923 239.028 159.33 239.362 159.594C239.696 159.857 240.139 159.989 240.689 159.989C241.545 159.989 242.245 159.752 242.79 159.277C243.335 158.803 243.607 158.091 243.607 157.142V156.254ZM249.505 147.324V154.426C249.505 154.66 249.496 154.947 249.479 155.287C249.461 155.621 249.446 155.917 249.435 156.175H249.496C249.619 156.022 249.798 155.797 250.032 155.498C250.272 155.199 250.475 154.959 250.639 154.777L253.838 151.367H255.552L251.676 155.48L255.833 161H254.075L250.674 156.438L249.505 157.511V161H248.055V147.324H249.505ZM258.971 151.367V161H257.512V151.367H258.971ZM258.259 147.764C258.499 147.764 258.704 147.843 258.874 148.001C259.05 148.153 259.138 148.394 259.138 148.722C259.138 149.044 259.05 149.284 258.874 149.442C258.704 149.601 258.499 149.68 258.259 149.68C258.007 149.68 257.796 149.601 257.626 149.442C257.462 149.284 257.38 149.044 257.38 148.722C257.38 148.394 257.462 148.153 257.626 148.001C257.796 147.843 258.007 147.764 258.259 147.764ZM266.626 151.191C267.769 151.191 268.633 151.473 269.219 152.035C269.805 152.592 270.098 153.488 270.098 154.725V161H268.656V154.821C268.656 154.019 268.472 153.418 268.103 153.02C267.739 152.621 267.18 152.422 266.424 152.422C265.357 152.422 264.607 152.724 264.174 153.327C263.74 153.931 263.523 154.807 263.523 155.955V161H262.064V151.367H263.242L263.462 152.756H263.541C263.746 152.416 264.007 152.132 264.323 151.903C264.64 151.669 264.994 151.493 265.387 151.376C265.779 151.253 266.192 151.191 266.626 151.191ZM275.793 165.324C274.527 165.324 273.552 165.087 272.866 164.612C272.181 164.144 271.838 163.484 271.838 162.635C271.838 162.031 272.028 161.516 272.409 161.088C272.796 160.66 273.329 160.376 274.009 160.235C273.757 160.118 273.54 159.942 273.358 159.708C273.183 159.474 273.095 159.204 273.095 158.899C273.095 158.548 273.191 158.24 273.385 157.977C273.584 157.707 273.886 157.449 274.29 157.203C273.786 156.998 273.376 156.652 273.06 156.166C272.749 155.674 272.594 155.103 272.594 154.452C272.594 153.761 272.737 153.172 273.024 152.686C273.312 152.193 273.728 151.818 274.272 151.561C274.817 151.303 275.477 151.174 276.25 151.174C276.42 151.174 276.59 151.183 276.76 151.2C276.936 151.212 277.103 151.232 277.261 151.262C277.419 151.285 277.557 151.314 277.674 151.35H280.979V152.29L279.203 152.51C279.379 152.738 279.525 153.014 279.643 153.336C279.76 153.658 279.818 154.016 279.818 154.408C279.818 155.369 279.493 156.134 278.843 156.702C278.192 157.265 277.299 157.546 276.162 157.546C275.893 157.546 275.617 157.522 275.336 157.476C275.049 157.634 274.829 157.81 274.677 158.003C274.53 158.196 274.457 158.419 274.457 158.671C274.457 158.858 274.513 159.008 274.624 159.119C274.741 159.23 274.908 159.312 275.125 159.365C275.342 159.412 275.603 159.436 275.907 159.436H277.604C278.652 159.436 279.455 159.655 280.012 160.095C280.574 160.534 280.855 161.176 280.855 162.02C280.855 163.086 280.422 163.903 279.555 164.472C278.688 165.04 277.434 165.324 275.793 165.324ZM275.837 164.182C276.634 164.182 277.293 164.1 277.814 163.936C278.342 163.777 278.734 163.546 278.992 163.241C279.256 162.942 279.388 162.585 279.388 162.169C279.388 161.782 279.3 161.489 279.124 161.29C278.948 161.097 278.69 160.968 278.351 160.903C278.011 160.833 277.595 160.798 277.103 160.798H275.433C274.999 160.798 274.621 160.865 274.299 161C273.977 161.135 273.728 161.334 273.552 161.598C273.382 161.861 273.297 162.189 273.297 162.582C273.297 163.104 273.517 163.499 273.956 163.769C274.396 164.044 275.022 164.182 275.837 164.182ZM276.215 156.482C276.912 156.482 277.437 156.307 277.788 155.955C278.14 155.604 278.315 155.091 278.315 154.417C278.315 153.696 278.137 153.157 277.779 152.8C277.422 152.437 276.895 152.255 276.197 152.255C275.529 152.255 275.014 152.442 274.65 152.817C274.293 153.187 274.114 153.729 274.114 154.443C274.114 155.1 274.296 155.604 274.659 155.955C275.022 156.307 275.541 156.482 276.215 156.482ZM292.079 151.191C293.28 151.191 294.238 151.604 294.953 152.431C295.668 153.257 296.025 154.499 296.025 156.157C296.025 157.253 295.861 158.173 295.533 158.917C295.205 159.661 294.742 160.224 294.145 160.604C293.553 160.985 292.853 161.176 292.044 161.176C291.534 161.176 291.086 161.108 290.699 160.974C290.313 160.839 289.981 160.657 289.706 160.429C289.431 160.2 289.202 159.951 289.021 159.682H288.915C288.933 159.91 288.953 160.186 288.977 160.508C289.006 160.83 289.021 161.111 289.021 161.352V165.307H287.553V151.367H288.757L288.95 152.791H289.021C289.208 152.498 289.437 152.231 289.706 151.991C289.976 151.745 290.304 151.552 290.69 151.411C291.083 151.265 291.546 151.191 292.079 151.191ZM291.824 152.422C291.156 152.422 290.617 152.551 290.207 152.809C289.803 153.066 289.507 153.453 289.319 153.969C289.132 154.479 289.032 155.12 289.021 155.894V156.175C289.021 156.989 289.108 157.678 289.284 158.24C289.466 158.803 289.762 159.23 290.172 159.523C290.588 159.816 291.145 159.963 291.842 159.963C292.439 159.963 292.938 159.802 293.336 159.479C293.734 159.157 294.03 158.709 294.224 158.135C294.423 157.555 294.522 156.89 294.522 156.14C294.522 155.003 294.3 154.101 293.855 153.433C293.415 152.759 292.738 152.422 291.824 152.422ZM300.033 151.367V161H298.574V151.367H300.033ZM299.321 147.764C299.562 147.764 299.767 147.843 299.937 148.001C300.112 148.153 300.2 148.394 300.2 148.722C300.2 149.044 300.112 149.284 299.937 149.442C299.767 149.601 299.562 149.68 299.321 149.68C299.069 149.68 298.858 149.601 298.689 149.442C298.524 149.284 298.442 149.044 298.442 148.722C298.442 148.394 298.524 148.153 298.689 148.001C298.858 147.843 299.069 147.764 299.321 147.764ZM304.595 161H303.127V147.324H304.595V161ZM309.147 161H307.68V147.324H309.147V161ZM318.464 158.363C318.464 158.979 318.309 159.497 317.998 159.919C317.693 160.335 317.254 160.648 316.68 160.859C316.111 161.07 315.432 161.176 314.641 161.176C313.967 161.176 313.384 161.123 312.892 161.018C312.399 160.912 311.969 160.763 311.6 160.569V159.225C311.992 159.418 312.461 159.594 313.006 159.752C313.551 159.91 314.107 159.989 314.676 159.989C315.508 159.989 316.111 159.854 316.486 159.585C316.861 159.315 317.049 158.949 317.049 158.486C317.049 158.223 316.973 157.991 316.82 157.792C316.674 157.587 316.425 157.391 316.073 157.203C315.722 157.01 315.235 156.799 314.614 156.57C313.999 156.336 313.466 156.104 313.015 155.876C312.569 155.642 312.224 155.357 311.978 155.023C311.737 154.689 311.617 154.256 311.617 153.723C311.617 152.908 311.945 152.284 312.602 151.851C313.264 151.411 314.131 151.191 315.203 151.191C315.783 151.191 316.325 151.25 316.829 151.367C317.339 151.479 317.814 151.631 318.253 151.824L317.761 152.993C317.362 152.823 316.938 152.68 316.486 152.562C316.035 152.445 315.575 152.387 315.106 152.387C314.433 152.387 313.914 152.498 313.551 152.721C313.193 152.943 313.015 153.248 313.015 153.635C313.015 153.934 313.097 154.18 313.261 154.373C313.431 154.566 313.7 154.748 314.069 154.918C314.439 155.088 314.925 155.287 315.528 155.516C316.132 155.738 316.653 155.97 317.093 156.21C317.532 156.444 317.869 156.731 318.104 157.071C318.344 157.405 318.464 157.836 318.464 158.363ZM320.591 160.086C320.591 159.676 320.69 159.386 320.89 159.216C321.089 159.04 321.332 158.952 321.619 158.952C321.918 158.952 322.17 159.04 322.375 159.216C322.58 159.386 322.683 159.676 322.683 160.086C322.683 160.49 322.58 160.786 322.375 160.974C322.17 161.155 321.918 161.246 321.619 161.246C321.332 161.246 321.089 161.155 320.89 160.974C320.69 160.786 320.591 160.49 320.591 160.086ZM330.435 161V148.15H331.929V161H330.435ZM344.207 152.51H341.808V161H340.349V152.51H338.644V151.807L340.349 151.323V150.682C340.349 149.873 340.469 149.217 340.709 148.713C340.949 148.203 341.298 147.828 341.755 147.588C342.212 147.348 342.769 147.228 343.425 147.228C343.794 147.228 344.131 147.26 344.436 147.324C344.746 147.389 345.019 147.462 345.253 147.544L344.875 148.695C344.676 148.631 344.45 148.572 344.198 148.52C343.952 148.461 343.7 148.432 343.442 148.432C342.886 148.432 342.473 148.613 342.203 148.977C341.939 149.334 341.808 149.896 341.808 150.664V151.367H344.207V152.51ZM349.691 151.191C350.512 151.191 351.215 151.373 351.801 151.736C352.387 152.1 352.835 152.609 353.146 153.266C353.456 153.916 353.611 154.678 353.611 155.551V156.456H346.958C346.976 157.587 347.257 158.448 347.802 159.04C348.347 159.632 349.114 159.928 350.105 159.928C350.714 159.928 351.253 159.872 351.722 159.761C352.19 159.649 352.677 159.485 353.181 159.269V160.552C352.694 160.769 352.211 160.927 351.73 161.026C351.256 161.126 350.693 161.176 350.043 161.176C349.117 161.176 348.309 160.988 347.617 160.613C346.932 160.232 346.398 159.676 346.018 158.943C345.637 158.211 345.446 157.314 345.446 156.254C345.446 155.217 345.619 154.32 345.965 153.564C346.316 152.803 346.809 152.217 347.441 151.807C348.08 151.396 348.83 151.191 349.691 151.191ZM349.674 152.387C348.895 152.387 348.273 152.642 347.811 153.151C347.348 153.661 347.072 154.373 346.984 155.287H352.082C352.076 154.713 351.985 154.209 351.81 153.775C351.64 153.336 351.379 152.996 351.027 152.756C350.676 152.51 350.225 152.387 349.674 152.387ZM359.799 151.191C360.619 151.191 361.322 151.373 361.908 151.736C362.494 152.1 362.942 152.609 363.253 153.266C363.564 153.916 363.719 154.678 363.719 155.551V156.456H357.065C357.083 157.587 357.364 158.448 357.909 159.04C358.454 159.632 359.222 159.928 360.212 159.928C360.821 159.928 361.36 159.872 361.829 159.761C362.298 159.649 362.784 159.485 363.288 159.269V160.552C362.802 160.769 362.318 160.927 361.838 161.026C361.363 161.126 360.801 161.176 360.15 161.176C359.225 161.176 358.416 160.988 357.725 160.613C357.039 160.232 356.506 159.676 356.125 158.943C355.744 158.211 355.554 157.314 355.554 156.254C355.554 155.217 355.727 154.32 356.072 153.564C356.424 152.803 356.916 152.217 357.549 151.807C358.188 151.396 358.938 151.191 359.799 151.191ZM359.781 152.387C359.002 152.387 358.381 152.642 357.918 153.151C357.455 153.661 357.18 154.373 357.092 155.287H362.189C362.184 154.713 362.093 154.209 361.917 153.775C361.747 153.336 361.486 152.996 361.135 152.756C360.783 152.51 360.332 152.387 359.781 152.387ZM367.665 161H366.197V147.324H367.665V161ZM119.884 183.363C119.884 183.979 119.729 184.497 119.418 184.919C119.113 185.335 118.674 185.648 118.1 185.859C117.531 186.07 116.852 186.176 116.061 186.176C115.387 186.176 114.804 186.123 114.312 186.018C113.819 185.912 113.389 185.763 113.02 185.569V184.225C113.412 184.418 113.881 184.594 114.426 184.752C114.971 184.91 115.527 184.989 116.096 184.989C116.928 184.989 117.531 184.854 117.906 184.585C118.281 184.315 118.469 183.949 118.469 183.486C118.469 183.223 118.393 182.991 118.24 182.792C118.094 182.587 117.845 182.391 117.493 182.203C117.142 182.01 116.655 181.799 116.034 181.57C115.419 181.336 114.886 181.104 114.435 180.876C113.989 180.642 113.644 180.357 113.397 180.023C113.157 179.689 113.037 179.256 113.037 178.723C113.037 177.908 113.365 177.284 114.022 176.851C114.684 176.411 115.551 176.191 116.623 176.191C117.203 176.191 117.745 176.25 118.249 176.367C118.759 176.479 119.233 176.631 119.673 176.824L119.181 177.993C118.782 177.823 118.357 177.68 117.906 177.562C117.455 177.445 116.995 177.387 116.526 177.387C115.853 177.387 115.334 177.498 114.971 177.721C114.613 177.943 114.435 178.248 114.435 178.635C114.435 178.934 114.517 179.18 114.681 179.373C114.851 179.566 115.12 179.748 115.489 179.918C115.858 180.088 116.345 180.287 116.948 180.516C117.552 180.738 118.073 180.97 118.513 181.21C118.952 181.444 119.289 181.731 119.523 182.071C119.764 182.405 119.884 182.836 119.884 183.363ZM130.536 181.166C130.536 181.957 130.434 182.663 130.229 183.284C130.023 183.905 129.728 184.43 129.341 184.857C128.954 185.285 128.485 185.613 127.935 185.842C127.39 186.064 126.772 186.176 126.08 186.176C125.436 186.176 124.844 186.064 124.305 185.842C123.772 185.613 123.309 185.285 122.916 184.857C122.529 184.43 122.228 183.905 122.011 183.284C121.8 182.663 121.694 181.957 121.694 181.166C121.694 180.111 121.873 179.215 122.23 178.477C122.588 177.732 123.098 177.167 123.76 176.78C124.428 176.388 125.222 176.191 126.142 176.191C127.021 176.191 127.788 176.388 128.444 176.78C129.106 177.173 129.619 177.741 129.982 178.485C130.352 179.224 130.536 180.117 130.536 181.166ZM123.206 181.166C123.206 181.939 123.309 182.61 123.514 183.179C123.719 183.747 124.035 184.187 124.463 184.497C124.891 184.808 125.441 184.963 126.115 184.963C126.783 184.963 127.331 184.808 127.759 184.497C128.192 184.187 128.512 183.747 128.717 183.179C128.922 182.61 129.024 181.939 129.024 181.166C129.024 180.398 128.922 179.736 128.717 179.18C128.512 178.617 128.195 178.184 127.768 177.879C127.34 177.574 126.786 177.422 126.106 177.422C125.105 177.422 124.369 177.753 123.9 178.415C123.438 179.077 123.206 179.994 123.206 181.166ZM148.193 176.191C149.254 176.191 150.054 176.47 150.593 177.026C151.132 177.577 151.401 178.465 151.401 179.689V186H149.96V179.76C149.96 178.98 149.79 178.397 149.45 178.011C149.116 177.618 148.618 177.422 147.956 177.422C147.024 177.422 146.348 177.691 145.926 178.23C145.504 178.77 145.293 179.563 145.293 180.612V186H143.843V179.76C143.843 179.238 143.767 178.805 143.614 178.459C143.468 178.113 143.245 177.855 142.946 177.686C142.653 177.51 142.281 177.422 141.83 177.422C141.191 177.422 140.679 177.554 140.292 177.817C139.905 178.081 139.624 178.474 139.448 178.995C139.278 179.511 139.193 180.146 139.193 180.902V186H137.734V176.367H138.912L139.132 177.729H139.211C139.404 177.396 139.647 177.114 139.94 176.886C140.233 176.657 140.562 176.484 140.925 176.367C141.288 176.25 141.675 176.191 142.085 176.191C142.817 176.191 143.43 176.329 143.922 176.604C144.42 176.874 144.78 177.287 145.003 177.844H145.082C145.398 177.287 145.832 176.874 146.383 176.604C146.934 176.329 147.537 176.191 148.193 176.191ZM162.353 176.367V186H161.157L160.946 184.646H160.867C160.668 184.98 160.41 185.262 160.094 185.49C159.777 185.719 159.42 185.889 159.022 186C158.629 186.117 158.21 186.176 157.765 186.176C157.003 186.176 156.364 186.053 155.849 185.807C155.333 185.561 154.943 185.18 154.68 184.664C154.422 184.148 154.293 183.486 154.293 182.678V176.367H155.77V182.572C155.77 183.375 155.951 183.976 156.314 184.374C156.678 184.767 157.231 184.963 157.976 184.963C158.69 184.963 159.259 184.828 159.681 184.559C160.108 184.289 160.416 183.894 160.604 183.372C160.791 182.845 160.885 182.2 160.885 181.438V176.367H162.353ZM169.296 186.176C168.429 186.176 167.664 185.997 167.002 185.64C166.34 185.282 165.824 184.737 165.455 184.005C165.086 183.272 164.901 182.35 164.901 181.236C164.901 180.07 165.095 179.118 165.481 178.38C165.874 177.636 166.413 177.085 167.099 176.728C167.784 176.37 168.564 176.191 169.437 176.191C169.917 176.191 170.38 176.241 170.825 176.341C171.276 176.435 171.646 176.555 171.933 176.701L171.493 177.923C171.2 177.806 170.86 177.7 170.474 177.606C170.093 177.513 169.735 177.466 169.401 177.466C168.733 177.466 168.177 177.609 167.731 177.896C167.292 178.184 166.961 178.605 166.738 179.162C166.522 179.719 166.413 180.404 166.413 181.219C166.413 181.998 166.519 182.663 166.73 183.214C166.946 183.765 167.266 184.187 167.688 184.479C168.115 184.767 168.648 184.91 169.287 184.91C169.797 184.91 170.257 184.857 170.667 184.752C171.077 184.641 171.449 184.512 171.783 184.365V185.666C171.461 185.83 171.101 185.956 170.702 186.044C170.31 186.132 169.841 186.176 169.296 186.176ZM175.527 172.324V176.411C175.527 176.646 175.522 176.883 175.51 177.123C175.498 177.357 175.478 177.574 175.448 177.773H175.545C175.744 177.434 175.996 177.149 176.301 176.921C176.611 176.687 176.963 176.511 177.355 176.394C177.748 176.271 178.164 176.209 178.604 176.209C179.377 176.209 180.022 176.332 180.537 176.578C181.059 176.824 181.448 177.205 181.706 177.721C181.97 178.236 182.102 178.904 182.102 179.725V186H180.66V179.821C180.66 179.019 180.476 178.418 180.106 178.02C179.743 177.621 179.184 177.422 178.428 177.422C177.713 177.422 177.142 177.56 176.714 177.835C176.292 178.104 175.987 178.503 175.8 179.03C175.618 179.558 175.527 180.202 175.527 180.964V186H174.068V172.324H175.527ZM191.242 172.324V175.743C191.242 176.136 191.23 176.517 191.207 176.886C191.189 177.255 191.175 177.542 191.163 177.747H191.242C191.506 177.313 191.887 176.947 192.385 176.648C192.883 176.35 193.519 176.2 194.292 176.2C195.499 176.2 196.46 176.619 197.175 177.457C197.896 178.289 198.256 179.528 198.256 181.175C198.256 182.259 198.092 183.173 197.764 183.917C197.436 184.661 196.973 185.224 196.375 185.604C195.777 185.985 195.071 186.176 194.257 186.176C193.495 186.176 192.868 186.035 192.376 185.754C191.89 185.467 191.515 185.118 191.251 184.708H191.137L190.838 186H189.783V172.324H191.242ZM194.055 177.422C193.357 177.422 192.804 177.56 192.394 177.835C191.983 178.104 191.688 178.515 191.506 179.065C191.33 179.61 191.242 180.302 191.242 181.14V181.219C191.242 182.432 191.444 183.36 191.849 184.005C192.253 184.644 192.988 184.963 194.055 184.963C194.951 184.963 195.622 184.635 196.067 183.979C196.519 183.322 196.744 182.385 196.744 181.166C196.744 179.924 196.522 178.989 196.076 178.362C195.637 177.735 194.963 177.422 194.055 177.422ZM204.514 176.191C205.334 176.191 206.037 176.373 206.623 176.736C207.209 177.1 207.657 177.609 207.968 178.266C208.278 178.916 208.434 179.678 208.434 180.551V181.456H201.78C201.798 182.587 202.079 183.448 202.624 184.04C203.169 184.632 203.937 184.928 204.927 184.928C205.536 184.928 206.075 184.872 206.544 184.761C207.013 184.649 207.499 184.485 208.003 184.269V185.552C207.517 185.769 207.033 185.927 206.553 186.026C206.078 186.126 205.516 186.176 204.865 186.176C203.939 186.176 203.131 185.988 202.439 185.613C201.754 185.232 201.221 184.676 200.84 183.943C200.459 183.211 200.269 182.314 200.269 181.254C200.269 180.217 200.441 179.32 200.787 178.564C201.139 177.803 201.631 177.217 202.264 176.807C202.902 176.396 203.652 176.191 204.514 176.191ZM204.496 177.387C203.717 177.387 203.096 177.642 202.633 178.151C202.17 178.661 201.895 179.373 201.807 180.287H206.904C206.898 179.713 206.808 179.209 206.632 178.775C206.462 178.336 206.201 177.996 205.85 177.756C205.498 177.51 205.047 177.387 204.496 177.387ZM214.023 184.98C214.264 184.98 214.51 184.96 214.762 184.919C215.014 184.878 215.219 184.828 215.377 184.77V185.903C215.207 185.979 214.97 186.044 214.665 186.097C214.366 186.149 214.073 186.176 213.786 186.176C213.276 186.176 212.814 186.088 212.397 185.912C211.981 185.73 211.647 185.426 211.396 184.998C211.149 184.57 211.026 183.979 211.026 183.223V177.51H209.655V176.798L211.035 176.227L211.615 174.135H212.494V176.367H215.315V177.51H212.494V183.179C212.494 183.782 212.632 184.233 212.907 184.532C213.189 184.831 213.561 184.98 214.023 184.98ZM220.439 184.98C220.68 184.98 220.926 184.96 221.178 184.919C221.43 184.878 221.635 184.828 221.793 184.77V185.903C221.623 185.979 221.386 186.044 221.081 186.097C220.782 186.149 220.489 186.176 220.202 186.176C219.692 186.176 219.23 186.088 218.814 185.912C218.397 185.73 218.064 185.426 217.812 184.998C217.565 184.57 217.442 183.979 217.442 183.223V177.51H216.071V176.798L217.451 176.227L218.031 174.135H218.91V176.367H221.731V177.51H218.91V183.179C218.91 183.782 219.048 184.233 219.323 184.532C219.605 184.831 219.977 184.98 220.439 184.98ZM227.453 176.191C228.273 176.191 228.977 176.373 229.563 176.736C230.148 177.1 230.597 177.609 230.907 178.266C231.218 178.916 231.373 179.678 231.373 180.551V181.456H224.72C224.737 182.587 225.019 183.448 225.564 184.04C226.108 184.632 226.876 184.928 227.866 184.928C228.476 184.928 229.015 184.872 229.483 184.761C229.952 184.649 230.439 184.485 230.942 184.269V185.552C230.456 185.769 229.973 185.927 229.492 186.026C229.018 186.126 228.455 186.176 227.805 186.176C226.879 186.176 226.07 185.988 225.379 185.613C224.693 185.232 224.16 184.676 223.779 183.943C223.398 183.211 223.208 182.314 223.208 181.254C223.208 180.217 223.381 179.32 223.727 178.564C224.078 177.803 224.57 177.217 225.203 176.807C225.842 176.396 226.592 176.191 227.453 176.191ZM227.436 177.387C226.656 177.387 226.035 177.642 225.572 178.151C225.109 178.661 224.834 179.373 224.746 180.287H229.844C229.838 179.713 229.747 179.209 229.571 178.775C229.401 178.336 229.141 177.996 228.789 177.756C228.438 177.51 227.986 177.387 227.436 177.387ZM238.229 176.191C238.422 176.191 238.624 176.203 238.835 176.227C239.046 176.244 239.233 176.271 239.397 176.306L239.213 177.659C239.055 177.618 238.879 177.586 238.686 177.562C238.492 177.539 238.311 177.527 238.141 177.527C237.754 177.527 237.388 177.606 237.042 177.765C236.702 177.917 236.403 178.14 236.146 178.433C235.888 178.72 235.686 179.068 235.539 179.479C235.393 179.883 235.319 180.334 235.319 180.832V186H233.852V176.367H235.064L235.223 178.143H235.284C235.483 177.785 235.724 177.46 236.005 177.167C236.286 176.868 236.611 176.631 236.98 176.455C237.355 176.279 237.772 176.191 238.229 176.191ZM250.27 176.191C250.463 176.191 250.665 176.203 250.876 176.227C251.087 176.244 251.274 176.271 251.439 176.306L251.254 177.659C251.096 177.618 250.92 177.586 250.727 177.562C250.533 177.539 250.352 177.527 250.182 177.527C249.795 177.527 249.429 177.606 249.083 177.765C248.743 177.917 248.444 178.14 248.187 178.433C247.929 178.72 247.727 179.068 247.58 179.479C247.434 179.883 247.36 180.334 247.36 180.832V186H245.893V176.367H247.105L247.264 178.143H247.325C247.524 177.785 247.765 177.46 248.046 177.167C248.327 176.868 248.652 176.631 249.022 176.455C249.397 176.279 249.813 176.191 250.27 176.191ZM254.717 176.367V186H253.258V176.367H254.717ZM254.005 172.764C254.245 172.764 254.45 172.843 254.62 173.001C254.796 173.153 254.884 173.394 254.884 173.722C254.884 174.044 254.796 174.284 254.62 174.442C254.45 174.601 254.245 174.68 254.005 174.68C253.753 174.68 253.542 174.601 253.372 174.442C253.208 174.284 253.126 174.044 253.126 173.722C253.126 173.394 253.208 173.153 253.372 173.001C253.542 172.843 253.753 172.764 254.005 172.764ZM260.5 190.324C259.234 190.324 258.259 190.087 257.573 189.612C256.888 189.144 256.545 188.484 256.545 187.635C256.545 187.031 256.735 186.516 257.116 186.088C257.503 185.66 258.036 185.376 258.716 185.235C258.464 185.118 258.247 184.942 258.065 184.708C257.89 184.474 257.802 184.204 257.802 183.899C257.802 183.548 257.898 183.24 258.092 182.977C258.291 182.707 258.593 182.449 258.997 182.203C258.493 181.998 258.083 181.652 257.767 181.166C257.456 180.674 257.301 180.103 257.301 179.452C257.301 178.761 257.444 178.172 257.731 177.686C258.019 177.193 258.435 176.818 258.98 176.561C259.524 176.303 260.184 176.174 260.957 176.174C261.127 176.174 261.297 176.183 261.467 176.2C261.643 176.212 261.81 176.232 261.968 176.262C262.126 176.285 262.264 176.314 262.381 176.35H265.686V177.29L263.91 177.51C264.086 177.738 264.232 178.014 264.35 178.336C264.467 178.658 264.525 179.016 264.525 179.408C264.525 180.369 264.2 181.134 263.55 181.702C262.899 182.265 262.006 182.546 260.869 182.546C260.6 182.546 260.324 182.522 260.043 182.476C259.756 182.634 259.536 182.81 259.384 183.003C259.237 183.196 259.164 183.419 259.164 183.671C259.164 183.858 259.22 184.008 259.331 184.119C259.448 184.23 259.615 184.312 259.832 184.365C260.049 184.412 260.31 184.436 260.614 184.436H262.311C263.359 184.436 264.162 184.655 264.719 185.095C265.281 185.534 265.563 186.176 265.563 187.02C265.563 188.086 265.129 188.903 264.262 189.472C263.395 190.04 262.141 190.324 260.5 190.324ZM260.544 189.182C261.341 189.182 262 189.1 262.522 188.936C263.049 188.777 263.441 188.546 263.699 188.241C263.963 187.942 264.095 187.585 264.095 187.169C264.095 186.782 264.007 186.489 263.831 186.29C263.655 186.097 263.397 185.968 263.058 185.903C262.718 185.833 262.302 185.798 261.81 185.798H260.14C259.706 185.798 259.328 185.865 259.006 186C258.684 186.135 258.435 186.334 258.259 186.598C258.089 186.861 258.004 187.189 258.004 187.582C258.004 188.104 258.224 188.499 258.663 188.769C259.103 189.044 259.73 189.182 260.544 189.182ZM260.922 181.482C261.619 181.482 262.144 181.307 262.495 180.955C262.847 180.604 263.022 180.091 263.022 179.417C263.022 178.696 262.844 178.157 262.486 177.8C262.129 177.437 261.602 177.255 260.904 177.255C260.236 177.255 259.721 177.442 259.357 177.817C259 178.187 258.821 178.729 258.821 179.443C258.821 180.1 259.003 180.604 259.366 180.955C259.73 181.307 260.248 181.482 260.922 181.482ZM269.043 172.324V176.411C269.043 176.646 269.037 176.883 269.025 177.123C269.014 177.357 268.993 177.574 268.964 177.773H269.061C269.26 177.434 269.512 177.149 269.816 176.921C270.127 176.687 270.479 176.511 270.871 176.394C271.264 176.271 271.68 176.209 272.119 176.209C272.893 176.209 273.537 176.332 274.053 176.578C274.574 176.824 274.964 177.205 275.222 177.721C275.485 178.236 275.617 178.904 275.617 179.725V186H274.176V179.821C274.176 179.019 273.991 178.418 273.622 178.02C273.259 177.621 272.699 177.422 271.943 177.422C271.229 177.422 270.657 177.56 270.23 177.835C269.808 178.104 269.503 178.503 269.315 179.03C269.134 179.558 269.043 180.202 269.043 180.964V186H267.584V172.324H269.043ZM281.734 184.98C281.975 184.98 282.221 184.96 282.473 184.919C282.725 184.878 282.93 184.828 283.088 184.77V185.903C282.918 185.979 282.681 186.044 282.376 186.097C282.077 186.149 281.784 186.176 281.497 186.176C280.987 186.176 280.524 186.088 280.108 185.912C279.692 185.73 279.358 185.426 279.106 184.998C278.86 184.57 278.737 183.979 278.737 183.223V177.51H277.366V176.798L278.746 176.227L279.326 174.135H280.205V176.367H283.026V177.51H280.205V183.179C280.205 183.782 280.343 184.233 280.618 184.532C280.899 184.831 281.272 184.98 281.734 184.98ZM294.276 176.191C295.419 176.191 296.283 176.473 296.869 177.035C297.455 177.592 297.748 178.488 297.748 179.725V186H296.307V179.821C296.307 179.019 296.122 178.418 295.753 178.02C295.39 177.621 294.83 177.422 294.074 177.422C293.008 177.422 292.258 177.724 291.824 178.327C291.391 178.931 291.174 179.807 291.174 180.955V186H289.715V176.367H290.893L291.112 177.756H291.191C291.397 177.416 291.657 177.132 291.974 176.903C292.29 176.669 292.645 176.493 293.037 176.376C293.43 176.253 293.843 176.191 294.276 176.191ZM309.06 181.166C309.06 181.957 308.957 182.663 308.752 183.284C308.547 183.905 308.251 184.43 307.864 184.857C307.478 185.285 307.009 185.613 306.458 185.842C305.913 186.064 305.295 186.176 304.604 186.176C303.959 186.176 303.367 186.064 302.828 185.842C302.295 185.613 301.832 185.285 301.439 184.857C301.053 184.43 300.751 183.905 300.534 183.284C300.323 182.663 300.218 181.957 300.218 181.166C300.218 180.111 300.397 179.215 300.754 178.477C301.111 177.732 301.621 177.167 302.283 176.78C302.951 176.388 303.745 176.191 304.665 176.191C305.544 176.191 306.312 176.388 306.968 176.78C307.63 177.173 308.143 177.741 308.506 178.485C308.875 179.224 309.06 180.117 309.06 181.166ZM301.73 181.166C301.73 181.939 301.832 182.61 302.037 183.179C302.242 183.747 302.559 184.187 302.986 184.497C303.414 184.808 303.965 184.963 304.639 184.963C305.307 184.963 305.855 184.808 306.282 184.497C306.716 184.187 307.035 183.747 307.24 183.179C307.445 182.61 307.548 181.939 307.548 181.166C307.548 180.398 307.445 179.736 307.24 179.18C307.035 178.617 306.719 178.184 306.291 177.879C305.863 177.574 305.31 177.422 304.63 177.422C303.628 177.422 302.893 177.753 302.424 178.415C301.961 179.077 301.73 179.994 301.73 181.166ZM319.422 185.982L317.708 180.375C317.632 180.135 317.559 179.9 317.488 179.672C317.424 179.438 317.362 179.215 317.304 179.004C317.251 178.787 317.201 178.588 317.154 178.406C317.113 178.219 317.078 178.058 317.049 177.923H316.987C316.964 178.058 316.932 178.219 316.891 178.406C316.85 178.588 316.8 178.787 316.741 179.004C316.689 179.221 316.63 179.449 316.565 179.689C316.501 179.924 316.428 180.161 316.346 180.401L314.553 185.982H312.909L310.255 176.35H311.767L313.155 181.667C313.249 182.019 313.337 182.367 313.419 182.713C313.507 183.053 313.58 183.375 313.639 183.68C313.703 183.979 313.75 184.239 313.779 184.462H313.85C313.885 184.315 313.923 184.14 313.964 183.935C314.011 183.729 314.061 183.513 314.113 183.284C314.172 183.05 314.233 182.818 314.298 182.59C314.362 182.355 314.427 182.136 314.491 181.931L316.267 176.35H317.84L319.554 181.922C319.642 182.203 319.727 182.496 319.809 182.801C319.897 183.105 319.976 183.401 320.046 183.688C320.116 183.97 320.166 184.222 320.195 184.444H320.266C320.289 184.245 320.333 183.999 320.397 183.706C320.462 183.413 320.535 183.091 320.617 182.739C320.705 182.388 320.796 182.03 320.89 181.667L322.296 176.35H323.781L321.118 185.982H319.422ZM328.589 181.052C328.589 182.03 328.492 182.985 328.299 183.917C328.111 184.843 327.821 185.722 327.429 186.554C327.042 187.386 326.547 188.15 325.943 188.848H324.564C325.126 188.104 325.595 187.307 325.97 186.457C326.351 185.607 326.635 184.729 326.822 183.82C327.016 182.906 327.112 181.98 327.112 181.043C327.112 180.088 327.016 179.147 326.822 178.222C326.629 177.296 326.342 176.405 325.961 175.55C325.586 174.694 325.114 173.895 324.546 173.15H325.943C326.547 173.871 327.042 174.656 327.429 175.506C327.821 176.35 328.111 177.24 328.299 178.178C328.492 179.109 328.589 180.067 328.589 181.052Z" fill="white"/>
<path d="M113.347 211.818H114.819L118.279 220.27H118.398L121.859 211.818H123.33V222H122.177V214.264H122.077L118.896 222H117.782L114.6 214.264H114.501V222H113.347V211.818ZM125.643 222V214.364H126.817V222H125.643ZM126.24 213.091C126.011 213.091 125.814 213.013 125.648 212.857C125.486 212.701 125.405 212.514 125.405 212.295C125.405 212.077 125.486 211.889 125.648 211.734C125.814 211.578 126.011 211.5 126.24 211.5C126.469 211.5 126.664 211.578 126.826 211.734C126.992 211.889 127.075 212.077 127.075 212.295C127.075 212.514 126.992 212.701 126.826 212.857C126.664 213.013 126.469 213.091 126.24 213.091ZM130.059 219.216L130.039 217.764H130.278L133.619 214.364H135.071L131.511 217.963H131.412L130.059 219.216ZM128.965 222V211.818H130.139V222H128.965ZM133.818 222L130.835 218.222L131.67 217.406L135.309 222H133.818ZM139.468 222.159C138.732 222.159 138.097 221.997 137.564 221.672C137.034 221.344 136.624 220.886 136.336 220.3C136.051 219.71 135.908 219.024 135.908 218.241C135.908 217.459 136.051 216.77 136.336 216.173C136.624 215.573 137.025 215.106 137.539 214.771C138.056 214.433 138.659 214.264 139.349 214.264C139.746 214.264 140.139 214.33 140.527 214.463C140.915 214.596 141.268 214.811 141.586 215.109C141.904 215.404 142.158 215.795 142.347 216.283C142.535 216.77 142.63 217.37 142.63 218.082V218.58H136.744V217.565H141.437C141.437 217.134 141.351 216.75 141.178 216.412C141.009 216.074 140.767 215.807 140.452 215.612C140.141 215.416 139.773 215.318 139.349 215.318C138.881 215.318 138.477 215.434 138.136 215.666C137.798 215.895 137.537 216.193 137.355 216.561C137.173 216.929 137.082 217.323 137.082 217.744V218.42C137.082 218.997 137.181 219.486 137.38 219.887C137.582 220.285 137.862 220.588 138.22 220.797C138.578 221.002 138.994 221.105 139.468 221.105C139.776 221.105 140.055 221.062 140.303 220.976C140.555 220.886 140.772 220.754 140.954 220.578C141.137 220.399 141.278 220.177 141.377 219.912L142.511 220.23C142.391 220.615 142.191 220.953 141.909 221.244C141.627 221.533 141.279 221.758 140.865 221.92C140.451 222.08 139.985 222.159 139.468 222.159ZM150.361 222L147.577 211.818H148.829L150.957 220.111H151.057L153.224 211.818H154.616L156.784 220.111H156.883L159.011 211.818H160.264L157.48 222H156.207L153.96 213.886H153.881L151.633 222H150.361ZM161.641 222V214.364H162.815V222H161.641ZM162.238 213.091C162.009 213.091 161.812 213.013 161.646 212.857C161.484 212.701 161.403 212.514 161.403 212.295C161.403 212.077 161.484 211.889 161.646 211.734C161.812 211.578 162.009 211.5 162.238 211.5C162.467 211.5 162.662 211.578 162.825 211.734C162.99 211.889 163.073 212.077 163.073 212.295C163.073 212.514 162.99 212.701 162.825 212.857C162.662 213.013 162.467 213.091 162.238 213.091ZM166.137 211.818V222H164.964V211.818H166.137ZM169.459 211.818V222H168.286V211.818H169.459ZM177.017 216.074L175.963 216.372C175.897 216.196 175.799 216.026 175.67 215.86C175.544 215.691 175.372 215.552 175.153 215.442C174.934 215.333 174.654 215.278 174.313 215.278C173.845 215.278 173.456 215.386 173.144 215.602C172.836 215.814 172.682 216.084 172.682 216.412C172.682 216.704 172.788 216.934 173 217.103C173.212 217.272 173.544 217.413 173.994 217.526L175.128 217.804C175.811 217.97 176.319 218.223 176.654 218.565C176.989 218.903 177.156 219.339 177.156 219.872C177.156 220.31 177.03 220.701 176.779 221.045C176.53 221.39 176.182 221.662 175.734 221.861C175.287 222.06 174.767 222.159 174.173 222.159C173.395 222.159 172.75 221.99 172.239 221.652C171.729 221.314 171.406 220.82 171.27 220.17L172.384 219.892C172.49 220.303 172.69 220.611 172.985 220.817C173.284 221.022 173.673 221.125 174.154 221.125C174.7 221.125 175.135 221.009 175.456 220.777C175.781 220.542 175.943 220.26 175.943 219.932C175.943 219.667 175.85 219.445 175.665 219.266C175.479 219.083 175.194 218.947 174.81 218.858L173.537 218.56C172.838 218.394 172.324 218.137 171.996 217.789C171.671 217.438 171.509 216.999 171.509 216.472C171.509 216.041 171.63 215.66 171.872 215.328C172.117 214.997 172.45 214.737 172.871 214.548C173.295 214.359 173.776 214.264 174.313 214.264C175.068 214.264 175.662 214.43 176.092 214.761C176.527 215.093 176.835 215.53 177.017 216.074ZM182.025 222.159C181.335 222.159 180.731 221.995 180.21 221.667C179.693 221.339 179.289 220.88 178.997 220.29C178.709 219.7 178.565 219.01 178.565 218.222C178.565 217.426 178.709 216.732 178.997 216.138C179.289 215.545 179.693 215.085 180.21 214.756C180.731 214.428 181.335 214.264 182.025 214.264C182.714 214.264 183.317 214.428 183.834 214.756C184.355 215.085 184.759 215.545 185.048 216.138C185.339 216.732 185.485 217.426 185.485 218.222C185.485 219.01 185.339 219.7 185.048 220.29C184.759 220.88 184.355 221.339 183.834 221.667C183.317 221.995 182.714 222.159 182.025 222.159ZM182.025 221.105C182.548 221.105 182.979 220.971 183.317 220.702C183.655 220.434 183.906 220.081 184.068 219.643C184.231 219.206 184.312 218.732 184.312 218.222C184.312 217.711 184.231 217.236 184.068 216.795C183.906 216.354 183.655 215.998 183.317 215.726C182.979 215.454 182.548 215.318 182.025 215.318C181.501 215.318 181.07 215.454 180.732 215.726C180.394 215.998 180.144 216.354 179.981 216.795C179.819 217.236 179.738 217.711 179.738 218.222C179.738 218.732 179.819 219.206 179.981 219.643C180.144 220.081 180.394 220.434 180.732 220.702C181.07 220.971 181.501 221.105 182.025 221.105ZM188.449 217.406V222H187.276V214.364H188.41V215.557H188.509C188.688 215.169 188.96 214.857 189.324 214.622C189.689 214.384 190.16 214.264 190.736 214.264C191.253 214.264 191.706 214.37 192.094 214.582C192.481 214.791 192.783 215.109 192.998 215.537C193.214 215.961 193.321 216.498 193.321 217.148V222H192.148V217.227C192.148 216.627 191.992 216.16 191.681 215.825C191.369 215.487 190.942 215.318 190.398 215.318C190.024 215.318 189.689 215.399 189.394 215.562C189.102 215.724 188.872 215.961 188.703 216.273C188.534 216.584 188.449 216.962 188.449 217.406Z" fill="white"/>
<path opacity="0.2" d="M380.951 184.006C381.677 183.782 382.403 183.667 383.108 183.667C384.198 183.667 385.108 183.936 385.813 184.264C385.133 181.584 383.5 176.96 380.246 176.439C379.945 176.39 379.698 176.156 379.616 175.84L378.905 173.101C378.845 172.87 378.88 172.622 379.003 172.421C379.126 172.22 379.323 172.086 379.544 172.053C379.784 172.018 380.029 172 380.271 172C384.177 172 388.045 176.389 389.677 182.674C390.635 186.361 390.916 191.904 388.556 195.393C387.235 197.345 385.309 198.388 382.829 198.492C382.819 198.492 382.809 198.493 382.799 198.493C379.74 198.493 377.027 196.275 376.202 193.099C375.709 191.201 375.932 189.21 376.83 187.492C377.719 185.793 379.182 184.555 380.951 184.006Z" fill="#060E1A"/>
<path opacity="0.2" d="M361.803 187.492C362.691 185.793 364.155 184.555 365.924 184.006C366.649 183.782 367.375 183.667 368.081 183.667C369.171 183.667 370.08 183.936 370.786 184.264C370.106 181.584 368.472 176.96 365.218 176.439C364.917 176.39 364.67 176.156 364.588 175.84L363.877 173.101C363.817 172.87 363.852 172.622 363.975 172.421C364.097 172.22 364.295 172.086 364.516 172.053C364.756 172.018 365 172 365.243 172C369.149 172 373.017 176.389 374.649 182.674C375.607 186.361 375.888 191.904 373.528 195.394C372.207 197.346 370.28 198.389 367.801 198.492C367.791 198.493 367.781 198.493 367.771 198.493C364.712 198.493 361.999 196.275 361.174 193.099C360.682 191.201 360.905 189.21 361.803 187.492Z" fill="#060E1A"/>
<defs>
<filter id="filter0_d_78_20" x="0" y="0" width="472" height="303" filterUnits="userSpaceOnUse" color-interpolation-filters="sRGB">
<feFlood flood-opacity="0" result="BackgroundImageFix"/>
<feColorMatrix in="SourceAlpha" type="matrix" values="0 0 0 0 0 0 0 0 0 0 0 0 0 0 0 0 0 0 127 0" result="hardAlpha"/>
<feMorphology radius="10" operator="dilate" in="SourceAlpha" result="effect1_dropShadow_78_20"/>
<feOffset/>
<feGaussianBlur stdDeviation="25"/>
<feColorMatrix type="matrix" values="0 0 0 0 0.0235294 0 0 0 0 0.054902 0 0 0 0 0.101961 0 0 0 0.3 0"/>
<feBlend mode="normal" in2="BackgroundImageFix" result="effect1_dropShadow_78_20"/>
<feBlend mode="normal" in="SourceGraphic" in2="effect1_dropShadow_78_20" result="shape"/>
</filter>
<linearGradient id="paint0_linear_78_20" x1="-106.957" y1="-21.7955" x2="650.14" y2="376.226" gradientUnits="userSpaceOnUse">
<stop offset="0.338542" stop-color="#9747FF"/>
<stop offset="1" stop-color="#1937C4"/>
</linearGradient>
</defs>
</svg>
