<svg width="41" height="40" viewBox="0 0 41 40" fill="none" xmlns="http://www.w3.org/2000/svg">
<g clip-path="url(#clip0_1_389)">
<circle cx="20.5" cy="20" r="19" fill="#140F18" stroke="#9747FF" stroke-width="2"/>
<path d="M18.5885 26C23.4941 26 26.1772 21.7675 26.1772 18.0975C26.1772 17.977 26.1772 17.8572 26.1694 17.7381C26.6914 17.3455 27.1418 16.8581 27.5 16.3004C27.0138 16.5251 26.4971 16.6727 25.9686 16.7377C26.525 16.3904 26.9417 15.8449 27.1412 15.2012C26.6173 15.5247 26.0447 15.7528 25.4473 15.8753C24.4372 14.7571 22.7479 14.703 21.6734 15.7548C20.9811 16.4331 20.6867 17.4443 20.9019 18.4089C18.7575 18.2965 16.7594 17.2419 15.4048 15.5071C14.697 16.7762 15.059 18.3994 16.2309 19.2143C15.8065 19.2015 15.3911 19.0823 15.02 18.8671V18.9023C15.0206 20.2242 15.9157 21.3627 17.1598 21.6247C16.7672 21.7364 16.3551 21.7526 15.956 21.6721C16.305 22.8038 17.3067 23.5788 18.4474 23.6011C17.503 24.3741 16.3363 24.7938 15.135 24.7924C14.9232 24.7918 14.7113 24.7789 14.5 24.7525C15.72 25.5675 17.139 26 18.5885 25.998" fill="#9747FF"/>
</g>
<defs>
<clipPath id="clip0_1_389">
<rect width="40" height="40" fill="white" transform="translate(0.5)"/>
</clipPath>
</defs>
</svg>
