<svg width="146" height="111" viewBox="0 0 146 111" fill="none" xmlns="http://www.w3.org/2000/svg">
<g clip-path="url(#clip0_1144_2245)">
<path d="M95.3945 108.104L93.9613 108.532L91.6233 103.22L93.7387 102.588L95.3945 108.104Z" fill="#FFB8B8"/>
<path d="M95.6195 107.527L92.7968 108.371C92.3197 108.513 91.9189 108.839 91.6826 109.277C91.4463 109.714 91.3938 110.227 91.5367 110.703L91.5542 110.761L96.1758 109.38L95.6195 107.527Z" fill="#2F2E41"/>
<path d="M81.7752 109.272L80.3704 108.758L81.6884 103.107L83.7617 103.866L81.7752 109.272Z" fill="#FFB8B8"/>
<path d="M82.3008 108.945L79.5343 107.933C79.0667 107.762 78.5501 107.783 78.0982 107.992C77.6464 108.201 77.2963 108.58 77.1248 109.047L77.1038 109.104L81.6333 110.761L82.3008 108.945Z" fill="#2F2E41"/>
<path d="M92.9928 98.4883L95.4336 106.525L92.5047 107.377L89.6977 99.9494L92.9928 98.4883Z" fill="#2F2E41"/>
<path d="M85.3047 100.314L83.1079 107.863L80.0569 106.402L82.2536 99.3398L85.3047 100.314Z" fill="#2F2E41"/>
<path d="M86.4479 101.676C88.4016 101.667 90.3507 101.487 92.2731 101.14L92.322 101.13V99.2725L93.4375 99.1489L92.5668 96.0465C92.9726 91.2668 92.396 85.2138 92.2094 83.4716C92.1666 83.063 92.1385 82.8338 92.1385 82.8338L91.1596 74.5319L89.5216 73.0234L88.7775 73.5066L87.3972 74.8836C85.7928 78.823 84.5197 82.5318 84.5117 82.7701L79.1311 99.9728L79.1674 99.9984C81.0357 101.314 83.8837 101.676 86.4479 101.676Z" fill="#3F3D56"/>
<path opacity="0.2" d="M90.4636 78.2148L90.8398 80.5578L88.2929 81.6059L90.4636 78.2148Z" fill="black"/>
<path d="M85.467 73.0117H91.3556C91.4768 73.0115 91.5929 72.9635 91.6785 72.878C91.7642 72.7926 91.8124 72.6767 91.8125 72.5558V70.0235C91.8107 69.1246 91.4516 68.2632 90.814 67.6283C90.1763 66.9933 89.3122 66.6367 88.4113 66.6367C87.5104 66.6367 86.6463 66.9933 86.0086 67.6283C85.371 68.2632 85.0119 69.1246 85.0101 70.0235V72.5558C85.0102 72.6767 85.0584 72.7926 85.1441 72.878C85.2297 72.9635 85.3458 73.0115 85.467 73.0117Z" fill="#2F2E41"/>
<path d="M87.7603 72.8586C86.3831 72.8586 85.2666 71.7448 85.2666 70.3707C85.2666 68.9967 86.3831 67.8828 87.7603 67.8828C89.1375 67.8828 90.2539 68.9967 90.2539 70.3707C90.2539 71.7448 89.1375 72.8586 87.7603 72.8586Z" fill="#FFB8B8"/>
<path d="M84.2051 70.276H87.8059L87.8428 69.7602L88.0274 70.276H88.5819L88.655 69.2537L89.0209 70.276H90.0938V70.2253C90.093 69.5137 89.8092 68.8314 89.3048 68.3281C88.8005 67.8249 88.1166 67.5418 87.4033 67.541H86.8956C86.1823 67.5418 85.4984 67.8249 84.994 68.3281C84.4896 68.8314 84.2059 69.5137 84.2051 70.2253V70.276Z" fill="#2F2E41"/>
<path d="M87.8372 73.4829C87.8643 73.4829 87.8914 73.4805 87.918 73.4758L90.5547 73.0116V68.6641H87.6523L87.7241 68.7477C88.7239 69.911 87.9707 71.7973 87.4327 72.8182C87.3931 72.8929 87.3754 72.9773 87.3817 73.0617C87.388 73.1461 87.4181 73.2269 87.4685 73.295C87.5107 73.3531 87.5661 73.4005 87.6302 73.4332C87.6943 73.4659 87.7652 73.4829 87.8372 73.4829Z" fill="#2F2E41"/>
<path d="M83.1853 83.9916H84.6305C84.6769 83.9918 84.7217 83.9746 84.756 83.9435C84.7904 83.9124 84.8118 83.8697 84.8162 83.8236L85.1055 80.8652H82.7104L82.9996 83.8236C83.004 83.8696 83.0254 83.9124 83.0598 83.9435C83.0941 83.9746 83.1389 83.9918 83.1853 83.9916Z" fill="#6C63FF"/>
<path d="M82.7112 81.2387H85.0986C85.1481 81.2387 85.1955 81.219 85.2305 81.1842C85.2654 81.1493 85.2851 81.102 85.2852 81.0526V80.606C85.2851 80.5567 85.2654 80.5094 85.2305 80.4745C85.1955 80.4396 85.1481 80.42 85.0986 80.4199H82.7112C82.6617 80.42 82.6143 80.4396 82.5793 80.4745C82.5444 80.5094 82.5247 80.5567 82.5246 80.606V81.0526C82.5247 81.102 82.5444 81.1493 82.5793 81.1842C82.6143 81.219 82.6617 81.2387 82.7112 81.2387Z" fill="#2F2E41"/>
<path opacity="0.2" d="M92.0781 82.7188C91.4144 83.4855 90.5142 84.0104 89.519 84.2111C88.5237 84.4118 87.4898 84.2769 86.5798 83.8276L86.0371 83.5596L92.0781 82.7188Z" fill="black"/>
<path d="M83.3982 82.1465C83.5094 82.0218 83.6467 81.923 83.8004 81.857C83.954 81.791 84.1203 81.7593 84.2876 81.7644C84.4548 81.7694 84.6189 81.811 84.7682 81.8861C84.9176 81.9613 85.0487 82.0682 85.1522 82.1993L87.6699 81.4941L88.4727 82.9162L84.9031 83.8622C84.6707 84.0211 84.388 84.0894 84.1086 84.0542C83.8291 84.019 83.5723 83.8827 83.3868 83.6712C83.2013 83.4598 83.1 83.1877 83.1021 82.9067C83.1042 82.6257 83.2096 82.3552 83.3982 82.1465Z" fill="#FFB8B8"/>
<path d="M89.4072 83.7243C90.6042 83.7244 92.2239 83.0241 94.1466 81.6679C94.2538 81.5938 94.3443 81.4983 94.4126 81.3875C94.4808 81.2767 94.5253 81.1529 94.5431 81.0241C94.6849 80.1277 93.8085 78.9157 93.7226 78.7996L92.8012 76.2753C92.7906 76.2343 92.4937 75.1421 91.7483 74.7535C91.5914 74.6732 91.4189 74.6277 91.2427 74.6202C91.0665 74.6128 90.8907 74.6434 90.7275 74.7101C89.3077 75.2259 90.4163 79.2091 90.5685 79.7315L88.6874 80.6148L87.4929 81.3745L85.857 81.5453L86.3011 83.5961L88.7856 83.6518C88.989 83.7015 89.1978 83.7258 89.4072 83.7243Z" fill="#3F3D56"/>
<path d="M0.113499 65.0166C0.11478 62.62 0.650377 60.2538 1.68149 58.0892C2.71261 55.9247 4.21342 54.0161 6.07518 52.5018C7.93694 50.9874 10.113 49.9052 12.4458 49.3336C14.7785 48.7619 17.2095 48.7152 19.5626 49.1967C21.9157 49.6782 24.132 50.6759 26.0509 52.1176C27.9697 53.5592 29.5432 55.4087 30.6571 57.532C31.7711 59.6552 32.3977 61.9992 32.4915 64.3939C32.5854 66.7886 32.1441 69.1742 31.1998 71.3778C31.2156 71.3602 31.232 71.3431 31.2477 71.3255C30.5284 72.9982 29.5311 74.5378 28.2981 75.8793C28.2944 75.8834 28.2906 75.8873 28.2869 75.8914C28.1874 75.9995 28.0874 76.1072 27.985 76.2126C26.505 77.7527 24.7332 78.9841 22.7723 79.8353C20.8114 80.6866 18.7006 81.1408 16.5623 81.1714L17.1096 110.827H15.4189L15.761 91.2541L13.3154 89.9694L13.6884 89.2624L15.7767 90.3593L15.9373 81.1699C11.7076 81.0732 7.68372 79.3289 4.7265 76.3101C1.76929 73.2913 0.11356 69.2377 0.113499 65.0166Z" fill="#E6E6E6"/>
<path d="M48.1819 57.1406C48.1834 54.332 48.8111 51.5589 50.0195 49.0223C51.2278 46.4856 52.9867 44.2489 55.1685 42.4742C57.3503 40.6995 59.9005 39.4313 62.6343 38.7614C65.368 38.0915 68.217 38.0367 70.9746 38.601C73.7322 39.1653 76.3295 40.3345 78.5782 42.024C80.827 43.7135 82.6709 45.8809 83.9764 48.3692C85.2818 50.8575 86.0162 53.6044 86.1261 56.4108C86.2361 59.2172 85.719 62.0129 84.6123 64.5953C84.6308 64.5747 84.65 64.5547 84.6685 64.534C83.8254 66.4943 82.6568 68.2986 81.2118 69.8707C81.2074 69.8755 81.203 69.8801 81.1987 69.8848C81.0821 70.0116 80.9648 70.1377 80.8448 70.2613C79.1105 72.0661 77.034 73.5092 74.736 74.5068C72.438 75.5044 69.9643 76.0367 67.4585 76.0726L68.0998 110.827H66.1185L66.5195 87.8885L63.6533 86.383L64.0906 85.5545L66.5378 86.8399L66.7261 76.0708C61.7692 75.9575 57.0535 73.9133 53.588 70.3755C50.1224 66.8378 48.182 62.0874 48.1819 57.1406Z" fill="#E6E6E6"/>
<path d="M102.694 49.7324C102.696 46.5363 103.41 43.3806 104.785 40.494C106.161 37.6073 108.162 35.062 110.645 33.0424C113.128 31.0228 116.03 29.5796 119.141 28.8173C122.252 28.0549 125.494 27.9926 128.632 28.6347C131.77 29.2769 134.726 30.6075 137.285 32.5301C139.844 34.4527 141.942 36.9191 143.428 39.7508C144.913 42.5824 145.749 45.7083 145.874 48.9019C145.999 52.0956 145.411 55.277 144.151 58.2158C144.172 58.1923 144.194 58.1695 144.215 58.146C143.256 60.3768 141.926 62.43 140.282 64.2191C140.277 64.2245 140.272 64.2297 140.267 64.2351C140.134 64.3794 140.001 64.5229 139.864 64.6635C137.89 66.7174 135.527 68.3596 132.912 69.4949C130.297 70.6301 127.482 71.2358 124.631 71.2767L125.361 110.826H123.106L123.562 84.723L120.301 83.0098L120.798 82.0669L123.583 83.5297L123.797 71.2747C118.156 71.1457 112.79 68.8194 108.846 64.7935C104.903 60.7676 102.694 55.3618 102.694 49.7324Z" fill="#E6E6E6"/>
<path d="M21.6332 28.1843C13.8324 28.1843 7.50863 21.875 7.50863 14.0922C7.50863 6.30927 13.8324 0 21.6332 0C29.434 0 35.7578 6.30927 35.7578 14.0922C35.7578 21.875 29.434 28.1843 21.6332 28.1843Z" fill="#FF6584"/>
<path d="M105.602 58.9945C89.9675 58.9945 77.2934 46.3495 77.2934 30.7512C77.2934 15.1528 89.9675 2.50781 105.602 2.50781C121.236 2.50781 133.91 15.1528 133.91 30.7512C133.91 46.3495 121.236 58.9945 105.602 58.9945Z" fill="#FFA800"/>
<path opacity="0.2" d="M126.507 11.8867C129.147 18.0492 129.505 24.9477 127.517 31.3494C125.529 37.7512 121.324 43.239 115.654 46.8323C109.984 50.4256 103.217 51.8903 96.5643 50.9645C89.9113 50.0387 83.805 46.7828 79.3365 41.7787C80.9496 45.5437 83.3638 48.9138 86.4119 51.6555C89.46 54.3973 93.0691 56.4451 96.9892 57.657C100.909 58.869 105.047 59.2161 109.114 58.6744C113.182 58.1327 117.084 56.715 120.548 54.5197C124.012 52.3244 126.957 49.4039 129.177 45.9605C131.398 42.5172 132.842 38.6333 133.408 34.578C133.975 30.5226 133.652 26.3929 132.46 22.4747C131.268 18.5566 129.237 14.9438 126.507 11.8867Z" fill="black"/>
<path d="M105.526 30.752H105.448L104.049 110.827H107.004L105.526 30.752Z" fill="#3F3D56"/>
<path d="M101.024 73.1319L105.703 75.5898L105.051 76.8257L100.372 74.3677L101.024 73.1319Z" fill="#3F3D56"/>
<path d="M62.3047 110.077C62.3047 110.077 62.2026 107.942 60.1088 108.19L62.3047 110.077Z" fill="#3F3D56"/>
<path d="M62.8974 108.046C62.3186 108.046 61.8495 107.578 61.8495 107.001C61.8495 106.423 62.3186 105.955 62.8974 105.955C63.4761 105.955 63.9453 106.423 63.9453 107.001C63.9453 107.578 63.4761 108.046 62.8974 108.046Z" fill="#6C63FF"/>
<path d="M62.7706 108.76H63.0664V110.826H62.7706V108.76Z" fill="#3F3D56"/>
<path d="M134.926 109.782C134.926 109.782 134.824 107.647 132.73 107.895L134.926 109.782Z" fill="#3F3D56"/>
<path d="M135.515 107.751C134.936 107.751 134.467 107.283 134.467 106.706C134.467 106.128 134.936 105.66 135.515 105.66C136.093 105.66 136.562 106.128 136.562 106.706C136.562 107.283 136.093 107.751 135.515 107.751Z" fill="#6C63FF"/>
<path d="M135.392 108.465H135.688V110.531H135.392V108.465Z" fill="#3F3D56"/>
<path d="M117.77 109.931C117.77 109.931 117.667 107.795 115.574 108.044L117.77 109.931Z" fill="#3F3D56"/>
<path d="M118.358 107.898C117.78 107.898 117.31 107.43 117.31 106.852C117.31 106.275 117.78 105.807 118.358 105.807C118.937 105.807 119.406 106.275 119.406 106.852C119.406 107.43 118.937 107.898 118.358 107.898Z" fill="#6C63FF"/>
<path d="M118.235 108.613H118.531V110.679H118.235V108.613Z" fill="#3F3D56"/>
<path d="M72.1402 13.654L70.0382 11.9766C71.6712 11.7969 72.3421 12.6854 72.6167 13.3887C73.8925 12.8602 75.2812 13.5528 75.2812 13.5528L71.0755 15.0761C71.2877 14.5107 71.657 14.0174 72.1402 13.654Z" fill="#3F3D56"/>
<path d="M40.1754 30.7399L38.0734 29.0626C39.7063 28.8828 40.3773 29.7713 40.6519 30.4746C41.9276 29.9461 43.3164 30.6388 43.3164 30.6388L39.1107 32.1621C39.3228 31.5967 39.6922 31.1033 40.1754 30.7399Z" fill="#3F3D56"/>
<path d="M74.6519 45.32L72.5499 43.6426C74.1829 43.4629 74.8539 44.3514 75.1284 45.0547C76.4042 44.5262 77.793 45.2188 77.793 45.2188L73.5872 46.7422C73.7994 46.1768 74.1687 45.6834 74.6519 45.32Z" fill="#3F3D56"/>
<path d="M33.6289 110.852C33.6289 110.852 33.5268 108.717 31.433 108.965L33.6289 110.852Z" fill="#3F3D56"/>
<path d="M53.3008 110.852C53.3008 110.852 53.1986 108.717 51.1049 108.965L53.3008 110.852Z" fill="#3F3D56"/>
<path d="M125.035 110.852C125.035 110.852 124.933 108.717 122.839 108.965L125.035 110.852Z" fill="#3F3D56"/>
<path d="M24.7578 110.852C24.7578 110.852 24.6557 108.717 22.5619 108.965L24.7578 110.852Z" fill="#3F3D56"/>
<path d="M28.8984 110.852C28.8984 110.852 28.7963 108.717 26.7025 108.965L28.8984 110.852Z" fill="#3F3D56"/>
<path d="M37.4408 110.852C37.4408 110.852 37.5429 108.717 39.6367 108.965L37.4408 110.852Z" fill="#3F3D56"/>
<path d="M71.4564 110.852C71.4564 110.852 71.5586 108.717 73.6523 108.965L71.4564 110.852Z" fill="#3F3D56"/>
<path d="M99.7064 110.852C99.7064 110.852 99.8086 108.717 101.902 108.965L99.7064 110.852Z" fill="#3F3D56"/>
<path d="M129.73 110.852C129.73 110.852 129.832 108.717 131.926 108.965L129.73 110.852Z" fill="#3F3D56"/>
<path d="M15.8471 110.852C15.8471 110.852 15.9492 108.717 18.043 108.965L15.8471 110.852Z" fill="#3F3D56"/>
<path d="M28.5658 111.001C28.5658 111.001 28.6679 108.866 30.7617 109.114L28.5658 111.001Z" fill="#3F3D56"/>
<path d="M0.0596008 110.574H145.945V110.902H0.0596008V110.574Z" fill="#3F3D56"/>
</g>
<defs>
<clipPath id="clip0_1144_2245">
<rect width="145.886" height="111" fill="white" transform="matrix(-1 0 0 1 145.945 0)"/>
</clipPath>
</defs>
</svg>
