<svg width="170" height="111" viewBox="0 0 170 111" fill="none" xmlns="http://www.w3.org/2000/svg">
<path d="M170 110.123H0V110.555H170V110.123Z" fill="#3F3D56"/>
<path d="M125.244 107.027H131.334V110.668H121.949V110.335C121.949 109.458 122.296 108.617 122.914 107.996C123.532 107.376 124.37 107.027 125.244 107.027Z" fill="#2F2E41"/>
<path d="M155.055 110.338L150.199 95.6254C150.199 95.6254 155.54 100.988 155.54 105.388L154.581 95.2129C154.581 95.2129 157.32 98.9255 157.046 104.563C156.772 110.201 155.055 110.338 155.055 110.338Z" fill="#F7F7F7"/>
<path d="M50.7895 96.9435L46.0508 82.5842C46.0508 82.5842 51.263 87.818 51.263 92.1123L50.3275 82.1816C50.3275 82.1816 53.0004 85.805 52.7331 91.3072C52.4658 96.8093 50.7895 96.9435 50.7895 96.9435Z" fill="#F7F7F7"/>
<path d="M124.75 103.568C124.758 113.014 106.101 110.108 83.2598 110.128C60.4186 110.148 42.0433 113.086 42.0352 103.64C42.027 94.194 60.6777 92.1235 83.5189 92.1037C106.36 92.0839 124.742 94.1223 124.75 103.568Z" fill="#F7F7F7"/>
<path d="M108.743 90.8117H105.757L104.336 79.2461H108.743V90.8117Z" fill="#A0616A"/>
<path d="M103.29 89.957H109.381V93.5981H99.9961V93.265C99.9961 92.3877 100.343 91.5463 100.961 90.9259C101.579 90.3055 102.417 89.957 103.29 89.957Z" fill="#2F2E41"/>
<path d="M130.692 107.882H127.706L126.285 96.3164H130.692V107.882Z" fill="#A0616A"/>
<path d="M144.466 73.5227C144.672 73.2713 144.821 72.9775 144.903 72.662C144.984 72.3465 144.995 72.0169 144.936 71.6965C144.876 71.3762 144.748 71.0728 144.559 70.8077C144.37 70.5427 144.126 70.3224 143.843 70.1625L136.907 41.793L132.473 43.7088L140.722 71.1397C140.486 71.6345 140.439 72.1991 140.59 72.7264C140.74 73.2538 141.078 73.7073 141.54 74.001C142.001 74.2948 142.554 74.4083 143.093 74.3202C143.633 74.232 144.121 73.9483 144.466 73.5227Z" fill="#A0616A"/>
<path d="M139.053 16.1891C138.805 15.9292 138.504 15.7271 138.17 15.5968C137.836 15.4665 137.478 15.4113 137.121 15.4351C136.764 15.4588 136.416 15.5609 136.102 15.7342C135.788 15.9075 135.516 16.1478 135.305 16.4381L124.57 17.6756L126.203 21.8332L135.966 19.9986C136.475 20.3226 137.085 20.4478 137.68 20.3505C138.275 20.2532 138.814 19.9401 139.194 19.4705C139.575 19.0009 139.771 18.4075 139.745 17.8027C139.718 17.1979 139.472 16.6238 139.053 16.1891Z" fill="#A0616A"/>
<path d="M121.367 70.581L126.051 105.883L131.882 104.677C131.882 104.677 131.024 78.968 133.939 75.8687C136.855 72.7693 130.19 67.3398 130.19 67.3398L121.367 70.581Z" fill="#2F2E41"/>
<path d="M123.302 60.8563L121.15 64.0975C121.15 64.0975 104.58 57.1831 104.58 68.203C104.58 79.2228 103.632 86.7013 103.289 87.2179C102.946 87.7344 107.256 89.0748 109.314 88.7304C109.314 88.7304 111.853 70.9647 111.681 69.9316C111.681 69.9316 127.935 77.9337 131.022 77.245C134.108 76.5562 134.838 74.1181 135.352 72.7406C135.867 71.3631 135.137 60.4241 135.137 60.4241L124.849 57.2715L123.302 60.8563Z" fill="#2F2E41"/>
<path d="M123.592 41.3977L122.979 40.6586C122.979 40.6586 116.109 25.1381 118.808 20.9501C121.507 16.762 133.283 16.1461 133.651 16.3925C134.019 16.6388 132.772 19.8374 133.631 21.3155C133.631 21.3155 124.508 23.3015 123.895 23.5479C123.281 23.7942 128.622 32.8984 128.622 32.8984L128.008 38.4414L123.592 41.3977Z" fill="#6C63FF"/>
<path d="M135.612 33.7607C135.612 33.7607 129.233 34.4998 128.988 34.4998C128.742 34.4998 128.62 32.8984 128.62 32.8984L122.977 40.6587C122.977 40.6587 120.197 63.1721 120.933 62.8026C121.669 62.433 135.244 64.5553 135.367 63.5699C135.489 62.5845 135.244 57.6573 135.612 57.411C135.98 57.1646 141.991 41.8905 141.991 41.8905C141.991 41.8905 141.377 38.6878 139.292 37.5792C137.207 36.4706 135.612 33.7607 135.612 33.7607Z" fill="#6C63FF"/>
<path d="M140.031 39.7949L141.994 41.889C141.994 41.889 144.91 65.9514 143.315 66.6905C141.721 67.4295 138.581 67.3387 138.581 67.3387L135.492 55.9313L140.031 39.7949Z" fill="#6C63FF"/>
<path d="M129.486 32.2358C132.605 32.2358 135.132 29.6974 135.132 26.5661C135.132 23.4349 132.605 20.8965 129.486 20.8965C126.368 20.8965 123.84 23.4349 123.84 26.5661C123.84 29.6974 126.368 32.2358 129.486 32.2358Z" fill="#A0616A"/>
<path d="M128.159 27.4504C128.082 26.274 126.604 26.2337 125.43 26.2226C124.256 26.2114 122.853 26.2535 122.188 25.2814C121.749 24.639 121.833 23.7472 122.196 23.0585C122.559 22.3697 123.155 21.84 123.742 21.3304C125.257 20.0147 126.819 18.7095 128.638 17.8674C130.457 17.0253 132.589 16.685 134.476 17.361C136.793 18.1914 139.926 22.4661 140.197 24.922C140.468 27.3779 139.49 29.8815 137.842 31.7168C136.195 33.552 132.424 32.8115 130.05 33.4644C131.493 31.4139 130.542 27.6881 128.231 26.7305L128.159 27.4504Z" fill="#2F2E41"/>
<path d="M77.8359 100.79C85.3219 100.79 91.3906 94.6959 91.3906 87.179C91.3906 79.662 85.3219 73.5684 77.8359 73.5684C70.3499 73.5684 64.2812 79.662 64.2812 87.179C64.2812 94.6959 70.3499 100.79 77.8359 100.79Z" fill="#FF2450"/>
<path d="M68.7835 72.6002C66.9049 72.6003 65.0665 72.0536 63.4909 71.0264C61.9153 69.9992 60.67 68.5354 59.9057 66.8123L38.397 18.1748C37.6845 16.5637 37.3077 14.8233 37.2897 13.0605C37.2717 11.2978 37.613 9.55 38.2924 7.92456C38.9719 6.29912 39.9752 4.83038 41.2407 3.60861C42.5063 2.38685 44.0073 1.43789 45.6515 0.820048C47.2957 0.202206 49.0484 -0.0714592 50.8018 0.0158766C52.5552 0.103212 54.2723 0.549702 55.8476 1.3279C57.4228 2.1061 58.823 3.19957 59.9619 4.5411C61.1008 5.88262 61.9544 7.44385 62.4703 9.12884L78.0452 59.9963C78.4911 61.4523 78.5907 62.993 78.3361 64.4947C78.0814 65.9963 77.4795 67.4171 76.5788 68.6428C75.6781 69.8686 74.5037 70.8651 73.1498 71.5524C71.796 72.2397 70.3005 72.5985 68.7835 72.6002Z" fill="#FF2450"/>
</svg>
