<svg width="159" height="112" viewBox="0 0 159 112" fill="none" xmlns="http://www.w3.org/2000/svg">
<g clip-path="url(#clip0_1144_2251)">
<path d="M17.72 89.5979C14.3084 89.5979 11.0089 88.3807 8.41609 86.1658C7.55116 85.4262 6.62956 84.1404 5.67697 82.3444C5.06908 81.1875 4.72859 79.9092 4.68057 78.6035C4.63255 77.2978 4.87822 75.998 5.3995 74.7997C4.89703 75.3103 4.34126 75.7657 3.7417 76.158L3.43861 76.3595L3.4211 75.9964C3.40961 75.7603 3.40379 75.525 3.40379 75.297C3.40379 73.9534 4.42108 72.59 3.95192 71.3481C1.9745 66.1138 -4.29736 60.9119 4.79248 52.8111C5.63334 52.0617 4.51008 50.5634 4.51008 49.4296C4.51008 38.3182 16.596 21.6501 24.6866 29.2784C29.4093 33.7311 39.2485 36.8942 43.8425 43.0877L43.9033 43.2712L43.724 43.3437C42.8062 43.729 41.8394 43.9859 40.8511 44.107C41.9047 44.3216 42.9799 44.4116 44.0545 44.3751L44.2212 44.3692L44.2618 44.531C44.6615 46.1333 44.8635 47.7784 44.8633 49.4296L44.8625 49.6081C44.8588 50.8623 45.1197 52.1032 45.6283 53.2499C46.1369 54.3967 46.8817 55.4234 47.8141 56.2633C49.287 57.6048 50.464 59.2381 51.2699 61.0591C52.0759 62.8802 52.4933 64.849 52.4953 66.84C52.4953 69.1956 50.8927 72.2877 49.5481 74.4669C49.2074 75.022 48.7452 75.4928 48.1963 75.844C47.6474 76.1952 47.0261 76.4177 46.3788 76.4948C45.7657 76.5721 45.1431 76.5137 44.5551 76.324C43.9671 76.1342 43.4281 75.8177 42.9761 75.3967C43.6125 76.675 44.4418 77.8478 45.435 78.8743L45.6184 79.0631L45.3906 79.1957C43.2018 80.4707 40.7131 81.1421 38.1793 81.1411L38.0309 81.1407C34.1841 81.1407 30.5326 82.6294 28.0129 85.2253C26.6751 86.602 25.0755 87.6979 23.308 88.4487C21.5405 89.1996 19.6407 89.5903 17.72 89.5979Z" fill="#E7EB23"/>
<path d="M12.67 111.999C12.608 111.999 12.5482 111.977 12.5014 111.936C12.4547 111.896 12.4241 111.84 12.4154 111.778C12.4045 111.702 11.3331 103.983 12.2953 93.724C13.1839 84.2499 16.0377 70.6038 24.5864 59.3965C24.6069 59.3696 24.6324 59.347 24.6617 59.3299C24.6909 59.3129 24.7232 59.3018 24.7568 59.2973C24.7903 59.2927 24.8244 59.2948 24.8571 59.3034C24.8898 59.3121 24.9205 59.3271 24.9474 59.3476C24.9744 59.368 24.997 59.3936 25.014 59.4229C25.031 59.4521 25.0421 59.4844 25.0466 59.5179C25.0511 59.5514 25.0489 59.5854 25.0402 59.6181C25.0316 59.6508 25.0165 59.6814 24.996 59.7083C16.5211 70.8188 13.6903 84.3648 12.808 93.772C11.8513 103.971 12.9143 111.63 12.9252 111.706C12.9303 111.742 12.9276 111.779 12.9171 111.815C12.9067 111.85 12.8888 111.883 12.8646 111.911C12.8404 111.938 12.8105 111.961 12.7769 111.976C12.7433 111.991 12.7069 111.999 12.67 111.999Z" fill="#3F3D56"/>
<path d="M20.4764 74.9229C20.422 74.9229 20.369 74.9058 20.325 74.8739C20.281 74.842 20.2482 74.797 20.2314 74.7453C20.2146 74.6937 20.2145 74.638 20.2313 74.5863C20.2481 74.5347 20.2809 74.4896 20.3248 74.4577C22.7607 72.8106 25.3922 71.4725 28.1586 70.4741C32.4806 68.8935 39.0529 67.4605 45.819 69.6116C45.8512 69.6218 45.8811 69.6383 45.9069 69.6601C45.9327 69.6819 45.954 69.7085 45.9696 69.7385C45.9851 69.7685 45.9945 69.8013 45.9974 69.8349C46.0003 69.8686 45.9965 69.9025 45.9862 69.9346C45.9759 69.9668 45.9594 69.9967 45.9376 70.0225C45.9158 70.0483 45.8892 70.0696 45.8591 70.0851C45.8291 70.1006 45.7963 70.11 45.7626 70.1129C45.7289 70.1158 45.695 70.112 45.6628 70.1017C39.0354 67.9948 32.5822 69.4041 28.3356 70.9572C25.6137 71.9384 23.0244 73.2541 20.6276 74.8738C20.5837 74.9057 20.5307 74.9229 20.4764 74.9229Z" fill="#3F3D56"/>
<path d="M124.04 89.5975C120.629 89.5975 117.329 88.3804 114.736 86.1655C113.871 85.4259 112.95 84.1401 111.997 82.3441C111.389 81.1872 111.049 79.9089 111.001 78.6032C110.953 77.2975 111.199 75.9977 111.72 74.7994C111.217 75.31 110.662 75.7653 110.062 76.1577L109.759 76.3591L109.741 75.9961C109.73 75.76 109.724 75.5246 109.724 75.2967C109.724 73.9531 110.741 72.5897 110.272 71.3478C108.295 66.1135 102.023 60.9116 111.113 52.8108C111.954 52.0614 110.83 50.5631 110.83 49.4293C110.83 38.3179 126.551 19.0947 131.007 29.2781C136.502 41.8367 145.969 40.4934 150.163 43.0874L150.224 43.2709L150.044 43.3434C149.126 43.7287 148.16 43.9856 147.171 44.1067C148.225 44.3213 149.3 44.4113 150.375 44.3748L150.541 44.3689L150.582 44.5307C150.982 46.133 151.184 47.778 151.184 49.4293L151.183 49.6078C151.179 50.862 151.44 52.1029 151.949 53.2496C152.457 54.3963 153.202 55.4231 154.134 56.263C155.607 57.6045 156.784 59.2378 157.59 61.0588C158.396 62.8799 158.814 64.8487 158.816 66.8397C158.816 69.1953 157.213 72.2874 155.868 74.4666C155.528 75.0217 155.066 75.4925 154.517 75.8437C153.968 76.1949 153.346 76.4174 152.699 76.4945C152.086 76.5717 151.463 76.5134 150.875 76.3236C150.287 76.1339 149.748 75.8174 149.296 75.3964C149.933 76.6746 150.762 77.8475 151.755 78.874L151.939 79.0628L151.711 79.1954C149.522 80.4704 147.033 81.1417 144.5 81.1408L144.351 81.1404C140.504 81.1404 136.853 82.6291 134.333 85.2249C132.995 86.6016 131.396 87.6976 129.628 88.4484C127.861 89.1993 125.961 89.59 124.04 89.5975Z" fill="#E7EB23"/>
<path d="M118.99 111.999C118.928 111.999 118.868 111.977 118.822 111.936C118.775 111.896 118.744 111.84 118.736 111.778C118.725 111.702 117.653 103.983 118.616 93.724C119.504 84.2499 122.358 70.6038 130.907 59.3965C130.927 59.3696 130.953 59.347 130.982 59.3299C131.011 59.3129 131.044 59.3018 131.077 59.2973C131.111 59.2927 131.145 59.2948 131.177 59.3034C131.21 59.3121 131.241 59.3271 131.268 59.3476C131.295 59.368 131.317 59.3936 131.334 59.4229C131.351 59.4521 131.362 59.4844 131.367 59.5179C131.371 59.5514 131.369 59.5854 131.361 59.6181C131.352 59.6508 131.337 59.6814 131.316 59.7083C122.841 70.8188 120.011 84.3648 119.128 93.772C118.172 103.971 119.235 111.63 119.245 111.706C119.251 111.742 119.248 111.779 119.237 111.815C119.227 111.85 119.209 111.883 119.185 111.911C119.161 111.938 119.131 111.961 119.097 111.976C119.064 111.991 119.027 111.999 118.99 111.999Z" fill="#3F3D56"/>
<path d="M126.09 75.4522C126.035 75.4522 125.982 75.4351 125.938 75.4032C125.894 75.3713 125.862 75.3263 125.845 75.2746C125.828 75.223 125.828 75.1673 125.845 75.1156C125.861 75.064 125.894 75.0189 125.938 74.987C128.374 73.3399 131.005 72.0018 133.772 71.0034C138.094 69.4228 144.666 67.9898 151.432 70.1409C151.464 70.1511 151.494 70.1676 151.52 70.1894C151.546 70.2112 151.567 70.2378 151.583 70.2678C151.598 70.2978 151.608 70.3306 151.611 70.3642C151.614 70.3979 151.61 70.4318 151.599 70.4639C151.589 70.4961 151.573 70.526 151.551 70.5518C151.529 70.5776 151.502 70.5989 151.472 70.6144C151.442 70.6299 151.41 70.6393 151.376 70.6422C151.342 70.645 151.308 70.6412 151.276 70.631C144.649 68.5241 138.196 69.9334 133.949 71.4865C131.227 72.4677 128.638 73.7834 126.241 75.4031C126.197 75.435 126.144 75.4522 126.09 75.4522Z" fill="#3F3D56"/>
<path d="M114.305 46.1333C114.301 46.0791 114.315 46.0251 114.343 45.979C114.372 45.9328 114.415 45.8969 114.465 45.8764C114.515 45.8559 114.571 45.8519 114.624 45.8649C114.677 45.8779 114.724 45.9073 114.759 45.9488C116.579 48.2572 118.105 50.7826 119.301 53.4671C121.19 57.6595 123.094 64.1045 121.434 71.0008C121.426 71.0336 121.411 71.0646 121.392 71.0919C121.372 71.1193 121.347 71.1424 121.318 71.1601C121.289 71.1777 121.257 71.1895 121.223 71.1948C121.19 71.2001 121.156 71.1988 121.123 71.1909C121.09 71.1829 121.059 71.1687 121.032 71.1488C121.004 71.1289 120.981 71.1038 120.964 71.075C120.946 71.0462 120.934 71.0142 120.929 70.9808C120.924 70.9474 120.925 70.9133 120.933 70.8805C122.559 64.1255 120.688 57.7975 118.831 53.6782C117.655 51.0369 116.155 48.5519 114.365 46.2804C114.33 46.239 114.309 46.1875 114.305 46.1333Z" fill="#3F3D56"/>
<path d="M8.51631 44.5454C8.51235 44.4913 8.52567 44.4372 8.55435 44.3911C8.58304 44.3449 8.62562 44.309 8.67599 44.2885C8.72636 44.268 8.78192 44.264 8.83473 44.277C8.88753 44.29 8.93485 44.3194 8.96991 44.3609C10.7899 46.6693 12.3154 49.1947 13.5115 51.8792C15.401 56.0716 17.305 62.5166 15.6445 69.4129C15.6366 69.4457 15.6223 69.4767 15.6024 69.504C15.5826 69.5314 15.5575 69.5545 15.5287 69.5722C15.4998 69.5898 15.4678 69.6017 15.4344 69.6069C15.401 69.6122 15.3668 69.6109 15.3339 69.603C15.3011 69.5951 15.2701 69.5808 15.2427 69.5609C15.2154 69.541 15.1922 69.5159 15.1745 69.4871C15.1569 69.4583 15.1451 69.4263 15.1398 69.3929C15.1346 69.3595 15.136 69.3254 15.1439 69.2926C16.7703 62.5377 14.8985 56.2096 13.0419 52.0904C11.8662 49.449 10.3661 46.964 8.57626 44.6925C8.54119 44.6511 8.5202 44.5996 8.51631 44.5454Z" fill="#3F3D56"/>
<path d="M79.5824 18.5469C79.2752 18.2323 78.8973 17.9954 78.4801 17.8559C78.0628 17.7163 77.6183 17.6782 77.1834 17.7447C76.7485 17.8111 76.3357 17.9802 75.9793 18.2379C75.6229 18.4956 75.3332 18.8345 75.1341 19.2265C70.9452 22.1388 68.2894 26.0411 67.2874 31.0112L59.8559 24.2757C59.943 23.7123 59.8493 23.1358 59.5882 22.6288C59.327 22.1219 58.9119 21.7106 58.4023 21.4539C57.8927 21.1972 57.3148 21.1084 56.7515 21.2C56.1882 21.2917 55.6684 21.5593 55.2667 21.9643C54.8651 22.3693 54.6021 22.891 54.5156 23.4546C54.4291 24.0181 54.5235 24.5945 54.7852 25.1012C55.0469 25.6078 55.4625 26.0187 55.9724 26.2748C56.4823 26.5309 57.0603 26.6191 57.6235 26.5267C58.9877 28.84 65.3157 39.0699 69.2213 36.7278C72.5041 34.7591 78.3341 25.0052 80.0469 21.7703C80.321 21.2531 80.4237 20.6623 80.3403 20.0831C80.2568 19.5038 79.9914 18.9659 79.5824 18.5469Z" fill="#FFB6B6"/>
<path d="M79.8197 23.0135C80.1929 22.0031 80.4919 20.8894 80.1683 19.8621C79.8124 18.7322 78.719 17.9233 77.5498 17.7265C76.3806 17.5297 75.1654 17.8819 74.1602 18.5099C73.1549 19.1379 72.3373 20.0249 71.611 20.9611L71.8055 20.6518C70.8599 21.8893 69.9143 23.1268 68.9688 24.3643C71.3688 26.03 73.7688 27.6956 76.1688 29.3613C77.7331 27.4646 78.9672 25.3188 79.8197 23.0135Z" fill="#6C63FF"/>
<path d="M69.4675 108.256L66.0299 108.256L64.3945 95.0098L69.4682 95.0099L69.4675 108.256Z" fill="#FFB6B6"/>
<path d="M69.587 111.838L59.0156 111.838V111.704C59.0157 110.614 59.4492 109.569 60.2209 108.798C60.9925 108.027 62.039 107.594 63.1303 107.594H63.1305L65.0615 106.131L68.6643 107.594L69.5871 107.595L69.587 111.838Z" fill="#2F2E41"/>
<path d="M119.894 59.4883L121.337 62.605L109.989 69.6488L107.859 65.0486L119.894 59.4883Z" fill="#FFB6B6"/>
<path d="M123.098 57.875L127.536 67.4595L127.415 67.5156C126.424 67.9732 125.292 68.019 124.268 67.6431C123.244 67.2671 122.411 66.5001 121.953 65.5107L121.953 65.5105L119.812 64.3742L119.63 60.4933L119.242 59.6566L123.098 57.875Z" fill="#2F2E41"/>
<path d="M43.8042 6.65108C44.5102 6.4394 44.963 5.87011 44.8156 5.37954C44.6682 4.88896 43.9764 4.66286 43.2704 4.87454C42.5645 5.08621 42.1117 5.65551 42.2591 6.14608C42.4065 6.63666 43.0983 6.86275 43.8042 6.65108Z" fill="#E6E6E6"/>
<path d="M52.5191 6.21748C53.225 6.0058 53.6778 5.43652 53.5304 4.94594C53.383 4.45536 52.6912 4.22927 51.9853 4.44094C51.2793 4.65262 50.8265 5.22191 50.9739 5.71249C51.1213 6.20306 51.8131 6.42916 52.5191 6.21748Z" fill="#3F3D56"/>
<path d="M42.4839 13.9479C43.1899 13.7363 43.6427 13.167 43.4953 12.6764C43.3478 12.1858 42.6561 11.9597 41.9501 12.1714C41.2442 12.3831 40.7914 12.9524 40.9388 13.443C41.0862 13.9335 41.778 14.1596 42.4839 13.9479Z" fill="#FF6584"/>
<path d="M39.7342 16.9966C40.0544 16.9467 40.2557 16.5335 40.184 16.0738C40.1122 15.614 39.7945 15.2817 39.4743 15.3316C39.1541 15.3814 38.9527 15.7946 39.0245 16.2544C39.0963 16.7142 39.414 17.0464 39.7342 16.9966Z" fill="#E6E6E6"/>
<path d="M39.2537 22.4849C39.5739 22.435 39.7753 22.0218 39.7035 21.5621C39.6317 21.1023 39.314 20.77 38.9938 20.8199C38.6736 20.8697 38.4722 21.2829 38.544 21.7427C38.6158 22.2024 38.9335 22.5347 39.2537 22.4849Z" fill="#3F3D56"/>
<path d="M47.7146 11.6997C48.0348 11.6498 48.2362 11.2367 48.1644 10.7769C48.0927 10.3171 47.7749 9.98482 47.4547 10.0347C47.1346 10.0846 46.9332 10.4977 47.005 10.9575C47.0767 11.4173 47.3945 11.7496 47.7146 11.6997Z" fill="#E6E6E6"/>
<path d="M43.2576 10.2427C43.5778 10.1928 43.7792 9.77964 43.7074 9.31986C43.6356 8.86009 43.3179 8.52779 42.9977 8.57766C42.6775 8.62754 42.4761 9.04069 42.5479 9.50047C42.6197 9.96025 42.9374 10.2925 43.2576 10.2427Z" fill="#FF6584"/>
<path d="M48.4686 5.56103C48.7887 5.51116 48.9901 5.098 48.9183 4.63822C48.8466 4.17844 48.5288 3.84615 48.2087 3.89602C47.8885 3.9459 47.6871 4.35905 47.7589 4.81883C47.8306 5.27861 48.1484 5.6109 48.4686 5.56103Z" fill="#3F3D56"/>
<path d="M97.2248 93.1279C97.9541 93.0219 98.4856 92.5251 98.4118 92.0182C98.3379 91.5114 97.6868 91.1864 96.9574 91.2924C96.228 91.3984 95.6966 91.8953 95.7704 92.4021C95.8442 92.909 96.4954 93.234 97.2248 93.1279Z" fill="#E6E6E6"/>
<path d="M88.5411 92.2822C89.2705 92.1762 89.802 91.6794 89.7282 91.1725C89.6543 90.6657 89.0032 90.3407 88.2738 90.4467C87.5444 90.5527 87.013 91.0496 87.0868 91.5564C87.1606 92.0633 87.8118 92.3882 88.5411 92.2822Z" fill="#3F3D56"/>
<path d="M99.6036 86.1045C100.333 85.9985 100.864 85.5017 100.791 84.9948C100.717 84.4879 100.066 84.163 99.3363 84.269C98.6069 84.375 98.0755 84.8718 98.1493 85.3787C98.2231 85.8856 98.8743 86.2105 99.6036 86.1045Z" fill="#FF6584"/>
<path d="M102.517 83.3408C102.842 83.3384 103.101 82.9592 103.098 82.4938C103.094 82.0285 102.829 81.6533 102.505 81.6557C102.181 81.6582 101.921 82.0374 101.924 82.5027C101.928 82.968 102.193 83.3433 102.517 83.3408Z" fill="#E6E6E6"/>
<path d="M103.795 77.9814C104.119 77.979 104.379 77.5998 104.375 77.1345C104.372 76.6691 104.106 76.2939 103.782 76.2963C103.458 76.2988 103.198 76.678 103.202 77.1433C103.205 77.6086 103.471 77.9839 103.795 77.9814Z" fill="#3F3D56"/>
<path d="M93.8456 87.4131C94.1696 87.4106 94.4295 87.0314 94.4259 86.5661C94.4224 86.1008 94.1569 85.7255 93.8328 85.728C93.5088 85.7304 93.2489 86.1096 93.2525 86.575C93.256 87.0403 93.5215 87.4155 93.8456 87.4131Z" fill="#E6E6E6"/>
<path d="M98.0409 89.5049C98.3649 89.5024 98.6248 89.1232 98.6213 88.6579C98.6177 88.1926 98.3522 87.8173 98.0281 87.8198C97.7041 87.8222 97.4443 88.2014 97.4478 88.6668C97.4513 89.1321 97.7169 89.5073 98.0409 89.5049Z" fill="#FF6584"/>
<path d="M92.2011 93.374C92.5251 93.3716 92.7849 92.9924 92.7814 92.527C92.7779 92.0617 92.5123 91.6865 92.1883 91.6889C91.8643 91.6914 91.6044 92.0706 91.6079 92.5359C91.6115 93.0012 91.877 93.3765 92.2011 93.374Z" fill="#3F3D56"/>
<path d="M74.8738 48.3853L72.7845 50.9412C72.832 51.6334 72.6136 52.0289 71.9648 51.944C71.9648 51.944 72.0616 53.2113 71.2666 52.798C70.4716 52.3847 70.6666 53.5321 70.6666 53.5321L70.0725 54.2588C70.0725 54.2588 70.0539 55.4948 69.468 54.9983C68.8821 54.5018 68.6942 55.9449 68.6942 55.9449L67.9487 56.857L60.3477 66.1555L64.6086 100.331L69.5886 100.019L70.8025 70.0579C71.1121 69.2317 71.5821 68.799 72.3005 68.9758C72.6224 69.0462 72.8106 68.8529 72.929 68.5218L73.5015 68.1082L80.9957 62.6949L90.8946 79.6418L115.507 66.675L113.211 62.2644L95.9445 67.971L95.4917 62.5748C94.9018 62.2316 95.0009 61.8214 95.3917 61.3829L95.2787 60.0364C95.8642 59.6776 95.574 59.1088 95.1505 58.508C94.2662 57.8557 94.3529 57.1127 94.9669 56.3205C94.9669 56.3205 95.7425 46.1846 91.9825 44.786C88.2225 43.3874 74.8738 48.3853 74.8738 48.3853Z" fill="#2F2E41"/>
<path d="M82.2541 15.1152L77.5351 15.336L75.0626 18.8644C73.3412 22.6475 72.8686 26.8794 73.7131 30.9484L75.4158 39.1531L74.9647 45.2372C73.7559 46.2113 73.6554 47.3565 74.7094 48.6799C73.4118 53.1522 84.4533 51.1394 94.6664 49.562C94.7017 47.4312 94.1489 45.2616 92.7236 43.0344L94.0978 25.2585L89.0148 19.2173L85.1245 16.6579L82.2541 15.1152Z" fill="#6C63FF"/>
<path d="M86.6699 19.9909C86.2925 20.2168 85.9745 20.5294 85.7423 20.9027C85.5101 21.276 85.3704 21.6993 85.3347 22.1373C85.299 22.5754 85.3684 23.0156 85.5371 23.4216C85.7059 23.8275 85.9691 24.1873 86.3049 24.4712C86.8743 28.1613 90.4108 31.716 95.972 34.8185L87.6959 40.4867C87.1672 40.2719 86.584 40.2299 86.03 40.3666C85.4759 40.5034 84.9795 40.812 84.6118 41.2481C84.2441 41.6841 84.0242 42.2253 83.9835 42.794C83.9427 43.3626 84.0833 43.9296 84.3851 44.4135C84.6869 44.8974 85.1343 45.2734 85.6632 45.4876C86.1921 45.7018 86.7754 45.7431 87.3293 45.6057C87.8832 45.4683 88.3793 45.1592 88.7465 44.7227C89.1136 44.2862 89.333 43.7448 89.3731 43.1761C91.9412 42.3842 103.366 38.5953 101.987 34.2585C100.827 30.6133 92.6723 22.6951 89.9168 20.2836C89.4763 19.8977 88.9246 19.6614 88.3411 19.6088C87.7576 19.5562 87.1724 19.69 86.6699 19.9909Z" fill="#FFB6B6"/>
<path d="M77.6691 36.5203C77.119 36.5194 76.5894 36.3115 76.1858 35.9381C75.7822 35.5647 75.5342 35.0531 75.4911 34.5053L75.1981 30.773C75.1527 30.195 75.3391 29.6227 75.7161 29.182C76.0931 28.7413 76.63 28.4682 77.2085 28.4229L84.4662 27.8543C85.0447 27.8091 85.6176 27.9952 86.0588 28.3718C86.5 28.7484 86.7733 29.2847 86.8187 29.8626L87.1117 33.5949C87.1571 34.1728 86.9708 34.7451 86.5937 35.1859C86.2167 35.6266 85.6799 35.8997 85.1013 35.945L77.8436 36.5135C77.7853 36.5181 77.7271 36.5204 77.6691 36.5203Z" fill="#F2F2F2"/>
<path d="M78.7137 14.221C82.1261 14.221 84.8923 11.4577 84.8923 8.04898C84.8923 4.64026 82.1261 1.87695 78.7137 1.87695C75.3014 1.87695 72.5352 4.64026 72.5352 8.04898C72.5352 11.4577 75.3014 14.221 78.7137 14.221Z" fill="#FFB6B6"/>
<path d="M85.1367 4.12082C84.8438 3.74116 84.5087 3.39246 84.2538 2.98644C84.0083 2.59553 83.8407 2.15674 83.564 1.78725C82.7456 0.694463 81.2239 0.470996 79.8645 0.334898C78.9669 0.245039 78.0693 0.155179 77.1717 0.0653125C76.6673 -0.00602161 76.156 -0.015246 75.6494 0.0378514C75.1673 0.112639 74.7092 0.297895 74.3108 0.579108C73.9124 0.86032 73.5846 1.22985 73.3531 1.65876C73.0901 2.15586 72.9144 2.77541 72.4016 3.00727C72.1599 3.08339 71.9138 3.14451 71.6646 3.19029C71.4223 3.26535 71.1788 3.45872 71.1879 3.71195C71.2046 4.18086 72.0329 4.44927 71.8308 4.87284C71.6523 5.2469 70.9377 4.98149 70.8363 5.54617C70.8226 5.62766 70.8261 5.71112 70.8466 5.79119C70.867 5.87126 70.904 5.94618 70.9551 6.01116C71.1855 6.30605 71.5638 6.38268 71.9182 6.44775L71.2887 7.34714C73.327 8.18382 75.5962 8.27182 77.6934 7.5955C78.0065 7.49187 78.3406 7.46842 78.6651 7.52729C78.9896 7.58617 79.2941 7.72549 79.5507 7.93248C79.8073 8.13946 80.0078 8.40749 80.1338 8.71199C80.2597 9.01649 80.3072 9.3477 80.2717 9.67526L80.2688 9.70082C80.2552 9.79958 80.2686 9.90019 80.3076 9.99195C80.3466 10.0837 80.4098 10.1632 80.4905 10.2219C80.81 10.4388 81.1345 10.1345 81.2793 9.83345C81.4267 9.52719 81.5245 9.15564 81.881 9.04832C82.0265 9.01165 82.18 9.02313 82.3183 9.08105C82.4567 9.13896 82.5726 9.24018 82.6484 9.36948C82.9257 9.80417 82.8118 10.323 82.6523 10.783C82.2832 11.8446 81.6839 12.8116 80.8973 13.615C82.2397 13.5264 81.8469 13.6608 83.1893 13.5721L83.5636 13.6303C84.4619 13.0705 84.9071 12.0054 85.1439 10.9746C85.6812 8.63626 86.6024 6.02134 85.1367 4.12082Z" fill="#2F2E41"/>
<path d="M90.3726 19.4854C89.4804 18.8808 88.4699 18.3233 87.3939 18.3902C86.2105 18.4639 85.1617 19.3298 84.6895 20.4163C84.2174 21.5028 84.2677 22.7657 84.6364 23.8914C85.0052 25.017 85.6707 26.0229 86.406 26.9522L86.1521 26.6892C87.1275 27.9035 88.1028 29.1177 89.0782 30.3319C91.2734 28.4048 93.4686 26.4778 95.6638 24.5507C94.1965 22.5781 92.4078 20.8659 90.3726 19.4854Z" fill="#6C63FF"/>
<path d="M78.543 111.513L78.5457 111.39C78.6014 109.328 79.106 107.303 80.0244 105.455C80.9428 103.608 82.2529 101.982 83.8638 100.691C84.7731 99.9745 85.7691 99.375 86.8284 98.9068L86.9294 98.8618L86.9467 98.9709C87.1518 100.273 87.4766 101.602 87.628 102.192L88.6425 98.2373L88.7552 98.2048C89.2721 98.0532 89.8226 98.0597 90.3358 98.2235C90.849 98.3873 91.3013 98.7008 91.6345 99.1237C91.9821 99.5468 92.1951 100.064 92.2458 100.609C92.2965 101.154 92.1827 101.702 91.9191 102.181C91.6826 102.622 91.4502 103.081 91.2254 103.525C90.4529 105.051 89.6541 106.629 88.4902 107.854C87.6 108.774 86.5155 109.483 85.3159 109.93C84.1164 110.377 82.832 110.551 81.5566 110.438L78.543 111.513Z" fill="#F2F2F2"/>
<path d="M92.8799 111.871L44.8861 111.926C44.8585 111.926 44.8311 111.92 44.8056 111.91C44.7801 111.899 44.7569 111.884 44.7374 111.864C44.7178 111.844 44.7024 111.821 44.6918 111.796C44.6812 111.77 44.6758 111.743 44.6758 111.715C44.6758 111.688 44.6812 111.661 44.6918 111.635C44.7024 111.61 44.7178 111.586 44.7374 111.567C44.7569 111.547 44.7801 111.532 44.8056 111.521C44.8311 111.511 44.8585 111.505 44.8861 111.505L92.8799 111.451C92.9357 111.451 92.9892 111.473 93.0286 111.513C93.0681 111.552 93.0902 111.606 93.0902 111.661C93.0902 111.717 93.0681 111.77 93.0286 111.81C92.9892 111.849 92.9357 111.871 92.8799 111.871Z" fill="#CACACA"/>
<path d="M137.738 111.871L110.054 111.926C110.026 111.926 109.999 111.92 109.974 111.91C109.948 111.899 109.925 111.884 109.905 111.864C109.886 111.844 109.87 111.821 109.86 111.796C109.849 111.77 109.844 111.743 109.844 111.715C109.844 111.688 109.849 111.661 109.86 111.635C109.87 111.61 109.886 111.586 109.905 111.567C109.925 111.547 109.948 111.532 109.974 111.521C109.999 111.511 110.026 111.505 110.054 111.505L137.738 111.451C137.793 111.451 137.847 111.473 137.886 111.513C137.926 111.552 137.948 111.606 137.948 111.661C137.948 111.717 137.926 111.77 137.886 111.81C137.847 111.849 137.793 111.871 137.738 111.871Z" fill="#CACACA"/>
<path d="M27.7099 111.871L1.79232 111.926C1.7647 111.926 1.73736 111.92 1.71185 111.91C1.68633 111.899 1.66315 111.884 1.64362 111.864C1.6241 111.844 1.60861 111.821 1.59804 111.796C1.58747 111.77 1.58203 111.743 1.58203 111.715C1.58203 111.688 1.58747 111.661 1.59804 111.635C1.60861 111.61 1.6241 111.586 1.64362 111.567C1.66315 111.547 1.68633 111.532 1.71185 111.521C1.73736 111.511 1.7647 111.505 1.79232 111.505L27.7099 111.451C27.7376 111.451 27.765 111.456 27.7906 111.467C27.8161 111.478 27.8394 111.493 27.859 111.512C27.8786 111.532 27.8941 111.555 27.9047 111.581C27.9153 111.606 27.9208 111.634 27.9208 111.661C27.9208 111.689 27.9153 111.716 27.9047 111.742C27.8941 111.767 27.8786 111.79 27.859 111.81C27.8394 111.83 27.8161 111.845 27.7906 111.855C27.765 111.866 27.7376 111.871 27.7099 111.871Z" fill="#CACACA"/>
<path d="M55.7838 17.6895C55.6819 17.6894 55.5812 17.7105 55.4879 17.7514C55.3946 17.7922 55.3108 17.852 55.2418 17.9268C55.1728 18.0016 55.12 18.0899 55.0869 18.1862C55.0538 18.2824 55.041 18.3844 55.0494 18.4858C55.802 22.029 56.133 25.4077 55.8781 28.558C55.8942 28.7418 55.9784 28.913 56.1143 29.038C56.2501 29.163 56.4278 29.2328 56.6125 29.2338H61.3668C61.5515 29.2328 61.7292 29.163 61.865 29.038C62.0009 28.913 62.0851 28.7418 62.1012 28.558C61.7171 25.3804 62.1233 21.9877 62.9299 18.4858C62.9383 18.3844 62.9255 18.2824 62.8924 18.1862C62.8592 18.0899 62.8065 18.0016 62.7375 17.9268C62.6685 17.852 62.5847 17.7922 62.4914 17.7514C62.3981 17.7105 62.2974 17.6894 62.1955 17.6895H55.7838Z" fill="#6C63FF"/>
<path d="M63.3089 19.0315L62.9542 17.3484C62.922 17.1954 62.838 17.0581 62.7164 16.9595C62.5948 16.861 62.443 16.8072 62.2864 16.8072H60.0722C60.0635 16.7778 60.0494 16.7503 60.0306 16.7262L59.7845 16.419C59.7614 16.39 59.7319 16.3666 59.6985 16.3506C59.665 16.3345 59.6284 16.3262 59.5913 16.3262H58.2241C58.187 16.3262 58.1503 16.3345 58.1169 16.3506C58.0834 16.3666 58.054 16.39 58.0308 16.419L57.7848 16.7262C57.766 16.7503 57.7519 16.7778 57.7432 16.8072H55.6894C55.5329 16.8072 55.3811 16.861 55.2595 16.9595C55.1379 17.0581 55.0539 17.1954 55.0217 17.3484L54.667 19.0315C54.6461 19.1307 54.6476 19.2334 54.6714 19.332C54.6953 19.4306 54.7409 19.5227 54.8048 19.6014C54.8688 19.6802 54.9496 19.7437 55.0413 19.7873C55.1329 19.831 55.2332 19.8536 55.3347 19.8536C57.6541 20.5878 60.0896 20.5878 62.6411 19.8536C62.7427 19.8536 62.843 19.831 62.9346 19.7873C63.0263 19.7437 63.1071 19.6802 63.1711 19.6014C63.235 19.5227 63.2806 19.4306 63.3045 19.332C63.3283 19.2334 63.3298 19.1308 63.3089 19.0315Z" fill="#3F3D56"/>
</g>
<defs>
<clipPath id="clip0_1144_2251">
<rect width="158.815" height="112" fill="white"/>
</clipPath>
</defs>
</svg>
