<svg width="10" height="13" viewBox="0 0 10 13" fill="none" xmlns="http://www.w3.org/2000/svg">
<path d="M9.78998 5.73036C9.72363 5.79747 9.64481 5.85072 9.55801 5.88705C9.47121 5.92338 9.37816 5.94209 9.28417 5.94209C9.19019 5.94209 9.09714 5.92338 9.01034 5.88705C8.92354 5.85072 8.84471 5.79747 8.77837 5.73036L5.71441 2.64157V11.4598C5.71441 11.6507 5.63918 11.8338 5.50526 11.9688C5.37135 12.1038 5.18972 12.1797 5.00034 12.1797C4.81095 12.1797 4.62933 12.1038 4.49541 11.9688C4.3615 11.8338 4.28627 11.6507 4.28627 11.4598V2.64157L1.22111 5.73036C1.08696 5.86559 0.905023 5.94157 0.715311 5.94157C0.525599 5.94157 0.343656 5.86559 0.20951 5.73036C0.075363 5.59513 1.99894e-09 5.41171 0 5.22046C-1.99894e-09 5.02921 0.075363 4.8458 0.20951 4.71056L4.49394 0.391413C4.56028 0.324304 4.63911 0.271056 4.72591 0.234723C4.8127 0.19839 4.90576 0.179688 4.99974 0.179688C5.09372 0.179688 5.18678 0.19839 5.27358 0.234723C5.36038 0.271056 5.4392 0.324304 5.50554 0.391413L9.78998 4.71056C9.85655 4.77744 9.90937 4.85691 9.94541 4.94441C9.98145 5.03191 10 5.12572 10 5.22046C10 5.3152 9.98145 5.40902 9.94541 5.49652C9.90937 5.58402 9.85655 5.66348 9.78998 5.73036Z" fill="#DB7600"/>
</svg>
