<svg width="11" height="13" viewBox="0 0 11 13" fill="none" xmlns="http://www.w3.org/2000/svg">
<path d="M0.698307 7.13487C0.764647 7.06776 0.843474 7.01452 0.930271 6.97818C1.01707 6.94185 1.11013 6.92315 1.20411 6.92315C1.29809 6.92315 1.39115 6.94185 1.47794 6.97818C1.56474 7.01452 1.64357 7.06776 1.70991 7.13487L4.77387 10.2237L4.77387 1.4054C4.77387 1.21449 4.84911 1.03139 4.98302 0.896389C5.11693 0.761389 5.29856 0.685546 5.48795 0.685546C5.67733 0.685546 5.85896 0.761389 5.99287 0.896389C6.12678 1.03139 6.20202 1.21449 6.20202 1.4054L6.20202 10.2237L9.26717 7.13487C9.40132 6.99964 9.58326 6.92367 9.77297 6.92367C9.96268 6.92367 10.1446 6.99964 10.2788 7.13487C10.4129 7.27011 10.4883 7.45352 10.4883 7.64477C10.4883 7.83602 10.4129 8.01944 10.2788 8.15467L5.99434 12.4738C5.928 12.5409 5.84917 12.5942 5.76238 12.6305C5.67558 12.6668 5.58252 12.6855 5.48854 12.6855C5.39456 12.6855 5.3015 12.6668 5.2147 12.6305C5.12791 12.5942 5.04908 12.5409 4.98274 12.4738L0.698306 8.15467C0.631736 8.08779 0.578916 8.00833 0.542876 7.92083C0.506834 7.83333 0.488282 7.73952 0.488282 7.64477C0.488282 7.55003 0.506834 7.45622 0.542876 7.36872C0.578916 7.28122 0.631736 7.20175 0.698307 7.13487Z" fill="#035BE2"/>
</svg>
