<svg width="43" height="43" viewBox="0 0 43 43" fill="none" xmlns="http://www.w3.org/2000/svg">
<path fill-rule="evenodd" clip-rule="evenodd" d="M25.0833 4.92773C24.4894 4.92773 23.9197 5.16369 23.4997 5.58369C23.0797 6.0037 22.8438 6.57334 22.8438 7.16732C22.8438 7.76129 23.0797 8.33094 23.4997 8.75094C23.9197 9.17095 24.4894 9.4069 25.0833 9.4069C25.6773 9.4069 26.247 9.17095 26.667 8.75094C27.087 8.33094 27.3229 7.76129 27.3229 7.16732C27.3229 6.57334 27.087 6.0037 26.667 5.58369C26.247 5.16369 25.6773 4.92773 25.0833 4.92773ZM20.1562 7.16732C20.1562 5.86057 20.6754 4.60735 21.5994 3.68334C22.5234 2.75934 23.7766 2.24023 25.0833 2.24023C26.3901 2.24023 27.6433 2.75934 28.5673 3.68334C29.4913 4.60735 30.0104 5.86057 30.0104 7.16732C30.0104 8.47406 29.4913 9.72728 28.5673 10.6513C27.6433 11.5753 26.3901 12.0944 25.0833 12.0944C23.7766 12.0944 22.5234 11.5753 21.5994 10.6513C20.6754 9.72728 20.1562 8.47406 20.1562 7.16732ZM19.5632 15.2406C19.1867 14.9397 18.7503 14.7228 18.2831 14.6044C17.816 14.4859 17.3289 14.4687 16.8545 14.5537C16.3802 14.6388 15.9295 14.8243 15.5326 15.0977C15.1357 15.3711 14.8019 15.7261 14.5534 16.1391C14.3049 16.552 14.1475 17.0132 14.0917 17.4919C14.036 17.9706 14.0831 18.4557 14.2301 18.9147C14.377 19.3737 14.6204 19.7959 14.9438 20.1532C15.2672 20.5105 15.6632 20.7946 16.1053 20.9864L21.6415 23.4034C22.7863 23.9032 23.687 24.8355 24.1468 25.997C24.6067 27.1584 24.5885 28.4545 24.0961 29.6026L22.7345 32.7792C22.5859 33.0938 22.3212 33.3385 21.9959 33.4618C21.6707 33.5852 21.3103 33.5776 20.9905 33.4407C20.6707 33.3038 20.4165 33.0482 20.2813 32.7277C20.1461 32.4072 20.1404 32.0467 20.2655 31.7221L21.6272 28.5419C21.8397 28.0461 21.8474 27.4863 21.6487 26.9849C21.45 26.4834 21.061 26.0808 20.5665 25.8652L15.0303 23.45C14.2381 23.1049 13.5286 22.5947 12.9494 21.9535C12.3702 21.3122 11.9346 20.5547 11.6717 19.7316C11.4088 18.9084 11.3247 18.0386 11.425 17.1804C11.5252 16.3221 11.8076 15.4951 12.2531 14.7548C12.6987 14.0144 13.2972 13.3777 14.0086 12.8872C14.72 12.3967 15.528 12.0638 16.3784 11.9106C17.2288 11.7575 18.1021 11.7877 18.94 11.9992C19.7778 12.2107 20.5608 12.5987 21.2366 13.1372L25.1048 16.217C25.3951 16.448 25.7551 16.5737 26.1261 16.5736H33.1458C33.5022 16.5736 33.844 16.7151 34.096 16.9671C34.348 17.2191 34.4896 17.5609 34.4896 17.9173C34.4896 18.2737 34.348 18.6155 34.096 18.8675C33.844 19.1195 33.5022 19.2611 33.1458 19.2611H26.1261C25.1465 19.2609 24.196 18.9287 23.4296 18.3187L19.565 15.2406H19.5632ZM10.75 28.2194C9.68085 28.2194 8.65548 28.6441 7.89948 29.4001C7.14347 30.1561 6.71875 31.1815 6.71875 32.2507C6.71875 33.3198 7.14347 34.3452 7.89948 35.1012C8.65548 35.8572 9.68085 36.2819 10.75 36.2819C11.8192 36.2819 12.8445 35.8572 13.6005 35.1012C14.3565 34.3452 14.7812 33.3198 14.7812 32.2507C14.7812 31.1815 14.3565 30.1561 13.6005 29.4001C12.8445 28.6441 11.8192 28.2194 10.75 28.2194ZM4.03125 32.2507C4.03125 30.4687 4.73912 28.7598 5.99913 27.4998C7.25914 26.2398 8.96808 25.5319 10.75 25.5319C12.5319 25.5319 14.2409 26.2398 15.5009 27.4998C16.7609 28.7598 17.4688 30.4687 17.4688 32.2507C17.4688 34.0326 16.7609 35.7415 15.5009 37.0015C14.2409 38.2615 12.5319 38.9694 10.75 38.9694C8.96808 38.9694 7.25914 38.2615 5.99913 37.0015C4.73912 35.7415 4.03125 34.0326 4.03125 32.2507ZM32.25 28.2194C31.1808 28.2194 30.1555 28.6441 29.3995 29.4001C28.6435 30.1561 28.2188 31.1815 28.2188 32.2507C28.2188 33.3198 28.6435 34.3452 29.3995 35.1012C30.1555 35.8572 31.1808 36.2819 32.25 36.2819C33.3192 36.2819 34.3445 35.8572 35.1005 35.1012C35.8565 34.3452 36.2812 33.3198 36.2812 32.2507C36.2812 31.1815 35.8565 30.1561 35.1005 29.4001C34.3445 28.6441 33.3192 28.2194 32.25 28.2194ZM25.5312 32.2507C25.5312 30.4687 26.2391 28.7598 27.4991 27.4998C28.7591 26.2398 30.4681 25.5319 32.25 25.5319C34.0319 25.5319 35.7409 26.2398 37.0009 27.4998C38.2609 28.7598 38.9688 30.4687 38.9688 32.2507C38.9688 34.0326 38.2609 35.7415 37.0009 37.0015C35.7409 38.2615 34.0319 38.9694 32.25 38.9694C30.4681 38.9694 28.7591 38.2615 27.4991 37.0015C26.2391 35.7415 25.5312 34.0326 25.5312 32.2507Z" fill="#74D413"/>
</svg>
