<svg width="77" height="61" viewBox="0 0 77 61" fill="none" xmlns="http://www.w3.org/2000/svg">
<rect x="0.5" y="0.5" width="76" height="60" rx="14" fill="#2C2535"/>
<path fill-rule="evenodd" clip-rule="evenodd" d="M41.5769 17.6951C41.0669 17.6951 40.5777 17.8878 40.2171 18.2309C39.8565 18.574 39.6538 19.0392 39.6538 19.5244C39.6538 20.0095 39.8565 20.4748 40.2171 20.8179C40.5777 21.1609 41.0669 21.3537 41.5769 21.3537C42.087 21.3537 42.5761 21.1609 42.9367 20.8179C43.2974 20.4748 43.5 20.0095 43.5 19.5244C43.5 19.0392 43.2974 18.574 42.9367 18.2309C42.5761 17.8878 42.087 17.6951 41.5769 17.6951ZM37.3462 19.5244C37.3462 18.4571 37.7919 17.4334 38.5853 16.6787C39.3787 15.924 40.4549 15.5 41.5769 15.5C42.699 15.5 43.7751 15.924 44.5685 16.6787C45.362 17.4334 45.8077 18.4571 45.8077 19.5244C45.8077 20.5917 45.362 21.6153 44.5685 22.3701C43.7751 23.1248 42.699 23.5488 41.5769 23.5488C40.4549 23.5488 39.3787 23.1248 38.5853 22.3701C37.7919 21.6153 37.3462 20.5917 37.3462 19.5244ZM36.8369 26.1185C36.5136 25.8728 36.1389 25.6957 35.7377 25.5989C35.3366 25.5022 34.9184 25.488 34.5111 25.5575C34.1037 25.627 33.7167 25.7785 33.3759 26.0018C33.0352 26.2251 32.7485 26.5151 32.5351 26.8524C32.3217 27.1897 32.1866 27.5664 32.1387 27.9574C32.0908 28.3484 32.1313 28.7446 32.2575 29.1195C32.3837 29.4944 32.5926 29.8393 32.8703 30.1312C33.148 30.423 33.4881 30.655 33.8677 30.8117L38.6215 32.7859C39.6045 33.1941 40.3779 33.9556 40.7728 34.9042C41.1676 35.8529 41.152 36.9116 40.7292 37.8493L39.56 40.4439C39.4325 40.7008 39.2051 40.9007 38.9258 41.0015C38.6466 41.1022 38.3371 41.0961 38.0625 40.9842C37.7879 40.8724 37.5696 40.6636 37.4535 40.4018C37.3374 40.14 37.3326 39.8456 37.44 39.5805L38.6092 36.9829C38.7917 36.578 38.7983 36.1208 38.6277 35.7111C38.4571 35.3015 38.123 34.9728 37.6985 34.7966L32.9446 32.8239C32.2643 32.5421 31.6552 32.1253 31.1578 31.6016C30.6605 31.0778 30.2864 30.4591 30.0607 29.7867C29.8349 29.1144 29.7627 28.404 29.8488 27.7029C29.9349 27.0019 30.1774 26.3265 30.5599 25.7217C30.9425 25.117 31.4565 24.5969 32.0673 24.1963C32.6782 23.7957 33.372 23.5238 34.1022 23.3987C34.8324 23.2736 35.5823 23.2983 36.3018 23.471C37.0212 23.6438 37.6935 23.9607 38.2738 24.4005L41.5954 26.9161C41.8446 27.1047 42.1538 27.2074 42.4723 27.2073H48.5C48.806 27.2073 49.0995 27.323 49.3159 27.5288C49.5323 27.7346 49.6538 28.0138 49.6538 28.3049C49.6538 28.596 49.5323 28.8751 49.3159 29.081C49.0995 29.2868 48.806 29.4024 48.5 29.4024H42.4723C41.6312 29.4023 40.815 29.131 40.1569 28.6327L36.8385 26.1185H36.8369ZM29.2692 36.7195C28.3512 36.7195 27.4707 37.0664 26.8216 37.6839C26.1724 38.3014 25.8077 39.1389 25.8077 40.0122C25.8077 40.8855 26.1724 41.723 26.8216 42.3405C27.4707 42.958 28.3512 43.3049 29.2692 43.3049C30.1873 43.3049 31.0677 42.958 31.7169 42.3405C32.3661 41.723 32.7308 40.8855 32.7308 40.0122C32.7308 39.1389 32.3661 38.3014 31.7169 37.6839C31.0677 37.0664 30.1873 36.7195 29.2692 36.7195ZM23.5 40.0122C23.5 38.5567 24.1078 37.1609 25.1898 36.1317C26.2717 35.1026 27.7391 34.5244 29.2692 34.5244C30.7993 34.5244 32.2668 35.1026 33.3487 36.1317C34.4306 37.1609 35.0385 38.5567 35.0385 40.0122C35.0385 41.4677 34.4306 42.8635 33.3487 43.8927C32.2668 44.9218 30.7993 45.5 29.2692 45.5C27.7391 45.5 26.2717 44.9218 25.1898 43.8927C24.1078 42.8635 23.5 41.4677 23.5 40.0122ZM47.7308 36.7195C46.8127 36.7195 45.9323 37.0664 45.2831 37.6839C44.6339 38.3014 44.2692 39.1389 44.2692 40.0122C44.2692 40.8855 44.6339 41.723 45.2831 42.3405C45.9323 42.958 46.8127 43.3049 47.7308 43.3049C48.6488 43.3049 49.5293 42.958 50.1784 42.3405C50.8276 41.723 51.1923 40.8855 51.1923 40.0122C51.1923 39.1389 50.8276 38.3014 50.1784 37.6839C49.5293 37.0664 48.6488 36.7195 47.7308 36.7195ZM41.9615 40.0122C41.9615 38.5567 42.5694 37.1609 43.6513 36.1317C44.7332 35.1026 46.2007 34.5244 47.7308 34.5244C49.2609 34.5244 50.7283 35.1026 51.8102 36.1317C52.8922 37.1609 53.5 38.5567 53.5 40.0122C53.5 41.4677 52.8922 42.8635 51.8102 43.8927C50.7283 44.9218 49.2609 45.5 47.7308 45.5C46.2007 45.5 44.7332 44.9218 43.6513 43.8927C42.5694 42.8635 41.9615 41.4677 41.9615 40.0122Z" fill="#F7F7F7"/>
</svg>
