<svg width="18" height="18" viewBox="0 0 18 18" fill="none" xmlns="http://www.w3.org/2000/svg">
<path d="M10.0435 8.94186C10.0435 8.6458 9.93354 8.36187 9.73785 8.15253C9.54216 7.94319 9.27675 7.82558 9 7.82558C8.72325 7.82558 8.45784 7.94319 8.26215 8.15253C8.06646 8.36187 7.95652 8.6458 7.95652 8.94186C7.95652 9.23791 8.06646 9.52184 8.26215 9.73118C8.45784 9.94053 8.72325 10.0581 9 10.0581C9.27675 10.0581 9.54216 9.94053 9.73785 9.73118C9.93354 9.52184 10.0435 9.23791 10.0435 8.94186ZM1 8.94186C0.999184 7.43543 1.36816 5.95518 2.07 4.64919C2.77185 3.34319 3.78197 2.25725 4.99931 1.5L7.608 6.36325C7.18493 6.62455 6.83367 7.00045 6.58955 7.45312C6.34543 7.90579 6.21707 8.41926 6.21739 8.94186H1ZM7.6087 11.5205L5 16.3539C6.21553 17.1066 7.59552 17.502 9 17.5C10.4045 17.5023 11.7846 17.1069 13 16.3539L10.3913 11.5205C9.96846 11.7821 9.48847 11.9194 9 11.9186C8.51152 11.9195 8.03151 11.7821 7.6087 11.5205ZM11.7826 8.94186H17C17.0008 7.43543 16.6318 5.95518 15.93 4.64919C15.2281 3.34319 14.218 2.25725 13.0007 1.5L10.392 6.36325C10.8149 6.62478 11.166 7.00073 11.4101 7.45335C11.6542 7.90597 11.7826 8.41932 11.7826 8.94186Z" stroke="#74D413"/>
</svg>
