<svg width="20" height="20" viewBox="0 0 20 20" fill="none" xmlns="http://www.w3.org/2000/svg">
<g clip-path="url(#clip0_528_2226)">
<path d="M15.9375 17.9922H13.5625C13.2478 17.9912 12.9463 17.8658 12.7239 17.6433C12.5014 17.4208 12.3759 17.1193 12.375 16.8047V12.6484C12.0603 12.6475 11.7588 12.5221 11.5364 12.2996C11.3139 12.0771 11.1884 11.7756 11.1875 11.4609V7.89844C11.1832 7.66332 11.2263 7.42975 11.3142 7.21167C11.4022 6.99359 11.5333 6.79549 11.6995 6.62921C11.8658 6.46294 12.0639 6.33189 12.282 6.24392C12.5001 6.15594 12.7336 6.11284 12.9688 6.11719H16.5313C16.7664 6.11284 16.9999 6.15594 17.218 6.24392C17.4361 6.33189 17.6342 6.46294 17.8005 6.62921C17.9668 6.79549 18.0978 6.99359 18.1858 7.21167C18.2738 7.42975 18.3169 7.66332 18.3125 7.89844V11.4609C18.3116 11.7756 18.1862 12.0771 17.9637 12.2996C17.7412 12.5221 17.4397 12.6475 17.125 12.6484V16.8047C17.1241 17.1193 16.9987 17.4208 16.7762 17.6433C16.5537 17.8658 16.2522 17.9912 15.9375 17.9922ZM12.9688 7.30469C12.8895 7.29993 12.8102 7.31202 12.736 7.34018C12.6618 7.36833 12.5944 7.4119 12.5383 7.46802C12.4822 7.52413 12.4386 7.59151 12.4105 7.66571C12.3823 7.7399 12.3702 7.81922 12.375 7.89844V11.4609H13.5625V16.8047H15.9375V11.4609H17.125V7.89844C17.1298 7.81922 17.1177 7.7399 17.0895 7.66571C17.0614 7.59151 17.0178 7.52413 16.9617 7.46802C16.9056 7.4119 16.8382 7.36833 16.764 7.34018C16.6898 7.31202 16.6105 7.29993 16.5313 7.30469H12.9688ZM14.75 5.52344C14.2803 5.52344 13.8211 5.38415 13.4305 5.12318C13.04 4.86221 12.7355 4.49129 12.5558 4.05731C12.376 3.62334 12.329 3.1458 12.4206 2.6851C12.5123 2.22439 12.7385 1.80121 13.0706 1.46906C13.4028 1.13691 13.826 0.910713 14.2867 0.819074C14.7474 0.727434 15.2249 0.774467 15.6589 0.954225C16.0929 1.13398 16.4638 1.43839 16.7247 1.82896C16.9857 2.21953 17.125 2.67871 17.125 3.14844C17.1231 3.77775 16.8723 4.38075 16.4273 4.82574C15.9823 5.27073 15.3793 5.52156 14.75 5.52344ZM14.75 1.96094C14.5151 1.96094 14.2855 2.03058 14.0903 2.16107C13.895 2.29155 13.7428 2.47701 13.6529 2.694C13.563 2.91099 13.5395 3.14976 13.5853 3.38011C13.6311 3.61046 13.7442 3.82205 13.9103 3.98813C14.0764 4.1542 14.288 4.2673 14.5183 4.31312C14.7487 4.35894 14.9875 4.33542 15.2044 4.24555C15.4214 4.15567 15.6069 4.00346 15.7374 3.80818C15.8679 3.61289 15.9375 3.3833 15.9375 3.14844C15.9366 2.83378 15.8112 2.53228 15.5887 2.30979C15.3662 2.08729 15.0647 1.96188 14.75 1.96094ZM6.4375 12.1639V7.30469H5.25V12.1639C4.85385 12.304 4.51996 12.5796 4.30735 12.942C4.09474 13.3045 4.0171 13.7304 4.08816 14.1445C4.15921 14.5587 4.37438 14.9344 4.69564 15.2052C5.0169 15.476 5.42356 15.6246 5.84375 15.6246C6.26394 15.6246 6.6706 15.476 6.99186 15.2052C7.31312 14.9344 7.5283 14.5587 7.59935 14.1445C7.67041 13.7304 7.59277 13.3045 7.38016 12.942C7.16755 12.5796 6.83366 12.304 6.4375 12.1639Z" fill="white"/>
<path d="M5.84427 17.9922C5.02606 17.9931 4.22583 17.7523 3.54404 17.2999C2.86226 16.8476 2.32932 16.2038 2.01215 15.4496C1.69498 14.6954 1.60772 13.8643 1.76133 13.0606C1.91493 12.257 2.30255 11.5166 2.87552 10.9325V4.33594C2.87552 3.54858 3.18829 2.79346 3.74504 2.23671C4.30179 1.67997 5.05691 1.36719 5.84427 1.36719C6.63163 1.36719 7.38674 1.67997 7.94349 2.23671C8.50024 2.79346 8.81302 3.54858 8.81302 4.33594V10.9325C9.38598 11.5166 9.7736 12.257 9.92721 13.0606C10.0808 13.8643 9.99355 14.6954 9.67638 15.4496C9.35921 16.2038 8.82627 16.8476 8.14449 17.2999C7.46271 17.7523 6.66247 17.9931 5.84427 17.9922ZM5.84427 2.55469C5.37199 2.55516 4.9192 2.74298 4.58525 3.07692C4.25131 3.41087 4.06349 3.86367 4.06302 4.33594V11.4508L3.86589 11.6284C3.41754 12.0291 3.10145 12.5565 2.95946 13.1409C2.81747 13.7252 2.85628 14.3389 3.07075 14.9007C3.28522 15.4625 3.66524 15.9459 4.16051 16.2869C4.65577 16.628 5.24293 16.8106 5.84427 16.8106C6.4456 16.8106 7.03276 16.628 7.52803 16.2869C8.02329 15.9459 8.40331 15.4625 8.61778 14.9007C8.83225 14.3389 8.87106 13.7252 8.72907 13.1409C8.58708 12.5565 8.27099 12.0291 7.82264 11.6284L7.62552 11.4508V4.33594C7.62504 3.86367 7.43723 3.41087 7.10328 3.07692C6.76933 2.74298 6.31654 2.55516 5.84427 2.55469Z" fill="white"/>
</g>
<defs>
<clipPath id="clip0_528_2226">
<rect width="19" height="19" fill="white" transform="translate(0.5 0.179688)"/>
</clipPath>
</defs>
</svg>
