<svg width="43" height="43" viewBox="0 0 43 43" fill="none" xmlns="http://www.w3.org/2000/svg">
<path fill-rule="evenodd" clip-rule="evenodd" d="M20.6043 6.71875C20.1925 6.71875 19.7848 6.79985 19.4044 6.95742C19.024 7.11499 18.6784 7.34594 18.3872 7.63709C18.0961 7.92824 17.8651 8.27389 17.7075 8.65429C17.55 9.0347 17.4689 9.44242 17.4689 9.85417C17.4689 10.2659 17.55 10.6736 17.7075 11.054C17.8651 11.4344 18.0961 11.7801 18.3872 12.0712C18.6784 12.3624 19.024 12.5933 19.4044 12.7509C19.7848 12.9085 20.1925 12.9896 20.6043 12.9896C21.4359 12.9896 22.2334 12.6592 22.8214 12.0712C23.4094 11.4832 23.7397 10.6857 23.7397 9.85417C23.7397 9.0226 23.4094 8.2251 22.8214 7.63709C22.2334 7.04909 21.4359 6.71875 20.6043 6.71875ZM14.7814 9.85417C14.7814 9.08949 14.932 8.3323 15.2246 7.62583C15.5172 6.91936 15.9462 6.27745 16.4869 5.73674C17.0276 5.19603 17.6695 4.76712 18.376 4.47449C19.0824 4.18186 19.8396 4.03125 20.6043 4.03125C21.369 4.03125 22.1262 4.18186 22.8326 4.47449C23.5391 4.76712 24.181 5.19603 24.7217 5.73674C25.2624 6.27745 25.6913 6.91936 25.984 7.62583C26.2766 8.3323 26.4272 9.08949 26.4272 9.85417C26.4272 11.3985 25.8137 12.8796 24.7217 13.9716C23.6297 15.0636 22.1486 15.6771 20.6043 15.6771C19.06 15.6771 17.5789 15.0636 16.4869 13.9716C15.3949 12.8796 14.7814 11.3985 14.7814 9.85417ZM34.0418 11.1979C34.3982 11.1979 34.74 11.3395 34.992 11.5915C35.244 11.8435 35.3855 12.1853 35.3855 12.5417V37.625C35.3855 37.9814 35.244 38.3232 34.992 38.5752C34.74 38.8272 34.3982 38.9688 34.0418 38.9688C33.6854 38.9688 33.3436 38.8272 33.0916 38.5752C32.8396 38.3232 32.698 37.9814 32.698 37.625V19.6976C31.1721 20.5847 29.4478 21.0742 27.6834 21.1211C25.919 21.1681 24.1711 20.771 22.6002 19.9663C22.3159 19.7956 21.9931 19.6994 21.6617 19.6868C21.3304 19.6743 21.0012 19.7456 20.7048 19.8944C20.4084 20.0431 20.1544 20.2644 19.9664 20.5376C19.7785 20.8107 19.6626 21.127 19.6296 21.457L19.5078 22.6861C19.4566 23.1967 19.5492 23.7114 19.7753 24.1721C20.0014 24.6328 20.3518 25.0211 20.787 25.293L21.3837 25.6656C22.9307 26.6323 24.2326 27.9446 25.1869 29.4992C26.1413 31.0539 26.7222 32.8087 26.8841 34.6257L27.1385 37.505C27.1546 37.6809 27.1359 37.8583 27.0833 38.027C27.0308 38.1957 26.9456 38.3523 26.8324 38.488C26.7193 38.6237 26.5805 38.7358 26.424 38.8178C26.2675 38.8998 26.0964 38.9501 25.9204 38.9659C25.7444 38.9817 25.5671 38.9626 25.3985 38.9098C25.2299 38.8569 25.0734 38.7714 24.9379 38.658C24.8024 38.5446 24.6906 38.4056 24.6089 38.2489C24.5272 38.0923 24.4772 37.921 24.4617 37.745L24.2055 34.864C24.0807 33.461 23.6323 32.1059 22.8956 30.9053C22.1588 29.7047 21.1537 28.6913 19.9593 27.9446L19.3627 27.572C18.5022 27.0342 17.8092 26.2665 17.3622 25.3556C16.9151 24.4448 16.7318 23.427 16.8328 22.4173L16.9565 21.1882C17.2933 17.811 21.0128 15.9243 23.9332 17.63C25.2943 18.3013 26.821 18.5633 28.3281 18.3843C29.8352 18.2052 31.2579 17.5928 32.4239 16.6213L32.698 16.392V12.5417C32.698 12.1853 32.8396 11.8435 33.0916 11.5915C33.3436 11.3395 33.6854 11.1979 34.0418 11.1979ZM16.4655 28.2635C16.6362 28.3083 16.7965 28.3863 16.937 28.4931C17.0776 28.5998 17.1958 28.7332 17.2848 28.8856C17.3738 29.038 17.4319 29.2064 17.4558 29.3813C17.4797 29.5561 17.4689 29.734 17.4241 29.9047V29.9083L17.4223 29.9172L17.4133 29.9459L17.3847 30.0498C17.2333 30.588 17.066 31.1215 16.883 31.6498C16.5605 32.5904 16.0678 33.841 15.4586 34.7762C14.819 35.7581 13.8139 36.7489 13.0399 37.4512C12.6033 37.8455 12.1545 38.2261 11.6943 38.5925L11.6047 38.6624L11.5797 38.6803L11.5725 38.6875C11.5725 38.6875 11.5671 38.691 10.7501 37.625L11.5707 38.6892C11.4309 38.797 11.2713 38.8762 11.101 38.9223C10.9306 38.9683 10.7528 38.9804 10.5778 38.9578C10.4028 38.9352 10.2339 38.8783 10.0809 38.7904C9.92786 38.7025 9.79363 38.5853 9.68587 38.4456C9.57811 38.3058 9.49893 38.1462 9.45286 37.9758C9.40678 37.8055 9.39471 37.6277 9.41734 37.4527C9.43997 37.2777 9.49685 37.1088 9.58473 36.9558C9.67261 36.8027 9.78978 36.6685 9.92954 36.5607L9.93491 36.5572L9.95283 36.5428L10.0245 36.4855L10.3058 36.2598C10.5441 36.0627 10.8737 35.785 11.2339 35.4589C11.981 34.7834 12.7675 33.9843 13.2083 33.3089C13.6275 32.6639 14.0325 31.6749 14.346 30.7701C14.5094 30.295 14.6588 29.8152 14.7939 29.3314L14.819 29.2454L14.8244 29.2257V29.2203C14.8694 29.0495 14.9475 28.8893 15.0545 28.7488C15.1614 28.6083 15.295 28.4903 15.4476 28.4014C15.6002 28.3126 15.7688 28.2547 15.9437 28.231C16.1187 28.2073 16.2966 28.2184 16.4673 28.2635H16.4655Z" fill="#FF640C"/>
</svg>
