<svg width="25" height="24" viewBox="0 0 25 24" fill="none" xmlns="http://www.w3.org/2000/svg">
<path d="M10.6555 2.50358C11.0612 2.17962 11.5748 2.00195 12.1055 2.00195C12.6361 2.00195 13.1497 2.17962 13.5555 2.50358L20.3055 7.89556C20.8125 8.301 21.1055 8.89685 21.1055 9.5249V18.3442C21.1055 18.7839 20.9211 19.2055 20.5929 19.5164C20.2647 19.8273 19.8196 20.002 19.3555 20.002H15.8555C15.3913 20.002 14.9462 19.8273 14.618 19.5164C14.2898 19.2055 14.1055 18.7839 14.1055 18.3442V13.6011C14.1055 13.5383 14.0791 13.4781 14.0322 13.4336C13.9854 13.3892 13.9218 13.3643 13.8555 13.3643H10.3555C10.2892 13.3643 10.2256 13.3892 10.1787 13.4336C10.1318 13.4781 10.1055 13.5383 10.1055 13.6011V18.3442C10.1055 18.7839 9.92109 19.2055 9.59291 19.5164C9.26472 19.8273 8.8196 20.002 8.35547 20.002H4.85547C4.62566 20.002 4.39809 19.9591 4.18577 19.8758C3.97345 19.7925 3.78053 19.6703 3.61803 19.5164C3.45553 19.3625 3.32663 19.1797 3.23868 18.9786C3.15073 18.7775 3.10547 18.5619 3.10547 18.3442V9.5249C3.10547 8.89685 3.39847 8.301 3.90547 7.89556L10.6555 2.50358ZM12.5885 3.59012C12.4533 3.4823 12.2822 3.42318 12.1055 3.42318C11.9287 3.42318 11.7577 3.4823 11.6225 3.59012L4.87247 8.98116C4.78894 9.04777 4.72177 9.13085 4.67565 9.22461C4.62953 9.31836 4.60558 9.42052 4.60547 9.52396V18.3432C4.60547 18.474 4.71747 18.5801 4.85547 18.5801H8.35547C8.42177 18.5801 8.48536 18.5551 8.53225 18.5107C8.57913 18.4663 8.60547 18.4061 8.60547 18.3432V13.6002C8.60547 12.6841 9.38947 11.9424 10.3555 11.9424H13.8555C14.8215 11.9424 15.6055 12.6841 15.6055 13.6002V18.3432C15.6055 18.474 15.7175 18.5801 15.8555 18.5801H19.3555C19.4218 18.5801 19.4854 18.5551 19.5322 18.5107C19.5791 18.4663 19.6055 18.4061 19.6055 18.3432V9.52396C19.6054 9.42052 19.5814 9.31836 19.5353 9.22461C19.4892 9.13085 19.422 9.04777 19.3385 8.98116L12.5885 3.59012Z" fill="white"/>
</svg>
