<svg width="20" height="20" viewBox="0 0 20 20" fill="none" xmlns="http://www.w3.org/2000/svg">
<path d="M16.8077 6.96569C16.1085 6.98433 15.4303 6.7251 14.9217 6.24476C14.4131 5.76442 14.1155 5.1021 14.094 4.40279C14.1067 3.90349 14.2602 3.41796 14.537 3.00225L16.2446 0.461062C16.3102 0.373689 16.3953 0.302781 16.493 0.253946C16.5907 0.20511 16.6985 0.179688 16.8077 0.179688C16.917 0.179688 17.0247 0.20511 17.1224 0.253946C17.2202 0.302781 17.3052 0.373689 17.3708 0.461062L19.0567 2.969C19.3449 3.39297 19.5061 3.89037 19.5214 4.40279C19.5 5.1021 19.2024 5.76442 18.6938 6.24476C18.1852 6.7251 17.507 6.98433 16.8077 6.96569ZM16.8077 2.05499L15.6842 3.72627C15.5438 3.92506 15.4629 4.1597 15.4509 4.40279C15.4902 4.73505 15.6501 5.04133 15.9002 5.26356C16.1503 5.48579 16.4732 5.60854 16.8077 5.60854C17.1423 5.60854 17.4652 5.48579 17.7152 5.26356C17.9653 5.04133 18.1252 4.73505 18.1646 4.40279C18.1494 4.14653 18.0611 3.89998 17.9102 3.69234L16.8077 2.05499ZM15.1116 19.1797H4.93522C3.84231 19.1809 2.78795 18.7758 1.97683 18.0432C1.16571 17.3106 0.655691 16.3026 0.545787 15.2151C0.435883 14.1275 0.733935 13.0379 1.38208 12.1577C2.03023 11.2776 2.98223 10.6697 4.05327 10.4521C4.34235 9.08264 5.09329 7.85417 6.18023 6.97259C7.26717 6.09102 8.62404 5.60991 10.0234 5.60991C11.4228 5.60991 12.7797 6.09102 13.8666 6.97259C14.9536 7.85417 15.7045 9.08264 15.9936 10.4521C17.0646 10.6697 18.0166 11.2776 18.6648 12.1577C19.3129 13.0379 19.611 14.1275 19.5011 15.2151C19.3912 16.3026 18.8812 17.3106 18.07 18.0432C17.2589 18.7758 16.2046 19.1809 15.1116 19.1797ZM10.0234 6.96569C8.86515 6.96678 7.74719 7.39123 6.87994 8.15917C6.01269 8.92711 5.45594 9.98558 5.31447 11.1354L5.24662 11.6864L4.6937 11.7298C3.90622 11.7898 3.17269 12.1529 2.64744 12.7428C2.12219 13.3327 1.84617 14.1034 1.87746 14.8927C1.90875 15.682 2.2449 16.4283 2.81519 16.9748C3.38549 17.5212 4.14546 17.8251 4.93522 17.8226H15.1116C15.9014 17.8251 16.6614 17.5212 17.2317 16.9748C17.802 16.4283 18.1381 15.682 18.1694 14.8927C18.2007 14.1034 17.9247 13.3327 17.3994 12.7428C16.8742 12.1529 16.1407 11.7898 15.3532 11.7298L14.8003 11.6864L14.7331 11.1354C14.5913 9.98558 14.0344 8.92718 13.1671 8.15928C12.2997 7.39139 11.1818 6.96691 10.0234 6.96569Z" fill="white"/>
</svg>
