<svg width="19" height="20" viewBox="0 0 19 20" fill="none" xmlns="http://www.w3.org/2000/svg">
<path d="M9.52911 0C14.7144 0 18.9176 4.477 18.9176 10C18.9176 15.523 14.7144 20 9.52911 20C4.34385 20 0.140625 15.523 0.140625 10C0.140625 4.477 4.34385 0 9.52911 0ZM9.52911 2C7.53713 2 5.62673 2.84285 4.21818 4.34315C2.80964 5.84344 2.01832 7.87827 2.01832 10C2.01832 12.1217 2.80964 14.1566 4.21818 15.6569C5.62673 17.1571 7.53713 18 9.52911 18C11.5211 18 13.4315 17.1571 14.84 15.6569C16.2486 14.1566 17.0399 12.1217 17.0399 10C17.0399 7.87827 16.2486 5.84344 14.84 4.34315C13.4315 2.84285 11.5211 2 9.52911 2ZM9.51972 8C10.0436 8 10.468 8.452 10.468 9.01V14.134C10.6469 14.2441 10.7868 14.414 10.8659 14.6173C10.945 14.8207 10.9588 15.0462 10.9054 15.2588C10.8519 15.4714 10.734 15.6593 10.57 15.7933C10.4061 15.9273 10.2052 16 9.99854 16H9.5385C9.41398 16 9.29067 15.9739 9.17563 15.9231C9.06058 15.8724 8.95605 15.798 8.868 15.7042C8.77995 15.6104 8.7101 15.499 8.66245 15.3765C8.61479 15.254 8.59026 15.1226 8.59026 14.99V10C8.34127 10 8.10247 9.89464 7.9264 9.70711C7.75033 9.51957 7.65142 9.26522 7.65142 9C7.65142 8.73478 7.75033 8.48043 7.9264 8.29289C8.10247 8.10536 8.34127 8 8.59026 8H9.51972ZM9.52911 5C9.77811 5 10.0169 5.10536 10.193 5.29289C10.369 5.48043 10.468 5.73478 10.468 6C10.468 6.26522 10.369 6.51957 10.193 6.70711C10.0169 6.89464 9.77811 7 9.52911 7C9.28012 7 9.04132 6.89464 8.86525 6.70711C8.68918 6.51957 8.59026 6.26522 8.59026 6C8.59026 5.73478 8.68918 5.48043 8.86525 5.29289C9.04132 5.10536 9.28012 5 9.52911 5Z" fill="white"/>
</svg>
