<svg width="25" height="26" viewBox="0 0 25 26" fill="none" xmlns="http://www.w3.org/2000/svg">
<path d="M6.2513 10.4368C6.2513 6.98529 9.04974 4.18685 12.5013 4.18685C15.9529 4.18685 18.7513 6.98529 18.7513 10.4368C18.7513 12.2618 17.9701 13.904 16.7211 15.0473C16.4846 15.2613 16.2838 15.5116 16.1263 15.7889C15.0152 15.1801 13.7683 14.8619 12.5013 14.8639C11.1878 14.8639 9.95234 15.1993 8.8763 15.7889C8.71878 15.5116 8.51799 15.2613 8.28151 15.0473C7.64086 14.4624 7.12937 13.7502 6.77978 12.9563C6.43018 12.1624 6.25018 11.3043 6.2513 10.4368ZM9.28776 17.054C10.2582 16.4712 11.3693 16.1641 12.5013 16.166C13.6763 16.166 14.7758 16.4905 15.7148 17.054L15.2747 18.7702H9.72786L9.28776 17.054ZM10.4367 21.5353L10.0617 20.0723H14.9409L14.5659 21.5353C14.5012 21.7873 14.3546 22.0106 14.149 22.1701C13.9434 22.3296 13.6906 22.4161 13.4305 22.416H11.5721C11.312 22.4161 11.0592 22.3296 10.8536 22.1701C10.648 22.0106 10.5014 21.7873 10.4367 21.5353ZM12.5013 2.88477C8.33047 2.88477 4.94922 6.26602 4.94922 10.4368C4.94922 12.6426 5.89557 14.628 7.40234 16.0077C7.63568 16.2212 7.79193 16.4624 7.85547 16.7103L9.17578 21.8587C9.31218 22.3906 9.62163 22.8619 10.0554 23.1986C10.4891 23.5352 11.0226 23.718 11.5716 23.7181H13.431C13.98 23.718 14.5135 23.5352 14.9472 23.1986C15.381 22.8619 15.6904 22.3906 15.8268 21.8587L17.1471 16.7103C17.2107 16.4624 17.3669 16.2217 17.6003 16.0072C18.3741 15.3004 18.992 14.4399 19.4144 13.4808C19.8368 12.5216 20.0544 11.4849 20.0534 10.4368C20.0534 6.26602 16.6721 2.88477 12.5013 2.88477ZM10.1576 10.4368C10.1576 9.81525 10.4045 9.21911 10.844 8.77957C11.2836 8.34003 11.8797 8.0931 12.5013 8.0931C13.1229 8.0931 13.719 8.34003 14.1586 8.77957C14.5981 9.21911 14.8451 9.81525 14.8451 10.4368C14.8451 11.0585 14.5981 11.6546 14.1586 12.0941C13.719 12.5337 13.1229 12.7806 12.5013 12.7806C11.8797 12.7806 11.2836 12.5337 10.844 12.0941C10.4045 11.6546 10.1576 11.0585 10.1576 10.4368ZM12.5013 6.79102C11.5344 6.79102 10.607 7.17513 9.92331 7.85886C9.23958 8.54258 8.85547 9.46991 8.85547 10.4368C8.85547 11.4038 9.23958 12.3311 9.92331 13.0148C10.607 13.6986 11.5344 14.0827 12.5013 14.0827C13.4682 14.0827 14.3956 13.6986 15.0793 13.0148C15.763 12.3311 16.1471 11.4038 16.1471 10.4368C16.1471 9.46991 15.763 8.54258 15.0793 7.85886C14.3956 7.17513 13.4682 6.79102 12.5013 6.79102Z" fill="white"/>
</svg>
