<svg width="171" height="48" viewBox="0 0 171 48" fill="none" xmlns="http://www.w3.org/2000/svg">
<path d="M4.15 15.4H19.2C20.4757 15.4 21.7227 15.0217 22.7834 14.313C23.8441 13.6042 24.6708 12.5969 25.159 11.4183C25.6472 10.2397 25.7749 8.94285 25.5261 7.69167C25.2772 6.44049 24.6629 5.29121 23.7608 4.38916C22.8588 3.48712 21.7095 2.87281 20.4583 2.62394C19.2072 2.37506 17.9103 2.50279 16.7317 2.99098C15.5531 3.47916 14.5458 4.30588 13.837 5.36657C13.1283 6.42727 12.75 7.67431 12.75 8.95M6.3 32.6H29.95C31.2257 32.6 32.4727 32.9783 33.5334 33.687C34.5941 34.3958 35.4208 35.4031 35.909 36.5817C36.3972 37.7603 36.5249 39.0572 36.2761 40.3083C36.0272 41.5595 35.4129 42.7088 34.5108 43.6108C33.6088 44.5129 32.4595 45.1272 31.2083 45.3761C29.9572 45.6249 28.6603 45.4972 27.4817 45.009C26.3031 44.5208 25.2958 43.6941 24.587 42.6334C23.8783 41.5727 23.5 40.3257 23.5 39.05M2 24H38.55C39.8257 24 41.0727 23.6217 42.1334 22.913C43.1941 22.2042 44.0208 21.1969 44.509 20.0183C44.9972 18.8397 45.1249 17.5428 44.8761 16.2917C44.6272 15.0405 44.0129 13.8912 43.1108 12.9892C42.2088 12.0871 41.0595 11.4728 39.8083 11.2239C38.5572 10.9751 37.2603 11.1028 36.0817 11.591C34.9031 12.0792 33.8958 12.9059 33.187 13.9666C32.4783 15.0273 32.1 16.2743 32.1 17.55" stroke="white" stroke-width="4" stroke-linecap="round" stroke-linejoin="round"/>
<path d="M75.9732 30.5283H68.6372L67.4612 34.0003H62.4492L69.5612 14.3443H75.1052L82.2172 34.0003H77.1492L75.9732 30.5283ZM74.7412 26.8323L72.3052 19.6363L69.8972 26.8323H74.7412ZM86.7897 16.7523C85.9497 16.7523 85.2591 16.5096 84.7177 16.0243C84.1951 15.5203 83.9337 14.9043 83.9337 14.1763C83.9337 13.4296 84.1951 12.8136 84.7177 12.3283C85.2591 11.8243 85.9497 11.5723 86.7897 11.5723C87.6111 11.5723 88.2831 11.8243 88.8057 12.3283C89.3471 12.8136 89.6177 13.4296 89.6177 14.1763C89.6177 14.9043 89.3471 15.5203 88.8057 16.0243C88.2831 16.5096 87.6111 16.7523 86.7897 16.7523ZM89.1697 18.3763V34.0003H84.3817V18.3763H89.1697ZM97.4275 20.9803C97.9875 20.1216 98.6875 19.4496 99.5275 18.9643C100.367 18.4603 101.301 18.2083 102.327 18.2083V23.2763H101.011C99.8169 23.2763 98.9209 23.5376 98.3235 24.0603C97.7262 24.5643 97.4275 25.4603 97.4275 26.7483V34.0003H92.6395V18.3763H97.4275V20.9803ZM130.32 14.5403L124.552 34.0003H120.94L116.852 19.2723L112.512 34.0003L108.928 34.0283L103.412 14.5403H106.8L110.832 30.3883L115.2 14.5403H118.784L122.844 30.3043L126.904 14.5403H130.32ZM134.577 16.5283C133.998 16.5283 133.513 16.3323 133.121 15.9403C132.729 15.5483 132.533 15.063 132.533 14.4843C132.533 13.9056 132.729 13.4203 133.121 13.0283C133.513 12.6363 133.998 12.4403 134.577 12.4403C135.137 12.4403 135.613 12.6363 136.005 13.0283C136.397 13.4203 136.593 13.9056 136.593 14.4843C136.593 15.063 136.397 15.5483 136.005 15.9403C135.613 16.3323 135.137 16.5283 134.577 16.5283ZM136.145 18.5723V34.0003H132.953V18.5723H136.145ZM145.935 34.2523C144.722 34.2523 143.63 34.0376 142.659 33.6083C141.707 33.1603 140.951 32.563 140.391 31.8163C139.831 31.051 139.533 30.2016 139.495 29.2683H142.799C142.855 29.9216 143.163 30.4723 143.723 30.9203C144.302 31.3496 145.021 31.5643 145.879 31.5643C146.775 31.5643 147.466 31.3963 147.951 31.0603C148.455 30.7056 148.707 30.2576 148.707 29.7163C148.707 29.1376 148.427 28.7083 147.867 28.4283C147.326 28.1483 146.458 27.8403 145.263 27.5043C144.106 27.187 143.163 26.879 142.435 26.5803C141.707 26.2816 141.073 25.8243 140.531 25.2083C140.009 24.5923 139.747 23.7803 139.747 22.7723C139.747 21.951 139.99 21.2043 140.475 20.5323C140.961 19.8416 141.651 19.3003 142.547 18.9083C143.462 18.5163 144.507 18.3203 145.683 18.3203C147.438 18.3203 148.847 18.7683 149.911 19.6643C150.994 20.5416 151.573 21.7456 151.647 23.2763H148.455C148.399 22.5856 148.119 22.035 147.615 21.6243C147.111 21.2136 146.43 21.0083 145.571 21.0083C144.731 21.0083 144.087 21.167 143.639 21.4843C143.191 21.8016 142.967 22.2216 142.967 22.7443C142.967 23.155 143.117 23.5003 143.415 23.7803C143.714 24.0603 144.078 24.2843 144.507 24.4523C144.937 24.6016 145.571 24.7976 146.411 25.0403C147.531 25.339 148.446 25.647 149.155 25.9643C149.883 26.263 150.509 26.711 151.031 27.3083C151.554 27.9056 151.825 28.699 151.843 29.6883C151.843 30.5656 151.601 31.3496 151.115 32.0403C150.63 32.731 149.939 33.2723 149.043 33.6643C148.166 34.0563 147.13 34.2523 145.935 34.2523ZM169.432 25.9083C169.432 26.487 169.395 27.0096 169.32 27.4763H157.532C157.626 28.7083 158.083 29.6976 158.904 30.4443C159.726 31.191 160.734 31.5643 161.928 31.5643C163.646 31.5643 164.859 30.8456 165.568 29.4083H169.012C168.546 30.827 167.696 31.9936 166.464 32.9083C165.251 33.8043 163.739 34.2523 161.928 34.2523C160.454 34.2523 159.128 33.9256 157.952 33.2723C156.795 32.6003 155.88 31.667 155.208 30.4723C154.555 29.259 154.228 27.859 154.228 26.2723C154.228 24.6856 154.546 23.295 155.18 22.1003C155.834 20.887 156.739 19.9536 157.896 19.3003C159.072 18.647 160.416 18.3203 161.928 18.3203C163.384 18.3203 164.682 18.6376 165.82 19.2723C166.959 19.907 167.846 20.803 168.48 21.9603C169.115 23.099 169.432 24.415 169.432 25.9083ZM166.1 24.9003C166.082 23.7243 165.662 22.7816 164.84 22.0723C164.019 21.363 163.002 21.0083 161.788 21.0083C160.687 21.0083 159.744 21.363 158.96 22.0723C158.176 22.763 157.71 23.7056 157.56 24.9003H166.1Z" fill="white"/>
</svg>
