<svg width="16" height="20" viewBox="0 0 16 20" fill="none" xmlns="http://www.w3.org/2000/svg">
<path d="M0.535156 8.09996C0.535156 7.02878 0.729696 6.00087 1.12901 5.01625C1.52833 4.03162 2.06075 3.19848 2.73652 2.49518C3.41229 1.79187 4.21092 1.22923 5.13243 0.80725C6.05393 0.385268 7.02662 0.179688 8.04028 0.179688C9.05393 0.179688 10.0266 0.385268 10.9584 0.80725C11.8799 1.22923 12.6785 1.79187 13.344 2.49518C14.0096 3.19848 14.542 4.04244 14.9413 5.01625C15.3406 5.99005 15.5352 7.01796 15.5352 8.09996C15.5352 9.85281 15.0437 11.4109 14.0608 12.7959C13.1131 14.1425 11.7817 15.1324 10.2621 15.6199V19.1797H5.92082V15.6632C4.34403 15.1763 3.04369 14.2349 2.04028 12.8391C1.03686 11.4434 0.535156 9.86363 0.535156 8.09996ZM2.18362 8.09996C2.18362 9.77707 2.757 11.2161 3.914 12.4172C5.05051 13.629 6.42253 14.2349 8.03004 14.2349C9.08465 14.2349 10.0676 13.9644 10.9584 13.4126C11.8431 12.8743 12.5804 12.1026 13.0983 11.1729C13.6205 10.2315 13.8867 9.2036 13.8867 8.08914C13.8867 7.256 13.7331 6.46613 13.4259 5.69791C13.1188 4.92969 12.699 4.28048 12.1768 3.72866C11.6546 3.17684 11.03 2.73322 10.3031 2.40862C9.58786 2.08583 8.81798 1.92017 8.04028 1.92171C7.25188 1.92171 6.50444 2.08402 5.77748 2.40862C4.37037 3.02886 3.25178 4.21094 2.66485 5.69791C2.3372 6.47695 2.18362 7.26682 2.18362 8.09996ZM2.77748 8.48948V7.71044H4.99932V8.48948H2.77748ZM3.89352 4.65919L4.42594 4.09654L5.98226 5.74119L5.44983 6.31465L3.89352 4.65919ZM6.48396 9.99347C6.48396 9.53903 6.63755 9.1495 6.93447 8.81408C7.2314 8.47866 7.6 8.30554 8.0198 8.29472L10.815 3.43652L11.4908 3.81522L9.42253 9.0413C9.60683 9.3118 9.68874 9.62559 9.68874 9.99347C9.68874 10.4695 9.53516 10.8699 9.21775 11.1945C8.90034 11.5191 8.5215 11.6814 8.07099 11.6814C7.63072 11.6814 7.25188 11.5191 6.94471 11.1945C6.63755 10.8699 6.48396 10.4695 6.48396 9.99347ZM7.82526 4.94051V2.60338H8.53174V4.95133H7.82526V4.94051ZM10.8355 8.47866V7.67798H13.0573V8.47866H10.8355Z" fill="white"/>
</svg>
