<svg width="35" height="39" viewBox="0 0 35 39" fill="none" xmlns="http://www.w3.org/2000/svg">
<path fill-rule="evenodd" clip-rule="evenodd" d="M29.1667 2.72093C28.7542 2.72093 28.3457 2.80304 27.9646 2.96257C27.5836 3.1221 27.2373 3.35592 26.9456 3.6507C26.654 3.94547 26.4226 4.29541 26.2647 4.68055C26.1069 5.06569 26.0256 5.47848 26.0256 5.89535C26.0256 6.31222 26.1069 6.72501 26.2647 7.11015C26.4226 7.49528 26.654 7.84523 26.9456 8.14C27.2373 8.43477 27.5836 8.6686 27.9646 8.82813C28.3457 8.98766 28.7542 9.06977 29.1667 9.06977C29.9997 9.06977 30.7987 8.73532 31.3877 8.14C31.9768 7.54468 32.3077 6.73726 32.3077 5.89535C32.3077 5.05344 31.9768 4.24602 31.3877 3.6507C30.7987 3.05538 29.9997 2.72093 29.1667 2.72093ZM23.3333 5.89535C23.3333 4.33181 23.9479 2.8323 25.0419 1.72671C26.1358 0.621115 27.6196 0 29.1667 0C30.7138 0 32.1975 0.621115 33.2915 1.72671C34.3854 2.8323 35 4.33181 35 5.89535C35 7.45889 34.3854 8.9584 33.2915 10.064C32.1975 11.1696 30.7138 11.7907 29.1667 11.7907C27.6196 11.7907 26.1358 11.1696 25.0419 10.064C23.9479 8.9584 23.3333 7.45889 23.3333 5.89535ZM14.0036 8.4893C14.4317 8.42362 14.8649 8.39751 15.2977 8.4113C15.4413 8.41856 15.6028 8.42944 15.7877 8.44758C20.0649 8.89744 23.2364 12.1408 25.3508 15.3442L25.4638 15.5147C25.9966 16.3222 26.7183 16.9842 27.5649 17.4421C28.4115 17.9 29.3569 18.1395 30.3172 18.1395H33.6538C34.0109 18.1395 34.3533 18.2829 34.6057 18.538C34.8582 18.7931 35 19.1392 35 19.5C35 19.8608 34.8582 20.2069 34.6057 20.462C34.3533 20.7171 34.0109 20.8605 33.6538 20.8605H30.3154C28.9119 20.8604 27.5302 20.5102 26.2928 19.841C25.0554 19.1717 24.0006 18.2041 23.2221 17.024L23.1108 16.8534C22.6323 16.1226 22.1064 15.4245 21.5367 14.7638L18.1551 19.0356C17.3869 20.0043 16.8736 20.6573 16.5272 21.1942C16.1897 21.713 16.0946 22.0014 16.0695 22.2209C16.0264 22.5837 16.0731 22.952 16.2005 23.293C16.2795 23.4998 16.4428 23.7573 16.8933 24.1764C17.36 24.6117 18.0169 25.116 18.9951 25.8633L19.1674 25.9958C20.4597 26.9862 21.3572 27.6719 21.9764 28.5861C22.33 29.1067 22.6082 29.6745 22.8074 30.2731C23.1538 31.3252 23.1538 32.4607 23.1538 34.1005V37.6395C23.1538 38.0004 23.012 38.3464 22.7596 38.6015C22.5071 38.8567 22.1647 39 21.8077 39C21.4507 39 21.1083 38.8567 20.8558 38.6015C20.6034 38.3464 20.4615 38.0004 20.4615 37.6395V34.32C20.4615 32.3791 20.4436 31.717 20.2533 31.1365C20.1348 30.7775 19.9675 30.4368 19.7562 30.1243C19.4151 29.62 18.9018 29.2083 17.369 28.0347L17.3187 27.9966C16.4033 27.2964 15.6441 26.7141 15.0715 26.1808C14.4721 25.6239 13.9749 25.0289 13.6859 24.2653C13.4024 23.5144 13.3027 22.7054 13.3951 21.9071C13.4885 21.0945 13.8277 20.3925 14.2746 19.705C14.7 19.0483 15.2977 18.2937 16.0121 17.3886L19.5731 12.8918C18.3382 11.9431 16.9813 11.3118 15.5095 11.1576C15.3997 11.1459 15.2895 11.1374 15.1792 11.1322C14.9089 11.1259 14.6386 11.1441 14.3715 11.1867C12.46 11.4551 10.5449 12.529 6.38436 14.918L3.80692 16.3963C3.49655 16.5748 3.12874 16.6214 2.78439 16.5258C2.44004 16.4302 2.14738 16.2003 1.97077 15.8866C1.79416 15.5729 1.74808 15.2012 1.84267 14.8532C1.93725 14.5052 2.16476 14.2094 2.47513 14.0309L5.05256 12.5526L5.32538 12.3947C9.13051 10.2107 11.5159 8.8394 14.0036 8.49293V8.4893ZM12.9769 27.5267C13.251 27.7577 13.4232 28.0893 13.4555 28.4485C13.4878 28.8077 13.3776 29.1651 13.1492 29.4423L11.3544 31.6208L11.1803 31.8313C10.0279 33.2298 9.18256 34.2583 8.00154 34.817C6.82051 35.3757 5.49769 35.3757 3.69385 35.3739H1.34615C0.989132 35.3739 0.646732 35.2306 0.394279 34.9754C0.141826 34.7203 0 34.3743 0 34.0134C0 33.6526 0.141826 33.3066 0.394279 33.0514C0.646732 32.7963 0.989132 32.653 1.34615 32.653H3.42462C5.61795 32.653 6.28923 32.6221 6.85821 32.3537C7.42897 32.0834 7.88128 31.5809 9.28487 29.8794L11.0797 27.7009C11.1929 27.5635 11.3318 27.4499 11.4885 27.3668C11.6451 27.2836 11.8164 27.2325 11.9926 27.2164C12.1688 27.2002 12.3464 27.2193 12.5153 27.2725C12.6842 27.3258 12.8411 27.4122 12.9769 27.5267Z" fill="#00E0FF"/>
</svg>
