<svg width="24" height="25" viewBox="0 0 24 25" fill="none" xmlns="http://www.w3.org/2000/svg">
<path d="M20 7.80078H11M14 17.8008H5" stroke="white" stroke-width="2" stroke-linecap="round" stroke-linejoin="round"/>
<path d="M17 20.8008C18.6569 20.8008 20 19.4576 20 17.8008C20 16.1439 18.6569 14.8008 17 14.8008C15.3431 14.8008 14 16.1439 14 17.8008C14 19.4576 15.3431 20.8008 17 20.8008Z" stroke="white" stroke-width="2" stroke-linecap="round" stroke-linejoin="round"/>
<path d="M7 10.8008C8.65685 10.8008 10 9.45764 10 7.80078C10 6.14393 8.65685 4.80078 7 4.80078C5.34315 4.80078 4 6.14393 4 7.80078C4 9.45764 5.34315 10.8008 7 10.8008Z" stroke="white" stroke-width="2" stroke-linecap="round" stroke-linejoin="round"/>
</svg>
