<svg width="23" height="20" viewBox="0 0 23 20" fill="none" xmlns="http://www.w3.org/2000/svg">
<path fill-rule="evenodd" clip-rule="evenodd" d="M5.76172 3.34635C5.76172 2.72005 5.95233 2.10781 6.30944 1.58705C6.66656 1.06629 7.17414 0.660414 7.768 0.420737C8.36186 0.18106 9.01532 0.118349 9.64576 0.240536C10.2762 0.362722 10.8553 0.664318 11.3098 1.10718C11.7643 1.55005 12.0739 2.1143 12.1993 2.72857C12.3247 3.34284 12.2603 3.97955 12.0143 4.55819C11.7683 5.13682 11.3518 5.63138 10.8173 5.97934C10.2829 6.3273 9.65451 6.51302 9.01172 6.51302H2.51172C2.31281 6.51302 2.12204 6.43603 1.98139 6.29898C1.84074 6.16194 1.76172 5.97606 1.76172 5.78225C1.76172 5.58844 1.84074 5.40257 1.98139 5.26552C2.12204 5.12847 2.31281 5.05148 2.51172 5.05148H9.01172C9.35784 5.05148 9.69618 4.95148 9.98397 4.76412C10.2718 4.57676 10.4961 4.31045 10.6285 3.99888C10.761 3.68731 10.7956 3.34446 10.7281 3.0137C10.6606 2.68294 10.4939 2.37911 10.2492 2.14065C10.0044 1.90218 9.69259 1.73978 9.35313 1.67399C9.01366 1.6082 8.66179 1.64197 8.34202 1.77102C8.02225 1.90008 7.74894 2.11863 7.55665 2.39904C7.36435 2.67944 7.26172 3.00911 7.26172 3.34635V3.6942C7.26172 3.88801 7.1827 4.07389 7.04205 4.21093C6.9014 4.34798 6.71063 4.42497 6.51172 4.42497C6.31281 4.42497 6.12204 4.34798 5.98139 4.21093C5.84074 4.07389 5.76172 3.88801 5.76172 3.6942V3.34635ZM13.7617 5.29507C13.7617 4.47606 14.011 3.67543 14.478 2.99444C14.945 2.31345 15.6087 1.78269 16.3853 1.46926C17.1619 1.15584 18.0164 1.07383 18.8409 1.23362C19.6653 1.3934 20.4225 1.78779 21.0169 2.36693C21.6113 2.94606 22.0161 3.68392 22.1801 4.4872C22.344 5.29048 22.2599 6.1231 21.9382 6.87977C21.6165 7.63645 21.0718 8.28319 20.3729 8.73821C19.674 9.19323 18.8523 9.4361 18.0117 9.4361H1.51172C1.31281 9.4361 1.12204 9.35911 0.981389 9.22206C0.840736 9.08501 0.761719 8.89914 0.761719 8.70533C0.761719 8.51152 0.840736 8.32564 0.981389 8.1886C1.12204 8.05155 1.31281 7.97456 1.51172 7.97456H18.0117C18.5556 7.97456 19.0873 7.81741 19.5395 7.52298C19.9918 7.22856 20.3442 6.81008 20.5524 6.32047C20.7605 5.83086 20.815 5.2921 20.7089 4.77233C20.6028 4.25256 20.3409 3.77512 19.9563 3.40039C19.5717 3.02566 19.0817 2.77046 18.5482 2.66707C18.0148 2.56368 17.4618 2.61675 16.9593 2.81955C16.4568 3.02235 16.0274 3.36579 15.7252 3.80643C15.423 4.24707 15.2617 4.76512 15.2617 5.29507V5.78225C15.2617 5.97606 15.1827 6.16194 15.042 6.29898C14.9014 6.43603 14.7106 6.51302 14.5117 6.51302C14.3128 6.51302 14.122 6.43603 13.9814 6.29898C13.8407 6.16194 13.7617 5.97606 13.7617 5.78225V5.29507ZM2.76172 11.6284C2.76172 11.4346 2.84074 11.2487 2.98139 11.1117C3.12204 10.9746 3.31281 10.8976 3.51172 10.8976H18.0117C18.8523 10.8976 19.674 11.1405 20.3729 11.5955C21.0718 12.0505 21.6165 12.6973 21.9382 13.454C22.2599 14.2106 22.344 15.0433 22.1801 15.8465C22.0161 16.6498 21.6113 17.3877 21.0169 17.9668C20.4225 18.5459 19.6653 18.9403 18.8409 19.1001C18.0164 19.2599 17.1619 19.1779 16.3853 18.8645C15.6087 18.551 14.945 18.0203 14.478 17.3393C14.011 16.6583 13.7617 15.8577 13.7617 15.0387V14.5515C13.7617 14.3577 13.8407 14.1718 13.9814 14.0347C14.122 13.8977 14.3128 13.8207 14.5117 13.8207C14.7106 13.8207 14.9014 13.8977 15.042 14.0347C15.1827 14.1718 15.2617 14.3577 15.2617 14.5515V15.0387C15.2617 15.5686 15.423 16.0867 15.7252 16.5273C16.0274 16.9679 16.4568 17.3114 16.9593 17.5142C17.4618 17.717 18.0148 17.7701 18.5482 17.6667C19.0817 17.5633 19.5717 17.3081 19.9563 16.9333C20.3409 16.5586 20.6028 16.0812 20.7089 15.5614C20.815 15.0416 20.7605 14.5029 20.5524 14.0133C20.3442 13.5237 19.9918 13.1052 19.5395 12.8108C19.0873 12.5163 18.5556 12.3592 18.0117 12.3592H3.51172C3.31281 12.3592 3.12204 12.2822 2.98139 12.1451C2.84074 12.0081 2.76172 11.8222 2.76172 11.6284Z" fill="white"/>
</svg>
