<svg width="31" height="31" viewBox="0 0 31 31" fill="none" xmlns="http://www.w3.org/2000/svg">
<path d="M27.7727 26.2143V2.5C27.7727 1.39543 26.8773 0.5 25.7727 0.5H5.22727C4.1227 0.5 3.22727 1.39543 3.22727 2.5V24.8507C3.22727 25.6038 2.61675 26.2143 1.86364 26.2143C1.11052 26.2143 0.5 26.8248 0.5 27.5779V28.5C0.5 29.6046 1.39543 30.5 2.5 30.5H28.5C29.6046 30.5 30.5 29.6046 30.5 28.5V26.2143M25.0455 3.35714V11.9935C25.0455 12.7466 24.4349 13.3571 23.6818 13.3571C22.9287 13.3571 22.3182 12.7466 22.3182 11.9935V3.35714M5.95455 3.35714H6.68182C7.78639 3.35714 8.68182 4.25257 8.68182 5.35714V11.3571C8.68182 12.4617 7.78639 13.3571 6.68182 13.3571H5.95455M5.95455 26.2143V17.5779C5.95455 16.8248 6.56507 16.2143 7.31818 16.2143C8.0713 16.2143 8.68182 16.8248 8.68182 17.5779V26.2143M11.4091 26.2143V5.35714C11.4091 4.25258 12.3045 3.35714 13.4091 3.35714H17.5909C18.6955 3.35714 19.5909 4.25257 19.5909 5.35714V26.2143M23.6818 26.2143C22.9287 26.2143 22.3182 25.6038 22.3182 24.8506V17.5779C22.3182 16.8248 22.9287 16.2143 23.6818 16.2143C24.4349 16.2143 25.0455 16.8248 25.0455 17.5779V24.8506C25.0455 25.6038 24.4349 26.2143 23.6818 26.2143Z" fill="#C5D2FF"/>
</svg>
