<svg width="76" height="60" viewBox="0 0 76 60" fill="none" xmlns="http://www.w3.org/2000/svg">
<rect width="76" height="60" rx="14" fill="#2C2535"/>
<path d="M37.9995 34.9889H41.331C41.7727 34.9889 42.1964 34.8134 42.5088 34.501C42.8212 34.1886 42.9967 33.7649 42.9967 33.3232V31.6574C42.9967 31.2156 42.8212 30.7919 42.5088 30.4796C42.1964 30.1672 41.7727 29.9917 41.331 29.9917H37.9995V24.9944H42.9967M33.0023 24.9944V34.9889M23.0078 29.9917V30.0083M37.9995 44.9833V45M30.5036 16.9989V17.0155M45.4953 42.9845V43.0011M30.5036 42.9845V43.0011M25.0067 37.4875V37.5042M50.9923 37.4875V37.5042M25.0067 22.4958V22.5125M52.9912 29.9917C52.9912 26.0156 51.4117 22.2024 48.6002 19.391C45.7887 16.5795 41.9755 15 37.9995 15" stroke="#F7F7F7" stroke-width="2" stroke-linecap="round" stroke-linejoin="round"/>
</svg>
