<svg width="76" height="60" viewBox="0 0 76 60" fill="none" xmlns="http://www.w3.org/2000/svg">
<rect width="76" height="60" rx="14" fill="#2C2535"/>
<path d="M42.4267 27.2142C42.6667 26.7342 42.9787 26.3342 43.3387 26.0102L42.7527 25.3422C42.65 25.2248 42.5212 25.1332 42.3768 25.0744C42.2323 25.0157 42.076 24.9916 41.9206 25.0041C41.7651 25.0165 41.6147 25.0651 41.4814 25.1461C41.3481 25.227 41.2355 25.338 41.1527 25.4702L37.1788 31.8281L32.9248 21.6162C32.8494 21.4343 32.7219 21.2787 32.5583 21.169C32.3948 21.0593 32.2024 21.0003 32.0055 20.9994C31.8086 20.9986 31.6157 21.0559 31.4512 21.1642C31.2867 21.2725 31.1579 21.427 31.0809 21.6082L27.9409 29.0002H22.0009C21.7357 29.0002 21.4814 29.1055 21.2938 29.2931C21.1063 29.4806 21.001 29.7349 21.001 30.0002C21.001 30.2654 21.1063 30.5197 21.2938 30.7073C21.4814 30.8948 21.7357 31.0001 22.0009 31.0001H28.6009C28.7969 31.0001 28.9887 30.9425 29.1523 30.8344C29.3158 30.7263 29.444 30.5725 29.5209 30.3921L31.9908 24.5782L36.0768 34.3841C36.1472 34.5537 36.263 34.7007 36.4114 34.8089C36.5599 34.9171 36.7352 34.9823 36.9183 34.9974C37.1013 35.0124 37.285 34.9768 37.4491 34.8944C37.6133 34.812 37.7516 34.6859 37.8488 34.5301L42.1347 27.6722L42.1747 27.7182L42.4267 27.2142ZM26.6009 33.0001L35.2268 41.714C35.2873 41.5413 35.3581 41.3723 35.4388 41.208L36.1448 39.798L29.3269 32.9121C29.09 32.9708 28.8469 33.0003 28.6029 33.0001H26.5989H26.6009ZM52.4066 27.0282C53.0227 25.4391 53.1659 23.7057 52.8188 22.0371C52.4717 20.3685 51.6493 18.8359 50.4507 17.6243C49.6514 16.8089 48.6979 16.1607 47.6457 15.7172C46.5936 15.2738 45.4638 15.044 44.322 15.0412C43.1802 15.0384 42.0493 15.2627 40.995 15.701C39.9407 16.1393 38.9841 16.7829 38.1808 17.5943L36.9888 18.8003L35.7788 17.5803C34.9806 16.766 34.0285 16.1186 32.9778 15.6756C31.9271 15.2327 30.7988 15.003 29.6586 15C28.5183 14.9971 27.3889 15.2208 26.3359 15.6583C25.2829 16.0957 24.3274 16.7382 23.5249 17.5483C22.3215 18.7718 21.5023 20.3207 21.1682 22.0041C20.8342 23.6875 20.9999 25.4318 21.6449 27.0222C21.7589 27.0082 21.8789 27.0002 22.0009 27.0002H23.8409C22.4269 24.4202 22.8009 21.1202 24.9449 18.9543C25.5615 18.3322 26.2958 17.839 27.1048 17.5034C27.9139 17.1678 28.7817 16.9965 29.6576 16.9995C30.5335 17.0024 31.4 17.1796 32.2068 17.5207C33.0136 17.8618 33.7444 18.36 34.3568 18.9863L36.2768 20.9262C36.3698 21.0203 36.4805 21.0949 36.6026 21.1459C36.7246 21.1968 36.8555 21.223 36.9878 21.223C37.12 21.223 37.251 21.1968 37.373 21.1459C37.4951 21.0949 37.6058 21.0203 37.6988 20.9262L39.6008 19.0003C40.2182 18.377 40.9535 17.8829 41.7637 17.5466C42.574 17.2104 43.4431 17.0388 44.3204 17.0417C45.1977 17.0447 46.0656 17.2223 46.8736 17.564C47.6816 17.9057 48.4135 18.4048 49.0267 19.0323C50.0451 20.062 50.7098 21.3888 50.9247 22.8211C51.1397 24.2533 50.8939 25.7168 50.2227 27.0002H52.0006C52.1386 27.0002 52.2746 27.0102 52.4066 27.0282ZM44.2067 28.1082L37.2168 42.104C37.064 42.4089 36.9917 42.7479 37.0068 43.0886C37.0219 43.4293 37.1239 43.7605 37.3031 44.0507C37.4822 44.3409 37.7326 44.5805 38.0305 44.7466C38.3283 44.9128 38.6637 45 39.0048 45H52.9966C53.3378 45.0003 53.6735 44.9134 53.9716 44.7473C54.2697 44.5813 54.5204 44.3418 54.6998 44.0515C54.8792 43.7613 54.9814 43.43 54.9966 43.0891C55.0117 42.7482 54.9395 42.4091 54.7866 42.104L47.7867 28.1062C47.6208 27.7734 47.3654 27.4934 47.0492 27.2977C46.733 27.102 46.3686 26.9983 45.9967 26.9983C45.6248 26.9983 45.2604 27.102 44.9442 27.2977C44.628 27.4934 44.3726 27.7754 44.2067 28.1082ZM46.9987 31.9901V37.9941C46.9987 38.2593 46.8933 38.5136 46.7058 38.7012C46.5183 38.8887 46.2639 38.9941 45.9987 38.9941C45.7335 38.9941 45.4791 38.8887 45.2916 38.7012C45.1041 38.5136 44.9987 38.2593 44.9987 37.9941V31.9901C44.9987 31.7249 45.1041 31.4706 45.2916 31.283C45.4791 31.0955 45.7335 30.9901 45.9987 30.9901C46.2639 30.9901 46.5183 31.0955 46.7058 31.283C46.8933 31.4706 46.9987 31.7249 46.9987 31.9901ZM45.9987 42.998C45.7335 42.998 45.4791 42.8927 45.2916 42.7051C45.1041 42.5176 44.9987 42.2632 44.9987 41.998C44.9987 41.7328 45.1041 41.4785 45.2916 41.2909C45.4791 41.1034 45.7335 40.998 45.9987 40.998C46.2639 40.998 46.5183 41.1034 46.7058 41.2909C46.8933 41.4785 46.9987 41.7328 46.9987 41.998C46.9987 42.2632 46.8933 42.5176 46.7058 42.7051C46.5183 42.8927 46.2639 42.998 45.9987 42.998Z" fill="#F7F7F7"/>
</svg>
