<svg width="77" height="60" viewBox="0 0 77 60" fill="none" xmlns="http://www.w3.org/2000/svg">
<rect x="0.5" width="76" height="60" rx="14" fill="#2C2535"/>
<path fill-rule="evenodd" clip-rule="evenodd" d="M48.2663 17.093C47.9209 17.093 47.579 17.1562 47.2599 17.2789C46.9409 17.4016 46.651 17.5815 46.4068 17.8082C46.1626 18.035 45.9689 18.3042 45.8367 18.6004C45.7046 18.8967 45.6366 19.2142 45.6366 19.5349C45.6366 19.8556 45.7046 20.1731 45.8367 20.4693C45.9689 20.7656 46.1626 21.0348 46.4068 21.2615C46.651 21.4883 46.9409 21.6682 47.2599 21.7909C47.579 21.9136 47.9209 21.9767 48.2663 21.9767C48.9637 21.9767 49.6326 21.7195 50.1257 21.2615C50.6189 20.8036 50.896 20.1825 50.896 19.5349C50.896 18.8873 50.6189 18.2662 50.1257 17.8082C49.6326 17.3503 48.9637 17.093 48.2663 17.093ZM43.3825 19.5349C43.3825 18.3322 43.8971 17.1787 44.813 16.3282C45.7288 15.4778 46.971 15 48.2663 15C49.5615 15 50.8037 15.4778 51.7196 16.3282C52.6355 17.1787 53.15 18.3322 53.15 19.5349C53.15 20.7376 52.6355 21.8911 51.7196 22.7415C50.8037 23.592 49.5615 24.0698 48.2663 24.0698C46.971 24.0698 45.7288 23.592 44.813 22.7415C43.8971 21.8911 43.3825 20.7376 43.3825 19.5349ZM35.5716 21.5302C35.93 21.4797 36.2927 21.4596 36.655 21.4702C36.7752 21.4758 36.9105 21.4842 37.0653 21.4981C40.6462 21.8442 43.3014 24.3391 45.0716 26.8033L45.1662 26.9344C45.6122 27.5555 46.2164 28.0648 46.9252 28.417C47.6341 28.7692 48.4256 28.9535 49.2295 28.9535H52.023C52.3219 28.9535 52.6085 29.0637 52.8199 29.26C53.0312 29.4563 53.15 29.7224 53.15 30C53.15 30.2776 53.0312 30.5437 52.8199 30.74C52.6085 30.9363 52.3219 31.0465 52.023 31.0465H49.228C48.053 31.0465 46.8962 30.7771 45.8602 30.2623C44.8243 29.7475 43.9412 29.0031 43.2894 28.0953L43.1962 27.9642C42.7956 27.402 42.3553 26.865 41.8784 26.3567L39.0473 29.6428C38.4042 30.3879 37.9744 30.8902 37.6844 31.3033C37.4019 31.7023 37.3222 31.9242 37.3012 32.093C37.2651 32.3721 37.3042 32.6553 37.4109 32.9177C37.477 33.0767 37.6137 33.2749 37.9909 33.5972C38.3816 33.9321 38.9316 34.32 39.7506 34.8949L39.8948 34.9967C40.9767 35.7586 41.7281 36.286 42.2465 36.9893C42.5425 37.3898 42.7755 37.8265 42.9423 38.287C43.2323 39.0963 43.2323 39.9698 43.2323 41.2312V43.9535C43.2323 44.231 43.1135 44.4972 42.9022 44.6935C42.6908 44.8897 42.4042 45 42.1053 45C41.8064 45 41.5197 44.8897 41.3083 44.6935C41.097 44.4972 40.9782 44.231 40.9782 43.9535V41.4C40.9782 39.907 40.9632 39.3977 40.8039 38.9512C40.7047 38.675 40.5646 38.4129 40.3877 38.1726C40.1022 37.7847 39.6724 37.4679 38.3891 36.5651L38.347 36.5358C37.5807 35.9972 36.945 35.5493 36.4657 35.1391C35.9638 34.7107 35.5475 34.253 35.3056 33.6656C35.0683 33.088 34.9848 32.4657 35.0622 31.8516C35.1403 31.2265 35.4243 30.6865 35.7985 30.1577C36.1546 29.6526 36.655 29.0721 37.2531 28.3758L40.2344 24.9167C39.2006 24.187 38.0645 23.7014 36.8323 23.5828C36.7404 23.5738 36.6482 23.5673 36.5559 23.5633C36.3296 23.5584 36.1032 23.5724 35.8796 23.6051C34.2793 23.8116 32.6759 24.6377 29.1927 26.4753L27.0348 27.6126C26.775 27.7499 26.4671 27.7857 26.1788 27.7121C25.8905 27.6386 25.6455 27.4618 25.4976 27.2205C25.3497 26.9792 25.3112 26.6932 25.3904 26.4255C25.4695 26.1578 25.66 25.9303 25.9199 25.793L28.0777 24.6558L28.3061 24.5344C31.4918 22.8544 33.4889 21.7995 35.5716 21.533V21.5302ZM34.7121 36.1744C34.9415 36.3521 35.0856 36.6071 35.1127 36.8834C35.1397 37.1597 35.0475 37.4347 34.8563 37.6479L33.3536 39.3237L33.2079 39.4856C32.2431 40.5614 31.5354 41.3526 30.5466 41.7823C29.5579 42.2121 28.4504 42.2121 26.9402 42.2107H24.9747C24.6758 42.2107 24.3891 42.1004 24.1778 41.9042C23.9664 41.7079 23.8477 41.4417 23.8477 41.1642C23.8477 40.8866 23.9664 40.6204 24.1778 40.4242C24.3891 40.2279 24.6758 40.1177 24.9747 40.1177H26.7148C28.5511 40.1177 29.1131 40.094 29.5894 39.8874C30.0673 39.6795 30.4459 39.293 31.621 37.9842L33.1237 36.3084C33.2185 36.2027 33.3348 36.1153 33.4659 36.0514C33.597 35.9874 33.7405 35.9481 33.888 35.9357C34.0355 35.9232 34.1842 35.9379 34.3256 35.9789C34.467 36.0198 34.5983 36.0863 34.7121 36.1744Z" fill="#F7F7F7"/>
<line x1="28.2619" y1="19" x2="52.3477" y2="43.0858" stroke="#FF2450" stroke-width="2" stroke-linecap="round"/>
</svg>
