<svg width="77" height="60" viewBox="0 0 77 60" fill="none" xmlns="http://www.w3.org/2000/svg">
<rect x="0.5" width="76" height="60" rx="14" fill="#2C2535"/>
<path d="M31.2206 32.8259V40.4611M45.7794 32.8259V40.4637M29.2353 20.9341C29.2353 20.9341 31.8824 22.9121 36.5147 22.9121L35.1912 19.6154C37.8382 22.2527 45.1176 22.6299 47.7647 22.6299M49.75 27.5275V20.2747C49.75 20.2747 46.3737 15 38.5 15C30.6263 15 27.25 20.2747 27.25 20.2747V27.5275M27.25 30.1648H27.5809C27.5809 30.1648 30.0294 34.1209 38.5 34.1209C46.9706 34.1209 49.4191 30.1648 49.4191 30.1648H49.75C49.75 34.0787 49.161 36.8189 46.51 39.7055C44.2574 42.1582 41.2953 44.2576 38.5 45C35.7087 44.2589 32.7532 42.1648 30.5032 39.7174C27.8429 36.8242 27.25 34.0892 27.25 30.1648Z" stroke="#F7F7F7" stroke-width="2"/>
</svg>
