<svg width="76" height="60" viewBox="0 0 76 60" fill="none" xmlns="http://www.w3.org/2000/svg">
<rect width="76" height="60" rx="14" fill="#2C2535"/>
<path d="M41.75 18.75C41.75 19.7446 41.3549 20.6984 40.6517 21.4017C39.9484 22.1049 38.9946 22.5 38 22.5C37.0054 22.5 36.0516 22.1049 35.3483 21.4017C34.6451 20.6984 34.25 19.7446 34.25 18.75C34.25 17.7554 34.6451 16.8016 35.3483 16.0983C36.0516 15.3951 37.0054 15 38 15C38.9946 15 39.9484 15.3951 40.6517 16.0983C41.3549 16.8016 41.75 17.7554 41.75 18.75Z" stroke="#F7F7F7" stroke-width="1.5"/>
<path d="M51.5 37.4985L49.763 36.9135C49.4222 36.7988 49.0983 36.6389 48.8 36.438L48.6485 36.3345C48.1401 35.9905 47.7239 35.527 47.4365 34.9845C47.149 34.4421 46.9992 33.8374 47 33.2235C47 29.568 44.384 26.448 40.8155 25.8465L39.4805 25.6215C38.75 25.4985 37.25 25.4985 36.5195 25.6215L35.183 25.8465C31.6145 26.448 29 29.568 29 33.2235C29.0008 33.8374 28.851 34.4421 28.5635 34.9845C28.2761 35.527 27.8599 35.9905 27.3515 36.3345L27.2015 36.438C26.9015 36.639 26.5775 36.798 26.237 36.9135L24.5 37.4985" stroke="#F7F7F7" stroke-width="1.5" stroke-linecap="round" stroke-linejoin="round"/>
<path d="M34.2542 36L32.8667 37.8495C32.6462 38.1435 32.5367 38.292 32.4107 38.421C32.1033 38.7424 31.7282 38.9914 31.3127 39.15C31.1447 39.2145 30.9677 39.2595 30.6077 39.3495L27.9182 40.0215C27.3207 40.1719 26.7987 40.5355 26.4504 41.0438C26.1021 41.5521 25.9514 42.1701 26.0268 42.7816C26.1022 43.3932 26.3983 43.9561 26.8596 44.3647C27.3209 44.7732 27.9155 44.9991 28.5317 45H29.5562C32.1197 45 34.6112 44.169 36.6617 42.6315L39.5042 40.5M41.7542 36L42.8447 37.4535C43.3592 38.1405 43.6172 38.484 43.9517 38.7375C44.0522 38.8125 44.1572 38.8845 44.2667 38.9475C44.6297 39.1575 45.0467 39.261 45.8792 39.4695L48.0902 40.0215C48.6877 40.1719 49.2097 40.5355 49.558 41.0438C49.9063 41.5521 50.057 42.1701 49.9816 42.7816C49.9062 43.3932 49.6101 43.9561 49.1488 44.3647C48.6875 44.7732 48.0929 44.9991 47.4767 45H46.0712C45.2267 45 44.8052 45 44.3867 44.976C43.1516 44.9069 41.9298 44.6852 40.7492 44.316C40.3487 44.1915 39.9542 44.0445 39.1652 43.7475L36.5042 42.75" stroke="#F7F7F7" stroke-width="1.5" stroke-linecap="round" stroke-linejoin="round"/>
</svg>
