<svg width="76" height="60" viewBox="0 0 76 60" fill="none" xmlns="http://www.w3.org/2000/svg">
<rect width="76" height="60" rx="14" fill="#2C2535"/>
<path d="M21.332 20V40M54.6654 40V36.0717C54.6654 32.7467 54.6654 31.0833 54.1987 29.7483C53.7851 28.566 53.1103 27.4922 52.2244 26.6066C51.3386 25.721 50.2645 25.0466 49.082 24.6333C47.7487 24.1667 46.0854 24.1667 42.7604 24.1667C41.4304 24.1667 40.7654 24.1667 40.2304 24.3533C39.7578 24.5187 39.3286 24.7885 38.9745 25.1425C38.6205 25.4965 38.3508 25.9258 38.1854 26.3983C37.9987 26.9333 37.9987 27.6 37.9987 28.9283V36.6667M21.332 36.6667H54.6654" stroke="#F7F7F7" stroke-width="2" stroke-linecap="round" stroke-linejoin="round"/>
<path d="M33.8333 28.3327C33.8333 29.4378 33.3943 30.4976 32.6129 31.279C31.8315 32.0604 30.7717 32.4993 29.6667 32.4993C28.5616 32.4993 27.5018 32.0604 26.7204 31.279C25.939 30.4976 25.5 29.4378 25.5 28.3327C25.5 27.2276 25.939 26.1678 26.7204 25.3864C27.5018 24.605 28.5616 24.166 29.6667 24.166C30.7717 24.166 31.8315 24.605 32.6129 25.3864C33.3943 26.1678 33.8333 27.2276 33.8333 28.3327Z" stroke="#F7F7F7" stroke-width="2"/>
</svg>
