<svg width="76" height="60" viewBox="0 0 76 60" fill="none" xmlns="http://www.w3.org/2000/svg">
<rect width="76" height="60" rx="14" fill="#2C2535"/>
<path d="M38 15C34.0218 15 30.2064 16.5804 27.3934 19.3934C24.5804 22.2064 23 26.0218 23 30C23 33.9782 24.5804 37.7936 27.3934 40.6066C30.2064 43.4196 34.0218 45 38 45C41.9782 45 45.7936 43.4196 48.6066 40.6066C51.4196 37.7936 53 33.9782 53 30C53 26.0218 51.4196 22.2064 48.6066 19.3934C45.7936 16.5804 41.9782 15 38 15ZM34.88 17.2481C36.9311 16.7471 39.0727 16.7471 41.1238 17.2481L38 19.0688L34.88 17.25V17.2481ZM32.5475 18.0581L37.0662 20.6925V23.88L31.8744 27.54L28.9494 26.4769L27.7756 21.7669C29.0571 20.1768 30.6907 18.9084 32.5475 18.0581ZM26.3769 23.8987L27.1137 26.8613L24.9312 28.8C25.0906 27.0431 25.5931 25.3875 26.3769 23.8987ZM24.9387 31.2975L28.3644 28.26L31.2631 29.3119L33.2225 35.4806L31.8781 37.4925H27.2225C25.9428 35.6574 25.1564 33.5241 24.9387 31.2975ZM28.8069 39.3675H31.7206L32.6769 42C31.2398 41.361 29.9291 40.4694 28.8069 39.3675ZM34.9494 42.7687L33.4213 38.5575L34.7525 36.5644H41.2531L42.5863 38.5575L41.0581 42.7669C39.0501 43.2463 36.9574 43.2482 34.9494 42.7687ZM43.3325 41.9963L44.2888 39.3675H47.1931C46.0734 40.467 44.7659 41.3573 43.3325 41.9963ZM48.7775 37.4925H44.1313L42.7813 35.4769L44.7031 29.3137L47.6413 28.2562L51.0612 31.2975C50.8436 33.5241 50.0572 35.6574 48.7775 37.4925ZM51.0706 28.7962L48.8956 26.8631L49.6325 23.9156C50.4088 25.3969 50.9113 27.0469 51.0706 28.7962ZM48.2319 21.78L47.06 26.4731L44.09 27.5419L38.9394 23.8819V20.6944L43.4562 18.0563C45.3162 18.9089 46.952 20.1832 48.2338 21.7781L48.2319 21.78ZM33.1194 28.9613L38 25.5131L42.8488 28.9575L41.0637 34.6875H34.9381L33.1194 28.9575V28.9613Z" fill="#F7F7F7"/>
</svg>
