<svg width="77" height="60" viewBox="0 0 77 60" fill="none" xmlns="http://www.w3.org/2000/svg">
<rect x="0.5" width="76" height="60" rx="14" fill="#2C2535"/>
<path d="M31.375 33C33.625 33 40.75 34.125 40.75 36.75C40.75 39.375 36.9205 38.8042 35.125 39C33.5703 39 29.875 39 29.875 41.25C29.875 44.25 45.2838 45 48.25 45" stroke="#F7F7F7" stroke-width="2" stroke-linecap="round" stroke-linejoin="round"/>
<path d="M44.1248 23.25C44.1248 20.0497 40.9223 15 36.4785 15C32.0348 15 28.6245 21 27.2835 26.6002C25.9425 32.1997 26.1345 39 26.1345 39M40.3748 30C40.3748 28.125 41.4248 24.75 44.8748 24.75C47.8748 24.75 49.5248 27.7815 50.1248 30.375C50.7248 32.9685 50.8748 36.75 50.8748 36.75" stroke="#F7F7F7" stroke-width="2" stroke-linecap="round" stroke-linejoin="round"/>
</svg>
