<svg width="77" height="60" viewBox="0 0 77 60" fill="none" xmlns="http://www.w3.org/2000/svg">
<rect x="0.5" width="76" height="60" rx="14" fill="#2D2536"/>
<path d="M56.2244 43.6366H50.089V38.1829H54.861C54.9652 38.1831 55.068 38.1594 55.1615 38.1137C55.2551 38.0679 55.3369 38.0014 55.4008 37.9191C55.4646 37.8368 55.5088 37.741 55.5299 37.639C55.5509 37.537 55.5483 37.4316 55.5223 37.3307L50.0686 15.516C50.0317 15.3686 49.9465 15.2377 49.8267 15.1443C49.7069 15.0508 49.5593 15 49.4073 15C49.2554 15 49.1078 15.0508 48.988 15.1443C48.8682 15.2377 48.783 15.3686 48.7461 15.516L43.2924 37.3307C43.2663 37.4316 43.2638 37.537 43.2848 37.639C43.3059 37.741 43.35 37.8368 43.4139 37.9191C43.4777 38.0014 43.5596 38.0679 43.6531 38.1137C43.7467 38.1594 43.8495 38.1831 43.9536 38.1829H48.7256V43.6366H36.4548V39.5463H38.5C38.6808 39.5463 38.8542 39.4745 38.982 39.3466C39.1098 39.2188 39.1817 39.0454 39.1817 38.8646C39.1817 38.6838 39.1098 38.5104 38.982 38.3826C38.8542 38.2547 38.6808 38.1829 38.5 38.1829H36.4548V34.0926H38.5C38.6808 34.0926 38.8542 34.0208 38.982 33.893C39.1098 33.7651 39.1817 33.5917 39.1817 33.4109C39.1817 33.2301 39.1098 33.0567 38.982 32.9289C38.8542 32.801 38.6808 32.7292 38.5 32.7292H23.5023C23.3215 32.7292 23.1481 32.801 23.0203 32.9289C22.8924 33.0567 22.8206 33.2301 22.8206 33.4109C22.8206 33.5917 22.8924 33.7651 23.0203 33.893C23.1481 34.0208 23.3215 34.0926 23.5023 34.0926H25.5474V38.1829H23.5023C23.3215 38.1829 23.1481 38.2547 23.0203 38.3826C22.8924 38.5104 22.8206 38.6838 22.8206 38.8646C22.8206 39.0454 22.8924 39.2188 23.0203 39.3466C23.1481 39.4745 23.3215 39.5463 23.5023 39.5463H25.5474V43.6366H20.7755C20.5947 43.6366 20.4213 43.7084 20.2934 43.8362C20.1656 43.9641 20.0938 44.1375 20.0938 44.3183C20.0938 44.4991 20.1656 44.6725 20.2934 44.8003C20.4213 44.9282 20.5947 45 20.7755 45H56.2244C56.4053 45 56.5786 44.9282 56.7065 44.8003C56.8343 44.6725 56.9062 44.4991 56.9062 44.3183C56.9062 44.1375 56.8343 43.9641 56.7065 43.8362C56.5786 43.7084 56.4053 43.6366 56.2244 43.6366ZM49.4073 18.4968L53.9884 36.8195H44.8262L49.4073 18.4968ZM26.9109 34.0926H35.0914V38.1829H26.9109V34.0926ZM26.9109 39.5463H35.0914V43.6366H26.9109V39.5463ZM36.4548 25.9121C37.2638 25.9121 38.0546 25.6722 38.7273 25.2227C39.3999 24.7733 39.9242 24.1345 40.2337 23.3871C40.5433 22.6397 40.6243 21.8173 40.4665 21.0238C40.3087 20.2304 39.9191 19.5016 39.3471 18.9296C38.775 18.3575 38.0462 17.968 37.2528 17.8101C36.4594 17.6523 35.6369 17.7333 34.8895 18.0429C34.1421 18.3525 33.5033 18.8767 33.0539 19.5494C32.6044 20.222 32.3646 21.0128 32.3646 21.8218C32.3646 22.9066 32.7955 23.947 33.5626 24.7141C34.3296 25.4811 35.37 25.9121 36.4548 25.9121ZM36.4548 19.095C36.9941 19.095 37.5213 19.2549 37.9698 19.5545C38.4182 19.8542 38.7677 20.28 38.9741 20.7783C39.1805 21.2766 39.2345 21.8248 39.1293 22.3538C39.0241 22.8828 38.7643 23.3686 38.383 23.75C38.0016 24.1313 37.5158 24.391 36.9868 24.4963C36.4578 24.6015 35.9096 24.5475 35.4113 24.3411C34.913 24.1347 34.4872 23.7852 34.1875 23.3368C33.8879 22.8883 33.728 22.3611 33.728 21.8218C33.728 21.0986 34.0153 20.405 34.5267 19.8936C35.038 19.3823 35.7316 19.095 36.4548 19.095Z" fill="#F7F7F7"/>
</svg>
