<svg width="76" height="60" viewBox="0 0 76 60" fill="none" xmlns="http://www.w3.org/2000/svg">
<rect width="76" height="60" rx="14" fill="#2C2535"/>
<path d="M23.5 45V20.625C23.5 19.0775 24.0161 17.7531 25.0484 16.6519C26.0807 15.5506 27.3221 15 28.7727 15H41.0758C42.5263 15 43.7678 15.5506 44.8001 16.6519C45.8323 17.7531 46.3485 19.0775 46.3485 20.625V22.5H44.5909V20.625C44.5909 19.5938 44.2464 18.7106 43.5575 17.9756C42.8685 17.2406 42.0413 16.8737 41.0758 16.875H28.7727C27.8061 16.875 26.9782 17.2425 26.2893 17.9775C25.6003 18.7125 25.2564 19.595 25.2576 20.625V43.125H44.5909V39.375H46.3485V45H23.5ZM34.9242 35.625C36.3748 35.625 37.6163 35.0744 38.6485 33.9731C39.6808 32.8719 40.197 31.5475 40.197 30C40.197 28.4525 39.6808 27.1281 38.6485 26.0269C37.6163 24.9256 36.3748 24.375 34.9242 24.375C33.4737 24.375 32.2322 24.9256 31.1999 26.0269C30.1677 27.1281 29.6515 28.4525 29.6515 30C29.6515 31.5475 30.1677 32.8719 31.1999 33.9731C32.2322 35.0744 33.4737 35.625 34.9242 35.625ZM34.9242 33.75C33.9576 33.75 33.1298 33.3825 32.4408 32.6475C31.7518 31.9125 31.4079 31.03 31.4091 30C31.4091 28.9688 31.7536 28.0856 32.4425 27.3506C33.1315 26.6156 33.9587 26.2487 34.9242 26.25C35.8909 26.25 36.7187 26.6175 37.4077 27.3525C38.0967 28.0875 38.4406 28.97 38.4394 30C38.4394 31.0312 38.0949 31.9144 37.4059 32.6494C36.717 33.3844 35.8897 33.7512 34.9242 33.75ZM45.4697 29.0625V27.1875H46.1727C46.6215 27.1875 47.0205 27.0812 47.3696 26.8687C47.7188 26.6562 48 26.3125 48.2133 25.8375C48.5636 25.0763 49.0563 24.4863 49.6914 24.0675C50.3276 23.6475 51.0295 23.4375 51.797 23.4375H52.5V25.3125H51.797C51.3482 25.3125 50.9498 25.4188 50.6018 25.6313C50.2515 25.8438 49.9691 26.1875 49.7547 26.6625C49.4055 27.4237 48.9134 28.0137 48.2783 28.4325C47.6421 28.8525 46.9402 29.0625 46.1727 29.0625H45.4697ZM45.4697 36.5625V34.6875H46.1727C46.6215 34.6875 47.0205 34.5812 47.3696 34.3687C47.7188 34.1562 48 33.8125 48.2133 33.3375C48.5636 32.625 49.0563 32.0469 49.6914 31.6031C50.3276 31.1594 51.0295 30.9375 51.797 30.9375H52.5V32.8125H51.797C51.3482 32.8125 50.9498 32.9188 50.6018 33.1313C50.2515 33.3438 49.9691 33.6875 49.7547 34.1625C49.4055 34.9237 48.9134 35.5137 48.2783 35.9325C47.6421 36.3525 46.9402 36.5625 46.1727 36.5625H45.4697Z" fill="#F7F7F7"/>
</svg>
