<svg width="76" height="60" viewBox="0 0 76 60" fill="none" xmlns="http://www.w3.org/2000/svg">
<rect width="76" height="60" rx="14" fill="#2C2535"/>
<path d="M37.9972 44.9996H35.9282V44.7637C35.9264 44.1322 35.7328 43.5162 35.3731 42.9971C35.0135 42.478 34.5047 42.0804 33.9141 41.8568L30.2603 40.4872C29.4957 40.1977 28.8369 39.6829 28.3713 39.0109C27.9056 38.3389 27.6549 37.5413 27.6523 36.7237H29.7213C29.7226 37.1206 29.8444 37.5078 30.0705 37.834C30.2965 38.1602 30.6163 38.4101 30.9875 38.5506L34.6403 39.9203C35.6244 40.2928 36.4723 40.9553 37.0717 41.8201C37.6711 42.685 37.9939 43.7115 37.9972 44.7637V44.9996ZM52.4799 44.9996H50.411V44.7637C50.4091 44.1322 50.2156 43.5162 49.8559 42.9971C49.4962 42.478 48.9874 42.0804 48.3968 41.8568L44.743 40.4872C43.9784 40.1977 43.3197 39.6829 42.854 39.0109C42.3883 38.3389 42.1376 37.5413 42.1351 36.7237H44.2041C44.2054 37.1206 44.3271 37.5078 44.5532 37.834C44.7793 38.1602 45.0991 38.4101 45.4703 38.5506L49.123 39.9203C50.1072 40.2928 50.9551 40.9553 51.5545 41.8201C52.1539 42.685 52.4766 43.7115 52.4799 44.7637V44.9996ZM32.8248 26.3789H39.0317V28.4479H32.8248V26.3789Z" fill="#F7F7F7"/>
<path d="M45.6949 21.2069L44.3811 16.5C44.2561 16.0684 43.9946 15.689 43.6358 15.4185C43.2769 15.1481 42.8401 15.0013 42.3908 15H29.468C29.0189 15.0015 28.5823 15.1484 28.2237 15.4189C27.8651 15.6893 27.6037 16.0686 27.4787 16.5L26.1339 21.2069H23.5156V23.2759H25.5846V30.5172C25.5851 31.0658 25.8033 31.5917 26.1912 31.9796C26.5791 32.3675 27.105 32.5857 27.6536 32.5862V34.6552H29.7225V32.5862H42.1363V34.6552H44.2053V32.5862C44.7538 32.5857 45.2798 32.3675 45.6677 31.9796C46.0555 31.5917 46.2737 31.0658 46.2742 30.5172V23.2759H48.3432V21.2069H45.6949ZM29.4691 17.069H42.3918L43.8691 22.2414H27.9908L29.4691 17.069ZM44.2053 26.3793H42.1363V28.4483H44.2053V30.5172H27.6536V28.4483H29.7225V26.3793H27.6536V24.3103H44.2053V26.3793Z" fill="#F7F7F7"/>
</svg>
