<svg width="76" height="61" viewBox="0 0 76 61" fill="none" xmlns="http://www.w3.org/2000/svg">
<rect y="0.5" width="76" height="60" rx="14" fill="#302A39"/>
<path fill-rule="evenodd" clip-rule="evenodd" d="M47.7663 17.593C47.4209 17.593 47.079 17.6562 46.7599 17.7789C46.4409 17.9016 46.151 18.0815 45.9068 18.3082C45.6626 18.535 45.4689 18.8042 45.3367 19.1004C45.2046 19.3967 45.1366 19.7142 45.1366 20.0349C45.1366 20.3556 45.2046 20.6731 45.3367 20.9693C45.4689 21.2656 45.6626 21.5348 45.9068 21.7615C46.151 21.9883 46.4409 22.1682 46.7599 22.2909C47.079 22.4136 47.4209 22.4767 47.7663 22.4767C48.4637 22.4767 49.1326 22.2195 49.6257 21.7615C50.1189 21.3036 50.396 20.6825 50.396 20.0349C50.396 19.3873 50.1189 18.7662 49.6257 18.3082C49.1326 17.8503 48.4637 17.593 47.7663 17.593ZM42.8825 20.0349C42.8825 18.8322 43.3971 17.6787 44.313 16.8282C45.2288 15.9778 46.471 15.5 47.7663 15.5C49.0615 15.5 50.3037 15.9778 51.2196 16.8282C52.1355 17.6787 52.65 18.8322 52.65 20.0349C52.65 21.2376 52.1355 22.3911 51.2196 23.2415C50.3037 24.092 49.0615 24.5698 47.7663 24.5698C46.471 24.5698 45.2288 24.092 44.313 23.2415C43.3971 22.3911 42.8825 21.2376 42.8825 20.0349ZM35.0716 22.0302C35.43 21.9797 35.7927 21.9596 36.155 21.9702C36.2752 21.9758 36.4105 21.9842 36.5653 21.9981C40.1462 22.3442 42.8014 24.8391 44.5716 27.3033L44.6662 27.4344C45.1122 28.0555 45.7164 28.5648 46.4252 28.917C47.1341 29.2692 47.9256 29.4535 48.7295 29.4535H51.523C51.8219 29.4535 52.1085 29.5637 52.3199 29.76C52.5312 29.9563 52.65 30.2224 52.65 30.5C52.65 30.7776 52.5312 31.0437 52.3199 31.24C52.1085 31.4363 51.8219 31.5465 51.523 31.5465H48.728C47.553 31.5465 46.3962 31.2771 45.3602 30.7623C44.3243 30.2475 43.4412 29.5031 42.7894 28.5953L42.6962 28.4642C42.2956 27.902 41.8553 27.365 41.3784 26.8567L38.5473 30.1428C37.9042 30.8879 37.4744 31.3902 37.1844 31.8033C36.9019 32.2023 36.8222 32.4242 36.8012 32.593C36.7651 32.8721 36.8042 33.1553 36.9109 33.4177C36.977 33.5767 37.1137 33.7749 37.4909 34.0972C37.8816 34.4321 38.4316 34.82 39.2506 35.3949L39.3948 35.4967C40.4767 36.2586 41.2281 36.786 41.7465 37.4893C42.0425 37.8898 42.2755 38.3265 42.4423 38.787C42.7323 39.5963 42.7323 40.4698 42.7323 41.7312V44.4535C42.7323 44.731 42.6135 44.9972 42.4022 45.1935C42.1908 45.3897 41.9042 45.5 41.6053 45.5C41.3064 45.5 41.0197 45.3897 40.8083 45.1935C40.597 44.9972 40.4782 44.731 40.4782 44.4535V41.9C40.4782 40.407 40.4632 39.8977 40.3039 39.4512C40.2047 39.175 40.0646 38.9129 39.8877 38.6726C39.6022 38.2847 39.1724 37.9679 37.8891 37.0651L37.847 37.0358C37.0807 36.4972 36.445 36.0493 35.9657 35.6391C35.4638 35.2107 35.0475 34.753 34.8056 34.1656C34.5683 33.588 34.4848 32.9657 34.5622 32.3516C34.6403 31.7265 34.9243 31.1865 35.2985 30.6577C35.6546 30.1526 36.155 29.5721 36.7531 28.8758L39.7344 25.4167C38.7006 24.687 37.5645 24.2014 36.3323 24.0828C36.2404 24.0738 36.1482 24.0673 36.0559 24.0633C35.8296 24.0584 35.6032 24.0724 35.3796 24.1051C33.7793 24.3116 32.1759 25.1377 28.6927 26.9753L26.5348 28.1126C26.275 28.2499 25.9671 28.2857 25.6788 28.2121C25.3905 28.1386 25.1455 27.9618 24.9976 27.7205C24.8497 27.4792 24.8112 27.1932 24.8904 26.9255C24.9695 26.6578 25.16 26.4303 25.4199 26.293L27.5777 25.1558L27.8061 25.0344C30.9918 23.3544 32.9889 22.2995 35.0716 22.033V22.0302ZM34.2121 36.6744C34.4415 36.8521 34.5856 37.1071 34.6127 37.3834C34.6397 37.6597 34.5475 37.9347 34.3563 38.1479L32.8536 39.8237L32.7079 39.9856C31.7431 41.0614 31.0354 41.8526 30.0466 42.2823C29.0579 42.7121 27.9504 42.7121 26.4402 42.7107H24.4747C24.1758 42.7107 23.8891 42.6004 23.6778 42.4042C23.4664 42.2079 23.3477 41.9417 23.3477 41.6642C23.3477 41.3866 23.4664 41.1204 23.6778 40.9242C23.8891 40.7279 24.1758 40.6177 24.4747 40.6177H26.2148C28.0511 40.6177 28.6131 40.594 29.0894 40.3874C29.5673 40.1795 29.9459 39.793 31.121 38.4842L32.6237 36.8084C32.7185 36.7027 32.8348 36.6153 32.9659 36.5514C33.097 36.4874 33.2405 36.4481 33.388 36.4357C33.5355 36.4232 33.6842 36.4379 33.8256 36.4789C33.967 36.5198 34.0983 36.5863 34.2121 36.6744Z" fill="#F7F7F7"/>
</svg>
