<svg width="76" height="60" viewBox="0 0 76 60" fill="none" xmlns="http://www.w3.org/2000/svg">
<rect width="76" height="60" rx="14" fill="#2C2535"/>
<path d="M30.5001 39.4661C30.082 39.4661 29.7328 39.3266 29.4524 39.0477C29.172 38.7675 29.0318 38.4204 29.0318 38.0064C29.0318 37.5925 29.1727 37.2473 29.4543 36.9708C29.7373 36.6932 30.0878 36.5543 30.5058 36.5543C30.9238 36.5543 31.2724 36.6938 31.5515 36.9727C31.8319 37.2529 31.9721 37.6 31.9721 38.014C31.9721 38.428 31.8313 38.7732 31.5496 39.0496C31.2667 39.3273 30.9162 39.4661 30.4982 39.4661H30.5001ZM37.9999 39.4661C37.5819 39.4661 37.2327 39.3266 36.9523 39.0477C36.6719 38.7675 36.5317 38.4204 36.5317 38.0064C36.5317 37.5925 36.6725 37.2473 36.9542 36.9708C37.2371 36.6932 37.5876 36.5543 38.0057 36.5543C38.4237 36.5543 38.7723 36.6938 39.0514 36.9727C39.3318 37.2529 39.472 37.6 39.472 38.014C39.472 38.428 39.3312 38.7732 39.0495 39.0496C38.7665 39.3273 38.418 39.4661 37.9999 39.4661ZM45.4998 39.4661C45.0817 39.4661 44.7325 39.3266 44.4521 39.0477C44.1717 38.7675 44.0315 38.4204 44.0315 38.0064C44.0315 37.5925 44.1724 37.2473 44.454 36.9708C44.737 36.6932 45.0875 36.5543 45.5055 36.5543C45.9223 36.5543 46.2709 36.6938 46.5513 36.9727C46.8316 37.2529 46.9718 37.6 46.9718 38.014C46.9718 38.428 46.831 38.7732 46.5493 39.0496C46.2664 39.3273 45.9159 39.4661 45.4979 39.4661H45.4998ZM28.0014 32.039C27.6063 32.039 27.2622 31.8939 26.969 31.6036C26.6772 31.3133 26.5312 30.9725 26.5312 30.5812V30.1458C26.5312 27.1646 27.547 24.5955 29.5786 22.4385C31.6102 20.2802 34.0993 19.0774 37.046 18.83V15.9466C37.046 15.6778 37.1377 15.4531 37.3212 15.2726C37.5048 15.0909 37.7316 15 38.0018 15C38.272 15 38.4989 15.0909 38.6824 15.2726C38.8647 15.4544 38.9558 15.679 38.9558 15.9466V18.83C41.9025 19.0774 44.3916 20.2802 46.4232 22.4385C48.456 24.5967 49.4724 27.1658 49.4724 30.1458V30.5812C49.4724 30.9725 49.3259 31.3133 49.0327 31.6036C48.7396 31.8939 48.3955 32.039 48.0004 32.039H28.0014ZM28.443 30.1458H47.5607C47.5607 27.5268 46.6284 25.2941 44.7638 23.4476C42.8991 21.601 40.6452 20.6784 38.0018 20.6797C35.3572 20.6797 33.1026 21.6029 31.238 23.4495C29.3734 25.296 28.4417 27.5281 28.443 30.1458ZM30.5001 45C30.082 45 29.7328 44.8605 29.4524 44.5816C29.172 44.3014 29.0318 43.9543 29.0318 43.5403C29.0318 43.1263 29.1727 42.7811 29.4543 42.5047C29.7373 42.2271 30.0878 42.0882 30.5058 42.0882C30.9238 42.0882 31.2724 42.2277 31.5515 42.5066C31.8319 42.7868 31.9721 43.1339 31.9721 43.5479C31.9721 43.9606 31.8313 44.3058 31.5496 44.5835C31.2667 44.8612 30.9162 45 30.4982 45H30.5001ZM37.9999 45C37.5819 45 37.2327 44.8605 36.9523 44.5816C36.6719 44.3014 36.5317 43.9543 36.5317 43.5403C36.5317 43.1263 36.6725 42.7811 36.9542 42.5047C37.2371 42.2271 37.5876 42.0882 38.0057 42.0882C38.4237 42.0882 38.7723 42.2277 39.0514 42.5066C39.3318 42.7868 39.472 43.1339 39.472 43.5479C39.472 43.9606 39.3312 44.3058 39.0495 44.5835C38.7665 44.8612 38.418 45 37.9999 45ZM45.4998 45C45.0817 45 44.7325 44.8605 44.4521 44.5816C44.1717 44.3014 44.0315 43.9543 44.0315 43.5403C44.0315 43.1263 44.1724 42.7811 44.454 42.5047C44.737 42.2271 45.0875 42.0882 45.5055 42.0882C45.9223 42.0882 46.2709 42.2277 46.5513 42.5066C46.8316 42.7868 46.9718 43.1339 46.9718 43.5479C46.9718 43.9606 46.831 44.3058 46.5493 44.5835C46.2664 44.8612 45.9159 45 45.4979 45H45.4998Z" fill="#F7F7F7"/>
</svg>
