<svg width="76" height="64" viewBox="0 0 76 64" fill="none" xmlns="http://www.w3.org/2000/svg">
<rect width="76" height="64" rx="14" fill="#2C2535"/>
<path fill-rule="evenodd" clip-rule="evenodd" d="M44.2208 19.1951V21.6683L47.1476 24.0098V19.1951H44.2208ZM49.3427 25.7659V18.8293C49.3427 17.8195 48.5232 17 47.5134 17H43.8549C42.8451 17 42.0256 17.8195 42.0256 18.8293V19.9122L41.43 19.4351C40.4569 18.6564 39.2476 18.2321 38.0012 18.2321C36.7549 18.2321 35.5456 18.6564 34.5725 19.4351L22.6822 28.9473C22.4548 29.1292 22.3089 29.3939 22.2766 29.6833C22.2444 29.9727 22.3284 30.263 22.5103 30.4905C22.6921 30.7179 22.9568 30.8638 23.2462 30.8961C23.5356 30.9283 23.826 30.8443 24.0534 30.6624L25.1964 29.7463V44.8049H23.3671C23.076 44.8049 22.7968 44.9205 22.591 45.1263C22.3852 45.3322 22.2695 45.6113 22.2695 45.9024C22.2695 46.1935 22.3852 46.4727 22.591 46.6785C22.7968 46.8844 23.076 47 23.3671 47H52.6354C52.9265 47 53.2056 46.8844 53.4115 46.6785C53.6173 46.4727 53.7329 46.1935 53.7329 45.9024C53.7329 45.6113 53.6173 45.3322 53.4115 45.1263C53.2056 44.9205 52.9265 44.8049 52.6354 44.8049H50.8061V29.7463L51.9505 30.6624C52.1783 30.84 52.4669 30.9206 52.7538 30.8867C53.0406 30.8529 53.3025 30.7073 53.4828 30.4816C53.663 30.256 53.747 29.9683 53.7166 29.6811C53.6862 29.3939 53.5438 29.1302 53.3203 28.9473L49.3427 25.7659ZM48.611 27.9902L40.0588 21.1488C39.4749 20.6814 38.7492 20.4267 38.0012 20.4267C37.2533 20.4267 36.5276 20.6814 35.9437 21.1488L27.3915 27.9902V44.8049H32.5134V38.5122C32.5134 37.5405 32.5134 36.702 32.6042 36.0302C32.7008 35.3102 32.9188 34.621 33.4778 34.062C34.0368 33.5029 34.7276 33.2849 35.4461 33.1883C36.1178 33.0976 36.9564 33.0976 37.9295 33.0976H38.0729C39.0461 33.0976 39.8847 33.0976 40.5564 33.1883C41.2764 33.2849 41.9656 33.5029 42.5247 34.062C43.0837 34.621 43.3017 35.3102 43.3983 36.0302C43.489 36.702 43.489 37.5405 43.489 38.5137V44.8049H48.611V27.9902ZM41.2939 44.8049V38.5854C41.2939 37.52 41.291 36.8293 41.2237 36.3229C41.1593 35.8473 41.0568 35.698 40.972 35.6146C40.8886 35.5312 40.7393 35.4273 40.2637 35.3629C39.7559 35.2956 39.0666 35.2927 38.0012 35.2927C36.9359 35.2927 36.2451 35.2956 35.7388 35.3629C35.2632 35.4273 35.1139 35.5312 35.0305 35.6146C34.9471 35.698 34.8432 35.8473 34.7788 36.3229C34.7115 36.8307 34.7086 37.52 34.7086 38.5854V44.8049H41.2939ZM38.0012 25.7805C37.761 25.7805 37.5231 25.8278 37.3012 25.9197C37.0793 26.0117 36.8776 26.1464 36.7078 26.3163C36.5379 26.4861 36.4031 26.6878 36.3112 26.9097C36.2193 27.1317 36.172 27.3695 36.172 27.6098C36.172 27.85 36.2193 28.0879 36.3112 28.3098C36.4031 28.5317 36.5379 28.7334 36.7078 28.9032C36.8776 29.0731 37.0793 29.2079 37.3012 29.2998C37.5231 29.3917 37.761 29.439 38.0012 29.439C38.4864 29.439 38.9517 29.2463 39.2947 28.9032C39.6378 28.5602 39.8305 28.0949 39.8305 27.6098C39.8305 27.1246 39.6378 26.6593 39.2947 26.3163C38.9517 25.9732 38.4864 25.7805 38.0012 25.7805ZM33.9768 27.6098C33.9768 26.5424 34.4008 25.5188 35.1556 24.7641C35.9103 24.0094 36.9339 23.5854 38.0012 23.5854C39.0686 23.5854 40.0922 24.0094 40.8469 24.7641C41.6016 25.5188 42.0256 26.5424 42.0256 27.6098C42.0256 28.6771 41.6016 29.7007 40.8469 30.4554C40.0922 31.2101 39.0686 31.6341 38.0012 31.6341C36.9339 31.6341 35.9103 31.2101 35.1556 30.4554C34.4008 29.7007 33.9768 28.6771 33.9768 27.6098Z" fill="#F7F7F7"/>
</svg>
