<svg width="76" height="60" viewBox="0 0 76 60" fill="none" xmlns="http://www.w3.org/2000/svg">
<rect width="76" height="60" rx="14" fill="#2C2535"/>
<path fill-rule="evenodd" clip-rule="evenodd" d="M37.3261 17.0924C37.0055 17.0924 36.6881 17.1555 36.3919 17.2782C36.0958 17.4008 35.8267 17.5807 35.6 17.8073C35.3733 18.034 35.1935 18.3031 35.0708 18.5993C34.9482 18.8954 34.885 19.2129 34.885 19.5334C34.885 19.854 34.9482 20.1714 35.0708 20.4676C35.1935 20.7638 35.3733 21.0329 35.6 21.2595C35.8267 21.4862 36.0958 21.666 36.3919 21.7887C36.6881 21.9114 37.0055 21.9745 37.3261 21.9745C37.9735 21.9745 38.5944 21.7173 39.0522 21.2595C39.51 20.8018 39.7672 20.1809 39.7672 19.5334C39.7672 18.886 39.51 18.2651 39.0522 17.8073C38.5944 17.3495 37.9735 17.0924 37.3261 17.0924ZM32.7927 19.5334C32.7927 18.3311 33.2703 17.178 34.1205 16.3278C34.9707 15.4776 36.1237 15 37.3261 15C38.5284 15 39.6815 15.4776 40.5317 16.3278C41.3819 17.178 41.8595 18.3311 41.8595 19.5334C41.8595 20.7358 41.3819 21.8889 40.5317 22.7391C39.6815 23.5892 38.5284 24.0669 37.3261 24.0669C36.1237 24.0669 34.9707 23.5892 34.1205 22.7391C33.2703 21.8889 32.7927 20.7358 32.7927 19.5334ZM38.7601 28.2558C38.6402 28.2508 38.5201 28.2494 38.4002 28.2516H36.8783L36.7514 29.5237C36.5087 31.9509 36.4236 32.9273 36.6398 33.8493C36.8574 34.7728 37.3679 35.6083 38.6666 37.6742L42.2571 43.3877C42.4009 43.6225 42.4463 43.9046 42.3835 44.1727C42.3207 44.4409 42.1547 44.6734 41.9215 44.8199C41.6884 44.9664 41.4068 45.0151 41.138 44.9554C40.8692 44.8956 40.6347 44.7323 40.4855 44.5008L36.8951 38.7873L36.7932 38.6255C35.6285 36.7744 34.9101 35.632 34.6032 34.3292C34.2964 33.0249 34.4317 31.6817 34.6507 29.5042L34.6688 29.3145L34.7748 28.253C34.0774 28.2572 33.5585 28.2697 33.1428 28.3213C32.6155 28.3841 32.37 28.4957 32.1956 28.6352C32.0227 28.7747 31.8609 28.9895 31.6837 29.4903C31.4982 30.0161 31.3378 30.7289 31.0992 31.8016L30.6752 33.7098C30.6117 33.9774 30.4455 34.2092 30.2124 34.3551C29.9794 34.501 29.6983 34.5493 29.4299 34.4896C29.1615 34.4298 28.9274 34.2668 28.7783 34.0357C28.6292 33.8047 28.577 33.5243 28.6331 33.2551L29.0711 31.2869C29.2914 30.2909 29.4784 29.454 29.7113 28.7928C29.9582 28.0926 30.2958 27.4774 30.8872 27.0031C31.4787 26.5289 32.151 26.3336 32.8889 26.2429C33.585 26.1592 34.4428 26.1592 35.4625 26.1592H38.435C38.6247 26.1592 38.7712 26.1592 38.9093 26.169C39.6691 26.2234 40.3955 26.5028 40.996 26.9716C41.5964 27.4403 42.0437 28.0773 42.2808 28.8012C42.3226 28.9323 42.3589 29.076 42.4063 29.2601L42.4133 29.2936C42.4914 29.606 42.5151 29.6953 42.5375 29.7567C42.8304 30.602 43.7161 31.0888 44.5866 30.8824C44.6507 30.8684 44.7386 30.8391 45.0441 30.7373L46.0624 30.3983C46.3221 30.3226 46.6012 30.3504 46.8408 30.476C47.0805 30.6016 47.2622 30.8151 47.3478 31.0718C47.4334 31.3285 47.4161 31.6084 47.2997 31.8527C47.1833 32.097 46.9768 32.2866 46.7236 32.3819L45.7053 32.7222L45.6606 32.7362C45.4661 32.8049 45.2688 32.8654 45.0692 32.9175C44.1447 33.1366 43.1718 33.0048 42.3389 32.5477C41.5061 32.0905 40.8725 31.3405 40.5609 30.443C40.4971 30.2464 40.4417 30.0472 40.3949 29.846L40.3837 29.7999C40.3565 29.6828 40.3258 29.5665 40.2917 29.4512C40.1838 29.1225 39.9805 28.8333 39.7078 28.6204C39.435 28.4075 39.1051 28.2806 38.7601 28.2558ZM34.4191 36.7968C34.6499 36.9507 34.8102 37.19 34.8646 37.462C34.919 37.7341 34.8631 38.0166 34.7093 38.2475L30.5245 44.5245C30.4491 44.6405 30.3513 44.7403 30.237 44.8182C30.1227 44.8962 29.9941 44.9507 29.8585 44.9785C29.723 45.0064 29.5833 45.0071 29.4475 44.9807C29.3117 44.9542 29.1825 44.901 29.0674 44.8243C28.9523 44.7476 28.8536 44.6487 28.7769 44.5336C28.7002 44.4184 28.6472 44.2892 28.6208 44.1534C28.5944 44.0175 28.5952 43.8778 28.6232 43.7423C28.6511 43.6068 28.7057 43.4782 28.7837 43.364L32.9684 37.0869C33.1223 36.8561 33.3616 36.6958 33.6337 36.6414C33.9057 36.587 34.1883 36.6429 34.4191 36.7968Z" fill="#F7F7F7"/>
</svg>
