<svg width="77" height="60" viewBox="0 0 77 60" fill="none" xmlns="http://www.w3.org/2000/svg">
<rect x="0.5" width="76" height="60" rx="14" fill="#2C2535"/>
<path d="M28.5463 45L25.168 15H51.8346L48.488 45H28.5463ZM28.0463 25.6417L30.0396 43.3333H46.9946L48.988 25.6417H28.0463ZM27.8213 23.975H49.213L49.943 16.6667H27.0263L27.8213 23.975ZM38.5013 38.525C37.8769 38.525 37.3457 38.3061 36.908 37.8683C36.4702 37.4306 36.2513 36.8994 36.2513 36.275C36.2513 35.7083 36.4069 35.1067 36.718 34.47C37.0291 33.8322 37.6235 32.91 38.5013 31.7033C39.3791 32.91 39.9735 33.8322 40.2846 34.47C40.5957 35.1078 40.7513 35.7094 40.7513 36.275C40.7513 36.8994 40.5324 37.4306 40.0946 37.8683C39.6569 38.3061 39.1257 38.525 38.5013 38.525ZM38.5013 40.1917C39.5991 40.1917 40.5269 39.8139 41.2846 39.0583C42.0402 38.3017 42.418 37.3739 42.418 36.275C42.418 35.3928 42.1513 34.4506 41.618 33.4483C41.0846 32.4461 40.0457 30.955 38.5013 28.975C36.9569 30.955 35.918 32.4461 35.3846 33.4483C34.8513 34.4506 34.5846 35.3928 34.5846 36.275C34.5846 37.3739 34.9624 38.3017 35.718 39.0583C36.4757 39.8139 37.4035 40.1917 38.5013 40.1917Z" fill="#F7F7F7"/>
</svg>
