<svg width="74" height="60" viewBox="0 0 74 60" fill="none" xmlns="http://www.w3.org/2000/svg">
<rect x="0.5" width="73" height="60" rx="20" fill="#302A39"/>
<path fill-rule="evenodd" clip-rule="evenodd" d="M31.1278 18.3737C31.1278 19.2684 30.7613 20.1265 30.1091 20.7592C29.4568 21.3919 28.5721 21.7473 27.6496 21.7473C26.7271 21.7473 25.8425 21.3919 25.1902 20.7592C24.5379 20.1265 24.1714 19.2684 24.1714 18.3737C24.1714 17.4789 24.5379 16.6208 25.1902 15.9881C25.8425 15.3554 26.7271 15 27.6496 15C28.5721 15 29.4568 15.3554 30.1091 15.9881C30.7613 16.6208 31.1278 17.4789 31.1278 18.3737ZM29.5819 18.3737C29.5819 18.8707 29.3784 19.3475 29.016 19.699C28.6536 20.0505 28.1621 20.2479 27.6496 20.2479C27.1371 20.2479 26.6456 20.0505 26.2833 19.699C25.9209 19.3475 25.7173 18.8707 25.7173 18.3737C25.7173 17.8766 25.9209 17.3999 26.2833 17.0484C26.6456 16.6969 27.1371 16.4994 27.6496 16.4994C28.1621 16.4994 28.6536 16.6969 29.016 17.0484C29.3784 17.3999 29.5819 17.8766 29.5819 18.3737ZM24.5401 23.2467C23.6435 23.2467 22.7523 23.4432 21.9493 23.9155C21.1477 24.3855 20.5711 25.0475 20.1692 25.7732C19.4079 27.1452 19.1953 28.8815 19.1953 30.6133V30.6793C19.1953 30.7018 19.1961 30.7235 19.1984 30.7453L19.2046 30.8112C19.2092 30.8675 19.2131 31.0564 19.2085 31.501L19.2046 31.8128V31.8143C19.2007 32.1532 19.1953 32.5566 19.1953 32.9929C19.1953 33.3486 19.2822 33.6992 19.4489 34.016C19.6157 34.3328 19.8576 34.6067 20.1546 34.8152C20.4517 35.0237 20.7955 35.161 21.1579 35.2156C21.5202 35.2702 21.8908 35.2407 22.2391 35.1295V42.739C22.2383 43.3184 22.468 43.8757 22.8804 44.2948C23.2928 44.7139 23.856 44.9625 24.4527 44.9888C25.0494 45.0151 25.6335 44.817 26.0833 44.4359C26.5332 44.0548 26.814 43.52 26.8674 42.9429L27.5182 35.9917H27.7795L28.431 42.9429C28.4822 43.5217 28.7622 44.0588 29.2125 44.4418C29.6627 44.8249 30.2483 45.024 30.8466 44.9977C31.4448 44.9713 32.0094 44.7215 32.422 44.3005C32.8346 43.8794 33.0633 43.3199 33.0601 42.739V35.1145C33.41 35.2345 33.7844 35.2713 34.1519 35.2218C34.5195 35.1723 34.8694 35.038 35.1723 34.8301C35.4752 34.6222 35.7223 34.3469 35.8927 34.0272C36.0632 33.7075 36.152 33.3528 36.1518 32.9929C36.1518 32.5581 36.1464 32.1547 36.1426 31.8158V31.8128L36.1387 31.501C36.1341 31.0564 36.1371 30.8675 36.1426 30.8112L36.1487 30.7453C36.1508 30.7233 36.1518 30.7013 36.1518 30.6793V30.6133C36.1518 28.8815 35.9385 27.1459 35.1779 25.7732C34.776 25.0483 34.1994 24.3855 33.3979 23.9155C32.594 23.4432 31.7036 23.2467 30.8063 23.2467H24.5401ZM21.5141 33.7426C21.6719 33.7427 21.826 33.6959 21.9556 33.6085C22.0853 33.5211 22.1842 33.3973 22.2391 33.2538V28.1198H23.785V42.739C23.7848 42.9321 23.8615 43.1178 23.999 43.2574C24.1365 43.397 24.3242 43.4798 24.5231 43.4885C24.7219 43.4972 24.9166 43.4311 25.0665 43.3041C25.2164 43.177 25.3099 42.9988 25.3277 42.8065L26.0435 35.1745C26.0608 34.9882 26.1493 34.815 26.2916 34.6888C26.4339 34.5625 26.6197 34.4925 26.8125 34.4923H28.4867C28.6797 34.4923 28.8656 34.5623 29.0081 34.6885C29.1505 34.8148 29.2392 34.9881 29.2565 35.1745L29.9715 42.8065C29.9893 42.9988 30.0829 43.177 30.2328 43.3041C30.3827 43.4311 30.5773 43.4972 30.7761 43.4885C30.975 43.4798 31.1627 43.397 31.3002 43.2574C31.4377 43.1178 31.5144 42.9321 31.5143 42.739V28.1198H33.0601V33.0101C33.0625 33.209 33.1462 33.3987 33.2928 33.5377C33.4394 33.6767 33.6369 33.7535 33.8419 33.7512C34.0469 33.7489 34.2426 33.6677 34.3859 33.5255C34.5292 33.3833 34.6083 33.1917 34.606 32.9929C34.606 32.5663 34.6006 32.1712 34.5967 31.8308V31.8218C34.5955 31.7201 34.5942 31.6184 34.5928 31.5167C34.585 31.2376 34.5884 30.9582 34.6029 30.6793L34.606 30.6463V30.6133C34.606 28.955 34.3934 27.5238 33.816 26.4832C33.5208 25.9502 33.1212 25.5056 32.5971 25.1982C32.0731 24.8901 31.4687 24.7461 30.8063 24.7461H24.5401C23.8785 24.7461 23.2741 24.8901 22.7492 25.1982C22.2252 25.5056 21.8264 25.9502 21.5303 26.4832C20.9537 27.5238 20.7412 28.955 20.7412 30.6141V30.6463L20.7443 30.6793C20.7574 30.8255 20.7589 31.0991 20.7543 31.5167L20.7504 31.8308C20.7466 32.1705 20.7412 32.5663 20.7412 32.9929C20.7412 33.1917 20.8226 33.3824 20.9676 33.523C21.1125 33.6636 21.3091 33.7426 21.5141 33.7426Z" fill="#F7F7F7" fill-opacity="0.2"/>
<path fill-rule="evenodd" clip-rule="evenodd" d="M46.9781 20.2649C47.4678 20.2649 47.9375 20.0668 48.2838 19.7142C48.6301 19.3615 48.8246 18.8833 48.8246 18.3846C48.8246 17.8859 48.6301 17.4076 48.2838 17.055C47.9375 16.7024 47.4678 16.5043 46.9781 16.5043C46.4883 16.5043 46.0187 16.7024 45.6724 17.055C45.3261 17.4076 45.1315 17.8859 45.1315 18.3846C45.1315 18.8833 45.3261 19.3615 45.6724 19.7142C46.0187 20.0668 46.4883 20.2649 46.9781 20.2649ZM46.9781 21.7692C47.8596 21.7692 48.705 21.4126 49.3283 20.7778C49.9517 20.1431 50.3018 19.2822 50.3018 18.3846C50.3018 17.4869 49.9517 16.6261 49.3283 15.9913C48.705 15.3566 47.8596 15 46.9781 15C46.0965 15 45.2511 15.3566 44.6278 15.9913C44.0045 16.6261 43.6543 17.4869 43.6543 18.3846C43.6543 19.2822 44.0045 20.1431 44.6278 20.7778C45.2511 21.4126 46.0965 21.7692 46.9781 21.7692ZM44.7327 24.7777C43.7208 24.7777 43.0353 25.2778 42.5855 25.9292C42.1689 26.5316 41.923 27.3048 41.7228 27.9727C41.5751 28.4691 41.5477 28.5729 41.4783 28.8444L41.4761 28.8527C41.3793 29.231 41.2065 29.9027 40.5935 32.1079C40.4945 32.4667 40.691 32.8961 41.1363 33.0202C41.5943 33.1489 42.019 32.8683 42.1246 32.49C42.7968 30.0681 42.9415 29.4935 43.0139 29.2062V29.2039C43.0715 28.9745 43.0922 28.8956 43.2458 28.3811C43.4526 27.6892 43.6447 27.1348 43.9084 26.7535L43.9098 26.7505L43.9165 26.7422L45.1633 27.3988L42.2384 38.1656C43.1099 38.4017 44.4948 38.6921 46.9788 38.6921C49.3852 38.6921 50.8935 38.419 51.7259 38.1919L48.7936 27.3988L50.0396 26.74L50.0485 26.7535C50.3122 27.1348 50.5042 27.6892 50.711 28.3819C50.8647 28.8963 50.8853 28.9745 50.943 29.2039V29.2062C51.0153 29.4935 51.1601 30.0689 51.8323 32.49C51.9379 32.8683 52.3618 33.1489 52.8205 33.0202C53.2659 32.8961 53.4631 32.4667 53.3634 32.1079C53.0619 31.0398 52.7714 29.9684 52.4918 28.8941L52.4785 28.8444C52.4091 28.5729 52.3825 28.4684 52.2341 27.972C52.0346 27.3048 51.7879 26.5316 51.3714 25.9292C50.9208 25.2778 50.2361 24.7777 49.2249 24.7777H44.7327ZM53.8457 28.4586C53.9395 28.8241 54.1094 29.4875 54.7195 31.6815C54.7997 31.9678 54.8235 32.2676 54.7894 32.5633C54.7554 32.8591 54.6642 33.1451 54.5211 33.4049C54.378 33.6646 54.1859 33.8929 53.9558 34.0767C53.7256 34.2605 53.4621 34.396 53.1802 34.4756C52.8608 34.5649 52.5257 34.5793 52.2001 34.5177L53.096 37.8158C53.2962 38.5529 52.938 39.4058 52.158 39.6262C51.2037 39.897 49.5544 40.1963 46.9788 40.1963C44.367 40.1963 42.8632 39.8879 41.8786 39.6202C41.0957 39.4073 40.6629 38.5461 40.88 37.7474L41.7575 34.5177C41.4384 34.5779 41.1038 34.5666 40.7766 34.4756C40.4948 34.396 40.2312 34.2605 40.0011 34.0767C39.771 33.8929 39.5788 33.6646 39.4357 33.4049C39.2927 33.1451 39.2015 32.8591 39.1674 32.5633C39.1334 32.2676 39.1571 31.9678 39.2374 31.6815C39.8475 29.4875 40.0173 28.8249 40.1111 28.4586V28.4563C40.188 28.1585 40.2197 28.0374 40.3756 27.5162C40.5698 26.8671 40.8741 25.8668 41.4458 25.0387C42.118 24.0647 43.2015 23.2734 44.7327 23.2734H49.2242C50.7546 23.2734 51.8374 24.0647 52.511 25.0387C53.0827 25.866 53.3863 26.8663 53.5806 27.5162C53.729 28.0126 53.7652 28.1457 53.8339 28.415L53.8457 28.4586ZM43.285 41.335V43.872C43.285 44.1452 43.3824 44.4091 43.5591 44.6147C43.7358 44.8204 43.9798 44.9537 44.2457 44.99C44.5117 45.0263 44.7815 44.9631 45.0051 44.8121C45.2288 44.6611 45.391 44.4326 45.4617 44.1691L46.1419 41.6306C45.1854 41.5806 44.2319 41.4819 43.285 41.335ZM48.5513 41.6254L49.2331 44.1691C49.3037 44.4326 49.4659 44.661 49.6895 44.812C49.913 44.963 50.1828 45.0262 50.4487 44.99C50.7145 44.9538 50.9585 44.8206 51.1353 44.6152C51.312 44.4097 51.4096 44.1459 51.4098 43.8727V41.3245C50.4622 41.4708 49.5083 41.5712 48.5513 41.6254Z" fill="#F7F7F7" fill-opacity="0.2"/>
</svg>
