<svg width="74" height="60" viewBox="0 0 74 60" fill="none" xmlns="http://www.w3.org/2000/svg">
<rect x="0.5" width="73" height="60" rx="20" fill="#302A39"/>
<path fill-rule="evenodd" clip-rule="evenodd" d="M27.602 23.5634C28.7376 23.5634 29.8267 23.1123 30.6296 22.3093C31.4326 21.5063 31.8837 20.4173 31.8837 19.2817C31.8837 18.1461 31.4326 17.0571 30.6296 16.2541C29.8267 15.4511 28.7376 15 27.602 15C26.4664 15 25.3774 15.4511 24.5744 16.2541C23.7714 17.0571 23.3203 18.1461 23.3203 19.2817C23.3203 20.4173 23.7714 21.5063 24.5744 22.3093C25.3774 23.1123 26.4664 23.5634 27.602 23.5634ZM27.602 21.4226C28.1698 21.4226 28.7143 21.197 29.1158 20.7955C29.5173 20.394 29.7429 19.8495 29.7429 19.2817C29.7429 18.7139 29.5173 18.1694 29.1158 17.7679C28.7143 17.3664 28.1698 17.1409 27.602 17.1409C27.0342 17.1409 26.4897 17.3664 26.0882 17.7679C25.6867 18.1694 25.4612 18.7139 25.4612 19.2817C25.4612 19.8495 25.6867 20.394 26.0882 20.7955C26.4897 21.197 27.0342 21.4226 27.602 21.4226Z" fill="#F7F7F7" fill-opacity="0.2"/>
<path d="M31.0975 29.3466L24.9961 26.7754L31.0975 29.3487V29.3466ZM31.0975 29.3466L31.2816 29.4247L31.0975 29.1464V29.3466Z" fill="#F7F7F7" fill-opacity="0.2"/>
<path fill-rule="evenodd" clip-rule="evenodd" d="M22.0577 25.6936C22.6604 25.2365 23.6762 24.6338 25.0003 24.6338H30.3482C31.8072 24.6338 32.8958 25.4024 33.4256 25.8306C34.0465 26.3326 34.5838 26.9363 34.9992 27.4523C35.6618 28.2722 36.273 29.2024 36.6219 29.7301L36.6294 29.7408C36.714 29.8693 36.7782 29.9678 36.8264 30.0384C37.048 30.3649 37.201 30.7192 37.2899 31.081C37.368 30.6657 37.5318 30.26 37.7876 29.8886C37.8936 29.7355 38.021 29.5439 38.1698 29.3212L38.1815 29.302C38.5883 28.6897 39.1374 27.8644 39.6801 27.1889C40.0655 26.7083 40.5707 26.1431 41.1819 25.6754C41.7632 25.2301 42.7533 24.6338 44.0485 24.6338H49.2176C50.6445 24.6338 51.7053 25.3938 52.2148 25.8102C52.8164 26.3016 53.3345 26.8914 53.7359 27.3945C54.3749 28.1951 54.9669 29.1039 55.3019 29.6188L55.3062 29.6263L55.3094 29.6306L55.3158 29.6402C55.3951 29.7612 55.455 29.8543 55.5 29.9207C55.8221 30.4011 56.0044 30.9617 56.0264 31.5398C56.0485 32.1178 55.9093 32.6906 55.6246 33.1942C55.3399 33.6978 54.9208 34.1123 54.4142 34.3914C53.9075 34.6706 53.3332 34.8034 52.7554 34.775C53.0637 35.8915 53.3602 36.9063 53.5743 37.6213C53.9104 38.7485 53.2349 39.9666 52.0414 40.216C48.1772 41.0242 45.4433 40.9985 41.2901 40.2053C41.0063 40.1503 40.7373 40.0359 40.5007 39.8698C40.2642 39.7037 40.0653 39.4895 39.9172 39.2413C39.7691 38.993 39.675 38.7163 39.6412 38.4292C39.6073 38.1421 39.6345 37.8512 39.7208 37.5753C39.9413 36.8656 40.2432 35.8712 40.5515 34.7729C39.8537 34.8176 39.1613 34.6256 38.5862 34.2281C37.9592 33.7971 37.512 33.1512 37.3295 32.4126C37.2539 32.8333 37.0949 33.2347 36.8618 33.593C36.6287 33.9513 36.3262 34.2593 35.9722 34.4989C35.5833 34.7633 35.1411 34.939 34.6767 35.0133C34.2124 35.0877 33.7374 35.059 33.2854 34.9292L33.2918 34.9827L34.0058 41.4053C34.0996 42.2373 33.8646 43.0732 33.351 43.7345C32.8374 44.3959 32.0858 44.8304 31.2564 44.9456C30.427 45.0608 29.5854 44.8475 28.9111 44.3511C28.2367 43.8547 27.7829 43.1145 27.6464 42.2884L27.6025 42.0261L27.5597 42.2884C27.4288 43.1196 26.9768 43.8663 26.3009 44.3677C25.6251 44.8691 24.7794 45.0852 23.9459 44.9695C23.1124 44.8537 22.3576 44.4155 21.8439 43.7489C21.3302 43.0823 21.0988 42.2408 21.1992 41.4053L21.7537 36.4224L21.8062 34.9913C21.178 35.1162 20.5268 35.0503 19.9363 34.8023C19.3458 34.5542 18.8429 34.1352 18.4924 33.5992C18.1418 33.0631 17.9596 32.4345 17.9691 31.794C17.9786 31.1536 18.1794 30.5307 18.5457 30.0052C18.6506 29.8532 18.7769 29.667 18.9235 29.4486L18.9535 29.4047C19.3731 28.7785 19.9415 27.9329 20.5035 27.2425C20.9038 26.7501 21.4272 26.171 22.0577 25.6936ZM25.0014 26.7747C24.3399 26.7747 23.7768 27.0776 23.3508 27.3998C22.9162 27.7295 22.518 28.1598 22.1658 28.5923C21.6756 29.196 21.1607 29.9592 20.7293 30.6015L20.7143 30.6229C20.5655 30.8444 20.4242 31.0553 20.3033 31.2298C20.2176 31.3448 20.156 31.4759 20.1219 31.6152C20.0879 31.7545 20.0822 31.8992 20.1052 32.0407C20.1282 32.1823 20.1794 32.3178 20.2558 32.4392C20.3321 32.5605 20.4321 32.6653 20.5498 32.7473C20.6674 32.8293 20.8003 32.8868 20.9406 32.9165C21.0809 32.9461 21.2258 32.9472 21.3665 32.9198C21.5073 32.8924 21.6411 32.837 21.76 32.7568C21.8789 32.6767 21.9805 32.5735 22.0588 32.4533L24.1525 29.4454L23.8914 36.5798L23.3283 41.6429C23.2995 41.9191 23.3792 42.1956 23.5504 42.4142C23.7217 42.6327 23.9712 42.7761 24.2462 42.8142C24.5213 42.8523 24.8003 42.782 25.0245 42.6181C25.2487 42.4543 25.4005 42.2098 25.4478 41.9362L26.5118 35.5543L27.61 35.3103L28.6976 35.565L29.7594 41.9362C29.8063 42.2103 29.9581 42.4553 30.1825 42.6195C30.4069 42.7837 30.6864 42.8541 30.9618 42.8158C31.2372 42.7776 31.4869 42.6337 31.6581 42.4145C31.8292 42.1954 31.9084 41.9183 31.8789 41.6418L31.1649 35.2193C31.159 35.1673 31.1493 35.1157 31.136 35.0651L31.1017 34.9313V29.348L31.2869 29.4261L33.0638 32.1129L33.2843 32.4426C33.4438 32.6775 33.6899 32.8395 33.9688 32.8929C34.2476 32.9463 34.5362 32.8867 34.7712 32.7273C35.0061 32.5679 35.1681 32.3217 35.2215 32.0429C35.2749 31.764 35.2153 31.4754 35.0559 31.2405L34.8482 30.9279L31.2869 29.4261L31.2859 29.424L34.8461 30.9247L34.8418 30.9194C34.4896 30.3842 33.9266 29.53 33.3347 28.7956C32.9611 28.3332 32.534 27.8612 32.0823 27.4961C31.6605 27.1558 31.0568 26.7747 30.3492 26.7747H25.0014ZM42.4322 27.3067C42.8454 26.9909 43.3977 26.689 44.0496 26.689H49.2187C49.9166 26.689 50.5086 27.069 50.9164 27.402C51.3553 27.7605 51.7695 28.223 52.1303 28.6758C52.704 29.394 53.2489 30.23 53.5892 30.7524L53.5925 30.7577C53.6695 30.8755 53.7402 30.9836 53.7958 31.066C53.9538 31.3002 54.0123 31.5876 53.9584 31.8649C53.9045 32.1423 53.7426 32.3868 53.5084 32.5448C53.2742 32.7028 52.9868 32.7613 52.7095 32.7074C52.4322 32.6535 52.1876 32.4916 52.0296 32.2574C51.8939 32.0579 51.6923 31.9125 51.4601 31.8468C51.2279 31.781 50.98 31.799 50.7598 31.8977C50.5396 31.9964 50.3612 32.1694 50.2557 32.3865C50.1503 32.6035 50.1246 32.8508 50.1832 33.0848C50.6723 35.0287 51.2536 37.0294 51.6057 38.2079C48.0466 38.9508 45.5932 38.9336 41.6829 38.1886L41.684 38.1854C42.2223 36.4633 42.7135 34.7268 43.1569 32.9778C43.2147 32.744 43.1887 32.4974 43.0832 32.2809C42.9777 32.0644 42.7995 31.8918 42.5798 31.7932C42.36 31.6947 42.1127 31.6765 41.8809 31.7418C41.649 31.807 41.4475 31.9516 41.3115 32.1504L41.2344 32.2638C41.0732 32.4944 40.8273 32.6518 40.5505 32.7017C40.2736 32.7516 39.9883 32.69 39.7567 32.5302C39.5251 32.3705 39.3662 32.1256 39.3145 31.8491C39.2629 31.5725 39.3227 31.2868 39.481 31.0542C39.5977 30.8851 39.7347 30.6796 39.8782 30.4634L39.8835 30.4559C40.3021 29.8254 40.8041 29.0718 41.2826 28.4767C41.623 28.0528 42.0094 27.631 42.4322 27.3067ZM46.8702 23.5634C48.0058 23.5634 49.0948 23.1123 49.8978 22.3093C50.7008 21.5063 51.1519 20.4173 51.1519 19.2817C51.1519 18.1461 50.7008 17.0571 49.8978 16.2541C49.0948 15.4511 48.0058 15 46.8702 15C45.7346 15 44.6455 15.4511 43.8426 16.2541C43.0396 17.0571 42.5885 18.1461 42.5885 19.2817C42.5885 20.4173 43.0396 21.5063 43.8426 22.3093C44.6455 23.1123 45.7346 23.5634 46.8702 23.5634ZM46.8702 21.4226C47.438 21.4226 47.9825 21.197 48.384 20.7955C48.7855 20.394 49.011 19.8495 49.011 19.2817C49.011 18.7139 48.7855 18.1694 48.384 17.7679C47.9825 17.3664 47.438 17.1409 46.8702 17.1409C46.3024 17.1409 45.7579 17.3664 45.3564 17.7679C44.9549 18.1694 44.7293 18.7139 44.7293 19.2817C44.7293 19.8495 44.9549 20.394 45.3564 20.7955C45.7579 21.197 46.3024 21.4226 46.8702 21.4226Z" fill="#F7F7F7" fill-opacity="0.2"/>
<path d="M43.4423 44.9591C43.057 44.9072 42.7035 44.7173 42.4476 44.4246C42.1917 44.1318 42.0507 43.7562 42.0508 43.3673V42.0443C43.2292 42.1963 44.414 42.2942 45.6014 42.3376L45.2053 43.7901C45.103 44.1653 44.868 44.4906 44.5439 44.7056C44.2199 44.9205 43.8288 45.0106 43.4434 44.9591H43.4423ZM48.5301 43.7901L48.1319 42.3322C49.32 42.2836 50.5054 42.1825 51.6846 42.0293V43.3673C51.6846 43.7562 51.5434 44.1318 51.2873 44.4244C51.0313 44.7171 50.6777 44.9069 50.2923 44.9585C49.9069 45.0102 49.5158 44.9202 49.1917 44.7053C48.8676 44.4905 48.6325 44.1653 48.5301 43.7901Z" fill="#F7F7F7" fill-opacity="0.2"/>
</svg>
