<svg width="74" height="60" viewBox="0 0 74 60" fill="none" xmlns="http://www.w3.org/2000/svg">
<rect x="0.5" width="73" height="60" rx="20" fill="#2D2636"/>
<path fill-rule="evenodd" clip-rule="evenodd" d="M34.4974 21.6668C35.3815 21.6668 36.2294 21.3156 36.8545 20.6904C37.4796 20.0653 37.8308 19.2174 37.8308 18.3334C37.8308 17.4493 37.4796 16.6015 36.8545 15.9763C36.2294 15.3512 35.3815 15 34.4974 15C33.6134 15 32.7655 15.3512 32.1404 15.9763C31.5153 16.6015 31.1641 17.4493 31.1641 18.3334C31.1641 19.2174 31.5153 20.0653 32.1404 20.6904C32.7655 21.3156 33.6134 21.6668 34.4974 21.6668ZM34.4974 20.0001C34.9395 20.0001 35.3634 19.8245 35.676 19.5119C35.9885 19.1993 36.1641 18.7754 36.1641 18.3334C36.1641 17.8913 35.9885 17.4674 35.676 17.1549C35.3634 16.8423 34.9395 16.6667 34.4974 16.6667C34.0554 16.6667 33.6315 16.8423 33.3189 17.1549C33.0064 17.4674 32.8308 17.8913 32.8308 18.3334C32.8308 18.7754 33.0064 19.1993 33.3189 19.5119C33.6315 19.8245 34.0554 20.0001 34.4974 20.0001Z" fill="#F7F7F7" fill-opacity="0.2"/>
<path d="M39.9167 28.3347C39.9167 27.8926 39.7411 27.4687 39.4285 27.1561C39.116 26.8436 38.692 26.668 38.25 26.668V30.0013C38.692 30.0013 39.116 29.8258 39.4285 29.5132C39.7411 29.2006 39.9167 28.7767 39.9167 28.3347Z" fill="#F7F7F7" fill-opacity="0.2"/>
<path fill-rule="evenodd" clip-rule="evenodd" d="M26.5821 39.1678C26.5823 38.6506 26.422 38.1461 26.1236 37.7238C25.8251 37.3014 25.403 36.982 24.9154 36.8095V28.3343H29.0821V42.5012C29.0821 43.1643 29.3455 43.8002 29.8144 44.269C30.2832 44.7378 30.9191 45.0012 31.5822 45.0012C32.2452 45.0012 32.8811 44.7378 33.35 44.269C33.8188 43.8002 34.0822 43.1643 34.0822 42.5012V35.8345H34.9156V42.5012C34.9156 43.0854 35.1156 43.6229 35.4522 44.0487C35.7739 44.4568 36.2147 44.7544 36.7133 44.9004C37.2119 45.0463 37.7437 45.0333 38.2346 44.8631C38.7255 44.6929 39.1511 44.374 39.4524 43.9507C39.7537 43.5274 39.9156 43.0208 39.9156 42.5012V33.0994C41.2181 32.4994 43.249 30.7594 43.249 27.9768C43.249 24.471 40.0231 23.3343 39.0948 23.3343H24.9154V20.8342H23.2487V23.971C22.737 24.4293 22.4154 25.0943 22.4154 25.8343C22.4149 26.1861 22.4889 26.5341 22.6325 26.8552C22.7761 27.1764 22.9861 27.4635 23.2487 27.6977V36.8103C22.7613 36.9828 22.3393 37.3021 22.0408 37.7243C21.7423 38.1465 21.5821 38.6508 21.582 39.1678V44.1679H23.2487V40.8345H24.9154V44.1679H26.5821V39.1678ZM38.2489 32.0319L39.2181 31.5852C40.1715 31.1461 41.5823 29.8794 41.5823 27.9768C41.5823 26.8152 41.0781 26.1118 40.4923 25.6526C40.2078 25.4312 39.8915 25.2542 39.5539 25.1276C39.4078 25.0705 39.2562 25.0286 39.1014 25.0026C39.0898 25.001 39.0881 25.001 39.0948 25.001H24.9154V26.6677H30.7488V42.5012C30.7488 42.7222 30.8366 42.9342 30.9929 43.0905C31.1492 43.2468 31.3612 43.3346 31.5822 43.3346C31.8032 43.3346 32.0152 43.2468 32.1714 43.0905C32.3277 42.9342 32.4155 42.7222 32.4155 42.5012V34.1678H36.5822V42.5012C36.5822 42.7222 36.67 42.9342 36.8263 43.0905C36.9826 43.2468 37.1946 43.3346 37.4156 43.3346C37.6366 43.3346 37.8486 43.2468 38.0049 43.0905C38.1611 42.9342 38.2489 42.7222 38.2489 42.5012V32.0319ZM48.8774 24.7385C48.68 24.9638 48.4702 25.178 48.2491 25.3801V27.451C48.5782 27.126 48.9924 26.9468 49.3574 26.8427C49.7283 26.7377 50.1116 26.6927 50.4408 26.676C50.8384 26.6571 51.2369 26.6699 51.6325 26.7143L51.655 26.7168L51.6625 26.7177H51.6658C52.0466 26.7693 52.3441 27.0743 52.385 27.4568V27.4677L52.3883 27.4902C52.3994 27.6043 52.4067 27.7188 52.41 27.8335C52.4183 28.0535 52.4208 28.3577 52.3966 28.6927C52.3716 29.0244 52.3191 29.4094 52.2075 29.781C52.0975 30.1452 51.9125 30.5577 51.5841 30.8827C51.2541 31.2094 50.8399 31.3886 50.4749 31.4919C50.1033 31.5977 49.7199 31.6419 49.3908 31.6586C49.0189 31.6766 48.6462 31.6668 48.2757 31.6294L48.2491 31.6269V39.1178C48.5782 38.7928 48.9924 38.6137 49.3574 38.5095C49.7283 38.4045 50.1116 38.3595 50.4408 38.3428C50.8384 38.3239 51.2369 38.3367 51.6325 38.3812L51.655 38.3837L51.6625 38.3845H51.6658C52.0466 38.4362 52.3441 38.7412 52.385 39.1237V39.1345L52.3883 39.157C52.3994 39.2712 52.4067 39.3857 52.41 39.5003C52.4183 39.7203 52.4208 40.0245 52.3966 40.3595C52.3716 40.6912 52.3191 41.0762 52.2075 41.4479C52.0975 41.812 51.9125 42.2245 51.5841 42.5504C51.2541 42.8762 50.8399 43.0554 50.4749 43.1587C50.1033 43.2646 49.7199 43.3087 49.3908 43.3254C49.0189 43.3434 48.6462 43.3337 48.2757 43.2962L48.2491 43.2937V44.1679C48.2491 44.3889 48.1613 44.6009 48.005 44.7572C47.8487 44.9134 47.6367 45.0012 47.4157 45.0012C47.1947 45.0012 46.9827 44.9134 46.8265 44.7572C46.6702 44.6009 46.5824 44.3889 46.5824 44.1679V37.4595L46.5557 37.462C46.1853 37.4994 45.8126 37.5092 45.4407 37.4911C45.0745 37.4758 44.7112 37.4199 44.3574 37.3245C43.9907 37.2211 43.5773 37.042 43.2482 36.7161C42.919 36.3903 42.734 35.9778 42.624 35.6136C42.5218 35.2587 42.4584 34.8938 42.4348 34.5253C42.4064 34.1248 42.4092 33.7228 42.4432 33.3227L42.4457 33.3002L42.4465 33.2927V33.2894C42.4882 32.9069 42.7848 32.6019 43.1657 32.5511H43.169L43.1765 32.5494L43.199 32.5469L43.2757 32.5386C43.6461 32.5011 44.0188 32.4914 44.3907 32.5094C44.7199 32.5261 45.1032 32.5702 45.474 32.6761C45.8399 32.7794 46.2532 32.9577 46.5824 33.2836V25.3801C46.3612 25.1777 46.1514 24.9633 45.954 24.7376C45.6941 24.4446 45.4669 24.1241 45.2765 23.7818C45.0849 23.4259 44.9157 22.9843 44.9157 22.5009C44.9157 22.0176 45.084 21.5751 45.2765 21.2192C45.4715 20.8576 45.7215 20.5309 45.954 20.2634C46.2352 19.9426 46.5411 19.6445 46.8691 19.3717L46.8874 19.3567L46.8932 19.3517L46.8957 19.3501C47.1999 19.1084 47.6316 19.1076 47.9357 19.3492L47.9382 19.3517L47.9441 19.3559L47.9624 19.3717C48.0564 19.4487 48.1481 19.5284 48.2374 19.6109C48.4107 19.7692 48.6424 19.9942 48.8774 20.2634C49.1108 20.5301 49.3599 20.8576 49.5549 21.2192C49.7466 21.5751 49.9158 22.0176 49.9158 22.5009C49.9158 22.9843 49.7474 23.4268 49.5549 23.7826C49.3645 24.1249 49.1374 24.4455 48.8774 24.7385ZM47.6207 23.6434C47.5543 23.7196 47.4859 23.7941 47.4157 23.8668C47.3455 23.7941 47.2772 23.7196 47.2107 23.6434C47.0316 23.4434 46.8746 23.2246 46.7424 22.9909C46.6224 22.7676 46.5824 22.6043 46.5824 22.5009C46.5824 22.3976 46.6224 22.2343 46.7424 22.0109C46.8599 21.7943 47.0266 21.5693 47.2107 21.3584C47.2799 21.2792 47.3491 21.2042 47.4157 21.1351C47.4824 21.2042 47.5516 21.2792 47.6207 21.3584C47.8041 21.5701 47.9716 21.7943 48.0891 22.0109C48.2091 22.2343 48.2491 22.3976 48.2491 22.5009C48.2491 22.6043 48.2091 22.7676 48.0891 22.9909C47.9716 23.2076 47.8049 23.4326 47.6207 23.6434ZM49.8116 40.1137C49.5941 40.1753 49.4758 40.2487 49.4199 40.3037C49.3641 40.3587 49.2866 40.4803 49.2199 40.7029C49.1533 40.9406 49.1122 41.1847 49.0974 41.4312C49.0915 41.51 49.0874 41.5889 49.0849 41.6679C49.1586 41.6672 49.2322 41.665 49.3058 41.6612C49.5608 41.6479 49.8099 41.6154 50.0199 41.5554C50.2374 41.4937 50.3566 41.4204 50.4116 41.3654C50.4674 41.3104 50.5449 41.1887 50.6116 40.9662C50.6783 40.7285 50.7193 40.4843 50.7341 40.2378C50.74 40.1591 50.7441 40.0801 50.7466 40.0012C50.673 40.0018 50.5993 40.004 50.5258 40.0078C50.2846 40.0169 50.0451 40.0524 49.8116 40.1137ZM49.4199 28.6369C49.4758 28.5819 49.5941 28.5085 49.8116 28.4468C50.0224 28.3868 50.2716 28.3543 50.5258 28.341C50.6008 28.3368 50.6758 28.3352 50.7466 28.3343C50.7441 28.4133 50.74 28.4922 50.7341 28.571C50.7149 28.8302 50.6758 29.0852 50.6116 29.2994C50.5449 29.5219 50.4674 29.6427 50.4116 29.6985C50.3566 29.7535 50.2374 29.8269 50.0199 29.8885C49.7864 29.9498 49.547 29.9853 49.3058 29.9944C49.2322 29.9982 49.1586 30.0004 49.0849 30.001C49.0874 29.9244 49.0916 29.8452 49.0974 29.7644C49.1166 29.5052 49.1558 29.2502 49.2199 29.036C49.2866 28.8135 49.3641 28.6927 49.4199 28.6369ZM44.0848 34.1678C44.0873 34.2444 44.0915 34.3236 44.0973 34.4044C44.1165 34.6636 44.1557 34.9186 44.2198 35.1328C44.2865 35.3553 44.364 35.4761 44.4198 35.5319C44.4757 35.5869 44.594 35.6603 44.8115 35.7219C45.0224 35.7819 45.2715 35.8145 45.5257 35.8278C45.6007 35.832 45.6757 35.8336 45.7465 35.8345C45.7441 35.7555 45.7399 35.6766 45.734 35.5978C45.7193 35.3513 45.6782 35.1072 45.6115 34.8694C45.5449 34.6469 45.4674 34.5261 45.4115 34.4703C45.3565 34.4153 45.2374 34.3419 45.0199 34.2803C44.7864 34.219 44.5469 34.1835 44.3057 34.1744C44.2321 34.1706 44.1585 34.1684 44.0848 34.1678Z" fill="#F7F7F7" fill-opacity="0.2"/>
</svg>
