<svg width="73" height="60" viewBox="0 0 73 60" fill="none" xmlns="http://www.w3.org/2000/svg">
<rect width="73" height="60" rx="20" fill="#2D2636"/>
<path fill-rule="evenodd" clip-rule="evenodd" d="M33.9974 21.6668C34.8815 21.6668 35.7294 21.3156 36.3545 20.6904C36.9796 20.0653 37.3308 19.2174 37.3308 18.3334C37.3308 17.4493 36.9796 16.6015 36.3545 15.9763C35.7294 15.3512 34.8815 15 33.9974 15C33.1134 15 32.2655 15.3512 31.6404 15.9763C31.0153 16.6015 30.6641 17.4493 30.6641 18.3334C30.6641 19.2174 31.0153 20.0653 31.6404 20.6904C32.2655 21.3156 33.1134 21.6668 33.9974 21.6668ZM33.9974 20.0001C34.4395 20.0001 34.8634 19.8245 35.176 19.5119C35.4885 19.1993 35.6641 18.7754 35.6641 18.3334C35.6641 17.8913 35.4885 17.4674 35.176 17.1549C34.8634 16.8423 34.4395 16.6667 33.9974 16.6667C33.5554 16.6667 33.1315 16.8423 32.8189 17.1549C32.5064 17.4674 32.3308 17.8913 32.3308 18.3334C32.3308 18.7754 32.5064 19.1993 32.8189 19.5119C33.1315 19.8245 33.5554 20.0001 33.9974 20.0001Z" fill="#F7F7F7"/>
<path d="M39.4167 28.3347C39.4167 27.8926 39.2411 27.4687 38.9285 27.1561C38.616 26.8436 38.192 26.668 37.75 26.668V30.0013C38.192 30.0013 38.616 29.8258 38.9285 29.5132C39.2411 29.2006 39.4167 28.7767 39.4167 28.3347Z" fill="#F7F7F7"/>
<path fill-rule="evenodd" clip-rule="evenodd" d="M26.0821 39.1678C26.0823 38.6506 25.922 38.1461 25.6236 37.7238C25.3251 37.3014 24.903 36.982 24.4154 36.8095V28.3343H28.5821V42.5012C28.5821 43.1643 28.8455 43.8002 29.3144 44.269C29.7832 44.7378 30.4191 45.0012 31.0822 45.0012C31.7452 45.0012 32.3811 44.7378 32.85 44.269C33.3188 43.8002 33.5822 43.1643 33.5822 42.5012V35.8345H34.4156V42.5012C34.4156 43.0854 34.6156 43.6229 34.9522 44.0487C35.2739 44.4568 35.7147 44.7544 36.2133 44.9004C36.7119 45.0463 37.2437 45.0333 37.7346 44.8631C38.2255 44.6929 38.6511 44.374 38.9524 43.9507C39.2537 43.5274 39.4156 43.0208 39.4156 42.5012V33.0994C40.7181 32.4994 42.749 30.7594 42.749 27.9768C42.749 24.471 39.5231 23.3343 38.5948 23.3343H24.4154V20.8342H22.7487V23.971C22.237 24.4293 21.9154 25.0943 21.9154 25.8343C21.9149 26.1861 21.9889 26.5341 22.1325 26.8552C22.2761 27.1764 22.4861 27.4635 22.7487 27.6977V36.8103C22.2613 36.9828 21.8393 37.3021 21.5408 37.7243C21.2423 38.1465 21.0821 38.6508 21.082 39.1678V44.1679H22.7487V40.8345H24.4154V44.1679H26.0821V39.1678ZM37.7489 32.0319L38.7181 31.5852C39.6715 31.1461 41.0823 29.8794 41.0823 27.9768C41.0823 26.8152 40.5781 26.1118 39.9923 25.6526C39.7078 25.4312 39.3915 25.2542 39.0539 25.1276C38.9078 25.0705 38.7562 25.0286 38.6014 25.0026C38.5898 25.001 38.5881 25.001 38.5948 25.001H24.4154V26.6677H30.2488V42.5012C30.2488 42.7222 30.3366 42.9342 30.4929 43.0905C30.6492 43.2468 30.8612 43.3346 31.0822 43.3346C31.3032 43.3346 31.5152 43.2468 31.6714 43.0905C31.8277 42.9342 31.9155 42.7222 31.9155 42.5012V34.1678H36.0822V42.5012C36.0822 42.7222 36.17 42.9342 36.3263 43.0905C36.4826 43.2468 36.6946 43.3346 36.9156 43.3346C37.1366 43.3346 37.3486 43.2468 37.5049 43.0905C37.6611 42.9342 37.7489 42.7222 37.7489 42.5012V32.0319ZM48.3774 24.7385C48.18 24.9638 47.9702 25.178 47.7491 25.3801V27.451C48.0782 27.126 48.4924 26.9468 48.8574 26.8427C49.2283 26.7377 49.6116 26.6927 49.9408 26.676C50.3384 26.6571 50.7369 26.6699 51.1325 26.7143L51.155 26.7168L51.1625 26.7177H51.1658C51.5466 26.7693 51.8441 27.0743 51.885 27.4568V27.4677L51.8883 27.4902C51.8994 27.6043 51.9067 27.7188 51.91 27.8335C51.9183 28.0535 51.9208 28.3577 51.8966 28.6927C51.8716 29.0244 51.8191 29.4094 51.7075 29.781C51.5975 30.1452 51.4125 30.5577 51.0841 30.8827C50.7541 31.2094 50.3399 31.3886 49.9749 31.4919C49.6033 31.5977 49.2199 31.6419 48.8908 31.6586C48.5189 31.6766 48.1462 31.6668 47.7757 31.6294L47.7491 31.6269V39.1178C48.0782 38.7928 48.4924 38.6137 48.8574 38.5095C49.2283 38.4045 49.6116 38.3595 49.9408 38.3428C50.3384 38.3239 50.7369 38.3367 51.1325 38.3812L51.155 38.3837L51.1625 38.3845H51.1658C51.5466 38.4362 51.8441 38.7412 51.885 39.1237V39.1345L51.8883 39.157C51.8994 39.2712 51.9067 39.3857 51.91 39.5003C51.9183 39.7203 51.9208 40.0245 51.8966 40.3595C51.8716 40.6912 51.8191 41.0762 51.7075 41.4479C51.5975 41.812 51.4125 42.2245 51.0841 42.5504C50.7541 42.8762 50.3399 43.0554 49.9749 43.1587C49.6033 43.2646 49.2199 43.3087 48.8908 43.3254C48.5189 43.3434 48.1462 43.3337 47.7757 43.2962L47.7491 43.2937V44.1679C47.7491 44.3889 47.6613 44.6009 47.505 44.7572C47.3487 44.9134 47.1367 45.0012 46.9157 45.0012C46.6947 45.0012 46.4827 44.9134 46.3265 44.7572C46.1702 44.6009 46.0824 44.3889 46.0824 44.1679V37.4595L46.0557 37.462C45.6853 37.4994 45.3126 37.5092 44.9407 37.4911C44.5745 37.4758 44.2112 37.4199 43.8574 37.3245C43.4907 37.2211 43.0773 37.042 42.7482 36.7161C42.419 36.3903 42.234 35.9778 42.124 35.6136C42.0218 35.2587 41.9584 34.8938 41.9348 34.5253C41.9064 34.1248 41.9092 33.7228 41.9432 33.3227L41.9457 33.3002L41.9465 33.2927V33.2894C41.9882 32.9069 42.2848 32.6019 42.6657 32.5511H42.669L42.6765 32.5494L42.699 32.5469L42.7757 32.5386C43.1461 32.5011 43.5188 32.4914 43.8907 32.5094C44.2199 32.5261 44.6032 32.5702 44.974 32.6761C45.3399 32.7794 45.7532 32.9577 46.0824 33.2836V25.3801C45.8612 25.1777 45.6514 24.9633 45.454 24.7376C45.1941 24.4446 44.9669 24.1241 44.7765 23.7818C44.5849 23.4259 44.4157 22.9843 44.4157 22.5009C44.4157 22.0176 44.584 21.5751 44.7765 21.2192C44.9715 20.8576 45.2215 20.5309 45.454 20.2634C45.7352 19.9426 46.0411 19.6445 46.3691 19.3717L46.3874 19.3567L46.3932 19.3517L46.3957 19.3501C46.6999 19.1084 47.1316 19.1076 47.4357 19.3492L47.4382 19.3517L47.4441 19.3559L47.4624 19.3717C47.5564 19.4487 47.6481 19.5284 47.7374 19.6109C47.9107 19.7692 48.1424 19.9942 48.3774 20.2634C48.6108 20.5301 48.8599 20.8576 49.0549 21.2192C49.2466 21.5751 49.4158 22.0176 49.4158 22.5009C49.4158 22.9843 49.2474 23.4268 49.0549 23.7826C48.8645 24.1249 48.6374 24.4455 48.3774 24.7385ZM47.1207 23.6434C47.0543 23.7196 46.9859 23.7941 46.9157 23.8668C46.8455 23.7941 46.7772 23.7196 46.7107 23.6434C46.5316 23.4434 46.3746 23.2246 46.2424 22.9909C46.1224 22.7676 46.0824 22.6043 46.0824 22.5009C46.0824 22.3976 46.1224 22.2343 46.2424 22.0109C46.3599 21.7943 46.5266 21.5693 46.7107 21.3584C46.7799 21.2792 46.8491 21.2042 46.9157 21.1351C46.9824 21.2042 47.0516 21.2792 47.1207 21.3584C47.3041 21.5701 47.4716 21.7943 47.5891 22.0109C47.7091 22.2343 47.7491 22.3976 47.7491 22.5009C47.7491 22.6043 47.7091 22.7676 47.5891 22.9909C47.4716 23.2076 47.3049 23.4326 47.1207 23.6434ZM49.3116 40.1137C49.0941 40.1753 48.9758 40.2487 48.9199 40.3037C48.8641 40.3587 48.7866 40.4803 48.7199 40.7029C48.6533 40.9406 48.6122 41.1847 48.5974 41.4312C48.5915 41.51 48.5874 41.5889 48.5849 41.6679C48.6586 41.6672 48.7322 41.665 48.8058 41.6612C49.0608 41.6479 49.3099 41.6154 49.5199 41.5554C49.7374 41.4937 49.8566 41.4204 49.9116 41.3654C49.9674 41.3104 50.0449 41.1887 50.1116 40.9662C50.1783 40.7285 50.2193 40.4843 50.2341 40.2378C50.24 40.1591 50.2441 40.0801 50.2466 40.0012C50.173 40.0018 50.0993 40.004 50.0258 40.0078C49.7846 40.0169 49.5451 40.0524 49.3116 40.1137ZM48.9199 28.6369C48.9758 28.5819 49.0941 28.5085 49.3116 28.4468C49.5224 28.3868 49.7716 28.3543 50.0258 28.341C50.1008 28.3368 50.1758 28.3352 50.2466 28.3343C50.2441 28.4133 50.24 28.4922 50.2341 28.571C50.2149 28.8302 50.1758 29.0852 50.1116 29.2994C50.0449 29.5219 49.9674 29.6427 49.9116 29.6985C49.8566 29.7535 49.7374 29.8269 49.5199 29.8885C49.2864 29.9498 49.047 29.9853 48.8058 29.9944C48.7322 29.9982 48.6586 30.0004 48.5849 30.001C48.5874 29.9244 48.5916 29.8452 48.5974 29.7644C48.6166 29.5052 48.6558 29.2502 48.7199 29.036C48.7866 28.8135 48.8641 28.6927 48.9199 28.6369ZM43.5848 34.1678C43.5873 34.2444 43.5915 34.3236 43.5973 34.4044C43.6165 34.6636 43.6557 34.9186 43.7198 35.1328C43.7865 35.3553 43.864 35.4761 43.9198 35.5319C43.9757 35.5869 44.094 35.6603 44.3115 35.7219C44.5224 35.7819 44.7715 35.8145 45.0257 35.8278C45.1007 35.832 45.1757 35.8336 45.2465 35.8345C45.2441 35.7555 45.2399 35.6766 45.234 35.5978C45.2193 35.3513 45.1782 35.1072 45.1115 34.8694C45.0449 34.6469 44.9674 34.5261 44.9115 34.4703C44.8565 34.4153 44.7374 34.3419 44.5199 34.2803C44.2864 34.219 44.0469 34.1835 43.8057 34.1744C43.7321 34.1706 43.6585 34.1684 43.5848 34.1678Z" fill="#F7F7F7"/>
</svg>
