<svg width="81" height="68" viewBox="0 0 81 68" fill="none" xmlns="http://www.w3.org/2000/svg">
<g filter="url(#filter0_d_1386_1550)">
<rect x="4" width="73" height="60" rx="20" fill="#2D2636" shape-rendering="crispEdges"/>
<path fill-rule="evenodd" clip-rule="evenodd" d="M37.9974 21.6668C38.8815 21.6668 39.7294 21.3156 40.3545 20.6904C40.9796 20.0653 41.3308 19.2174 41.3308 18.3334C41.3308 17.4493 40.9796 16.6015 40.3545 15.9763C39.7294 15.3512 38.8815 15 37.9974 15C37.1134 15 36.2655 15.3512 35.6404 15.9763C35.0153 16.6015 34.6641 17.4493 34.6641 18.3334C34.6641 19.2174 35.0153 20.0653 35.6404 20.6904C36.2655 21.3156 37.1134 21.6668 37.9974 21.6668ZM37.9974 20.0001C38.4395 20.0001 38.8634 19.8245 39.176 19.5119C39.4885 19.1993 39.6641 18.7754 39.6641 18.3334C39.6641 17.8913 39.4885 17.4674 39.176 17.1549C38.8634 16.8423 38.4395 16.6667 37.9974 16.6667C37.5554 16.6667 37.1315 16.8423 36.8189 17.1549C36.5064 17.4674 36.3308 17.8913 36.3308 18.3334C36.3308 18.7754 36.5064 19.1993 36.8189 19.5119C37.1315 19.8245 37.5554 20.0001 37.9974 20.0001Z" fill="#F7F7F7" fill-opacity="0.2"/>
<path d="M43.4167 28.3347C43.4167 27.8926 43.2411 27.4687 42.9285 27.1561C42.616 26.8436 42.192 26.668 41.75 26.668V30.0013C42.192 30.0013 42.616 29.8258 42.9285 29.5132C43.2411 29.2006 43.4167 28.7767 43.4167 28.3347Z" fill="#F7F7F7" fill-opacity="0.2"/>
<path fill-rule="evenodd" clip-rule="evenodd" d="M30.0821 39.1678C30.0823 38.6506 29.922 38.1461 29.6236 37.7238C29.3251 37.3014 28.903 36.982 28.4154 36.8095V28.3343H32.5821V42.5012C32.5821 43.1643 32.8455 43.8002 33.3144 44.269C33.7832 44.7378 34.4191 45.0012 35.0822 45.0012C35.7452 45.0012 36.3811 44.7378 36.85 44.269C37.3188 43.8002 37.5822 43.1643 37.5822 42.5012V35.8345H38.4156V42.5012C38.4156 43.0854 38.6156 43.6229 38.9522 44.0487C39.2739 44.4568 39.7147 44.7544 40.2133 44.9004C40.7119 45.0463 41.2437 45.0333 41.7346 44.8631C42.2255 44.6929 42.6511 44.374 42.9524 43.9507C43.2537 43.5274 43.4156 43.0208 43.4156 42.5012V33.0994C44.7181 32.4994 46.749 30.7594 46.749 27.9768C46.749 24.471 43.5231 23.3343 42.5948 23.3343H28.4154V20.8342H26.7487V23.971C26.237 24.4293 25.9154 25.0943 25.9154 25.8343C25.9149 26.1861 25.9889 26.5341 26.1325 26.8552C26.2761 27.1764 26.4861 27.4635 26.7487 27.6977V36.8103C26.2613 36.9828 25.8393 37.3021 25.5408 37.7243C25.2423 38.1465 25.0821 38.6508 25.082 39.1678V44.1679H26.7487V40.8345H28.4154V44.1679H30.0821V39.1678ZM41.7489 32.0319L42.7181 31.5852C43.6715 31.1461 45.0823 29.8794 45.0823 27.9768C45.0823 26.8152 44.5781 26.1118 43.9923 25.6526C43.7078 25.4312 43.3915 25.2542 43.0539 25.1276C42.9078 25.0705 42.7562 25.0286 42.6014 25.0026C42.5898 25.001 42.5881 25.001 42.5948 25.001H28.4154V26.6677H34.2488V42.5012C34.2488 42.7222 34.3366 42.9342 34.4929 43.0905C34.6492 43.2468 34.8612 43.3346 35.0822 43.3346C35.3032 43.3346 35.5152 43.2468 35.6714 43.0905C35.8277 42.9342 35.9155 42.7222 35.9155 42.5012V34.1678H40.0822V42.5012C40.0822 42.7222 40.17 42.9342 40.3263 43.0905C40.4826 43.2468 40.6946 43.3346 40.9156 43.3346C41.1366 43.3346 41.3486 43.2468 41.5049 43.0905C41.6611 42.9342 41.7489 42.7222 41.7489 42.5012V32.0319ZM52.3774 24.7385C52.18 24.9638 51.9702 25.178 51.7491 25.3801V27.451C52.0782 27.126 52.4924 26.9468 52.8574 26.8427C53.2283 26.7377 53.6116 26.6927 53.9408 26.676C54.3384 26.6571 54.7369 26.6699 55.1325 26.7143L55.155 26.7168L55.1625 26.7177H55.1658C55.5466 26.7693 55.8441 27.0743 55.885 27.4568V27.4677L55.8883 27.4902C55.8994 27.6043 55.9067 27.7188 55.91 27.8335C55.9183 28.0535 55.9208 28.3577 55.8966 28.6927C55.8716 29.0244 55.8191 29.4094 55.7075 29.781C55.5975 30.1452 55.4125 30.5577 55.0841 30.8827C54.7541 31.2094 54.3399 31.3886 53.9749 31.4919C53.6033 31.5977 53.2199 31.6419 52.8908 31.6586C52.5189 31.6766 52.1462 31.6668 51.7757 31.6294L51.7491 31.6269V39.1178C52.0782 38.7928 52.4924 38.6137 52.8574 38.5095C53.2283 38.4045 53.6116 38.3595 53.9408 38.3428C54.3384 38.3239 54.7369 38.3367 55.1325 38.3812L55.155 38.3837L55.1625 38.3845H55.1658C55.5466 38.4362 55.8441 38.7412 55.885 39.1237V39.1345L55.8883 39.157C55.8994 39.2712 55.9067 39.3857 55.91 39.5003C55.9183 39.7203 55.9208 40.0245 55.8966 40.3595C55.8716 40.6912 55.8191 41.0762 55.7075 41.4479C55.5975 41.812 55.4125 42.2245 55.0841 42.5504C54.7541 42.8762 54.3399 43.0554 53.9749 43.1587C53.6033 43.2646 53.2199 43.3087 52.8908 43.3254C52.5189 43.3434 52.1462 43.3337 51.7757 43.2962L51.7491 43.2937V44.1679C51.7491 44.3889 51.6613 44.6009 51.505 44.7572C51.3487 44.9134 51.1367 45.0012 50.9157 45.0012C50.6947 45.0012 50.4827 44.9134 50.3265 44.7572C50.1702 44.6009 50.0824 44.3889 50.0824 44.1679V37.4595L50.0557 37.462C49.6853 37.4994 49.3126 37.5092 48.9407 37.4911C48.5745 37.4758 48.2112 37.4199 47.8574 37.3245C47.4907 37.2211 47.0773 37.042 46.7482 36.7161C46.419 36.3903 46.234 35.9778 46.124 35.6136C46.0218 35.2587 45.9584 34.8938 45.9348 34.5253C45.9064 34.1248 45.9092 33.7228 45.9432 33.3227L45.9457 33.3002L45.9465 33.2927V33.2894C45.9882 32.9069 46.2848 32.6019 46.6657 32.5511H46.669L46.6765 32.5494L46.699 32.5469L46.7757 32.5386C47.1461 32.5011 47.5188 32.4914 47.8907 32.5094C48.2199 32.5261 48.6032 32.5702 48.974 32.6761C49.3399 32.7794 49.7532 32.9577 50.0824 33.2836V25.3801C49.8612 25.1777 49.6514 24.9633 49.454 24.7376C49.1941 24.4446 48.9669 24.1241 48.7765 23.7818C48.5849 23.4259 48.4157 22.9843 48.4157 22.5009C48.4157 22.0176 48.584 21.5751 48.7765 21.2192C48.9715 20.8576 49.2215 20.5309 49.454 20.2634C49.7352 19.9426 50.0411 19.6445 50.3691 19.3717L50.3874 19.3567L50.3932 19.3517L50.3957 19.3501C50.6999 19.1084 51.1316 19.1076 51.4357 19.3492L51.4382 19.3517L51.4441 19.3559L51.4624 19.3717C51.5564 19.4487 51.6481 19.5284 51.7374 19.6109C51.9107 19.7692 52.1424 19.9942 52.3774 20.2634C52.6108 20.5301 52.8599 20.8576 53.0549 21.2192C53.2466 21.5751 53.4158 22.0176 53.4158 22.5009C53.4158 22.9843 53.2474 23.4268 53.0549 23.7826C52.8645 24.1249 52.6374 24.4455 52.3774 24.7385ZM51.1207 23.6434C51.0543 23.7196 50.9859 23.7941 50.9157 23.8668C50.8455 23.7941 50.7772 23.7196 50.7107 23.6434C50.5316 23.4434 50.3746 23.2246 50.2424 22.9909C50.1224 22.7676 50.0824 22.6043 50.0824 22.5009C50.0824 22.3976 50.1224 22.2343 50.2424 22.0109C50.3599 21.7943 50.5266 21.5693 50.7107 21.3584C50.7799 21.2792 50.8491 21.2042 50.9157 21.1351C50.9824 21.2042 51.0516 21.2792 51.1207 21.3584C51.3041 21.5701 51.4716 21.7943 51.5891 22.0109C51.7091 22.2343 51.7491 22.3976 51.7491 22.5009C51.7491 22.6043 51.7091 22.7676 51.5891 22.9909C51.4716 23.2076 51.3049 23.4326 51.1207 23.6434ZM53.3116 40.1137C53.0941 40.1753 52.9758 40.2487 52.9199 40.3037C52.8641 40.3587 52.7866 40.4803 52.7199 40.7029C52.6533 40.9406 52.6122 41.1847 52.5974 41.4312C52.5915 41.51 52.5874 41.5889 52.5849 41.6679C52.6586 41.6672 52.7322 41.665 52.8058 41.6612C53.0608 41.6479 53.3099 41.6154 53.5199 41.5554C53.7374 41.4937 53.8566 41.4204 53.9116 41.3654C53.9674 41.3104 54.0449 41.1887 54.1116 40.9662C54.1783 40.7285 54.2193 40.4843 54.2341 40.2378C54.24 40.1591 54.2441 40.0801 54.2466 40.0012C54.173 40.0018 54.0993 40.004 54.0258 40.0078C53.7846 40.0169 53.5451 40.0524 53.3116 40.1137ZM52.9199 28.6369C52.9758 28.5819 53.0941 28.5085 53.3116 28.4468C53.5224 28.3868 53.7716 28.3543 54.0258 28.341C54.1008 28.3368 54.1758 28.3352 54.2466 28.3343C54.2441 28.4133 54.24 28.4922 54.2341 28.571C54.2149 28.8302 54.1758 29.0852 54.1116 29.2994C54.0449 29.5219 53.9674 29.6427 53.9116 29.6985C53.8566 29.7535 53.7374 29.8269 53.5199 29.8885C53.2864 29.9498 53.047 29.9853 52.8058 29.9944C52.7322 29.9982 52.6586 30.0004 52.5849 30.001C52.5874 29.9244 52.5916 29.8452 52.5974 29.7644C52.6166 29.5052 52.6558 29.2502 52.7199 29.036C52.7866 28.8135 52.8641 28.6927 52.9199 28.6369ZM47.5848 34.1678C47.5873 34.2444 47.5915 34.3236 47.5973 34.4044C47.6165 34.6636 47.6557 34.9186 47.7198 35.1328C47.7865 35.3553 47.864 35.4761 47.9198 35.5319C47.9757 35.5869 48.094 35.6603 48.3115 35.7219C48.5224 35.7819 48.7715 35.8145 49.0257 35.8278C49.1007 35.832 49.1757 35.8336 49.2465 35.8345C49.2441 35.7555 49.2399 35.6766 49.234 35.5978C49.2193 35.3513 49.1782 35.1072 49.1115 34.8694C49.0449 34.6469 48.9674 34.5261 48.9115 34.4703C48.8565 34.4153 48.7374 34.3419 48.5199 34.2803C48.2864 34.219 48.0469 34.1835 47.8057 34.1744C47.7321 34.1706 47.6585 34.1684 47.5848 34.1678Z" fill="#F7F7F7" fill-opacity="0.2"/>
</g>
<defs>
<filter id="filter0_d_1386_1550" x="0" y="0" width="81" height="68" filterUnits="userSpaceOnUse" color-interpolation-filters="sRGB">
<feFlood flood-opacity="0" result="BackgroundImageFix"/>
<feColorMatrix in="SourceAlpha" type="matrix" values="0 0 0 0 0 0 0 0 0 0 0 0 0 0 0 0 0 0 127 0" result="hardAlpha"/>
<feOffset dy="4"/>
<feGaussianBlur stdDeviation="2"/>
<feComposite in2="hardAlpha" operator="out"/>
<feColorMatrix type="matrix" values="0 0 0 0 0 0 0 0 0 0 0 0 0 0 0 0 0 0 0.25 0"/>
<feBlend mode="normal" in2="BackgroundImageFix" result="effect1_dropShadow_1386_1550"/>
<feBlend mode="normal" in="SourceGraphic" in2="effect1_dropShadow_1386_1550" result="shape"/>
</filter>
</defs>
</svg>
