<svg width="74" height="60" viewBox="0 0 74 60" fill="none" xmlns="http://www.w3.org/2000/svg">
<rect x="0.5" width="73" height="60" rx="20" fill="#2D2636"/>
<path d="M40.587 44.3616C37.3261 41.8082 37.9783 37.3398 37.9783 37.3398L29.5 36.0631V35.7439L31.2517 32.4857C32.2429 30.6426 32.7608 28.5911 32.7609 26.5082C32.7609 25.487 33.1753 24.5076 33.9131 23.7855C34.6508 23.0634 35.6514 22.6577 36.6948 22.6577H38.6304V26.4878L39.3426 26.6627C40.2566 26.8864 41.0681 27.4027 41.648 28.1295C42.2279 28.8563 42.5431 29.7519 42.5435 30.6741C42.5435 32.1168 42.9126 33.5339 43.6183 34.8004L44.5 36.3822V36.7014L40.587 37.3398M34.0652 45C34.0652 42.9407 34.3639 40.7575 35.3696 39.025M36.4783 20.1043C36.4783 20.1043 34.3913 18.8276 34.3913 17.2317C34.3913 16.6398 34.6315 16.0722 35.0591 15.6536C35.4867 15.2351 36.0666 15 36.6713 15C37.276 15 37.8559 15.2351 38.2835 15.6536C38.7111 16.0722 38.9513 16.6398 38.9513 17.2317C38.9513 18.8276 36.8696 20.1043 36.8696 20.1043H36.4783Z" stroke="#F7F7F7" stroke-width="2"/>
</svg>
