<svg width="73" height="60" viewBox="0 0 73 60" fill="none" xmlns="http://www.w3.org/2000/svg">
<rect width="73" height="60" rx="20" fill="#2D2636"/>
<path fill-rule="evenodd" clip-rule="evenodd" d="M42.0078 18.7499C42.0078 17.7554 42.4029 16.8016 43.1061 16.0983C43.8094 15.3951 44.7632 15 45.7578 15C46.7523 15 47.7061 15.3951 48.4094 16.0983C49.1126 16.8016 49.5077 17.7554 49.5077 18.7499C49.5077 19.7445 49.1126 20.6983 48.4094 21.4016C47.7061 22.1048 46.7523 22.4999 45.7578 22.4999C44.7632 22.4999 43.8094 22.1048 43.1061 21.4016C42.4029 20.6983 42.0078 19.7445 42.0078 18.7499ZM45.7578 16.5C45.161 16.5 44.5887 16.737 44.1668 17.159C43.7448 17.5809 43.5078 18.1532 43.5078 18.7499C43.5078 19.3467 43.7448 19.919 44.1668 20.3409C44.5887 20.7629 45.161 20.9999 45.7578 20.9999C46.3545 20.9999 46.9268 20.7629 47.3487 20.3409C47.7707 19.919 48.0077 19.3467 48.0077 18.7499C48.0077 18.1532 47.7707 17.5809 47.3487 17.159C46.9268 16.737 46.3545 16.5 45.7578 16.5Z" fill="#F7F7F7"/>
<path d="M42.5096 26.5938L42.3806 27.4735C42.2569 28.3172 42.0184 29.4272 41.7319 30.6129L41.4979 31.5827L40.6317 31.0892C40.4303 30.9753 40.2458 30.834 40.0834 30.6692C39.6147 30.1899 39.3769 29.5435 39.3829 28.8812C39.3856 28.2087 39.649 27.5634 40.1179 27.0812C40.3677 26.827 40.6984 26.7317 40.9129 26.6867C41.1529 26.6365 41.4064 26.62 41.6201 26.6148L42.5096 26.5938Z" fill="#F7F7F7"/>
<path fill-rule="evenodd" clip-rule="evenodd" d="M37.9828 24.975C39.0688 23.8732 40.5927 23.25 42.3642 23.25H47.6419C51.4263 23.25 53.797 24.6247 55.1643 26.3535C55.9113 27.2977 56.4947 28.5089 56.623 29.7809V29.7869L56.6245 29.8004V29.8079L56.6252 29.8094V29.8139L56.6275 29.8364V29.8387C56.6605 30.2961 56.5547 30.7311 56.3448 31.1039C56.6633 31.3072 56.9254 31.5875 57.1069 31.9188C57.2885 32.2502 57.3836 32.622 57.3835 32.9999V44.2497C57.3835 44.4486 57.3045 44.6394 57.1638 44.78C57.0232 44.9207 56.8324 44.9997 56.6335 44.9997C56.4346 44.9997 56.2438 44.9207 56.1032 44.78C55.9625 44.6394 55.8835 44.4486 55.8835 44.2497V32.9999C55.8835 32.8009 55.8045 32.6102 55.6638 32.4695C55.5232 32.3289 55.3324 32.2499 55.1335 32.2499C54.9346 32.2499 54.7438 32.3289 54.6032 32.4695C54.4625 32.6102 54.3835 32.8009 54.3835 32.9999V33.2571C54.3835 33.456 54.3045 33.6468 54.1639 33.7874C54.0232 33.9281 53.8324 34.0071 53.6335 34.0071C53.4346 34.0071 53.2439 33.9281 53.1032 33.7874C52.9626 33.6468 52.8836 33.456 52.8836 33.2571V32.9999C52.8836 32.6009 52.9871 32.2266 53.1693 31.9019C53.0159 31.7922 52.879 31.6612 52.7628 31.5126C52.4336 31.0971 52.2663 30.5616 52.1501 30.1874L52.1336 30.1371L52.0841 29.9811C51.9864 29.6785 51.8353 29.3958 51.6378 29.1464C51.3828 28.8239 50.9201 28.3882 50.0388 28.0889C50.6163 30.9479 52.0428 35.9871 52.6181 37.9805C52.6771 38.185 52.6919 38.3998 52.6612 38.6105C52.6306 38.8212 52.5553 39.0229 52.4404 39.2021C52.3255 39.3813 52.1737 39.5339 51.9951 39.6497C51.8164 39.7655 51.6151 39.8418 51.4046 39.8735C46.8476 40.5665 43.9264 40.5905 39.3605 39.878C39.1497 39.8453 38.9483 39.7677 38.7699 39.6507C38.5915 39.5336 38.4402 39.3797 38.3262 39.1993C38.2123 39.0189 38.1382 38.8162 38.1091 38.6048C38.08 38.3934 38.0965 38.1783 38.1575 37.9738C38.4253 37.0715 38.8805 35.5138 39.3485 33.8076C38.8269 33.5392 38.3517 33.189 37.9408 32.7704C36.869 31.6761 36.3703 30.2429 36.3831 28.8532C36.393 27.4018 36.9663 26.011 37.982 24.9742L37.9828 24.975ZM55.1275 29.9099L55.129 29.9624V29.9871C55.1298 30.0024 55.131 30.0177 55.1328 30.0329C55.1249 30.215 55.0509 30.388 54.9248 30.5195C54.7986 30.651 54.6289 30.7321 54.4473 30.7476C54.2598 30.7626 54.1563 30.7364 54.0993 30.7124C54.0353 30.684 53.9799 30.6393 53.9388 30.5826C53.8008 30.4079 53.7055 30.1356 53.566 29.6887L53.5135 29.5252C53.3612 29.0503 53.1247 28.6068 52.8153 28.2157C52.2363 27.4837 51.1803 26.6519 49.2146 26.3595L48.2224 26.2117L48.3611 27.2047C48.7181 29.7569 50.5316 36.1581 51.1758 38.3915C46.7659 39.062 43.9999 39.0838 39.5975 38.396C39.8997 37.379 40.4375 35.5363 40.9662 33.5803L41.144 32.9219L40.5057 32.6819C39.9436 32.475 39.434 32.1467 39.0133 31.7204C38.243 30.9344 37.874 29.8949 37.8838 28.8674C37.8899 27.8052 38.3083 26.7869 39.0508 26.0272C39.8285 25.2397 40.9557 24.75 42.3642 24.75H47.6419C51.0258 24.75 52.9398 25.9582 53.9883 27.2842C54.5928 28.0492 55.0308 28.9889 55.1283 29.9091L55.1275 29.9099Z" fill="#F7F7F7"/>
<path d="M42.2328 44.9054C41.9629 44.8691 41.7154 44.7362 41.5361 44.5312C41.3568 44.3263 41.2579 44.0633 41.2578 43.791V41.2605C42.2808 41.4127 43.2303 41.5102 44.158 41.5552L43.468 44.0865C43.3963 44.3495 43.2315 44.5775 43.0043 44.7281C42.7771 44.8787 42.503 44.9418 42.2328 44.9054ZM47.2967 44.0865L46.6045 41.55C47.5762 41.496 48.5447 41.3959 49.5069 41.25V43.791C49.5074 44.0638 49.4086 44.3276 49.2291 44.533C49.0496 44.7385 48.8015 44.8717 48.531 44.9079C48.2605 44.944 47.9861 44.8806 47.7589 44.7295C47.5317 44.5784 47.3679 44.3499 47.2967 44.0865Z" fill="#F7F7F7"/>
<path fill-rule="evenodd" clip-rule="evenodd" d="M32.1172 34.537C32.1172 33.9403 32.3542 33.368 32.7762 32.9461C33.1981 32.5242 33.7704 32.2871 34.3671 32.2871C34.9638 32.2871 35.5361 32.5242 35.9581 32.9461C36.38 33.368 36.617 33.9403 36.617 34.537V44.2462C36.617 44.4451 36.538 44.6359 36.3974 44.7765C36.2567 44.9172 36.066 44.9962 35.8671 44.9962C35.6682 44.9962 35.4774 44.9172 35.3368 44.7765C35.1961 44.6359 35.1171 44.4451 35.1171 44.2462V34.537C35.1171 34.3381 35.0381 34.1474 34.8974 34.0067C34.7568 33.8661 34.566 33.7871 34.3671 33.7871C34.1682 33.7871 33.9774 33.8661 33.8368 34.0067C33.6962 34.1474 33.6171 34.3381 33.6171 34.537V34.7943C33.6171 34.9932 33.5381 35.1839 33.3975 35.3246C33.2568 35.4652 33.0661 35.5443 32.8672 35.5443C32.6683 35.5443 32.4775 35.4652 32.3368 35.3246C32.1962 35.1839 32.1172 34.9932 32.1172 34.7943V34.537Z" fill="#F7F7F7"/>
<path fill-rule="evenodd" clip-rule="evenodd" d="M21.8086 24.7497C20.3267 24.7497 19.1432 25.2447 18.3302 26.0374C17.9512 26.4057 17.6489 26.8455 17.4407 27.3313C17.2326 27.8171 17.1227 28.3393 17.1175 28.8678C17.1107 29.3963 17.2112 29.9206 17.4128 30.4092C17.6144 30.8977 17.913 31.3403 18.2905 31.7102C19.0727 32.4774 20.2082 32.9612 21.6361 32.9972L22.3673 33.0159V42.9493C22.3673 43.1496 22.5818 43.4788 23.0791 43.4983C23.5785 43.5178 23.8425 43.2006 23.865 42.9883L24.5985 35.9993H27.6359L28.3694 42.9891C28.3919 43.2006 28.6559 43.5178 29.1554 43.4983C29.6526 43.4788 29.8671 43.1496 29.8671 42.9493V26.4356L30.9276 26.9179C31.7548 27.2936 32.2925 27.7728 32.648 28.2041C33.038 28.6788 33.4085 29.3283 33.5052 30.0423L33.5067 30.0573L33.5082 30.0693C33.5472 30.4533 33.9132 30.7847 34.3827 30.7465C34.8327 30.7105 35.1529 30.322 35.1199 29.9373C35.0868 29.6437 35.0204 29.3548 34.9219 29.0763C34.7045 28.4269 34.3695 27.8231 33.9335 27.2951C32.84 25.9661 30.8383 24.7497 27.2992 24.7497H21.8086ZM17.2832 24.9634C18.4082 23.867 19.9832 23.2497 21.8086 23.2497H27.2984C31.217 23.2497 33.6717 24.6162 35.0922 26.3419C35.6455 27.0125 36.0705 27.7793 36.3461 28.6038C36.4661 28.9668 36.5741 29.3718 36.6131 29.8023V29.8053C36.7279 31.1005 35.7004 32.1452 34.5027 32.2419C33.2757 32.3402 32.1508 31.4732 32.0173 30.235C31.9678 29.887 31.7668 29.4948 31.4893 29.1573C31.4501 29.1097 31.4093 29.0634 31.367 29.0185V42.9493C31.367 44.1381 30.3201 44.9533 29.2146 44.9968C28.1121 45.0403 27.0007 44.3173 26.8777 43.1443L26.2852 37.4993H25.9492L25.3567 43.1451C25.2337 44.3173 24.1223 45.0403 23.0198 44.9975C21.9144 44.954 20.8674 44.1381 20.8674 42.9493V34.4446C19.4237 34.2721 18.175 33.6984 17.2398 32.7797C16.7185 32.2686 16.306 31.6572 16.0272 30.9825C15.7484 30.3078 15.6091 29.5836 15.6176 28.8536C15.6247 28.1275 15.7755 27.41 16.0612 26.7424C16.347 26.0749 16.7621 25.4705 17.2825 24.9642L17.2832 24.9634ZM22.3673 26.2174V31.5295L21.5844 31.495C20.5899 31.45 19.9067 31.1125 19.4657 30.6797C19.2288 30.4448 19.0419 30.1644 18.9164 29.8553C18.7909 29.5462 18.7292 29.2149 18.7352 28.8813C18.7373 28.5439 18.8062 28.2103 18.9377 27.8996C19.0692 27.5889 19.2609 27.3072 19.5017 27.0709C19.9494 26.6351 20.6259 26.3006 21.5814 26.2549L22.3673 26.2174ZM20.8674 27.9281C20.6795 28.0109 20.5198 28.1465 20.4076 28.3184C20.2953 28.4902 20.2354 28.691 20.2352 28.8963C20.2322 29.1843 20.3379 29.4348 20.5164 29.6088C20.5869 29.6785 20.6979 29.764 20.8674 29.8368V27.9281ZM26.1172 16.5C25.5205 16.5 24.9482 16.737 24.5263 17.1589C24.1043 17.5809 23.8673 18.1532 23.8673 18.7499C23.8673 19.3466 24.1043 19.9189 24.5263 20.3408C24.9482 20.7628 25.5205 20.9998 26.1172 20.9998C26.7139 20.9998 27.2862 20.7628 27.7082 20.3408C28.1301 19.9189 28.3671 19.3466 28.3671 18.7499C28.3671 18.1532 28.1301 17.5809 27.7082 17.1589C27.2862 16.737 26.7139 16.5 26.1172 16.5ZM22.3673 18.7499C22.3673 17.7553 22.7624 16.8016 23.4656 16.0983C24.1689 15.3951 25.1227 15 26.1172 15C27.1117 15 28.0655 15.3951 28.7688 16.0983C29.472 16.8016 29.8671 17.7553 29.8671 18.7499C29.8671 19.7444 29.472 20.6982 28.7688 21.4014C28.0655 22.1047 27.1117 22.4998 26.1172 22.4998C25.1227 22.4998 24.1689 22.1047 23.4656 21.4014C22.7624 20.6982 22.3673 19.7444 22.3673 18.7499Z" fill="#F7F7F7"/>
</svg>
