<svg width="74" height="60" viewBox="0 0 74 60" fill="none" xmlns="http://www.w3.org/2000/svg">
<rect x="0.5" width="73" height="60" rx="20" fill="#2D2636"/>
<path fill-rule="evenodd" clip-rule="evenodd" d="M31.7657 34.9123C31.8849 34.8773 31.9599 34.8406 31.9991 34.8148V30.834H33.6657V34.8148C33.7049 34.8398 33.7799 34.8773 33.8991 34.9123C34.0657 34.959 34.237 34.9872 34.4099 34.9965C34.4007 33.6548 34.4716 31.3748 36.3724 31.3748C39.114 31.3748 41.0724 40.944 39.8974 41.9198C38.7224 42.8965 36.3724 42.3106 35.1974 41.139C34.3016 40.2448 34.3249 38.2223 34.3807 36.664C34.0599 36.6489 33.7419 36.598 33.4324 36.5123C33.2226 36.4529 33.021 36.3676 32.8324 36.2581C32.6438 36.3676 32.4422 36.4529 32.2324 36.5123C31.8967 36.6086 31.5499 36.6607 31.2007 36.6673H31.1974C31.2524 38.2256 31.2749 40.2456 30.3799 41.139C29.2049 42.3106 26.8549 42.8965 25.6799 41.9198C24.5049 40.944 26.4632 31.3748 29.2049 31.3748C31.1074 31.3748 31.1766 33.6598 31.1666 34.9998H31.2024C31.3928 34.9917 31.5818 34.9623 31.7657 34.9123ZM36.3041 33.094L36.3091 33.084C36.4332 33.194 36.6091 33.4015 36.8174 33.7465C37.2591 34.4773 37.6741 35.5423 37.9949 36.7198C38.3132 37.8865 38.5107 39.059 38.5632 39.959C38.5824 40.2798 38.5815 40.5365 38.569 40.729C38.3341 40.7601 38.0955 40.75 37.864 40.699C37.2641 40.5823 36.6966 40.2798 36.3741 39.959C36.3741 39.959 36.3516 39.9365 36.3157 39.8665C36.2651 39.7624 36.2252 39.6536 36.1966 39.5415C36.1132 39.2365 36.0616 38.8381 36.0382 38.3581C36.0157 37.8831 36.0241 37.3831 36.0399 36.884L36.0541 36.4923C36.0674 36.1373 36.0807 35.774 36.0807 35.4756C36.0807 35.3648 36.0807 35.254 36.0791 35.1423C36.0749 34.5323 36.0707 33.9181 36.2024 33.3915C36.2261 33.2891 36.2602 33.1894 36.3041 33.094ZM29.2724 33.094L29.2674 33.084C29.1441 33.194 28.9674 33.4015 28.7591 33.7465C28.3174 34.4773 27.9032 35.5423 27.5824 36.7198C27.2641 37.8865 27.0666 39.059 27.0132 39.959C26.9959 40.2153 26.9943 40.4724 27.0082 40.729C27.1649 40.754 27.3949 40.7606 27.7124 40.699C28.3132 40.5823 28.8807 40.2798 29.2032 39.959C29.2032 39.959 29.2257 39.9365 29.2616 39.8665C29.3122 39.7625 29.3521 39.6536 29.3807 39.5415C29.4641 39.2365 29.5157 38.8381 29.5391 38.3581C29.5616 37.8831 29.5532 37.3831 29.5366 36.884L29.5232 36.4923C29.5084 36.1536 29.4995 35.8147 29.4966 35.4756C29.4966 35.3648 29.4966 35.254 29.4982 35.1423C29.5024 34.5323 29.5066 33.9181 29.3749 33.3915C29.3509 33.2891 29.3166 33.1894 29.2724 33.094Z" fill="#F7F7F7"/>
<path d="M43.6667 21.6667C43.6667 21.8877 43.5789 22.0996 43.4226 22.2559C43.2663 22.4122 43.0543 22.5 42.8333 22.5C42.6123 22.5 42.4003 22.4122 42.2441 22.2559C42.0878 22.0996 42 21.8877 42 21.6667C42 21.4456 42.0878 21.2337 42.2441 21.0774C42.4003 20.9211 42.6123 20.8333 42.8333 20.8333C43.0543 20.8333 43.2663 20.9211 43.4226 21.0774C43.5789 21.2337 43.6667 21.4456 43.6667 21.6667ZM45.3333 24.1667C45.3333 24.3877 45.2455 24.5996 45.0892 24.7559C44.933 24.9122 44.721 25 44.5 25C44.279 25 44.067 24.9122 43.9107 24.7559C43.7544 24.5996 43.6667 24.3877 43.6667 24.1667C43.6667 23.9456 43.7544 23.7337 43.9107 23.5774C44.067 23.4211 44.279 23.3333 44.5 23.3333C44.721 23.3333 44.933 23.4211 45.0892 23.5774C45.2455 23.7337 45.3333 23.9456 45.3333 24.1667ZM47 26.6667C47 26.8877 46.9122 27.0996 46.7559 27.2559C46.5996 27.4122 46.3877 27.5 46.1666 27.5C45.9456 27.5 45.7337 27.4122 45.5774 27.2559C45.4211 27.0996 45.3333 26.8877 45.3333 26.6667C45.3333 26.4456 45.4211 26.2337 45.5774 26.0774C45.7337 25.9211 45.9456 25.8333 46.1666 25.8333C46.3877 25.8333 46.5996 25.9211 46.7559 26.0774C46.9122 26.2337 47 26.4456 47 26.6667ZM52 25.8333C52 26.0543 51.9122 26.2663 51.7559 26.4226C51.5996 26.5789 51.3877 26.6667 51.1666 26.6667C50.9456 26.6667 50.7337 26.5789 50.5774 26.4226C50.4211 26.2663 50.3333 26.0543 50.3333 25.8333C50.3333 25.6123 50.4211 25.4003 50.5774 25.2441C50.7337 25.0878 50.9456 25 51.1666 25C51.3877 25 51.5996 25.0878 51.7559 25.2441C51.9122 25.4003 52 25.6123 52 25.8333ZM52 21.6667C52 21.8877 51.9122 22.0996 51.7559 22.2559C51.5996 22.4122 51.3877 22.5 51.1666 22.5C50.9456 22.5 50.7337 22.4122 50.5774 22.2559C50.4211 22.0996 50.3333 21.8877 50.3333 21.6667C50.3333 21.4456 50.4211 21.2337 50.5774 21.0774C50.7337 20.9211 50.9456 20.8333 51.1666 20.8333C51.3877 20.8333 51.5996 20.9211 51.7559 21.0774C51.9122 21.2337 52 21.4456 52 21.6667ZM52 18.3333C52 18.5543 51.9122 18.7663 51.7559 18.9226C51.5996 19.0789 51.3877 19.1667 51.1666 19.1667C50.9456 19.1667 50.7337 19.0789 50.5774 18.9226C50.4211 18.7663 50.3333 18.5543 50.3333 18.3333C50.3333 18.1123 50.4211 17.9004 50.5774 17.7441C50.7337 17.5878 50.9456 17.5 51.1666 17.5C51.3877 17.5 51.5996 17.5878 51.7559 17.7441C51.9122 17.9004 52 18.1123 52 18.3333ZM48.6666 20C48.6666 20.221 48.5788 20.433 48.4226 20.5893C48.2663 20.7455 48.0543 20.8333 47.8333 20.8333C47.6123 20.8333 47.4003 20.7455 47.2441 20.5893C47.0878 20.433 47 20.221 47 20C47 19.779 47.0878 19.567 47.2441 19.4107C47.4003 19.2545 47.6123 19.1667 47.8333 19.1667C48.0543 19.1667 48.2663 19.2545 48.4226 19.4107C48.5788 19.567 48.6666 19.779 48.6666 20ZM48.6666 23.3333C48.6666 23.5543 48.5788 23.7663 48.4226 23.9226C48.2663 24.0789 48.0543 24.1667 47.8333 24.1667C47.6123 24.1667 47.4003 24.0789 47.2441 23.9226C47.0878 23.7663 47 23.5543 47 23.3333C47 23.1123 47.0878 22.9004 47.2441 22.7441C47.4003 22.5878 47.6123 22.5 47.8333 22.5C48.0543 22.5 48.2663 22.5878 48.4226 22.7441C48.5788 22.9004 48.6666 23.1123 48.6666 23.3333ZM42 25.8333C42 26.0543 41.9122 26.2663 41.7559 26.4226C41.5996 26.5789 41.3877 26.6667 41.1667 26.6667C40.9456 26.6667 40.7337 26.5789 40.5774 26.4226C40.4211 26.2663 40.3333 26.0543 40.3333 25.8333C40.3333 25.6123 40.4211 25.4003 40.5774 25.2441C40.7337 25.0878 40.9456 25 41.1667 25C41.3877 25 41.5996 25.0878 41.7559 25.2441C41.9122 25.4003 42 25.6123 42 25.8333ZM36.1667 24.1667C36.1667 24.3877 36.0789 24.5996 35.9226 24.7559C35.7663 24.9122 35.5543 25 35.3333 25C35.1123 25 34.9004 24.9122 34.7441 24.7559C34.5878 24.5996 34.5 24.3877 34.5 24.1667C34.5 23.9456 34.5878 23.7337 34.7441 23.5774C34.9004 23.4211 35.1123 23.3333 35.3333 23.3333C35.5543 23.3333 35.7663 23.4211 35.9226 23.5774C36.0789 23.7337 36.1667 23.9456 36.1667 24.1667ZM33.6667 23.3333C33.6667 23.5543 33.5789 23.7663 33.4226 23.9226C33.2663 24.0789 33.0543 24.1667 32.8333 24.1667C32.6123 24.1667 32.4004 24.0789 32.2441 23.9226C32.0878 23.7663 32 23.5543 32 23.3333C32 23.1123 32.0878 22.9004 32.2441 22.7441C32.4004 22.5878 32.6123 22.5 32.8333 22.5C33.0543 22.5 33.2663 22.5878 33.4226 22.7441C33.5789 22.9004 33.6667 23.1123 33.6667 23.3333Z" fill="#F7F7F7"/>
<path fill-rule="evenodd" clip-rule="evenodd" d="M35.9358 30.0167C35.4938 30.0167 35.0699 29.8411 34.7573 29.5285C34.4447 29.216 34.2691 28.7921 34.2691 28.35V27.5609C34.2691 27.1188 34.4447 26.6949 34.7573 26.3823C35.0699 26.0698 35.4938 25.8942 35.9358 25.8942H36.8191C36.9829 25.8965 37.1415 25.837 37.2633 25.7275C37.3062 25.6899 37.3409 25.6438 37.3652 25.5922C37.3896 25.5406 37.4031 25.4846 37.405 25.4275V25.4209L37.4058 25.2234C37.4081 24.922 37.4095 24.6206 37.41 24.3192L37.4083 24.1675V24.1475C37.389 23.853 37.4468 23.5586 37.576 23.2932C37.7052 23.0278 37.9013 22.8007 38.145 22.6342C37.935 22.1425 37.715 21.6259 37.5066 21.0942C37.4312 20.9017 37.3922 20.6968 37.3916 20.49V20.4784L37.3891 20.405C37.3851 20.309 37.3784 20.2132 37.3691 20.1175C37.3476 19.864 37.3004 19.6132 37.2283 19.3692C36.9712 18.5885 36.4677 17.9124 35.7933 17.4425C35.0787 16.9419 34.2283 16.6713 33.3558 16.6667C32.5144 16.6637 31.6913 16.9118 30.9917 17.3792C30.3302 17.8187 29.8249 18.4564 29.5483 19.2009C29.2871 19.9152 29.2686 20.6958 29.4958 21.4217C29.7364 22.1745 30.2104 22.8313 30.8492 23.2967C31.0585 23.4517 31.2286 23.6535 31.3458 23.8861C31.463 24.1186 31.5241 24.3754 31.5242 24.6359V28.3492C31.5242 28.7912 31.3486 29.2151 31.036 29.5277C30.7234 29.8403 30.2995 30.0159 29.8575 30.0159H27.4992C26.4988 30.0079 25.532 30.3765 24.7908 31.0484C24.0883 31.6959 23.6958 32.5583 23.6667 33.4475V43.3333H42.83V34.2108L42.8308 34.1542C42.8484 33.6327 42.757 33.1133 42.5625 32.6292C42.3608 32.1304 42.06 31.6776 41.6783 31.2984C41.2798 30.902 40.808 30.587 40.2891 30.3709C39.7593 30.1492 39.1925 30.0288 38.6183 30.0159H35.935L35.9358 30.0167ZM39.2675 28.3942C39.8407 28.4628 40.4016 28.6106 40.9341 28.8334C41.6583 29.1375 42.3116 29.575 42.8566 30.12C43.3976 30.6589 43.8237 31.3018 44.1091 32.01C44.3908 32.7117 44.5225 33.46 44.4966 34.2108V45H22V33.4225C22.0367 32.0625 22.6333 30.7709 23.6617 29.8225C24.69 28.875 26.0683 28.3459 27.5033 28.3492H29.8575V24.6359C28.9348 23.9602 28.2509 23.0084 27.905 21.9184C27.569 20.8438 27.5962 19.6884 27.9825 18.6309C28.3794 17.5556 29.1067 16.6338 30.06 15.9975C31.037 15.343 32.1874 14.9957 33.3633 15C34.5784 15.0062 35.7625 15.3839 36.7566 16.0825C37.7366 16.7767 38.4583 17.7492 38.815 18.8592C39.0583 19.615 39.0583 20.485 39.0583 20.485C39.2625 21.0075 39.4808 21.5167 39.6983 22.0267L40.005 22.7667C40.12 22.9675 40.1975 23.185 40.2358 23.41C40.2439 23.561 40.1931 23.7091 40.0941 23.8234C39.9935 23.9421 39.8525 24.0195 39.6983 24.0409C39.6875 24.0409 39.655 24.0359 39.6091 24.0284C39.5641 24.0217 39.5066 24.0117 39.4458 24.0042C39.2683 23.9809 39.0633 23.9667 39.0708 24.0409C39.0833 24.1667 39.0708 25.4367 39.0708 25.4367C39.067 25.888 38.9154 26.3256 38.6391 26.6825L38.6358 26.6867C38.5661 26.7767 38.4895 26.8611 38.4066 26.9392C37.9757 27.3407 37.4081 27.563 36.8191 27.5609H35.9358V28.3492H38.6358C38.8475 28.3534 39.0583 28.3684 39.2675 28.3942Z" fill="#F7F7F7"/>
</svg>
